M48
;GenerationSoftware,Autodesk,EAGLE,9.7.0*%
;CreationDate,2024-10-25T07:42:12Z*%
FMAT,2
ICI,OFF
METRIC,TZ,000.000
T6C0.350
T5C0.650
T4C0.800
T3C0.900
T2C1.016
T1C1.025
%
G90
M71
T1
X97000Y4710
T2
X20000Y5000
X20000Y7540
X56000Y2460
X56000Y5000
X77920Y7730
X77920Y10270
X80460Y7730
X80460Y10270
X83000Y7730
X83000Y10270
X85540Y7730
X85540Y10270
X88080Y7730
X88080Y10270
X56000Y7540
X20000Y2460
X77920Y1730
X77920Y4270
X80460Y1730
X80460Y4270
X83000Y1730
X83000Y4270
X85540Y1730
X85540Y4270
X88080Y1730
X88080Y4270
X78000Y18730
X78000Y21270
T3
X7000Y9500
X7000Y12000
T4
X47750Y14000
X47750Y16000
T5
X6603Y20110
X6603Y25890
T6
X73000Y1000
X61000Y4000
X22000Y25000
X23000Y25000
X22000Y24000
X23000Y24000
X22000Y26000
X23000Y26000
X23000Y27000
X11000Y6000
X11000Y3000
X11000Y2000
X9750Y22250
X64181Y23000
X9250Y23000
X64883Y23000
X9000Y21300
X10300Y26300
X72750Y16000
X76900Y15950
X53000Y18500
X39831Y26750
X75750Y10750
X67500Y17250
X66250Y17250
X59000Y14950
X64000Y24750
X67050Y26000
X85250Y28000
X70500Y27750
X66000Y19750
X65000Y19750
X65500Y4750
X63670Y11000
X56250Y15000
X71750Y14750
X95000Y4250
X72250Y11500
X75750Y7500
X84500Y22000
X66670Y14000
X76000Y20500
X78750Y23000
X93000Y29000
X80250Y19750
X44000Y17000
X63830Y16670
X68000Y25500
X66500Y22750
X66750Y19250
X75500Y17750
X87410Y26660
X67740Y20090
X69000Y25500
X68250Y22250
X67830Y14000
X65750Y9750
X60250Y15713
X67000Y10250
X60000Y15000
X51750Y18250
X51000Y24500
X50750Y28000
X49210Y23054
X43500Y9250
X51000Y8250
X54250Y18500
X50420Y27080
X99000Y2750
X71750Y15670
X31000Y22000
X32750Y22000
X26750Y21000
X32750Y21000
X29250Y19250
X40750Y20250
X28000Y27023
X27000Y10000
X25000Y27023
X26250Y8000
X27500Y16750
X29250Y20250
X38000Y18000
X28500Y22750
X56500Y25500
X52500Y25000
X39000Y18000
X38000Y17000
X39000Y17000
X30000Y14000
X31000Y14000
X22000Y13000
X22000Y14000
X28000Y24000
X43000Y16000
X62000Y21000
X62000Y24000
X71000Y21000
X75000Y24000
X69000Y18000
X59000Y20000
X66500Y14750
X75000Y29000
X93000Y27000
X93000Y25000
X65000Y2000
X68000Y9000
X64000Y15000
X64000Y19000
X95000Y16000
X93000Y16000
X8000Y15000
X4000Y3000
X35000Y27000
X48000Y18000
X16000Y19000
X9600Y20400
X82000Y9000
X84000Y3000
X71000Y1000
X29500Y21500
M30