%TF.GenerationSoftware,KiCad,Pcbnew,8.0.0*%
%TF.CreationDate,2024-10-31T15:18:53+01:00*%
%TF.ProjectId,gateway_design_kicad,67617465-7761-4795-9f64-657369676e5f,rev?*%
%TF.SameCoordinates,Original*%
%TF.FileFunction,Legend,Top*%
%TF.FilePolarity,Positive*%
%FSLAX46Y46*%
G04 Gerber Fmt 4.6, Leading zero omitted, Abs format (unit mm)*
G04 Created by KiCad (PCBNEW 8.0.0) date 2024-10-31 15:18:53*
%MOMM*%
%LPD*%
G01*
G04 APERTURE LIST*
%ADD10C,0.100000*%
%ADD11C,0.150000*%
%ADD12C,0.254000*%
%ADD13C,0.120000*%
%ADD14C,0.200000*%
%ADD15C,0.127000*%
G04 APERTURE END LIST*
D10*
X156850000Y-103750000D02*
X164200000Y-103750000D01*
X164200000Y-108250000D01*
X156850000Y-108250000D01*
X156850000Y-103750000D01*
X157794360Y-104901042D02*
X157751503Y-104943900D01*
X157751503Y-104943900D02*
X157622931Y-104986757D01*
X157622931Y-104986757D02*
X157537217Y-104986757D01*
X157537217Y-104986757D02*
X157408646Y-104943900D01*
X157408646Y-104943900D02*
X157322931Y-104858185D01*
X157322931Y-104858185D02*
X157280074Y-104772471D01*
X157280074Y-104772471D02*
X157237217Y-104601042D01*
X157237217Y-104601042D02*
X157237217Y-104472471D01*
X157237217Y-104472471D02*
X157280074Y-104301042D01*
X157280074Y-104301042D02*
X157322931Y-104215328D01*
X157322931Y-104215328D02*
X157408646Y-104129614D01*
X157408646Y-104129614D02*
X157537217Y-104086757D01*
X157537217Y-104086757D02*
X157622931Y-104086757D01*
X157622931Y-104086757D02*
X157751503Y-104129614D01*
X157751503Y-104129614D02*
X157794360Y-104172471D01*
X158608646Y-104986757D02*
X158180074Y-104986757D01*
X158180074Y-104986757D02*
X158180074Y-104086757D01*
X158908645Y-104986757D02*
X158908645Y-104086757D01*
X159422931Y-104986757D02*
X159037217Y-104472471D01*
X159422931Y-104086757D02*
X158908645Y-104601042D01*
X160665788Y-104643900D02*
X161351503Y-104643900D01*
X161008645Y-104986757D02*
X161008645Y-104301042D01*
X161694360Y-104086757D02*
X162251503Y-104086757D01*
X162251503Y-104086757D02*
X161951503Y-104429614D01*
X161951503Y-104429614D02*
X162080074Y-104429614D01*
X162080074Y-104429614D02*
X162165789Y-104472471D01*
X162165789Y-104472471D02*
X162208646Y-104515328D01*
X162208646Y-104515328D02*
X162251503Y-104601042D01*
X162251503Y-104601042D02*
X162251503Y-104815328D01*
X162251503Y-104815328D02*
X162208646Y-104901042D01*
X162208646Y-104901042D02*
X162165789Y-104943900D01*
X162165789Y-104943900D02*
X162080074Y-104986757D01*
X162080074Y-104986757D02*
X161822931Y-104986757D01*
X161822931Y-104986757D02*
X161737217Y-104943900D01*
X161737217Y-104943900D02*
X161694360Y-104901042D01*
X162508646Y-104086757D02*
X162808646Y-104986757D01*
X162808646Y-104986757D02*
X163108646Y-104086757D01*
X163322932Y-104086757D02*
X163880075Y-104086757D01*
X163880075Y-104086757D02*
X163580075Y-104429614D01*
X163580075Y-104429614D02*
X163708646Y-104429614D01*
X163708646Y-104429614D02*
X163794361Y-104472471D01*
X163794361Y-104472471D02*
X163837218Y-104515328D01*
X163837218Y-104515328D02*
X163880075Y-104601042D01*
X163880075Y-104601042D02*
X163880075Y-104815328D01*
X163880075Y-104815328D02*
X163837218Y-104901042D01*
X163837218Y-104901042D02*
X163794361Y-104943900D01*
X163794361Y-104943900D02*
X163708646Y-104986757D01*
X163708646Y-104986757D02*
X163451503Y-104986757D01*
X163451503Y-104986757D02*
X163365789Y-104943900D01*
X163365789Y-104943900D02*
X163322932Y-104901042D01*
X157280074Y-106435707D02*
X157280074Y-105535707D01*
X157880074Y-105535707D02*
X158051502Y-105535707D01*
X158051502Y-105535707D02*
X158137217Y-105578564D01*
X158137217Y-105578564D02*
X158222931Y-105664278D01*
X158222931Y-105664278D02*
X158265788Y-105835707D01*
X158265788Y-105835707D02*
X158265788Y-106135707D01*
X158265788Y-106135707D02*
X158222931Y-106307135D01*
X158222931Y-106307135D02*
X158137217Y-106392850D01*
X158137217Y-106392850D02*
X158051502Y-106435707D01*
X158051502Y-106435707D02*
X157880074Y-106435707D01*
X157880074Y-106435707D02*
X157794360Y-106392850D01*
X157794360Y-106392850D02*
X157708645Y-106307135D01*
X157708645Y-106307135D02*
X157665788Y-106135707D01*
X157665788Y-106135707D02*
X157665788Y-105835707D01*
X157665788Y-105835707D02*
X157708645Y-105664278D01*
X157708645Y-105664278D02*
X157794360Y-105578564D01*
X157794360Y-105578564D02*
X157880074Y-105535707D01*
X161180074Y-106435707D02*
X160880074Y-106007135D01*
X160665788Y-106435707D02*
X160665788Y-105535707D01*
X160665788Y-105535707D02*
X161008645Y-105535707D01*
X161008645Y-105535707D02*
X161094360Y-105578564D01*
X161094360Y-105578564D02*
X161137217Y-105621421D01*
X161137217Y-105621421D02*
X161180074Y-105707135D01*
X161180074Y-105707135D02*
X161180074Y-105835707D01*
X161180074Y-105835707D02*
X161137217Y-105921421D01*
X161137217Y-105921421D02*
X161094360Y-105964278D01*
X161094360Y-105964278D02*
X161008645Y-106007135D01*
X161008645Y-106007135D02*
X160665788Y-106007135D01*
X161565788Y-105964278D02*
X161865788Y-105964278D01*
X161994360Y-106435707D02*
X161565788Y-106435707D01*
X161565788Y-106435707D02*
X161565788Y-105535707D01*
X161565788Y-105535707D02*
X161994360Y-105535707D01*
X162337217Y-106392850D02*
X162465789Y-106435707D01*
X162465789Y-106435707D02*
X162680074Y-106435707D01*
X162680074Y-106435707D02*
X162765789Y-106392850D01*
X162765789Y-106392850D02*
X162808646Y-106349992D01*
X162808646Y-106349992D02*
X162851503Y-106264278D01*
X162851503Y-106264278D02*
X162851503Y-106178564D01*
X162851503Y-106178564D02*
X162808646Y-106092850D01*
X162808646Y-106092850D02*
X162765789Y-106049992D01*
X162765789Y-106049992D02*
X162680074Y-106007135D01*
X162680074Y-106007135D02*
X162508646Y-105964278D01*
X162508646Y-105964278D02*
X162422931Y-105921421D01*
X162422931Y-105921421D02*
X162380074Y-105878564D01*
X162380074Y-105878564D02*
X162337217Y-105792850D01*
X162337217Y-105792850D02*
X162337217Y-105707135D01*
X162337217Y-105707135D02*
X162380074Y-105621421D01*
X162380074Y-105621421D02*
X162422931Y-105578564D01*
X162422931Y-105578564D02*
X162508646Y-105535707D01*
X162508646Y-105535707D02*
X162722931Y-105535707D01*
X162722931Y-105535707D02*
X162851503Y-105578564D01*
X157194360Y-106984657D02*
X157794360Y-107884657D01*
X157794360Y-106984657D02*
X157194360Y-107884657D01*
X161137217Y-107027514D02*
X161051503Y-106984657D01*
X161051503Y-106984657D02*
X160922931Y-106984657D01*
X160922931Y-106984657D02*
X160794360Y-107027514D01*
X160794360Y-107027514D02*
X160708645Y-107113228D01*
X160708645Y-107113228D02*
X160665788Y-107198942D01*
X160665788Y-107198942D02*
X160622931Y-107370371D01*
X160622931Y-107370371D02*
X160622931Y-107498942D01*
X160622931Y-107498942D02*
X160665788Y-107670371D01*
X160665788Y-107670371D02*
X160708645Y-107756085D01*
X160708645Y-107756085D02*
X160794360Y-107841800D01*
X160794360Y-107841800D02*
X160922931Y-107884657D01*
X160922931Y-107884657D02*
X161008645Y-107884657D01*
X161008645Y-107884657D02*
X161137217Y-107841800D01*
X161137217Y-107841800D02*
X161180074Y-107798942D01*
X161180074Y-107798942D02*
X161180074Y-107498942D01*
X161180074Y-107498942D02*
X161008645Y-107498942D01*
X161565788Y-107884657D02*
X161565788Y-106984657D01*
X161565788Y-106984657D02*
X162080074Y-107884657D01*
X162080074Y-107884657D02*
X162080074Y-106984657D01*
X162508645Y-107884657D02*
X162508645Y-106984657D01*
X162508645Y-106984657D02*
X162722931Y-106984657D01*
X162722931Y-106984657D02*
X162851502Y-107027514D01*
X162851502Y-107027514D02*
X162937217Y-107113228D01*
X162937217Y-107113228D02*
X162980074Y-107198942D01*
X162980074Y-107198942D02*
X163022931Y-107370371D01*
X163022931Y-107370371D02*
X163022931Y-107498942D01*
X163022931Y-107498942D02*
X162980074Y-107670371D01*
X162980074Y-107670371D02*
X162937217Y-107756085D01*
X162937217Y-107756085D02*
X162851502Y-107841800D01*
X162851502Y-107841800D02*
X162722931Y-107884657D01*
X162722931Y-107884657D02*
X162508645Y-107884657D01*
X112903884Y-58662475D02*
X112903884Y-57662475D01*
X113522931Y-58662475D02*
X113427693Y-58614856D01*
X113427693Y-58614856D02*
X113380074Y-58567236D01*
X113380074Y-58567236D02*
X113332455Y-58471998D01*
X113332455Y-58471998D02*
X113332455Y-58186284D01*
X113332455Y-58186284D02*
X113380074Y-58091046D01*
X113380074Y-58091046D02*
X113427693Y-58043427D01*
X113427693Y-58043427D02*
X113522931Y-57995808D01*
X113522931Y-57995808D02*
X113665788Y-57995808D01*
X113665788Y-57995808D02*
X113761026Y-58043427D01*
X113761026Y-58043427D02*
X113808645Y-58091046D01*
X113808645Y-58091046D02*
X113856264Y-58186284D01*
X113856264Y-58186284D02*
X113856264Y-58471998D01*
X113856264Y-58471998D02*
X113808645Y-58567236D01*
X113808645Y-58567236D02*
X113761026Y-58614856D01*
X113761026Y-58614856D02*
X113665788Y-58662475D01*
X113665788Y-58662475D02*
X113522931Y-58662475D01*
X114141979Y-57662475D02*
X114713407Y-57662475D01*
X114427693Y-58662475D02*
X114427693Y-57662475D01*
X116332455Y-57710094D02*
X116237217Y-57662475D01*
X116237217Y-57662475D02*
X116094360Y-57662475D01*
X116094360Y-57662475D02*
X115951503Y-57710094D01*
X115951503Y-57710094D02*
X115856265Y-57805332D01*
X115856265Y-57805332D02*
X115808646Y-57900570D01*
X115808646Y-57900570D02*
X115761027Y-58091046D01*
X115761027Y-58091046D02*
X115761027Y-58233903D01*
X115761027Y-58233903D02*
X115808646Y-58424379D01*
X115808646Y-58424379D02*
X115856265Y-58519617D01*
X115856265Y-58519617D02*
X115951503Y-58614856D01*
X115951503Y-58614856D02*
X116094360Y-58662475D01*
X116094360Y-58662475D02*
X116189598Y-58662475D01*
X116189598Y-58662475D02*
X116332455Y-58614856D01*
X116332455Y-58614856D02*
X116380074Y-58567236D01*
X116380074Y-58567236D02*
X116380074Y-58233903D01*
X116380074Y-58233903D02*
X116189598Y-58233903D01*
X117237217Y-58662475D02*
X117237217Y-58138665D01*
X117237217Y-58138665D02*
X117189598Y-58043427D01*
X117189598Y-58043427D02*
X117094360Y-57995808D01*
X117094360Y-57995808D02*
X116903884Y-57995808D01*
X116903884Y-57995808D02*
X116808646Y-58043427D01*
X117237217Y-58614856D02*
X117141979Y-58662475D01*
X117141979Y-58662475D02*
X116903884Y-58662475D01*
X116903884Y-58662475D02*
X116808646Y-58614856D01*
X116808646Y-58614856D02*
X116761027Y-58519617D01*
X116761027Y-58519617D02*
X116761027Y-58424379D01*
X116761027Y-58424379D02*
X116808646Y-58329141D01*
X116808646Y-58329141D02*
X116903884Y-58281522D01*
X116903884Y-58281522D02*
X117141979Y-58281522D01*
X117141979Y-58281522D02*
X117237217Y-58233903D01*
X117570551Y-57995808D02*
X117951503Y-57995808D01*
X117713408Y-57662475D02*
X117713408Y-58519617D01*
X117713408Y-58519617D02*
X117761027Y-58614856D01*
X117761027Y-58614856D02*
X117856265Y-58662475D01*
X117856265Y-58662475D02*
X117951503Y-58662475D01*
X118665789Y-58614856D02*
X118570551Y-58662475D01*
X118570551Y-58662475D02*
X118380075Y-58662475D01*
X118380075Y-58662475D02*
X118284837Y-58614856D01*
X118284837Y-58614856D02*
X118237218Y-58519617D01*
X118237218Y-58519617D02*
X118237218Y-58138665D01*
X118237218Y-58138665D02*
X118284837Y-58043427D01*
X118284837Y-58043427D02*
X118380075Y-57995808D01*
X118380075Y-57995808D02*
X118570551Y-57995808D01*
X118570551Y-57995808D02*
X118665789Y-58043427D01*
X118665789Y-58043427D02*
X118713408Y-58138665D01*
X118713408Y-58138665D02*
X118713408Y-58233903D01*
X118713408Y-58233903D02*
X118237218Y-58329141D01*
X119046742Y-57995808D02*
X119237218Y-58662475D01*
X119237218Y-58662475D02*
X119427694Y-58186284D01*
X119427694Y-58186284D02*
X119618170Y-58662475D01*
X119618170Y-58662475D02*
X119808646Y-57995808D01*
X120618170Y-58662475D02*
X120618170Y-58138665D01*
X120618170Y-58138665D02*
X120570551Y-58043427D01*
X120570551Y-58043427D02*
X120475313Y-57995808D01*
X120475313Y-57995808D02*
X120284837Y-57995808D01*
X120284837Y-57995808D02*
X120189599Y-58043427D01*
X120618170Y-58614856D02*
X120522932Y-58662475D01*
X120522932Y-58662475D02*
X120284837Y-58662475D01*
X120284837Y-58662475D02*
X120189599Y-58614856D01*
X120189599Y-58614856D02*
X120141980Y-58519617D01*
X120141980Y-58519617D02*
X120141980Y-58424379D01*
X120141980Y-58424379D02*
X120189599Y-58329141D01*
X120189599Y-58329141D02*
X120284837Y-58281522D01*
X120284837Y-58281522D02*
X120522932Y-58281522D01*
X120522932Y-58281522D02*
X120618170Y-58233903D01*
X120999123Y-57995808D02*
X121237218Y-58662475D01*
X121475313Y-57995808D02*
X121237218Y-58662475D01*
X121237218Y-58662475D02*
X121141980Y-58900570D01*
X121141980Y-58900570D02*
X121094361Y-58948189D01*
X121094361Y-58948189D02*
X120999123Y-58995808D01*
X113189598Y-59272419D02*
X113189598Y-59986704D01*
X113189598Y-59986704D02*
X113141979Y-60129561D01*
X113141979Y-60129561D02*
X113046741Y-60224800D01*
X113046741Y-60224800D02*
X112903884Y-60272419D01*
X112903884Y-60272419D02*
X112808646Y-60272419D01*
X113808646Y-60272419D02*
X113713408Y-60224800D01*
X113713408Y-60224800D02*
X113665789Y-60177180D01*
X113665789Y-60177180D02*
X113618170Y-60081942D01*
X113618170Y-60081942D02*
X113618170Y-59796228D01*
X113618170Y-59796228D02*
X113665789Y-59700990D01*
X113665789Y-59700990D02*
X113713408Y-59653371D01*
X113713408Y-59653371D02*
X113808646Y-59605752D01*
X113808646Y-59605752D02*
X113951503Y-59605752D01*
X113951503Y-59605752D02*
X114046741Y-59653371D01*
X114046741Y-59653371D02*
X114094360Y-59700990D01*
X114094360Y-59700990D02*
X114141979Y-59796228D01*
X114141979Y-59796228D02*
X114141979Y-60081942D01*
X114141979Y-60081942D02*
X114094360Y-60177180D01*
X114094360Y-60177180D02*
X114046741Y-60224800D01*
X114046741Y-60224800D02*
X113951503Y-60272419D01*
X113951503Y-60272419D02*
X113808646Y-60272419D01*
X114951503Y-60224800D02*
X114856265Y-60272419D01*
X114856265Y-60272419D02*
X114665789Y-60272419D01*
X114665789Y-60272419D02*
X114570551Y-60224800D01*
X114570551Y-60224800D02*
X114522932Y-60129561D01*
X114522932Y-60129561D02*
X114522932Y-59748609D01*
X114522932Y-59748609D02*
X114570551Y-59653371D01*
X114570551Y-59653371D02*
X114665789Y-59605752D01*
X114665789Y-59605752D02*
X114856265Y-59605752D01*
X114856265Y-59605752D02*
X114951503Y-59653371D01*
X114951503Y-59653371D02*
X114999122Y-59748609D01*
X114999122Y-59748609D02*
X114999122Y-59843847D01*
X114999122Y-59843847D02*
X114522932Y-59939085D01*
X115427694Y-60272419D02*
X115427694Y-59605752D01*
X115427694Y-59796228D02*
X115475313Y-59700990D01*
X115475313Y-59700990D02*
X115522932Y-59653371D01*
X115522932Y-59653371D02*
X115618170Y-59605752D01*
X115618170Y-59605752D02*
X115713408Y-59605752D01*
X116046742Y-60272419D02*
X116046742Y-59605752D01*
X116046742Y-59272419D02*
X115999123Y-59320038D01*
X115999123Y-59320038D02*
X116046742Y-59367657D01*
X116046742Y-59367657D02*
X116094361Y-59320038D01*
X116094361Y-59320038D02*
X116046742Y-59272419D01*
X116046742Y-59272419D02*
X116046742Y-59367657D01*
X117237218Y-60224800D02*
X117380075Y-60272419D01*
X117380075Y-60272419D02*
X117618170Y-60272419D01*
X117618170Y-60272419D02*
X117713408Y-60224800D01*
X117713408Y-60224800D02*
X117761027Y-60177180D01*
X117761027Y-60177180D02*
X117808646Y-60081942D01*
X117808646Y-60081942D02*
X117808646Y-59986704D01*
X117808646Y-59986704D02*
X117761027Y-59891466D01*
X117761027Y-59891466D02*
X117713408Y-59843847D01*
X117713408Y-59843847D02*
X117618170Y-59796228D01*
X117618170Y-59796228D02*
X117427694Y-59748609D01*
X117427694Y-59748609D02*
X117332456Y-59700990D01*
X117332456Y-59700990D02*
X117284837Y-59653371D01*
X117284837Y-59653371D02*
X117237218Y-59558133D01*
X117237218Y-59558133D02*
X117237218Y-59462895D01*
X117237218Y-59462895D02*
X117284837Y-59367657D01*
X117284837Y-59367657D02*
X117332456Y-59320038D01*
X117332456Y-59320038D02*
X117427694Y-59272419D01*
X117427694Y-59272419D02*
X117665789Y-59272419D01*
X117665789Y-59272419D02*
X117808646Y-59320038D01*
X118618170Y-60224800D02*
X118522932Y-60272419D01*
X118522932Y-60272419D02*
X118332456Y-60272419D01*
X118332456Y-60272419D02*
X118237218Y-60224800D01*
X118237218Y-60224800D02*
X118189599Y-60129561D01*
X118189599Y-60129561D02*
X118189599Y-59748609D01*
X118189599Y-59748609D02*
X118237218Y-59653371D01*
X118237218Y-59653371D02*
X118332456Y-59605752D01*
X118332456Y-59605752D02*
X118522932Y-59605752D01*
X118522932Y-59605752D02*
X118618170Y-59653371D01*
X118618170Y-59653371D02*
X118665789Y-59748609D01*
X118665789Y-59748609D02*
X118665789Y-59843847D01*
X118665789Y-59843847D02*
X118189599Y-59939085D01*
X118999123Y-59605752D02*
X119237218Y-60272419D01*
X119237218Y-60272419D02*
X119475313Y-59605752D01*
X120237218Y-60224800D02*
X120141980Y-60272419D01*
X120141980Y-60272419D02*
X119951504Y-60272419D01*
X119951504Y-60272419D02*
X119856266Y-60224800D01*
X119856266Y-60224800D02*
X119808647Y-60129561D01*
X119808647Y-60129561D02*
X119808647Y-59748609D01*
X119808647Y-59748609D02*
X119856266Y-59653371D01*
X119856266Y-59653371D02*
X119951504Y-59605752D01*
X119951504Y-59605752D02*
X120141980Y-59605752D01*
X120141980Y-59605752D02*
X120237218Y-59653371D01*
X120237218Y-59653371D02*
X120284837Y-59748609D01*
X120284837Y-59748609D02*
X120284837Y-59843847D01*
X120284837Y-59843847D02*
X119808647Y-59939085D01*
X120713409Y-59605752D02*
X120713409Y-60272419D01*
X120713409Y-59700990D02*
X120761028Y-59653371D01*
X120761028Y-59653371D02*
X120856266Y-59605752D01*
X120856266Y-59605752D02*
X120999123Y-59605752D01*
X120999123Y-59605752D02*
X121094361Y-59653371D01*
X121094361Y-59653371D02*
X121141980Y-59748609D01*
X121141980Y-59748609D02*
X121141980Y-60272419D01*
X121570552Y-60224800D02*
X121665790Y-60272419D01*
X121665790Y-60272419D02*
X121856266Y-60272419D01*
X121856266Y-60272419D02*
X121951504Y-60224800D01*
X121951504Y-60224800D02*
X121999123Y-60129561D01*
X121999123Y-60129561D02*
X121999123Y-60081942D01*
X121999123Y-60081942D02*
X121951504Y-59986704D01*
X121951504Y-59986704D02*
X121856266Y-59939085D01*
X121856266Y-59939085D02*
X121713409Y-59939085D01*
X121713409Y-59939085D02*
X121618171Y-59891466D01*
X121618171Y-59891466D02*
X121570552Y-59796228D01*
X121570552Y-59796228D02*
X121570552Y-59748609D01*
X121570552Y-59748609D02*
X121618171Y-59653371D01*
X121618171Y-59653371D02*
X121713409Y-59605752D01*
X121713409Y-59605752D02*
X121856266Y-59605752D01*
X121856266Y-59605752D02*
X121951504Y-59653371D01*
D11*
X122738095Y-108304819D02*
X122738095Y-109114342D01*
X122738095Y-109114342D02*
X122785714Y-109209580D01*
X122785714Y-109209580D02*
X122833333Y-109257200D01*
X122833333Y-109257200D02*
X122928571Y-109304819D01*
X122928571Y-109304819D02*
X123119047Y-109304819D01*
X123119047Y-109304819D02*
X123214285Y-109257200D01*
X123214285Y-109257200D02*
X123261904Y-109209580D01*
X123261904Y-109209580D02*
X123309523Y-109114342D01*
X123309523Y-109114342D02*
X123309523Y-108304819D01*
X123928571Y-108733390D02*
X123833333Y-108685771D01*
X123833333Y-108685771D02*
X123785714Y-108638152D01*
X123785714Y-108638152D02*
X123738095Y-108542914D01*
X123738095Y-108542914D02*
X123738095Y-108495295D01*
X123738095Y-108495295D02*
X123785714Y-108400057D01*
X123785714Y-108400057D02*
X123833333Y-108352438D01*
X123833333Y-108352438D02*
X123928571Y-108304819D01*
X123928571Y-108304819D02*
X124119047Y-108304819D01*
X124119047Y-108304819D02*
X124214285Y-108352438D01*
X124214285Y-108352438D02*
X124261904Y-108400057D01*
X124261904Y-108400057D02*
X124309523Y-108495295D01*
X124309523Y-108495295D02*
X124309523Y-108542914D01*
X124309523Y-108542914D02*
X124261904Y-108638152D01*
X124261904Y-108638152D02*
X124214285Y-108685771D01*
X124214285Y-108685771D02*
X124119047Y-108733390D01*
X124119047Y-108733390D02*
X123928571Y-108733390D01*
X123928571Y-108733390D02*
X123833333Y-108781009D01*
X123833333Y-108781009D02*
X123785714Y-108828628D01*
X123785714Y-108828628D02*
X123738095Y-108923866D01*
X123738095Y-108923866D02*
X123738095Y-109114342D01*
X123738095Y-109114342D02*
X123785714Y-109209580D01*
X123785714Y-109209580D02*
X123833333Y-109257200D01*
X123833333Y-109257200D02*
X123928571Y-109304819D01*
X123928571Y-109304819D02*
X124119047Y-109304819D01*
X124119047Y-109304819D02*
X124214285Y-109257200D01*
X124214285Y-109257200D02*
X124261904Y-109209580D01*
X124261904Y-109209580D02*
X124309523Y-109114342D01*
X124309523Y-109114342D02*
X124309523Y-108923866D01*
X124309523Y-108923866D02*
X124261904Y-108828628D01*
X124261904Y-108828628D02*
X124214285Y-108781009D01*
X124214285Y-108781009D02*
X124119047Y-108733390D01*
X152990476Y-90454819D02*
X152990476Y-89454819D01*
X152990476Y-89454819D02*
X153323809Y-90169104D01*
X153323809Y-90169104D02*
X153657142Y-89454819D01*
X153657142Y-89454819D02*
X153657142Y-90454819D01*
X154133333Y-90454819D02*
X154133333Y-89454819D01*
X154704761Y-90454819D02*
X154276190Y-89883390D01*
X154704761Y-89454819D02*
X154133333Y-90026247D01*
X155085714Y-89550057D02*
X155133333Y-89502438D01*
X155133333Y-89502438D02*
X155228571Y-89454819D01*
X155228571Y-89454819D02*
X155466666Y-89454819D01*
X155466666Y-89454819D02*
X155561904Y-89502438D01*
X155561904Y-89502438D02*
X155609523Y-89550057D01*
X155609523Y-89550057D02*
X155657142Y-89645295D01*
X155657142Y-89645295D02*
X155657142Y-89740533D01*
X155657142Y-89740533D02*
X155609523Y-89883390D01*
X155609523Y-89883390D02*
X155038095Y-90454819D01*
X155038095Y-90454819D02*
X155657142Y-90454819D01*
X106738095Y-79104819D02*
X106738095Y-79914342D01*
X106738095Y-79914342D02*
X106785714Y-80009580D01*
X106785714Y-80009580D02*
X106833333Y-80057200D01*
X106833333Y-80057200D02*
X106928571Y-80104819D01*
X106928571Y-80104819D02*
X107119047Y-80104819D01*
X107119047Y-80104819D02*
X107214285Y-80057200D01*
X107214285Y-80057200D02*
X107261904Y-80009580D01*
X107261904Y-80009580D02*
X107309523Y-79914342D01*
X107309523Y-79914342D02*
X107309523Y-79104819D01*
X107833333Y-80104819D02*
X108023809Y-80104819D01*
X108023809Y-80104819D02*
X108119047Y-80057200D01*
X108119047Y-80057200D02*
X108166666Y-80009580D01*
X108166666Y-80009580D02*
X108261904Y-79866723D01*
X108261904Y-79866723D02*
X108309523Y-79676247D01*
X108309523Y-79676247D02*
X108309523Y-79295295D01*
X108309523Y-79295295D02*
X108261904Y-79200057D01*
X108261904Y-79200057D02*
X108214285Y-79152438D01*
X108214285Y-79152438D02*
X108119047Y-79104819D01*
X108119047Y-79104819D02*
X107928571Y-79104819D01*
X107928571Y-79104819D02*
X107833333Y-79152438D01*
X107833333Y-79152438D02*
X107785714Y-79200057D01*
X107785714Y-79200057D02*
X107738095Y-79295295D01*
X107738095Y-79295295D02*
X107738095Y-79533390D01*
X107738095Y-79533390D02*
X107785714Y-79628628D01*
X107785714Y-79628628D02*
X107833333Y-79676247D01*
X107833333Y-79676247D02*
X107928571Y-79723866D01*
X107928571Y-79723866D02*
X108119047Y-79723866D01*
X108119047Y-79723866D02*
X108214285Y-79676247D01*
X108214285Y-79676247D02*
X108261904Y-79628628D01*
X108261904Y-79628628D02*
X108309523Y-79533390D01*
X95514405Y-102354819D02*
X95514405Y-101354819D01*
X95514405Y-101354819D02*
X95752500Y-101354819D01*
X95752500Y-101354819D02*
X95895357Y-101402438D01*
X95895357Y-101402438D02*
X95990595Y-101497676D01*
X95990595Y-101497676D02*
X96038214Y-101592914D01*
X96038214Y-101592914D02*
X96085833Y-101783390D01*
X96085833Y-101783390D02*
X96085833Y-101926247D01*
X96085833Y-101926247D02*
X96038214Y-102116723D01*
X96038214Y-102116723D02*
X95990595Y-102211961D01*
X95990595Y-102211961D02*
X95895357Y-102307200D01*
X95895357Y-102307200D02*
X95752500Y-102354819D01*
X95752500Y-102354819D02*
X95514405Y-102354819D01*
X96942976Y-101354819D02*
X96752500Y-101354819D01*
X96752500Y-101354819D02*
X96657262Y-101402438D01*
X96657262Y-101402438D02*
X96609643Y-101450057D01*
X96609643Y-101450057D02*
X96514405Y-101592914D01*
X96514405Y-101592914D02*
X96466786Y-101783390D01*
X96466786Y-101783390D02*
X96466786Y-102164342D01*
X96466786Y-102164342D02*
X96514405Y-102259580D01*
X96514405Y-102259580D02*
X96562024Y-102307200D01*
X96562024Y-102307200D02*
X96657262Y-102354819D01*
X96657262Y-102354819D02*
X96847738Y-102354819D01*
X96847738Y-102354819D02*
X96942976Y-102307200D01*
X96942976Y-102307200D02*
X96990595Y-102259580D01*
X96990595Y-102259580D02*
X97038214Y-102164342D01*
X97038214Y-102164342D02*
X97038214Y-101926247D01*
X97038214Y-101926247D02*
X96990595Y-101831009D01*
X96990595Y-101831009D02*
X96942976Y-101783390D01*
X96942976Y-101783390D02*
X96847738Y-101735771D01*
X96847738Y-101735771D02*
X96657262Y-101735771D01*
X96657262Y-101735771D02*
X96562024Y-101783390D01*
X96562024Y-101783390D02*
X96514405Y-101831009D01*
X96514405Y-101831009D02*
X96466786Y-101926247D01*
X162859580Y-74792857D02*
X162907200Y-74840476D01*
X162907200Y-74840476D02*
X162954819Y-74983333D01*
X162954819Y-74983333D02*
X162954819Y-75078571D01*
X162954819Y-75078571D02*
X162907200Y-75221428D01*
X162907200Y-75221428D02*
X162811961Y-75316666D01*
X162811961Y-75316666D02*
X162716723Y-75364285D01*
X162716723Y-75364285D02*
X162526247Y-75411904D01*
X162526247Y-75411904D02*
X162383390Y-75411904D01*
X162383390Y-75411904D02*
X162192914Y-75364285D01*
X162192914Y-75364285D02*
X162097676Y-75316666D01*
X162097676Y-75316666D02*
X162002438Y-75221428D01*
X162002438Y-75221428D02*
X161954819Y-75078571D01*
X161954819Y-75078571D02*
X161954819Y-74983333D01*
X161954819Y-74983333D02*
X162002438Y-74840476D01*
X162002438Y-74840476D02*
X162050057Y-74792857D01*
X161954819Y-74459523D02*
X161954819Y-73840476D01*
X161954819Y-73840476D02*
X162335771Y-74173809D01*
X162335771Y-74173809D02*
X162335771Y-74030952D01*
X162335771Y-74030952D02*
X162383390Y-73935714D01*
X162383390Y-73935714D02*
X162431009Y-73888095D01*
X162431009Y-73888095D02*
X162526247Y-73840476D01*
X162526247Y-73840476D02*
X162764342Y-73840476D01*
X162764342Y-73840476D02*
X162859580Y-73888095D01*
X162859580Y-73888095D02*
X162907200Y-73935714D01*
X162907200Y-73935714D02*
X162954819Y-74030952D01*
X162954819Y-74030952D02*
X162954819Y-74316666D01*
X162954819Y-74316666D02*
X162907200Y-74411904D01*
X162907200Y-74411904D02*
X162859580Y-74459523D01*
X162288152Y-72983333D02*
X162954819Y-72983333D01*
X161907200Y-73221428D02*
X162621485Y-73459523D01*
X162621485Y-73459523D02*
X162621485Y-72840476D01*
X95154819Y-112766666D02*
X94678628Y-113099999D01*
X95154819Y-113338094D02*
X94154819Y-113338094D01*
X94154819Y-113338094D02*
X94154819Y-112957142D01*
X94154819Y-112957142D02*
X94202438Y-112861904D01*
X94202438Y-112861904D02*
X94250057Y-112814285D01*
X94250057Y-112814285D02*
X94345295Y-112766666D01*
X94345295Y-112766666D02*
X94488152Y-112766666D01*
X94488152Y-112766666D02*
X94583390Y-112814285D01*
X94583390Y-112814285D02*
X94631009Y-112861904D01*
X94631009Y-112861904D02*
X94678628Y-112957142D01*
X94678628Y-112957142D02*
X94678628Y-113338094D01*
X94154819Y-112433332D02*
X94154819Y-111766666D01*
X94154819Y-111766666D02*
X95154819Y-112195237D01*
D12*
X155076667Y-59954318D02*
X155076667Y-60861461D01*
X155076667Y-60861461D02*
X155016190Y-61042889D01*
X155016190Y-61042889D02*
X154895238Y-61163842D01*
X154895238Y-61163842D02*
X154713809Y-61224318D01*
X154713809Y-61224318D02*
X154592857Y-61224318D01*
X155620952Y-60075270D02*
X155681428Y-60014794D01*
X155681428Y-60014794D02*
X155802381Y-59954318D01*
X155802381Y-59954318D02*
X156104762Y-59954318D01*
X156104762Y-59954318D02*
X156225714Y-60014794D01*
X156225714Y-60014794D02*
X156286190Y-60075270D01*
X156286190Y-60075270D02*
X156346667Y-60196222D01*
X156346667Y-60196222D02*
X156346667Y-60317175D01*
X156346667Y-60317175D02*
X156286190Y-60498603D01*
X156286190Y-60498603D02*
X155560476Y-61224318D01*
X155560476Y-61224318D02*
X156346667Y-61224318D01*
D11*
X134719047Y-98931009D02*
X134861904Y-98978628D01*
X134861904Y-98978628D02*
X134909523Y-99026247D01*
X134909523Y-99026247D02*
X134957142Y-99121485D01*
X134957142Y-99121485D02*
X134957142Y-99264342D01*
X134957142Y-99264342D02*
X134909523Y-99359580D01*
X134909523Y-99359580D02*
X134861904Y-99407200D01*
X134861904Y-99407200D02*
X134766666Y-99454819D01*
X134766666Y-99454819D02*
X134385714Y-99454819D01*
X134385714Y-99454819D02*
X134385714Y-98454819D01*
X134385714Y-98454819D02*
X134719047Y-98454819D01*
X134719047Y-98454819D02*
X134814285Y-98502438D01*
X134814285Y-98502438D02*
X134861904Y-98550057D01*
X134861904Y-98550057D02*
X134909523Y-98645295D01*
X134909523Y-98645295D02*
X134909523Y-98740533D01*
X134909523Y-98740533D02*
X134861904Y-98835771D01*
X134861904Y-98835771D02*
X134814285Y-98883390D01*
X134814285Y-98883390D02*
X134719047Y-98931009D01*
X134719047Y-98931009D02*
X134385714Y-98931009D01*
X135861904Y-99454819D02*
X135385714Y-99454819D01*
X135385714Y-99454819D02*
X135385714Y-98454819D01*
X136195238Y-99454819D02*
X136195238Y-98454819D01*
X136195238Y-98454819D02*
X136528571Y-99169104D01*
X136528571Y-99169104D02*
X136861904Y-98454819D01*
X136861904Y-98454819D02*
X136861904Y-99454819D01*
X137861904Y-99454819D02*
X137290476Y-99454819D01*
X137576190Y-99454819D02*
X137576190Y-98454819D01*
X137576190Y-98454819D02*
X137480952Y-98597676D01*
X137480952Y-98597676D02*
X137385714Y-98692914D01*
X137385714Y-98692914D02*
X137290476Y-98740533D01*
X106257142Y-111189580D02*
X106209523Y-111237200D01*
X106209523Y-111237200D02*
X106066666Y-111284819D01*
X106066666Y-111284819D02*
X105971428Y-111284819D01*
X105971428Y-111284819D02*
X105828571Y-111237200D01*
X105828571Y-111237200D02*
X105733333Y-111141961D01*
X105733333Y-111141961D02*
X105685714Y-111046723D01*
X105685714Y-111046723D02*
X105638095Y-110856247D01*
X105638095Y-110856247D02*
X105638095Y-110713390D01*
X105638095Y-110713390D02*
X105685714Y-110522914D01*
X105685714Y-110522914D02*
X105733333Y-110427676D01*
X105733333Y-110427676D02*
X105828571Y-110332438D01*
X105828571Y-110332438D02*
X105971428Y-110284819D01*
X105971428Y-110284819D02*
X106066666Y-110284819D01*
X106066666Y-110284819D02*
X106209523Y-110332438D01*
X106209523Y-110332438D02*
X106257142Y-110380057D01*
X106590476Y-110284819D02*
X107257142Y-110284819D01*
X107257142Y-110284819D02*
X106828571Y-111284819D01*
X107542857Y-110284819D02*
X108209523Y-110284819D01*
X108209523Y-110284819D02*
X107780952Y-111284819D01*
X138333333Y-95359580D02*
X138285714Y-95407200D01*
X138285714Y-95407200D02*
X138142857Y-95454819D01*
X138142857Y-95454819D02*
X138047619Y-95454819D01*
X138047619Y-95454819D02*
X137904762Y-95407200D01*
X137904762Y-95407200D02*
X137809524Y-95311961D01*
X137809524Y-95311961D02*
X137761905Y-95216723D01*
X137761905Y-95216723D02*
X137714286Y-95026247D01*
X137714286Y-95026247D02*
X137714286Y-94883390D01*
X137714286Y-94883390D02*
X137761905Y-94692914D01*
X137761905Y-94692914D02*
X137809524Y-94597676D01*
X137809524Y-94597676D02*
X137904762Y-94502438D01*
X137904762Y-94502438D02*
X138047619Y-94454819D01*
X138047619Y-94454819D02*
X138142857Y-94454819D01*
X138142857Y-94454819D02*
X138285714Y-94502438D01*
X138285714Y-94502438D02*
X138333333Y-94550057D01*
X138714286Y-94550057D02*
X138761905Y-94502438D01*
X138761905Y-94502438D02*
X138857143Y-94454819D01*
X138857143Y-94454819D02*
X139095238Y-94454819D01*
X139095238Y-94454819D02*
X139190476Y-94502438D01*
X139190476Y-94502438D02*
X139238095Y-94550057D01*
X139238095Y-94550057D02*
X139285714Y-94645295D01*
X139285714Y-94645295D02*
X139285714Y-94740533D01*
X139285714Y-94740533D02*
X139238095Y-94883390D01*
X139238095Y-94883390D02*
X138666667Y-95454819D01*
X138666667Y-95454819D02*
X139285714Y-95454819D01*
X130259580Y-101642857D02*
X130307200Y-101690476D01*
X130307200Y-101690476D02*
X130354819Y-101833333D01*
X130354819Y-101833333D02*
X130354819Y-101928571D01*
X130354819Y-101928571D02*
X130307200Y-102071428D01*
X130307200Y-102071428D02*
X130211961Y-102166666D01*
X130211961Y-102166666D02*
X130116723Y-102214285D01*
X130116723Y-102214285D02*
X129926247Y-102261904D01*
X129926247Y-102261904D02*
X129783390Y-102261904D01*
X129783390Y-102261904D02*
X129592914Y-102214285D01*
X129592914Y-102214285D02*
X129497676Y-102166666D01*
X129497676Y-102166666D02*
X129402438Y-102071428D01*
X129402438Y-102071428D02*
X129354819Y-101928571D01*
X129354819Y-101928571D02*
X129354819Y-101833333D01*
X129354819Y-101833333D02*
X129402438Y-101690476D01*
X129402438Y-101690476D02*
X129450057Y-101642857D01*
X129450057Y-101261904D02*
X129402438Y-101214285D01*
X129402438Y-101214285D02*
X129354819Y-101119047D01*
X129354819Y-101119047D02*
X129354819Y-100880952D01*
X129354819Y-100880952D02*
X129402438Y-100785714D01*
X129402438Y-100785714D02*
X129450057Y-100738095D01*
X129450057Y-100738095D02*
X129545295Y-100690476D01*
X129545295Y-100690476D02*
X129640533Y-100690476D01*
X129640533Y-100690476D02*
X129783390Y-100738095D01*
X129783390Y-100738095D02*
X130354819Y-101309523D01*
X130354819Y-101309523D02*
X130354819Y-100690476D01*
X129354819Y-100357142D02*
X129354819Y-99690476D01*
X129354819Y-99690476D02*
X130354819Y-100119047D01*
X101161905Y-70454819D02*
X101161905Y-71264342D01*
X101161905Y-71264342D02*
X101209524Y-71359580D01*
X101209524Y-71359580D02*
X101257143Y-71407200D01*
X101257143Y-71407200D02*
X101352381Y-71454819D01*
X101352381Y-71454819D02*
X101542857Y-71454819D01*
X101542857Y-71454819D02*
X101638095Y-71407200D01*
X101638095Y-71407200D02*
X101685714Y-71359580D01*
X101685714Y-71359580D02*
X101733333Y-71264342D01*
X101733333Y-71264342D02*
X101733333Y-70454819D01*
X102733333Y-71454819D02*
X102161905Y-71454819D01*
X102447619Y-71454819D02*
X102447619Y-70454819D01*
X102447619Y-70454819D02*
X102352381Y-70597676D01*
X102352381Y-70597676D02*
X102257143Y-70692914D01*
X102257143Y-70692914D02*
X102161905Y-70740533D01*
X103114286Y-70550057D02*
X103161905Y-70502438D01*
X103161905Y-70502438D02*
X103257143Y-70454819D01*
X103257143Y-70454819D02*
X103495238Y-70454819D01*
X103495238Y-70454819D02*
X103590476Y-70502438D01*
X103590476Y-70502438D02*
X103638095Y-70550057D01*
X103638095Y-70550057D02*
X103685714Y-70645295D01*
X103685714Y-70645295D02*
X103685714Y-70740533D01*
X103685714Y-70740533D02*
X103638095Y-70883390D01*
X103638095Y-70883390D02*
X103066667Y-71454819D01*
X103066667Y-71454819D02*
X103685714Y-71454819D01*
X126339580Y-112242857D02*
X126387200Y-112290476D01*
X126387200Y-112290476D02*
X126434819Y-112433333D01*
X126434819Y-112433333D02*
X126434819Y-112528571D01*
X126434819Y-112528571D02*
X126387200Y-112671428D01*
X126387200Y-112671428D02*
X126291961Y-112766666D01*
X126291961Y-112766666D02*
X126196723Y-112814285D01*
X126196723Y-112814285D02*
X126006247Y-112861904D01*
X126006247Y-112861904D02*
X125863390Y-112861904D01*
X125863390Y-112861904D02*
X125672914Y-112814285D01*
X125672914Y-112814285D02*
X125577676Y-112766666D01*
X125577676Y-112766666D02*
X125482438Y-112671428D01*
X125482438Y-112671428D02*
X125434819Y-112528571D01*
X125434819Y-112528571D02*
X125434819Y-112433333D01*
X125434819Y-112433333D02*
X125482438Y-112290476D01*
X125482438Y-112290476D02*
X125530057Y-112242857D01*
X125530057Y-111861904D02*
X125482438Y-111814285D01*
X125482438Y-111814285D02*
X125434819Y-111719047D01*
X125434819Y-111719047D02*
X125434819Y-111480952D01*
X125434819Y-111480952D02*
X125482438Y-111385714D01*
X125482438Y-111385714D02*
X125530057Y-111338095D01*
X125530057Y-111338095D02*
X125625295Y-111290476D01*
X125625295Y-111290476D02*
X125720533Y-111290476D01*
X125720533Y-111290476D02*
X125863390Y-111338095D01*
X125863390Y-111338095D02*
X126434819Y-111909523D01*
X126434819Y-111909523D02*
X126434819Y-111290476D01*
X125768152Y-110433333D02*
X126434819Y-110433333D01*
X125387200Y-110671428D02*
X126101485Y-110909523D01*
X126101485Y-110909523D02*
X126101485Y-110290476D01*
X102004761Y-83550057D02*
X101909523Y-83502438D01*
X101909523Y-83502438D02*
X101814285Y-83407200D01*
X101814285Y-83407200D02*
X101671428Y-83264342D01*
X101671428Y-83264342D02*
X101576190Y-83216723D01*
X101576190Y-83216723D02*
X101480952Y-83216723D01*
X101528571Y-83454819D02*
X101433333Y-83407200D01*
X101433333Y-83407200D02*
X101338095Y-83311961D01*
X101338095Y-83311961D02*
X101290476Y-83121485D01*
X101290476Y-83121485D02*
X101290476Y-82788152D01*
X101290476Y-82788152D02*
X101338095Y-82597676D01*
X101338095Y-82597676D02*
X101433333Y-82502438D01*
X101433333Y-82502438D02*
X101528571Y-82454819D01*
X101528571Y-82454819D02*
X101719047Y-82454819D01*
X101719047Y-82454819D02*
X101814285Y-82502438D01*
X101814285Y-82502438D02*
X101909523Y-82597676D01*
X101909523Y-82597676D02*
X101957142Y-82788152D01*
X101957142Y-82788152D02*
X101957142Y-83121485D01*
X101957142Y-83121485D02*
X101909523Y-83311961D01*
X101909523Y-83311961D02*
X101814285Y-83407200D01*
X101814285Y-83407200D02*
X101719047Y-83454819D01*
X101719047Y-83454819D02*
X101528571Y-83454819D01*
X102814285Y-82454819D02*
X102623809Y-82454819D01*
X102623809Y-82454819D02*
X102528571Y-82502438D01*
X102528571Y-82502438D02*
X102480952Y-82550057D01*
X102480952Y-82550057D02*
X102385714Y-82692914D01*
X102385714Y-82692914D02*
X102338095Y-82883390D01*
X102338095Y-82883390D02*
X102338095Y-83264342D01*
X102338095Y-83264342D02*
X102385714Y-83359580D01*
X102385714Y-83359580D02*
X102433333Y-83407200D01*
X102433333Y-83407200D02*
X102528571Y-83454819D01*
X102528571Y-83454819D02*
X102719047Y-83454819D01*
X102719047Y-83454819D02*
X102814285Y-83407200D01*
X102814285Y-83407200D02*
X102861904Y-83359580D01*
X102861904Y-83359580D02*
X102909523Y-83264342D01*
X102909523Y-83264342D02*
X102909523Y-83026247D01*
X102909523Y-83026247D02*
X102861904Y-82931009D01*
X102861904Y-82931009D02*
X102814285Y-82883390D01*
X102814285Y-82883390D02*
X102719047Y-82835771D01*
X102719047Y-82835771D02*
X102528571Y-82835771D01*
X102528571Y-82835771D02*
X102433333Y-82883390D01*
X102433333Y-82883390D02*
X102385714Y-82931009D01*
X102385714Y-82931009D02*
X102338095Y-83026247D01*
X125319048Y-90754819D02*
X125319048Y-89754819D01*
X125319048Y-89754819D02*
X125557143Y-89754819D01*
X125557143Y-89754819D02*
X125700000Y-89802438D01*
X125700000Y-89802438D02*
X125795238Y-89897676D01*
X125795238Y-89897676D02*
X125842857Y-89992914D01*
X125842857Y-89992914D02*
X125890476Y-90183390D01*
X125890476Y-90183390D02*
X125890476Y-90326247D01*
X125890476Y-90326247D02*
X125842857Y-90516723D01*
X125842857Y-90516723D02*
X125795238Y-90611961D01*
X125795238Y-90611961D02*
X125700000Y-90707200D01*
X125700000Y-90707200D02*
X125557143Y-90754819D01*
X125557143Y-90754819D02*
X125319048Y-90754819D01*
X126319048Y-90373866D02*
X127080953Y-90373866D01*
X126700000Y-90754819D02*
X126700000Y-89992914D01*
D12*
X163724318Y-79342143D02*
X162454318Y-79342143D01*
X162454318Y-79342143D02*
X162454318Y-79039762D01*
X162454318Y-79039762D02*
X162514794Y-78858333D01*
X162514794Y-78858333D02*
X162635746Y-78737381D01*
X162635746Y-78737381D02*
X162756699Y-78676904D01*
X162756699Y-78676904D02*
X162998603Y-78616428D01*
X162998603Y-78616428D02*
X163180032Y-78616428D01*
X163180032Y-78616428D02*
X163421937Y-78676904D01*
X163421937Y-78676904D02*
X163542889Y-78737381D01*
X163542889Y-78737381D02*
X163663842Y-78858333D01*
X163663842Y-78858333D02*
X163724318Y-79039762D01*
X163724318Y-79039762D02*
X163724318Y-79342143D01*
X163724318Y-77406904D02*
X163724318Y-78132619D01*
X163724318Y-77769762D02*
X162454318Y-77769762D01*
X162454318Y-77769762D02*
X162635746Y-77890714D01*
X162635746Y-77890714D02*
X162756699Y-78011666D01*
X162756699Y-78011666D02*
X162817175Y-78132619D01*
X162454318Y-76620714D02*
X162454318Y-76499761D01*
X162454318Y-76499761D02*
X162514794Y-76378809D01*
X162514794Y-76378809D02*
X162575270Y-76318333D01*
X162575270Y-76318333D02*
X162696222Y-76257857D01*
X162696222Y-76257857D02*
X162938127Y-76197380D01*
X162938127Y-76197380D02*
X163240508Y-76197380D01*
X163240508Y-76197380D02*
X163482413Y-76257857D01*
X163482413Y-76257857D02*
X163603365Y-76318333D01*
X163603365Y-76318333D02*
X163663842Y-76378809D01*
X163663842Y-76378809D02*
X163724318Y-76499761D01*
X163724318Y-76499761D02*
X163724318Y-76620714D01*
X163724318Y-76620714D02*
X163663842Y-76741666D01*
X163663842Y-76741666D02*
X163603365Y-76802142D01*
X163603365Y-76802142D02*
X163482413Y-76862619D01*
X163482413Y-76862619D02*
X163240508Y-76923095D01*
X163240508Y-76923095D02*
X162938127Y-76923095D01*
X162938127Y-76923095D02*
X162696222Y-76862619D01*
X162696222Y-76862619D02*
X162575270Y-76802142D01*
X162575270Y-76802142D02*
X162514794Y-76741666D01*
X162514794Y-76741666D02*
X162454318Y-76620714D01*
D11*
X147833333Y-98759580D02*
X147785714Y-98807200D01*
X147785714Y-98807200D02*
X147642857Y-98854819D01*
X147642857Y-98854819D02*
X147547619Y-98854819D01*
X147547619Y-98854819D02*
X147404762Y-98807200D01*
X147404762Y-98807200D02*
X147309524Y-98711961D01*
X147309524Y-98711961D02*
X147261905Y-98616723D01*
X147261905Y-98616723D02*
X147214286Y-98426247D01*
X147214286Y-98426247D02*
X147214286Y-98283390D01*
X147214286Y-98283390D02*
X147261905Y-98092914D01*
X147261905Y-98092914D02*
X147309524Y-97997676D01*
X147309524Y-97997676D02*
X147404762Y-97902438D01*
X147404762Y-97902438D02*
X147547619Y-97854819D01*
X147547619Y-97854819D02*
X147642857Y-97854819D01*
X147642857Y-97854819D02*
X147785714Y-97902438D01*
X147785714Y-97902438D02*
X147833333Y-97950057D01*
X148785714Y-98854819D02*
X148214286Y-98854819D01*
X148500000Y-98854819D02*
X148500000Y-97854819D01*
X148500000Y-97854819D02*
X148404762Y-97997676D01*
X148404762Y-97997676D02*
X148309524Y-98092914D01*
X148309524Y-98092914D02*
X148214286Y-98140533D01*
X131238095Y-96354819D02*
X131238095Y-97164342D01*
X131238095Y-97164342D02*
X131285714Y-97259580D01*
X131285714Y-97259580D02*
X131333333Y-97307200D01*
X131333333Y-97307200D02*
X131428571Y-97354819D01*
X131428571Y-97354819D02*
X131619047Y-97354819D01*
X131619047Y-97354819D02*
X131714285Y-97307200D01*
X131714285Y-97307200D02*
X131761904Y-97259580D01*
X131761904Y-97259580D02*
X131809523Y-97164342D01*
X131809523Y-97164342D02*
X131809523Y-96354819D01*
X132190476Y-96354819D02*
X132809523Y-96354819D01*
X132809523Y-96354819D02*
X132476190Y-96735771D01*
X132476190Y-96735771D02*
X132619047Y-96735771D01*
X132619047Y-96735771D02*
X132714285Y-96783390D01*
X132714285Y-96783390D02*
X132761904Y-96831009D01*
X132761904Y-96831009D02*
X132809523Y-96926247D01*
X132809523Y-96926247D02*
X132809523Y-97164342D01*
X132809523Y-97164342D02*
X132761904Y-97259580D01*
X132761904Y-97259580D02*
X132714285Y-97307200D01*
X132714285Y-97307200D02*
X132619047Y-97354819D01*
X132619047Y-97354819D02*
X132333333Y-97354819D01*
X132333333Y-97354819D02*
X132238095Y-97307200D01*
X132238095Y-97307200D02*
X132190476Y-97259580D01*
D12*
X144504318Y-79573332D02*
X145411461Y-79573332D01*
X145411461Y-79573332D02*
X145592889Y-79633809D01*
X145592889Y-79633809D02*
X145713842Y-79754761D01*
X145713842Y-79754761D02*
X145774318Y-79936190D01*
X145774318Y-79936190D02*
X145774318Y-80057142D01*
X145774318Y-78908094D02*
X145774318Y-78666190D01*
X145774318Y-78666190D02*
X145713842Y-78545237D01*
X145713842Y-78545237D02*
X145653365Y-78484761D01*
X145653365Y-78484761D02*
X145471937Y-78363809D01*
X145471937Y-78363809D02*
X145230032Y-78303332D01*
X145230032Y-78303332D02*
X144746222Y-78303332D01*
X144746222Y-78303332D02*
X144625270Y-78363809D01*
X144625270Y-78363809D02*
X144564794Y-78424285D01*
X144564794Y-78424285D02*
X144504318Y-78545237D01*
X144504318Y-78545237D02*
X144504318Y-78787142D01*
X144504318Y-78787142D02*
X144564794Y-78908094D01*
X144564794Y-78908094D02*
X144625270Y-78968571D01*
X144625270Y-78968571D02*
X144746222Y-79029047D01*
X144746222Y-79029047D02*
X145048603Y-79029047D01*
X145048603Y-79029047D02*
X145169556Y-78968571D01*
X145169556Y-78968571D02*
X145230032Y-78908094D01*
X145230032Y-78908094D02*
X145290508Y-78787142D01*
X145290508Y-78787142D02*
X145290508Y-78545237D01*
X145290508Y-78545237D02*
X145230032Y-78424285D01*
X145230032Y-78424285D02*
X145169556Y-78363809D01*
X145169556Y-78363809D02*
X145048603Y-78303332D01*
D11*
X101661905Y-96254819D02*
X101661905Y-95254819D01*
X101661905Y-95254819D02*
X101900000Y-95254819D01*
X101900000Y-95254819D02*
X102042857Y-95302438D01*
X102042857Y-95302438D02*
X102138095Y-95397676D01*
X102138095Y-95397676D02*
X102185714Y-95492914D01*
X102185714Y-95492914D02*
X102233333Y-95683390D01*
X102233333Y-95683390D02*
X102233333Y-95826247D01*
X102233333Y-95826247D02*
X102185714Y-96016723D01*
X102185714Y-96016723D02*
X102138095Y-96111961D01*
X102138095Y-96111961D02*
X102042857Y-96207200D01*
X102042857Y-96207200D02*
X101900000Y-96254819D01*
X101900000Y-96254819D02*
X101661905Y-96254819D01*
X103185714Y-96254819D02*
X102614286Y-96254819D01*
X102900000Y-96254819D02*
X102900000Y-95254819D01*
X102900000Y-95254819D02*
X102804762Y-95397676D01*
X102804762Y-95397676D02*
X102709524Y-95492914D01*
X102709524Y-95492914D02*
X102614286Y-95540533D01*
X137859580Y-61292857D02*
X137907200Y-61340476D01*
X137907200Y-61340476D02*
X137954819Y-61483333D01*
X137954819Y-61483333D02*
X137954819Y-61578571D01*
X137954819Y-61578571D02*
X137907200Y-61721428D01*
X137907200Y-61721428D02*
X137811961Y-61816666D01*
X137811961Y-61816666D02*
X137716723Y-61864285D01*
X137716723Y-61864285D02*
X137526247Y-61911904D01*
X137526247Y-61911904D02*
X137383390Y-61911904D01*
X137383390Y-61911904D02*
X137192914Y-61864285D01*
X137192914Y-61864285D02*
X137097676Y-61816666D01*
X137097676Y-61816666D02*
X137002438Y-61721428D01*
X137002438Y-61721428D02*
X136954819Y-61578571D01*
X136954819Y-61578571D02*
X136954819Y-61483333D01*
X136954819Y-61483333D02*
X137002438Y-61340476D01*
X137002438Y-61340476D02*
X137050057Y-61292857D01*
X136954819Y-60959523D02*
X136954819Y-60340476D01*
X136954819Y-60340476D02*
X137335771Y-60673809D01*
X137335771Y-60673809D02*
X137335771Y-60530952D01*
X137335771Y-60530952D02*
X137383390Y-60435714D01*
X137383390Y-60435714D02*
X137431009Y-60388095D01*
X137431009Y-60388095D02*
X137526247Y-60340476D01*
X137526247Y-60340476D02*
X137764342Y-60340476D01*
X137764342Y-60340476D02*
X137859580Y-60388095D01*
X137859580Y-60388095D02*
X137907200Y-60435714D01*
X137907200Y-60435714D02*
X137954819Y-60530952D01*
X137954819Y-60530952D02*
X137954819Y-60816666D01*
X137954819Y-60816666D02*
X137907200Y-60911904D01*
X137907200Y-60911904D02*
X137859580Y-60959523D01*
X137383390Y-59769047D02*
X137335771Y-59864285D01*
X137335771Y-59864285D02*
X137288152Y-59911904D01*
X137288152Y-59911904D02*
X137192914Y-59959523D01*
X137192914Y-59959523D02*
X137145295Y-59959523D01*
X137145295Y-59959523D02*
X137050057Y-59911904D01*
X137050057Y-59911904D02*
X137002438Y-59864285D01*
X137002438Y-59864285D02*
X136954819Y-59769047D01*
X136954819Y-59769047D02*
X136954819Y-59578571D01*
X136954819Y-59578571D02*
X137002438Y-59483333D01*
X137002438Y-59483333D02*
X137050057Y-59435714D01*
X137050057Y-59435714D02*
X137145295Y-59388095D01*
X137145295Y-59388095D02*
X137192914Y-59388095D01*
X137192914Y-59388095D02*
X137288152Y-59435714D01*
X137288152Y-59435714D02*
X137335771Y-59483333D01*
X137335771Y-59483333D02*
X137383390Y-59578571D01*
X137383390Y-59578571D02*
X137383390Y-59769047D01*
X137383390Y-59769047D02*
X137431009Y-59864285D01*
X137431009Y-59864285D02*
X137478628Y-59911904D01*
X137478628Y-59911904D02*
X137573866Y-59959523D01*
X137573866Y-59959523D02*
X137764342Y-59959523D01*
X137764342Y-59959523D02*
X137859580Y-59911904D01*
X137859580Y-59911904D02*
X137907200Y-59864285D01*
X137907200Y-59864285D02*
X137954819Y-59769047D01*
X137954819Y-59769047D02*
X137954819Y-59578571D01*
X137954819Y-59578571D02*
X137907200Y-59483333D01*
X137907200Y-59483333D02*
X137859580Y-59435714D01*
X137859580Y-59435714D02*
X137764342Y-59388095D01*
X137764342Y-59388095D02*
X137573866Y-59388095D01*
X137573866Y-59388095D02*
X137478628Y-59435714D01*
X137478628Y-59435714D02*
X137431009Y-59483333D01*
X137431009Y-59483333D02*
X137383390Y-59578571D01*
X135359580Y-61292857D02*
X135407200Y-61340476D01*
X135407200Y-61340476D02*
X135454819Y-61483333D01*
X135454819Y-61483333D02*
X135454819Y-61578571D01*
X135454819Y-61578571D02*
X135407200Y-61721428D01*
X135407200Y-61721428D02*
X135311961Y-61816666D01*
X135311961Y-61816666D02*
X135216723Y-61864285D01*
X135216723Y-61864285D02*
X135026247Y-61911904D01*
X135026247Y-61911904D02*
X134883390Y-61911904D01*
X134883390Y-61911904D02*
X134692914Y-61864285D01*
X134692914Y-61864285D02*
X134597676Y-61816666D01*
X134597676Y-61816666D02*
X134502438Y-61721428D01*
X134502438Y-61721428D02*
X134454819Y-61578571D01*
X134454819Y-61578571D02*
X134454819Y-61483333D01*
X134454819Y-61483333D02*
X134502438Y-61340476D01*
X134502438Y-61340476D02*
X134550057Y-61292857D01*
X134454819Y-60959523D02*
X134454819Y-60340476D01*
X134454819Y-60340476D02*
X134835771Y-60673809D01*
X134835771Y-60673809D02*
X134835771Y-60530952D01*
X134835771Y-60530952D02*
X134883390Y-60435714D01*
X134883390Y-60435714D02*
X134931009Y-60388095D01*
X134931009Y-60388095D02*
X135026247Y-60340476D01*
X135026247Y-60340476D02*
X135264342Y-60340476D01*
X135264342Y-60340476D02*
X135359580Y-60388095D01*
X135359580Y-60388095D02*
X135407200Y-60435714D01*
X135407200Y-60435714D02*
X135454819Y-60530952D01*
X135454819Y-60530952D02*
X135454819Y-60816666D01*
X135454819Y-60816666D02*
X135407200Y-60911904D01*
X135407200Y-60911904D02*
X135359580Y-60959523D01*
X134550057Y-59959523D02*
X134502438Y-59911904D01*
X134502438Y-59911904D02*
X134454819Y-59816666D01*
X134454819Y-59816666D02*
X134454819Y-59578571D01*
X134454819Y-59578571D02*
X134502438Y-59483333D01*
X134502438Y-59483333D02*
X134550057Y-59435714D01*
X134550057Y-59435714D02*
X134645295Y-59388095D01*
X134645295Y-59388095D02*
X134740533Y-59388095D01*
X134740533Y-59388095D02*
X134883390Y-59435714D01*
X134883390Y-59435714D02*
X135454819Y-60007142D01*
X135454819Y-60007142D02*
X135454819Y-59388095D01*
X133304819Y-91866666D02*
X132828628Y-92199999D01*
X133304819Y-92438094D02*
X132304819Y-92438094D01*
X132304819Y-92438094D02*
X132304819Y-92057142D01*
X132304819Y-92057142D02*
X132352438Y-91961904D01*
X132352438Y-91961904D02*
X132400057Y-91914285D01*
X132400057Y-91914285D02*
X132495295Y-91866666D01*
X132495295Y-91866666D02*
X132638152Y-91866666D01*
X132638152Y-91866666D02*
X132733390Y-91914285D01*
X132733390Y-91914285D02*
X132781009Y-91961904D01*
X132781009Y-91961904D02*
X132828628Y-92057142D01*
X132828628Y-92057142D02*
X132828628Y-92438094D01*
X132304819Y-91009523D02*
X132304819Y-91199999D01*
X132304819Y-91199999D02*
X132352438Y-91295237D01*
X132352438Y-91295237D02*
X132400057Y-91342856D01*
X132400057Y-91342856D02*
X132542914Y-91438094D01*
X132542914Y-91438094D02*
X132733390Y-91485713D01*
X132733390Y-91485713D02*
X133114342Y-91485713D01*
X133114342Y-91485713D02*
X133209580Y-91438094D01*
X133209580Y-91438094D02*
X133257200Y-91390475D01*
X133257200Y-91390475D02*
X133304819Y-91295237D01*
X133304819Y-91295237D02*
X133304819Y-91104761D01*
X133304819Y-91104761D02*
X133257200Y-91009523D01*
X133257200Y-91009523D02*
X133209580Y-90961904D01*
X133209580Y-90961904D02*
X133114342Y-90914285D01*
X133114342Y-90914285D02*
X132876247Y-90914285D01*
X132876247Y-90914285D02*
X132781009Y-90961904D01*
X132781009Y-90961904D02*
X132733390Y-91009523D01*
X132733390Y-91009523D02*
X132685771Y-91104761D01*
X132685771Y-91104761D02*
X132685771Y-91295237D01*
X132685771Y-91295237D02*
X132733390Y-91390475D01*
X132733390Y-91390475D02*
X132781009Y-91438094D01*
X132781009Y-91438094D02*
X132876247Y-91485713D01*
D12*
X139062618Y-67645672D02*
X139062618Y-66545672D01*
X139062618Y-66545672D02*
X139364999Y-66545672D01*
X139364999Y-66545672D02*
X139546428Y-66598053D01*
X139546428Y-66598053D02*
X139667380Y-66702815D01*
X139667380Y-66702815D02*
X139727857Y-66807577D01*
X139727857Y-66807577D02*
X139788333Y-67017101D01*
X139788333Y-67017101D02*
X139788333Y-67174244D01*
X139788333Y-67174244D02*
X139727857Y-67383768D01*
X139727857Y-67383768D02*
X139667380Y-67488530D01*
X139667380Y-67488530D02*
X139546428Y-67593292D01*
X139546428Y-67593292D02*
X139364999Y-67645672D01*
X139364999Y-67645672D02*
X139062618Y-67645672D01*
X140211666Y-66545672D02*
X141058333Y-66545672D01*
X141058333Y-66545672D02*
X140514047Y-67645672D01*
D11*
X107260160Y-62954062D02*
X107260160Y-63764726D01*
X107260160Y-63764726D02*
X107307846Y-63860098D01*
X107307846Y-63860098D02*
X107355533Y-63907785D01*
X107355533Y-63907785D02*
X107450905Y-63955471D01*
X107450905Y-63955471D02*
X107641649Y-63955471D01*
X107641649Y-63955471D02*
X107737022Y-63907785D01*
X107737022Y-63907785D02*
X107784708Y-63860098D01*
X107784708Y-63860098D02*
X107832394Y-63764726D01*
X107832394Y-63764726D02*
X107832394Y-62954062D01*
X108833803Y-63955471D02*
X108261569Y-63955471D01*
X108547686Y-63955471D02*
X108547686Y-62954062D01*
X108547686Y-62954062D02*
X108452314Y-63097120D01*
X108452314Y-63097120D02*
X108356941Y-63192492D01*
X108356941Y-63192492D02*
X108261569Y-63240179D01*
X109787526Y-63955471D02*
X109215292Y-63955471D01*
X109501409Y-63955471D02*
X109501409Y-62954062D01*
X109501409Y-62954062D02*
X109406037Y-63097120D01*
X109406037Y-63097120D02*
X109310664Y-63192492D01*
X109310664Y-63192492D02*
X109215292Y-63240179D01*
X98438095Y-99654819D02*
X98438095Y-100464342D01*
X98438095Y-100464342D02*
X98485714Y-100559580D01*
X98485714Y-100559580D02*
X98533333Y-100607200D01*
X98533333Y-100607200D02*
X98628571Y-100654819D01*
X98628571Y-100654819D02*
X98819047Y-100654819D01*
X98819047Y-100654819D02*
X98914285Y-100607200D01*
X98914285Y-100607200D02*
X98961904Y-100559580D01*
X98961904Y-100559580D02*
X99009523Y-100464342D01*
X99009523Y-100464342D02*
X99009523Y-99654819D01*
X100009523Y-100654819D02*
X99438095Y-100654819D01*
X99723809Y-100654819D02*
X99723809Y-99654819D01*
X99723809Y-99654819D02*
X99628571Y-99797676D01*
X99628571Y-99797676D02*
X99533333Y-99892914D01*
X99533333Y-99892914D02*
X99438095Y-99940533D01*
X101657142Y-111359580D02*
X101609523Y-111407200D01*
X101609523Y-111407200D02*
X101466666Y-111454819D01*
X101466666Y-111454819D02*
X101371428Y-111454819D01*
X101371428Y-111454819D02*
X101228571Y-111407200D01*
X101228571Y-111407200D02*
X101133333Y-111311961D01*
X101133333Y-111311961D02*
X101085714Y-111216723D01*
X101085714Y-111216723D02*
X101038095Y-111026247D01*
X101038095Y-111026247D02*
X101038095Y-110883390D01*
X101038095Y-110883390D02*
X101085714Y-110692914D01*
X101085714Y-110692914D02*
X101133333Y-110597676D01*
X101133333Y-110597676D02*
X101228571Y-110502438D01*
X101228571Y-110502438D02*
X101371428Y-110454819D01*
X101371428Y-110454819D02*
X101466666Y-110454819D01*
X101466666Y-110454819D02*
X101609523Y-110502438D01*
X101609523Y-110502438D02*
X101657142Y-110550057D01*
X101990476Y-110454819D02*
X102657142Y-110454819D01*
X102657142Y-110454819D02*
X102228571Y-111454819D01*
X103180952Y-110883390D02*
X103085714Y-110835771D01*
X103085714Y-110835771D02*
X103038095Y-110788152D01*
X103038095Y-110788152D02*
X102990476Y-110692914D01*
X102990476Y-110692914D02*
X102990476Y-110645295D01*
X102990476Y-110645295D02*
X103038095Y-110550057D01*
X103038095Y-110550057D02*
X103085714Y-110502438D01*
X103085714Y-110502438D02*
X103180952Y-110454819D01*
X103180952Y-110454819D02*
X103371428Y-110454819D01*
X103371428Y-110454819D02*
X103466666Y-110502438D01*
X103466666Y-110502438D02*
X103514285Y-110550057D01*
X103514285Y-110550057D02*
X103561904Y-110645295D01*
X103561904Y-110645295D02*
X103561904Y-110692914D01*
X103561904Y-110692914D02*
X103514285Y-110788152D01*
X103514285Y-110788152D02*
X103466666Y-110835771D01*
X103466666Y-110835771D02*
X103371428Y-110883390D01*
X103371428Y-110883390D02*
X103180952Y-110883390D01*
X103180952Y-110883390D02*
X103085714Y-110931009D01*
X103085714Y-110931009D02*
X103038095Y-110978628D01*
X103038095Y-110978628D02*
X102990476Y-111073866D01*
X102990476Y-111073866D02*
X102990476Y-111264342D01*
X102990476Y-111264342D02*
X103038095Y-111359580D01*
X103038095Y-111359580D02*
X103085714Y-111407200D01*
X103085714Y-111407200D02*
X103180952Y-111454819D01*
X103180952Y-111454819D02*
X103371428Y-111454819D01*
X103371428Y-111454819D02*
X103466666Y-111407200D01*
X103466666Y-111407200D02*
X103514285Y-111359580D01*
X103514285Y-111359580D02*
X103561904Y-111264342D01*
X103561904Y-111264342D02*
X103561904Y-111073866D01*
X103561904Y-111073866D02*
X103514285Y-110978628D01*
X103514285Y-110978628D02*
X103466666Y-110931009D01*
X103466666Y-110931009D02*
X103371428Y-110883390D01*
D12*
X103276667Y-61804318D02*
X103276667Y-62711461D01*
X103276667Y-62711461D02*
X103216190Y-62892889D01*
X103216190Y-62892889D02*
X103095238Y-63013842D01*
X103095238Y-63013842D02*
X102913809Y-63074318D01*
X102913809Y-63074318D02*
X102792857Y-63074318D01*
X104546667Y-63074318D02*
X103820952Y-63074318D01*
X104183809Y-63074318D02*
X104183809Y-61804318D01*
X104183809Y-61804318D02*
X104062857Y-61985746D01*
X104062857Y-61985746D02*
X103941905Y-62106699D01*
X103941905Y-62106699D02*
X103820952Y-62167175D01*
X87303818Y-104423332D02*
X88210961Y-104423332D01*
X88210961Y-104423332D02*
X88392389Y-104483809D01*
X88392389Y-104483809D02*
X88513342Y-104604761D01*
X88513342Y-104604761D02*
X88573818Y-104786190D01*
X88573818Y-104786190D02*
X88573818Y-104907142D01*
X87303818Y-103274285D02*
X87303818Y-103516190D01*
X87303818Y-103516190D02*
X87364294Y-103637142D01*
X87364294Y-103637142D02*
X87424770Y-103697618D01*
X87424770Y-103697618D02*
X87606199Y-103818571D01*
X87606199Y-103818571D02*
X87848103Y-103879047D01*
X87848103Y-103879047D02*
X88331913Y-103879047D01*
X88331913Y-103879047D02*
X88452865Y-103818571D01*
X88452865Y-103818571D02*
X88513342Y-103758094D01*
X88513342Y-103758094D02*
X88573818Y-103637142D01*
X88573818Y-103637142D02*
X88573818Y-103395237D01*
X88573818Y-103395237D02*
X88513342Y-103274285D01*
X88513342Y-103274285D02*
X88452865Y-103213809D01*
X88452865Y-103213809D02*
X88331913Y-103153332D01*
X88331913Y-103153332D02*
X88029532Y-103153332D01*
X88029532Y-103153332D02*
X87908580Y-103213809D01*
X87908580Y-103213809D02*
X87848103Y-103274285D01*
X87848103Y-103274285D02*
X87787627Y-103395237D01*
X87787627Y-103395237D02*
X87787627Y-103637142D01*
X87787627Y-103637142D02*
X87848103Y-103758094D01*
X87848103Y-103758094D02*
X87908580Y-103818571D01*
X87908580Y-103818571D02*
X88029532Y-103879047D01*
D11*
X120879580Y-112242857D02*
X120927200Y-112290476D01*
X120927200Y-112290476D02*
X120974819Y-112433333D01*
X120974819Y-112433333D02*
X120974819Y-112528571D01*
X120974819Y-112528571D02*
X120927200Y-112671428D01*
X120927200Y-112671428D02*
X120831961Y-112766666D01*
X120831961Y-112766666D02*
X120736723Y-112814285D01*
X120736723Y-112814285D02*
X120546247Y-112861904D01*
X120546247Y-112861904D02*
X120403390Y-112861904D01*
X120403390Y-112861904D02*
X120212914Y-112814285D01*
X120212914Y-112814285D02*
X120117676Y-112766666D01*
X120117676Y-112766666D02*
X120022438Y-112671428D01*
X120022438Y-112671428D02*
X119974819Y-112528571D01*
X119974819Y-112528571D02*
X119974819Y-112433333D01*
X119974819Y-112433333D02*
X120022438Y-112290476D01*
X120022438Y-112290476D02*
X120070057Y-112242857D01*
X120070057Y-111861904D02*
X120022438Y-111814285D01*
X120022438Y-111814285D02*
X119974819Y-111719047D01*
X119974819Y-111719047D02*
X119974819Y-111480952D01*
X119974819Y-111480952D02*
X120022438Y-111385714D01*
X120022438Y-111385714D02*
X120070057Y-111338095D01*
X120070057Y-111338095D02*
X120165295Y-111290476D01*
X120165295Y-111290476D02*
X120260533Y-111290476D01*
X120260533Y-111290476D02*
X120403390Y-111338095D01*
X120403390Y-111338095D02*
X120974819Y-111909523D01*
X120974819Y-111909523D02*
X120974819Y-111290476D01*
X119974819Y-110433333D02*
X119974819Y-110623809D01*
X119974819Y-110623809D02*
X120022438Y-110719047D01*
X120022438Y-110719047D02*
X120070057Y-110766666D01*
X120070057Y-110766666D02*
X120212914Y-110861904D01*
X120212914Y-110861904D02*
X120403390Y-110909523D01*
X120403390Y-110909523D02*
X120784342Y-110909523D01*
X120784342Y-110909523D02*
X120879580Y-110861904D01*
X120879580Y-110861904D02*
X120927200Y-110814285D01*
X120927200Y-110814285D02*
X120974819Y-110719047D01*
X120974819Y-110719047D02*
X120974819Y-110528571D01*
X120974819Y-110528571D02*
X120927200Y-110433333D01*
X120927200Y-110433333D02*
X120879580Y-110385714D01*
X120879580Y-110385714D02*
X120784342Y-110338095D01*
X120784342Y-110338095D02*
X120546247Y-110338095D01*
X120546247Y-110338095D02*
X120451009Y-110385714D01*
X120451009Y-110385714D02*
X120403390Y-110433333D01*
X120403390Y-110433333D02*
X120355771Y-110528571D01*
X120355771Y-110528571D02*
X120355771Y-110719047D01*
X120355771Y-110719047D02*
X120403390Y-110814285D01*
X120403390Y-110814285D02*
X120451009Y-110861904D01*
X120451009Y-110861904D02*
X120546247Y-110909523D01*
X147359580Y-61292857D02*
X147407200Y-61340476D01*
X147407200Y-61340476D02*
X147454819Y-61483333D01*
X147454819Y-61483333D02*
X147454819Y-61578571D01*
X147454819Y-61578571D02*
X147407200Y-61721428D01*
X147407200Y-61721428D02*
X147311961Y-61816666D01*
X147311961Y-61816666D02*
X147216723Y-61864285D01*
X147216723Y-61864285D02*
X147026247Y-61911904D01*
X147026247Y-61911904D02*
X146883390Y-61911904D01*
X146883390Y-61911904D02*
X146692914Y-61864285D01*
X146692914Y-61864285D02*
X146597676Y-61816666D01*
X146597676Y-61816666D02*
X146502438Y-61721428D01*
X146502438Y-61721428D02*
X146454819Y-61578571D01*
X146454819Y-61578571D02*
X146454819Y-61483333D01*
X146454819Y-61483333D02*
X146502438Y-61340476D01*
X146502438Y-61340476D02*
X146550057Y-61292857D01*
X146454819Y-60959523D02*
X146454819Y-60340476D01*
X146454819Y-60340476D02*
X146835771Y-60673809D01*
X146835771Y-60673809D02*
X146835771Y-60530952D01*
X146835771Y-60530952D02*
X146883390Y-60435714D01*
X146883390Y-60435714D02*
X146931009Y-60388095D01*
X146931009Y-60388095D02*
X147026247Y-60340476D01*
X147026247Y-60340476D02*
X147264342Y-60340476D01*
X147264342Y-60340476D02*
X147359580Y-60388095D01*
X147359580Y-60388095D02*
X147407200Y-60435714D01*
X147407200Y-60435714D02*
X147454819Y-60530952D01*
X147454819Y-60530952D02*
X147454819Y-60816666D01*
X147454819Y-60816666D02*
X147407200Y-60911904D01*
X147407200Y-60911904D02*
X147359580Y-60959523D01*
X146454819Y-59721428D02*
X146454819Y-59626190D01*
X146454819Y-59626190D02*
X146502438Y-59530952D01*
X146502438Y-59530952D02*
X146550057Y-59483333D01*
X146550057Y-59483333D02*
X146645295Y-59435714D01*
X146645295Y-59435714D02*
X146835771Y-59388095D01*
X146835771Y-59388095D02*
X147073866Y-59388095D01*
X147073866Y-59388095D02*
X147264342Y-59435714D01*
X147264342Y-59435714D02*
X147359580Y-59483333D01*
X147359580Y-59483333D02*
X147407200Y-59530952D01*
X147407200Y-59530952D02*
X147454819Y-59626190D01*
X147454819Y-59626190D02*
X147454819Y-59721428D01*
X147454819Y-59721428D02*
X147407200Y-59816666D01*
X147407200Y-59816666D02*
X147359580Y-59864285D01*
X147359580Y-59864285D02*
X147264342Y-59911904D01*
X147264342Y-59911904D02*
X147073866Y-59959523D01*
X147073866Y-59959523D02*
X146835771Y-59959523D01*
X146835771Y-59959523D02*
X146645295Y-59911904D01*
X146645295Y-59911904D02*
X146550057Y-59864285D01*
X146550057Y-59864285D02*
X146502438Y-59816666D01*
X146502438Y-59816666D02*
X146454819Y-59721428D01*
X147833333Y-101254819D02*
X147500000Y-100778628D01*
X147261905Y-101254819D02*
X147261905Y-100254819D01*
X147261905Y-100254819D02*
X147642857Y-100254819D01*
X147642857Y-100254819D02*
X147738095Y-100302438D01*
X147738095Y-100302438D02*
X147785714Y-100350057D01*
X147785714Y-100350057D02*
X147833333Y-100445295D01*
X147833333Y-100445295D02*
X147833333Y-100588152D01*
X147833333Y-100588152D02*
X147785714Y-100683390D01*
X147785714Y-100683390D02*
X147738095Y-100731009D01*
X147738095Y-100731009D02*
X147642857Y-100778628D01*
X147642857Y-100778628D02*
X147261905Y-100778628D01*
X148214286Y-100350057D02*
X148261905Y-100302438D01*
X148261905Y-100302438D02*
X148357143Y-100254819D01*
X148357143Y-100254819D02*
X148595238Y-100254819D01*
X148595238Y-100254819D02*
X148690476Y-100302438D01*
X148690476Y-100302438D02*
X148738095Y-100350057D01*
X148738095Y-100350057D02*
X148785714Y-100445295D01*
X148785714Y-100445295D02*
X148785714Y-100540533D01*
X148785714Y-100540533D02*
X148738095Y-100683390D01*
X148738095Y-100683390D02*
X148166667Y-101254819D01*
X148166667Y-101254819D02*
X148785714Y-101254819D01*
X131932142Y-105459580D02*
X131884523Y-105507200D01*
X131884523Y-105507200D02*
X131741666Y-105554819D01*
X131741666Y-105554819D02*
X131646428Y-105554819D01*
X131646428Y-105554819D02*
X131503571Y-105507200D01*
X131503571Y-105507200D02*
X131408333Y-105411961D01*
X131408333Y-105411961D02*
X131360714Y-105316723D01*
X131360714Y-105316723D02*
X131313095Y-105126247D01*
X131313095Y-105126247D02*
X131313095Y-104983390D01*
X131313095Y-104983390D02*
X131360714Y-104792914D01*
X131360714Y-104792914D02*
X131408333Y-104697676D01*
X131408333Y-104697676D02*
X131503571Y-104602438D01*
X131503571Y-104602438D02*
X131646428Y-104554819D01*
X131646428Y-104554819D02*
X131741666Y-104554819D01*
X131741666Y-104554819D02*
X131884523Y-104602438D01*
X131884523Y-104602438D02*
X131932142Y-104650057D01*
X132313095Y-104650057D02*
X132360714Y-104602438D01*
X132360714Y-104602438D02*
X132455952Y-104554819D01*
X132455952Y-104554819D02*
X132694047Y-104554819D01*
X132694047Y-104554819D02*
X132789285Y-104602438D01*
X132789285Y-104602438D02*
X132836904Y-104650057D01*
X132836904Y-104650057D02*
X132884523Y-104745295D01*
X132884523Y-104745295D02*
X132884523Y-104840533D01*
X132884523Y-104840533D02*
X132836904Y-104983390D01*
X132836904Y-104983390D02*
X132265476Y-105554819D01*
X132265476Y-105554819D02*
X132884523Y-105554819D01*
X133455952Y-104983390D02*
X133360714Y-104935771D01*
X133360714Y-104935771D02*
X133313095Y-104888152D01*
X133313095Y-104888152D02*
X133265476Y-104792914D01*
X133265476Y-104792914D02*
X133265476Y-104745295D01*
X133265476Y-104745295D02*
X133313095Y-104650057D01*
X133313095Y-104650057D02*
X133360714Y-104602438D01*
X133360714Y-104602438D02*
X133455952Y-104554819D01*
X133455952Y-104554819D02*
X133646428Y-104554819D01*
X133646428Y-104554819D02*
X133741666Y-104602438D01*
X133741666Y-104602438D02*
X133789285Y-104650057D01*
X133789285Y-104650057D02*
X133836904Y-104745295D01*
X133836904Y-104745295D02*
X133836904Y-104792914D01*
X133836904Y-104792914D02*
X133789285Y-104888152D01*
X133789285Y-104888152D02*
X133741666Y-104935771D01*
X133741666Y-104935771D02*
X133646428Y-104983390D01*
X133646428Y-104983390D02*
X133455952Y-104983390D01*
X133455952Y-104983390D02*
X133360714Y-105031009D01*
X133360714Y-105031009D02*
X133313095Y-105078628D01*
X133313095Y-105078628D02*
X133265476Y-105173866D01*
X133265476Y-105173866D02*
X133265476Y-105364342D01*
X133265476Y-105364342D02*
X133313095Y-105459580D01*
X133313095Y-105459580D02*
X133360714Y-105507200D01*
X133360714Y-105507200D02*
X133455952Y-105554819D01*
X133455952Y-105554819D02*
X133646428Y-105554819D01*
X133646428Y-105554819D02*
X133741666Y-105507200D01*
X133741666Y-105507200D02*
X133789285Y-105459580D01*
X133789285Y-105459580D02*
X133836904Y-105364342D01*
X133836904Y-105364342D02*
X133836904Y-105173866D01*
X133836904Y-105173866D02*
X133789285Y-105078628D01*
X133789285Y-105078628D02*
X133741666Y-105031009D01*
X133741666Y-105031009D02*
X133646428Y-104983390D01*
X152488830Y-93478857D02*
X152536450Y-93526476D01*
X152536450Y-93526476D02*
X152584069Y-93669333D01*
X152584069Y-93669333D02*
X152584069Y-93764571D01*
X152584069Y-93764571D02*
X152536450Y-93907428D01*
X152536450Y-93907428D02*
X152441211Y-94002666D01*
X152441211Y-94002666D02*
X152345973Y-94050285D01*
X152345973Y-94050285D02*
X152155497Y-94097904D01*
X152155497Y-94097904D02*
X152012640Y-94097904D01*
X152012640Y-94097904D02*
X151822164Y-94050285D01*
X151822164Y-94050285D02*
X151726926Y-94002666D01*
X151726926Y-94002666D02*
X151631688Y-93907428D01*
X151631688Y-93907428D02*
X151584069Y-93764571D01*
X151584069Y-93764571D02*
X151584069Y-93669333D01*
X151584069Y-93669333D02*
X151631688Y-93526476D01*
X151631688Y-93526476D02*
X151679307Y-93478857D01*
X151584069Y-93145523D02*
X151584069Y-92526476D01*
X151584069Y-92526476D02*
X151965021Y-92859809D01*
X151965021Y-92859809D02*
X151965021Y-92716952D01*
X151965021Y-92716952D02*
X152012640Y-92621714D01*
X152012640Y-92621714D02*
X152060259Y-92574095D01*
X152060259Y-92574095D02*
X152155497Y-92526476D01*
X152155497Y-92526476D02*
X152393592Y-92526476D01*
X152393592Y-92526476D02*
X152488830Y-92574095D01*
X152488830Y-92574095D02*
X152536450Y-92621714D01*
X152536450Y-92621714D02*
X152584069Y-92716952D01*
X152584069Y-92716952D02*
X152584069Y-93002666D01*
X152584069Y-93002666D02*
X152536450Y-93097904D01*
X152536450Y-93097904D02*
X152488830Y-93145523D01*
X151584069Y-92193142D02*
X151584069Y-91526476D01*
X151584069Y-91526476D02*
X152584069Y-91955047D01*
X130359580Y-61292857D02*
X130407200Y-61340476D01*
X130407200Y-61340476D02*
X130454819Y-61483333D01*
X130454819Y-61483333D02*
X130454819Y-61578571D01*
X130454819Y-61578571D02*
X130407200Y-61721428D01*
X130407200Y-61721428D02*
X130311961Y-61816666D01*
X130311961Y-61816666D02*
X130216723Y-61864285D01*
X130216723Y-61864285D02*
X130026247Y-61911904D01*
X130026247Y-61911904D02*
X129883390Y-61911904D01*
X129883390Y-61911904D02*
X129692914Y-61864285D01*
X129692914Y-61864285D02*
X129597676Y-61816666D01*
X129597676Y-61816666D02*
X129502438Y-61721428D01*
X129502438Y-61721428D02*
X129454819Y-61578571D01*
X129454819Y-61578571D02*
X129454819Y-61483333D01*
X129454819Y-61483333D02*
X129502438Y-61340476D01*
X129502438Y-61340476D02*
X129550057Y-61292857D01*
X129454819Y-60959523D02*
X129454819Y-60340476D01*
X129454819Y-60340476D02*
X129835771Y-60673809D01*
X129835771Y-60673809D02*
X129835771Y-60530952D01*
X129835771Y-60530952D02*
X129883390Y-60435714D01*
X129883390Y-60435714D02*
X129931009Y-60388095D01*
X129931009Y-60388095D02*
X130026247Y-60340476D01*
X130026247Y-60340476D02*
X130264342Y-60340476D01*
X130264342Y-60340476D02*
X130359580Y-60388095D01*
X130359580Y-60388095D02*
X130407200Y-60435714D01*
X130407200Y-60435714D02*
X130454819Y-60530952D01*
X130454819Y-60530952D02*
X130454819Y-60816666D01*
X130454819Y-60816666D02*
X130407200Y-60911904D01*
X130407200Y-60911904D02*
X130359580Y-60959523D01*
X129454819Y-59483333D02*
X129454819Y-59673809D01*
X129454819Y-59673809D02*
X129502438Y-59769047D01*
X129502438Y-59769047D02*
X129550057Y-59816666D01*
X129550057Y-59816666D02*
X129692914Y-59911904D01*
X129692914Y-59911904D02*
X129883390Y-59959523D01*
X129883390Y-59959523D02*
X130264342Y-59959523D01*
X130264342Y-59959523D02*
X130359580Y-59911904D01*
X130359580Y-59911904D02*
X130407200Y-59864285D01*
X130407200Y-59864285D02*
X130454819Y-59769047D01*
X130454819Y-59769047D02*
X130454819Y-59578571D01*
X130454819Y-59578571D02*
X130407200Y-59483333D01*
X130407200Y-59483333D02*
X130359580Y-59435714D01*
X130359580Y-59435714D02*
X130264342Y-59388095D01*
X130264342Y-59388095D02*
X130026247Y-59388095D01*
X130026247Y-59388095D02*
X129931009Y-59435714D01*
X129931009Y-59435714D02*
X129883390Y-59483333D01*
X129883390Y-59483333D02*
X129835771Y-59578571D01*
X129835771Y-59578571D02*
X129835771Y-59769047D01*
X129835771Y-59769047D02*
X129883390Y-59864285D01*
X129883390Y-59864285D02*
X129931009Y-59911904D01*
X129931009Y-59911904D02*
X130026247Y-59959523D01*
X132859580Y-61292857D02*
X132907200Y-61340476D01*
X132907200Y-61340476D02*
X132954819Y-61483333D01*
X132954819Y-61483333D02*
X132954819Y-61578571D01*
X132954819Y-61578571D02*
X132907200Y-61721428D01*
X132907200Y-61721428D02*
X132811961Y-61816666D01*
X132811961Y-61816666D02*
X132716723Y-61864285D01*
X132716723Y-61864285D02*
X132526247Y-61911904D01*
X132526247Y-61911904D02*
X132383390Y-61911904D01*
X132383390Y-61911904D02*
X132192914Y-61864285D01*
X132192914Y-61864285D02*
X132097676Y-61816666D01*
X132097676Y-61816666D02*
X132002438Y-61721428D01*
X132002438Y-61721428D02*
X131954819Y-61578571D01*
X131954819Y-61578571D02*
X131954819Y-61483333D01*
X131954819Y-61483333D02*
X132002438Y-61340476D01*
X132002438Y-61340476D02*
X132050057Y-61292857D01*
X131954819Y-60959523D02*
X131954819Y-60340476D01*
X131954819Y-60340476D02*
X132335771Y-60673809D01*
X132335771Y-60673809D02*
X132335771Y-60530952D01*
X132335771Y-60530952D02*
X132383390Y-60435714D01*
X132383390Y-60435714D02*
X132431009Y-60388095D01*
X132431009Y-60388095D02*
X132526247Y-60340476D01*
X132526247Y-60340476D02*
X132764342Y-60340476D01*
X132764342Y-60340476D02*
X132859580Y-60388095D01*
X132859580Y-60388095D02*
X132907200Y-60435714D01*
X132907200Y-60435714D02*
X132954819Y-60530952D01*
X132954819Y-60530952D02*
X132954819Y-60816666D01*
X132954819Y-60816666D02*
X132907200Y-60911904D01*
X132907200Y-60911904D02*
X132859580Y-60959523D01*
X132954819Y-59388095D02*
X132954819Y-59959523D01*
X132954819Y-59673809D02*
X131954819Y-59673809D01*
X131954819Y-59673809D02*
X132097676Y-59769047D01*
X132097676Y-59769047D02*
X132192914Y-59864285D01*
X132192914Y-59864285D02*
X132240533Y-59959523D01*
X155433333Y-108954819D02*
X155100000Y-108478628D01*
X154861905Y-108954819D02*
X154861905Y-107954819D01*
X154861905Y-107954819D02*
X155242857Y-107954819D01*
X155242857Y-107954819D02*
X155338095Y-108002438D01*
X155338095Y-108002438D02*
X155385714Y-108050057D01*
X155385714Y-108050057D02*
X155433333Y-108145295D01*
X155433333Y-108145295D02*
X155433333Y-108288152D01*
X155433333Y-108288152D02*
X155385714Y-108383390D01*
X155385714Y-108383390D02*
X155338095Y-108431009D01*
X155338095Y-108431009D02*
X155242857Y-108478628D01*
X155242857Y-108478628D02*
X154861905Y-108478628D01*
X155766667Y-107954819D02*
X156385714Y-107954819D01*
X156385714Y-107954819D02*
X156052381Y-108335771D01*
X156052381Y-108335771D02*
X156195238Y-108335771D01*
X156195238Y-108335771D02*
X156290476Y-108383390D01*
X156290476Y-108383390D02*
X156338095Y-108431009D01*
X156338095Y-108431009D02*
X156385714Y-108526247D01*
X156385714Y-108526247D02*
X156385714Y-108764342D01*
X156385714Y-108764342D02*
X156338095Y-108859580D01*
X156338095Y-108859580D02*
X156290476Y-108907200D01*
X156290476Y-108907200D02*
X156195238Y-108954819D01*
X156195238Y-108954819D02*
X155909524Y-108954819D01*
X155909524Y-108954819D02*
X155814286Y-108907200D01*
X155814286Y-108907200D02*
X155766667Y-108859580D01*
X115107142Y-107789580D02*
X115059523Y-107837200D01*
X115059523Y-107837200D02*
X114916666Y-107884819D01*
X114916666Y-107884819D02*
X114821428Y-107884819D01*
X114821428Y-107884819D02*
X114678571Y-107837200D01*
X114678571Y-107837200D02*
X114583333Y-107741961D01*
X114583333Y-107741961D02*
X114535714Y-107646723D01*
X114535714Y-107646723D02*
X114488095Y-107456247D01*
X114488095Y-107456247D02*
X114488095Y-107313390D01*
X114488095Y-107313390D02*
X114535714Y-107122914D01*
X114535714Y-107122914D02*
X114583333Y-107027676D01*
X114583333Y-107027676D02*
X114678571Y-106932438D01*
X114678571Y-106932438D02*
X114821428Y-106884819D01*
X114821428Y-106884819D02*
X114916666Y-106884819D01*
X114916666Y-106884819D02*
X115059523Y-106932438D01*
X115059523Y-106932438D02*
X115107142Y-106980057D01*
X115488095Y-106980057D02*
X115535714Y-106932438D01*
X115535714Y-106932438D02*
X115630952Y-106884819D01*
X115630952Y-106884819D02*
X115869047Y-106884819D01*
X115869047Y-106884819D02*
X115964285Y-106932438D01*
X115964285Y-106932438D02*
X116011904Y-106980057D01*
X116011904Y-106980057D02*
X116059523Y-107075295D01*
X116059523Y-107075295D02*
X116059523Y-107170533D01*
X116059523Y-107170533D02*
X116011904Y-107313390D01*
X116011904Y-107313390D02*
X115440476Y-107884819D01*
X115440476Y-107884819D02*
X116059523Y-107884819D01*
X116964285Y-106884819D02*
X116488095Y-106884819D01*
X116488095Y-106884819D02*
X116440476Y-107361009D01*
X116440476Y-107361009D02*
X116488095Y-107313390D01*
X116488095Y-107313390D02*
X116583333Y-107265771D01*
X116583333Y-107265771D02*
X116821428Y-107265771D01*
X116821428Y-107265771D02*
X116916666Y-107313390D01*
X116916666Y-107313390D02*
X116964285Y-107361009D01*
X116964285Y-107361009D02*
X117011904Y-107456247D01*
X117011904Y-107456247D02*
X117011904Y-107694342D01*
X117011904Y-107694342D02*
X116964285Y-107789580D01*
X116964285Y-107789580D02*
X116916666Y-107837200D01*
X116916666Y-107837200D02*
X116821428Y-107884819D01*
X116821428Y-107884819D02*
X116583333Y-107884819D01*
X116583333Y-107884819D02*
X116488095Y-107837200D01*
X116488095Y-107837200D02*
X116440476Y-107789580D01*
X106357142Y-96154819D02*
X106023809Y-95678628D01*
X105785714Y-96154819D02*
X105785714Y-95154819D01*
X105785714Y-95154819D02*
X106166666Y-95154819D01*
X106166666Y-95154819D02*
X106261904Y-95202438D01*
X106261904Y-95202438D02*
X106309523Y-95250057D01*
X106309523Y-95250057D02*
X106357142Y-95345295D01*
X106357142Y-95345295D02*
X106357142Y-95488152D01*
X106357142Y-95488152D02*
X106309523Y-95583390D01*
X106309523Y-95583390D02*
X106261904Y-95631009D01*
X106261904Y-95631009D02*
X106166666Y-95678628D01*
X106166666Y-95678628D02*
X105785714Y-95678628D01*
X107309523Y-96154819D02*
X106738095Y-96154819D01*
X107023809Y-96154819D02*
X107023809Y-95154819D01*
X107023809Y-95154819D02*
X106928571Y-95297676D01*
X106928571Y-95297676D02*
X106833333Y-95392914D01*
X106833333Y-95392914D02*
X106738095Y-95440533D01*
X107690476Y-95250057D02*
X107738095Y-95202438D01*
X107738095Y-95202438D02*
X107833333Y-95154819D01*
X107833333Y-95154819D02*
X108071428Y-95154819D01*
X108071428Y-95154819D02*
X108166666Y-95202438D01*
X108166666Y-95202438D02*
X108214285Y-95250057D01*
X108214285Y-95250057D02*
X108261904Y-95345295D01*
X108261904Y-95345295D02*
X108261904Y-95440533D01*
X108261904Y-95440533D02*
X108214285Y-95583390D01*
X108214285Y-95583390D02*
X107642857Y-96154819D01*
X107642857Y-96154819D02*
X108261904Y-96154819D01*
X99459580Y-110242857D02*
X99507200Y-110290476D01*
X99507200Y-110290476D02*
X99554819Y-110433333D01*
X99554819Y-110433333D02*
X99554819Y-110528571D01*
X99554819Y-110528571D02*
X99507200Y-110671428D01*
X99507200Y-110671428D02*
X99411961Y-110766666D01*
X99411961Y-110766666D02*
X99316723Y-110814285D01*
X99316723Y-110814285D02*
X99126247Y-110861904D01*
X99126247Y-110861904D02*
X98983390Y-110861904D01*
X98983390Y-110861904D02*
X98792914Y-110814285D01*
X98792914Y-110814285D02*
X98697676Y-110766666D01*
X98697676Y-110766666D02*
X98602438Y-110671428D01*
X98602438Y-110671428D02*
X98554819Y-110528571D01*
X98554819Y-110528571D02*
X98554819Y-110433333D01*
X98554819Y-110433333D02*
X98602438Y-110290476D01*
X98602438Y-110290476D02*
X98650057Y-110242857D01*
X98650057Y-109861904D02*
X98602438Y-109814285D01*
X98602438Y-109814285D02*
X98554819Y-109719047D01*
X98554819Y-109719047D02*
X98554819Y-109480952D01*
X98554819Y-109480952D02*
X98602438Y-109385714D01*
X98602438Y-109385714D02*
X98650057Y-109338095D01*
X98650057Y-109338095D02*
X98745295Y-109290476D01*
X98745295Y-109290476D02*
X98840533Y-109290476D01*
X98840533Y-109290476D02*
X98983390Y-109338095D01*
X98983390Y-109338095D02*
X99554819Y-109909523D01*
X99554819Y-109909523D02*
X99554819Y-109290476D01*
X98554819Y-108671428D02*
X98554819Y-108576190D01*
X98554819Y-108576190D02*
X98602438Y-108480952D01*
X98602438Y-108480952D02*
X98650057Y-108433333D01*
X98650057Y-108433333D02*
X98745295Y-108385714D01*
X98745295Y-108385714D02*
X98935771Y-108338095D01*
X98935771Y-108338095D02*
X99173866Y-108338095D01*
X99173866Y-108338095D02*
X99364342Y-108385714D01*
X99364342Y-108385714D02*
X99459580Y-108433333D01*
X99459580Y-108433333D02*
X99507200Y-108480952D01*
X99507200Y-108480952D02*
X99554819Y-108576190D01*
X99554819Y-108576190D02*
X99554819Y-108671428D01*
X99554819Y-108671428D02*
X99507200Y-108766666D01*
X99507200Y-108766666D02*
X99459580Y-108814285D01*
X99459580Y-108814285D02*
X99364342Y-108861904D01*
X99364342Y-108861904D02*
X99173866Y-108909523D01*
X99173866Y-108909523D02*
X98935771Y-108909523D01*
X98935771Y-108909523D02*
X98745295Y-108861904D01*
X98745295Y-108861904D02*
X98650057Y-108814285D01*
X98650057Y-108814285D02*
X98602438Y-108766666D01*
X98602438Y-108766666D02*
X98554819Y-108671428D01*
X140359580Y-61292857D02*
X140407200Y-61340476D01*
X140407200Y-61340476D02*
X140454819Y-61483333D01*
X140454819Y-61483333D02*
X140454819Y-61578571D01*
X140454819Y-61578571D02*
X140407200Y-61721428D01*
X140407200Y-61721428D02*
X140311961Y-61816666D01*
X140311961Y-61816666D02*
X140216723Y-61864285D01*
X140216723Y-61864285D02*
X140026247Y-61911904D01*
X140026247Y-61911904D02*
X139883390Y-61911904D01*
X139883390Y-61911904D02*
X139692914Y-61864285D01*
X139692914Y-61864285D02*
X139597676Y-61816666D01*
X139597676Y-61816666D02*
X139502438Y-61721428D01*
X139502438Y-61721428D02*
X139454819Y-61578571D01*
X139454819Y-61578571D02*
X139454819Y-61483333D01*
X139454819Y-61483333D02*
X139502438Y-61340476D01*
X139502438Y-61340476D02*
X139550057Y-61292857D01*
X139454819Y-60959523D02*
X139454819Y-60340476D01*
X139454819Y-60340476D02*
X139835771Y-60673809D01*
X139835771Y-60673809D02*
X139835771Y-60530952D01*
X139835771Y-60530952D02*
X139883390Y-60435714D01*
X139883390Y-60435714D02*
X139931009Y-60388095D01*
X139931009Y-60388095D02*
X140026247Y-60340476D01*
X140026247Y-60340476D02*
X140264342Y-60340476D01*
X140264342Y-60340476D02*
X140359580Y-60388095D01*
X140359580Y-60388095D02*
X140407200Y-60435714D01*
X140407200Y-60435714D02*
X140454819Y-60530952D01*
X140454819Y-60530952D02*
X140454819Y-60816666D01*
X140454819Y-60816666D02*
X140407200Y-60911904D01*
X140407200Y-60911904D02*
X140359580Y-60959523D01*
X139454819Y-60007142D02*
X139454819Y-59388095D01*
X139454819Y-59388095D02*
X139835771Y-59721428D01*
X139835771Y-59721428D02*
X139835771Y-59578571D01*
X139835771Y-59578571D02*
X139883390Y-59483333D01*
X139883390Y-59483333D02*
X139931009Y-59435714D01*
X139931009Y-59435714D02*
X140026247Y-59388095D01*
X140026247Y-59388095D02*
X140264342Y-59388095D01*
X140264342Y-59388095D02*
X140359580Y-59435714D01*
X140359580Y-59435714D02*
X140407200Y-59483333D01*
X140407200Y-59483333D02*
X140454819Y-59578571D01*
X140454819Y-59578571D02*
X140454819Y-59864285D01*
X140454819Y-59864285D02*
X140407200Y-59959523D01*
X140407200Y-59959523D02*
X140359580Y-60007142D01*
X111733333Y-93054819D02*
X111400000Y-92578628D01*
X111161905Y-93054819D02*
X111161905Y-92054819D01*
X111161905Y-92054819D02*
X111542857Y-92054819D01*
X111542857Y-92054819D02*
X111638095Y-92102438D01*
X111638095Y-92102438D02*
X111685714Y-92150057D01*
X111685714Y-92150057D02*
X111733333Y-92245295D01*
X111733333Y-92245295D02*
X111733333Y-92388152D01*
X111733333Y-92388152D02*
X111685714Y-92483390D01*
X111685714Y-92483390D02*
X111638095Y-92531009D01*
X111638095Y-92531009D02*
X111542857Y-92578628D01*
X111542857Y-92578628D02*
X111161905Y-92578628D01*
X112304762Y-92483390D02*
X112209524Y-92435771D01*
X112209524Y-92435771D02*
X112161905Y-92388152D01*
X112161905Y-92388152D02*
X112114286Y-92292914D01*
X112114286Y-92292914D02*
X112114286Y-92245295D01*
X112114286Y-92245295D02*
X112161905Y-92150057D01*
X112161905Y-92150057D02*
X112209524Y-92102438D01*
X112209524Y-92102438D02*
X112304762Y-92054819D01*
X112304762Y-92054819D02*
X112495238Y-92054819D01*
X112495238Y-92054819D02*
X112590476Y-92102438D01*
X112590476Y-92102438D02*
X112638095Y-92150057D01*
X112638095Y-92150057D02*
X112685714Y-92245295D01*
X112685714Y-92245295D02*
X112685714Y-92292914D01*
X112685714Y-92292914D02*
X112638095Y-92388152D01*
X112638095Y-92388152D02*
X112590476Y-92435771D01*
X112590476Y-92435771D02*
X112495238Y-92483390D01*
X112495238Y-92483390D02*
X112304762Y-92483390D01*
X112304762Y-92483390D02*
X112209524Y-92531009D01*
X112209524Y-92531009D02*
X112161905Y-92578628D01*
X112161905Y-92578628D02*
X112114286Y-92673866D01*
X112114286Y-92673866D02*
X112114286Y-92864342D01*
X112114286Y-92864342D02*
X112161905Y-92959580D01*
X112161905Y-92959580D02*
X112209524Y-93007200D01*
X112209524Y-93007200D02*
X112304762Y-93054819D01*
X112304762Y-93054819D02*
X112495238Y-93054819D01*
X112495238Y-93054819D02*
X112590476Y-93007200D01*
X112590476Y-93007200D02*
X112638095Y-92959580D01*
X112638095Y-92959580D02*
X112685714Y-92864342D01*
X112685714Y-92864342D02*
X112685714Y-92673866D01*
X112685714Y-92673866D02*
X112638095Y-92578628D01*
X112638095Y-92578628D02*
X112590476Y-92531009D01*
X112590476Y-92531009D02*
X112495238Y-92483390D01*
D12*
X139745238Y-110569556D02*
X139745238Y-111174318D01*
X139321905Y-109904318D02*
X139745238Y-110569556D01*
X139745238Y-110569556D02*
X140168572Y-109904318D01*
X141257143Y-111174318D02*
X140531428Y-111174318D01*
X140894285Y-111174318D02*
X140894285Y-109904318D01*
X140894285Y-109904318D02*
X140773333Y-110085746D01*
X140773333Y-110085746D02*
X140652381Y-110206699D01*
X140652381Y-110206699D02*
X140531428Y-110267175D01*
D11*
X142633333Y-68954819D02*
X142157143Y-68954819D01*
X142157143Y-68954819D02*
X142157143Y-67954819D01*
X143395238Y-68288152D02*
X143395238Y-68954819D01*
X143157143Y-67907200D02*
X142919048Y-68621485D01*
X142919048Y-68621485D02*
X143538095Y-68621485D01*
X141457142Y-101359580D02*
X141409523Y-101407200D01*
X141409523Y-101407200D02*
X141266666Y-101454819D01*
X141266666Y-101454819D02*
X141171428Y-101454819D01*
X141171428Y-101454819D02*
X141028571Y-101407200D01*
X141028571Y-101407200D02*
X140933333Y-101311961D01*
X140933333Y-101311961D02*
X140885714Y-101216723D01*
X140885714Y-101216723D02*
X140838095Y-101026247D01*
X140838095Y-101026247D02*
X140838095Y-100883390D01*
X140838095Y-100883390D02*
X140885714Y-100692914D01*
X140885714Y-100692914D02*
X140933333Y-100597676D01*
X140933333Y-100597676D02*
X141028571Y-100502438D01*
X141028571Y-100502438D02*
X141171428Y-100454819D01*
X141171428Y-100454819D02*
X141266666Y-100454819D01*
X141266666Y-100454819D02*
X141409523Y-100502438D01*
X141409523Y-100502438D02*
X141457142Y-100550057D01*
X141838095Y-100550057D02*
X141885714Y-100502438D01*
X141885714Y-100502438D02*
X141980952Y-100454819D01*
X141980952Y-100454819D02*
X142219047Y-100454819D01*
X142219047Y-100454819D02*
X142314285Y-100502438D01*
X142314285Y-100502438D02*
X142361904Y-100550057D01*
X142361904Y-100550057D02*
X142409523Y-100645295D01*
X142409523Y-100645295D02*
X142409523Y-100740533D01*
X142409523Y-100740533D02*
X142361904Y-100883390D01*
X142361904Y-100883390D02*
X141790476Y-101454819D01*
X141790476Y-101454819D02*
X142409523Y-101454819D01*
X143361904Y-101454819D02*
X142790476Y-101454819D01*
X143076190Y-101454819D02*
X143076190Y-100454819D01*
X143076190Y-100454819D02*
X142980952Y-100597676D01*
X142980952Y-100597676D02*
X142885714Y-100692914D01*
X142885714Y-100692914D02*
X142790476Y-100740533D01*
X108138095Y-83354819D02*
X108709523Y-83354819D01*
X108423809Y-84354819D02*
X108423809Y-83354819D01*
X109042857Y-84354819D02*
X109042857Y-83354819D01*
X109042857Y-83354819D02*
X109423809Y-83354819D01*
X109423809Y-83354819D02*
X109519047Y-83402438D01*
X109519047Y-83402438D02*
X109566666Y-83450057D01*
X109566666Y-83450057D02*
X109614285Y-83545295D01*
X109614285Y-83545295D02*
X109614285Y-83688152D01*
X109614285Y-83688152D02*
X109566666Y-83783390D01*
X109566666Y-83783390D02*
X109519047Y-83831009D01*
X109519047Y-83831009D02*
X109423809Y-83878628D01*
X109423809Y-83878628D02*
X109042857Y-83878628D01*
X110566666Y-84354819D02*
X109995238Y-84354819D01*
X110280952Y-84354819D02*
X110280952Y-83354819D01*
X110280952Y-83354819D02*
X110185714Y-83497676D01*
X110185714Y-83497676D02*
X110090476Y-83592914D01*
X110090476Y-83592914D02*
X109995238Y-83640533D01*
X107733333Y-86854819D02*
X107400000Y-86378628D01*
X107161905Y-86854819D02*
X107161905Y-85854819D01*
X107161905Y-85854819D02*
X107542857Y-85854819D01*
X107542857Y-85854819D02*
X107638095Y-85902438D01*
X107638095Y-85902438D02*
X107685714Y-85950057D01*
X107685714Y-85950057D02*
X107733333Y-86045295D01*
X107733333Y-86045295D02*
X107733333Y-86188152D01*
X107733333Y-86188152D02*
X107685714Y-86283390D01*
X107685714Y-86283390D02*
X107638095Y-86331009D01*
X107638095Y-86331009D02*
X107542857Y-86378628D01*
X107542857Y-86378628D02*
X107161905Y-86378628D01*
X108209524Y-86854819D02*
X108400000Y-86854819D01*
X108400000Y-86854819D02*
X108495238Y-86807200D01*
X108495238Y-86807200D02*
X108542857Y-86759580D01*
X108542857Y-86759580D02*
X108638095Y-86616723D01*
X108638095Y-86616723D02*
X108685714Y-86426247D01*
X108685714Y-86426247D02*
X108685714Y-86045295D01*
X108685714Y-86045295D02*
X108638095Y-85950057D01*
X108638095Y-85950057D02*
X108590476Y-85902438D01*
X108590476Y-85902438D02*
X108495238Y-85854819D01*
X108495238Y-85854819D02*
X108304762Y-85854819D01*
X108304762Y-85854819D02*
X108209524Y-85902438D01*
X108209524Y-85902438D02*
X108161905Y-85950057D01*
X108161905Y-85950057D02*
X108114286Y-86045295D01*
X108114286Y-86045295D02*
X108114286Y-86283390D01*
X108114286Y-86283390D02*
X108161905Y-86378628D01*
X108161905Y-86378628D02*
X108209524Y-86426247D01*
X108209524Y-86426247D02*
X108304762Y-86473866D01*
X108304762Y-86473866D02*
X108495238Y-86473866D01*
X108495238Y-86473866D02*
X108590476Y-86426247D01*
X108590476Y-86426247D02*
X108638095Y-86378628D01*
X108638095Y-86378628D02*
X108685714Y-86283390D01*
X136554819Y-92116666D02*
X136078628Y-92449999D01*
X136554819Y-92688094D02*
X135554819Y-92688094D01*
X135554819Y-92688094D02*
X135554819Y-92307142D01*
X135554819Y-92307142D02*
X135602438Y-92211904D01*
X135602438Y-92211904D02*
X135650057Y-92164285D01*
X135650057Y-92164285D02*
X135745295Y-92116666D01*
X135745295Y-92116666D02*
X135888152Y-92116666D01*
X135888152Y-92116666D02*
X135983390Y-92164285D01*
X135983390Y-92164285D02*
X136031009Y-92211904D01*
X136031009Y-92211904D02*
X136078628Y-92307142D01*
X136078628Y-92307142D02*
X136078628Y-92688094D01*
X135554819Y-91211904D02*
X135554819Y-91688094D01*
X135554819Y-91688094D02*
X136031009Y-91735713D01*
X136031009Y-91735713D02*
X135983390Y-91688094D01*
X135983390Y-91688094D02*
X135935771Y-91592856D01*
X135935771Y-91592856D02*
X135935771Y-91354761D01*
X135935771Y-91354761D02*
X135983390Y-91259523D01*
X135983390Y-91259523D02*
X136031009Y-91211904D01*
X136031009Y-91211904D02*
X136126247Y-91164285D01*
X136126247Y-91164285D02*
X136364342Y-91164285D01*
X136364342Y-91164285D02*
X136459580Y-91211904D01*
X136459580Y-91211904D02*
X136507200Y-91259523D01*
X136507200Y-91259523D02*
X136554819Y-91354761D01*
X136554819Y-91354761D02*
X136554819Y-91592856D01*
X136554819Y-91592856D02*
X136507200Y-91688094D01*
X136507200Y-91688094D02*
X136459580Y-91735713D01*
X116419048Y-90554819D02*
X116419048Y-89554819D01*
X116419048Y-89554819D02*
X116657143Y-89554819D01*
X116657143Y-89554819D02*
X116800000Y-89602438D01*
X116800000Y-89602438D02*
X116895238Y-89697676D01*
X116895238Y-89697676D02*
X116942857Y-89792914D01*
X116942857Y-89792914D02*
X116990476Y-89983390D01*
X116990476Y-89983390D02*
X116990476Y-90126247D01*
X116990476Y-90126247D02*
X116942857Y-90316723D01*
X116942857Y-90316723D02*
X116895238Y-90411961D01*
X116895238Y-90411961D02*
X116800000Y-90507200D01*
X116800000Y-90507200D02*
X116657143Y-90554819D01*
X116657143Y-90554819D02*
X116419048Y-90554819D01*
X117419048Y-90173866D02*
X118180953Y-90173866D01*
D12*
X160062618Y-82374318D02*
X160062618Y-81104318D01*
X160062618Y-81104318D02*
X160364999Y-81104318D01*
X160364999Y-81104318D02*
X160546428Y-81164794D01*
X160546428Y-81164794D02*
X160667380Y-81285746D01*
X160667380Y-81285746D02*
X160727857Y-81406699D01*
X160727857Y-81406699D02*
X160788333Y-81648603D01*
X160788333Y-81648603D02*
X160788333Y-81830032D01*
X160788333Y-81830032D02*
X160727857Y-82071937D01*
X160727857Y-82071937D02*
X160667380Y-82192889D01*
X160667380Y-82192889D02*
X160546428Y-82313842D01*
X160546428Y-82313842D02*
X160364999Y-82374318D01*
X160364999Y-82374318D02*
X160062618Y-82374318D01*
X161514047Y-81648603D02*
X161393095Y-81588127D01*
X161393095Y-81588127D02*
X161332618Y-81527651D01*
X161332618Y-81527651D02*
X161272142Y-81406699D01*
X161272142Y-81406699D02*
X161272142Y-81346222D01*
X161272142Y-81346222D02*
X161332618Y-81225270D01*
X161332618Y-81225270D02*
X161393095Y-81164794D01*
X161393095Y-81164794D02*
X161514047Y-81104318D01*
X161514047Y-81104318D02*
X161755952Y-81104318D01*
X161755952Y-81104318D02*
X161876904Y-81164794D01*
X161876904Y-81164794D02*
X161937380Y-81225270D01*
X161937380Y-81225270D02*
X161997857Y-81346222D01*
X161997857Y-81346222D02*
X161997857Y-81406699D01*
X161997857Y-81406699D02*
X161937380Y-81527651D01*
X161937380Y-81527651D02*
X161876904Y-81588127D01*
X161876904Y-81588127D02*
X161755952Y-81648603D01*
X161755952Y-81648603D02*
X161514047Y-81648603D01*
X161514047Y-81648603D02*
X161393095Y-81709080D01*
X161393095Y-81709080D02*
X161332618Y-81769556D01*
X161332618Y-81769556D02*
X161272142Y-81890508D01*
X161272142Y-81890508D02*
X161272142Y-82132413D01*
X161272142Y-82132413D02*
X161332618Y-82253365D01*
X161332618Y-82253365D02*
X161393095Y-82313842D01*
X161393095Y-82313842D02*
X161514047Y-82374318D01*
X161514047Y-82374318D02*
X161755952Y-82374318D01*
X161755952Y-82374318D02*
X161876904Y-82313842D01*
X161876904Y-82313842D02*
X161937380Y-82253365D01*
X161937380Y-82253365D02*
X161997857Y-82132413D01*
X161997857Y-82132413D02*
X161997857Y-81890508D01*
X161997857Y-81890508D02*
X161937380Y-81769556D01*
X161937380Y-81769556D02*
X161876904Y-81709080D01*
X161876904Y-81709080D02*
X161755952Y-81648603D01*
D11*
X128157142Y-92254819D02*
X127823809Y-91778628D01*
X127585714Y-92254819D02*
X127585714Y-91254819D01*
X127585714Y-91254819D02*
X127966666Y-91254819D01*
X127966666Y-91254819D02*
X128061904Y-91302438D01*
X128061904Y-91302438D02*
X128109523Y-91350057D01*
X128109523Y-91350057D02*
X128157142Y-91445295D01*
X128157142Y-91445295D02*
X128157142Y-91588152D01*
X128157142Y-91588152D02*
X128109523Y-91683390D01*
X128109523Y-91683390D02*
X128061904Y-91731009D01*
X128061904Y-91731009D02*
X127966666Y-91778628D01*
X127966666Y-91778628D02*
X127585714Y-91778628D01*
X129109523Y-92254819D02*
X128538095Y-92254819D01*
X128823809Y-92254819D02*
X128823809Y-91254819D01*
X128823809Y-91254819D02*
X128728571Y-91397676D01*
X128728571Y-91397676D02*
X128633333Y-91492914D01*
X128633333Y-91492914D02*
X128538095Y-91540533D01*
X130061904Y-92254819D02*
X129490476Y-92254819D01*
X129776190Y-92254819D02*
X129776190Y-91254819D01*
X129776190Y-91254819D02*
X129680952Y-91397676D01*
X129680952Y-91397676D02*
X129585714Y-91492914D01*
X129585714Y-91492914D02*
X129490476Y-91540533D01*
X136507142Y-68059580D02*
X136459523Y-68107200D01*
X136459523Y-68107200D02*
X136316666Y-68154819D01*
X136316666Y-68154819D02*
X136221428Y-68154819D01*
X136221428Y-68154819D02*
X136078571Y-68107200D01*
X136078571Y-68107200D02*
X135983333Y-68011961D01*
X135983333Y-68011961D02*
X135935714Y-67916723D01*
X135935714Y-67916723D02*
X135888095Y-67726247D01*
X135888095Y-67726247D02*
X135888095Y-67583390D01*
X135888095Y-67583390D02*
X135935714Y-67392914D01*
X135935714Y-67392914D02*
X135983333Y-67297676D01*
X135983333Y-67297676D02*
X136078571Y-67202438D01*
X136078571Y-67202438D02*
X136221428Y-67154819D01*
X136221428Y-67154819D02*
X136316666Y-67154819D01*
X136316666Y-67154819D02*
X136459523Y-67202438D01*
X136459523Y-67202438D02*
X136507142Y-67250057D01*
X136840476Y-67154819D02*
X137459523Y-67154819D01*
X137459523Y-67154819D02*
X137126190Y-67535771D01*
X137126190Y-67535771D02*
X137269047Y-67535771D01*
X137269047Y-67535771D02*
X137364285Y-67583390D01*
X137364285Y-67583390D02*
X137411904Y-67631009D01*
X137411904Y-67631009D02*
X137459523Y-67726247D01*
X137459523Y-67726247D02*
X137459523Y-67964342D01*
X137459523Y-67964342D02*
X137411904Y-68059580D01*
X137411904Y-68059580D02*
X137364285Y-68107200D01*
X137364285Y-68107200D02*
X137269047Y-68154819D01*
X137269047Y-68154819D02*
X136983333Y-68154819D01*
X136983333Y-68154819D02*
X136888095Y-68107200D01*
X136888095Y-68107200D02*
X136840476Y-68059580D01*
X138364285Y-67154819D02*
X137888095Y-67154819D01*
X137888095Y-67154819D02*
X137840476Y-67631009D01*
X137840476Y-67631009D02*
X137888095Y-67583390D01*
X137888095Y-67583390D02*
X137983333Y-67535771D01*
X137983333Y-67535771D02*
X138221428Y-67535771D01*
X138221428Y-67535771D02*
X138316666Y-67583390D01*
X138316666Y-67583390D02*
X138364285Y-67631009D01*
X138364285Y-67631009D02*
X138411904Y-67726247D01*
X138411904Y-67726247D02*
X138411904Y-67964342D01*
X138411904Y-67964342D02*
X138364285Y-68059580D01*
X138364285Y-68059580D02*
X138316666Y-68107200D01*
X138316666Y-68107200D02*
X138221428Y-68154819D01*
X138221428Y-68154819D02*
X137983333Y-68154819D01*
X137983333Y-68154819D02*
X137888095Y-68107200D01*
X137888095Y-68107200D02*
X137840476Y-68059580D01*
X106211905Y-71854819D02*
X106211905Y-72664342D01*
X106211905Y-72664342D02*
X106259524Y-72759580D01*
X106259524Y-72759580D02*
X106307143Y-72807200D01*
X106307143Y-72807200D02*
X106402381Y-72854819D01*
X106402381Y-72854819D02*
X106592857Y-72854819D01*
X106592857Y-72854819D02*
X106688095Y-72807200D01*
X106688095Y-72807200D02*
X106735714Y-72759580D01*
X106735714Y-72759580D02*
X106783333Y-72664342D01*
X106783333Y-72664342D02*
X106783333Y-71854819D01*
X107783333Y-72854819D02*
X107211905Y-72854819D01*
X107497619Y-72854819D02*
X107497619Y-71854819D01*
X107497619Y-71854819D02*
X107402381Y-71997676D01*
X107402381Y-71997676D02*
X107307143Y-72092914D01*
X107307143Y-72092914D02*
X107211905Y-72140533D01*
X108402381Y-71854819D02*
X108497619Y-71854819D01*
X108497619Y-71854819D02*
X108592857Y-71902438D01*
X108592857Y-71902438D02*
X108640476Y-71950057D01*
X108640476Y-71950057D02*
X108688095Y-72045295D01*
X108688095Y-72045295D02*
X108735714Y-72235771D01*
X108735714Y-72235771D02*
X108735714Y-72473866D01*
X108735714Y-72473866D02*
X108688095Y-72664342D01*
X108688095Y-72664342D02*
X108640476Y-72759580D01*
X108640476Y-72759580D02*
X108592857Y-72807200D01*
X108592857Y-72807200D02*
X108497619Y-72854819D01*
X108497619Y-72854819D02*
X108402381Y-72854819D01*
X108402381Y-72854819D02*
X108307143Y-72807200D01*
X108307143Y-72807200D02*
X108259524Y-72759580D01*
X108259524Y-72759580D02*
X108211905Y-72664342D01*
X108211905Y-72664342D02*
X108164286Y-72473866D01*
X108164286Y-72473866D02*
X108164286Y-72235771D01*
X108164286Y-72235771D02*
X108211905Y-72045295D01*
X108211905Y-72045295D02*
X108259524Y-71950057D01*
X108259524Y-71950057D02*
X108307143Y-71902438D01*
X108307143Y-71902438D02*
X108402381Y-71854819D01*
X150996666Y-111024819D02*
X150996666Y-111739104D01*
X150996666Y-111739104D02*
X150949047Y-111881961D01*
X150949047Y-111881961D02*
X150853809Y-111977200D01*
X150853809Y-111977200D02*
X150710952Y-112024819D01*
X150710952Y-112024819D02*
X150615714Y-112024819D01*
X151377619Y-111024819D02*
X152044285Y-111024819D01*
X152044285Y-111024819D02*
X151615714Y-112024819D01*
X145357142Y-65509580D02*
X145309523Y-65557200D01*
X145309523Y-65557200D02*
X145166666Y-65604819D01*
X145166666Y-65604819D02*
X145071428Y-65604819D01*
X145071428Y-65604819D02*
X144928571Y-65557200D01*
X144928571Y-65557200D02*
X144833333Y-65461961D01*
X144833333Y-65461961D02*
X144785714Y-65366723D01*
X144785714Y-65366723D02*
X144738095Y-65176247D01*
X144738095Y-65176247D02*
X144738095Y-65033390D01*
X144738095Y-65033390D02*
X144785714Y-64842914D01*
X144785714Y-64842914D02*
X144833333Y-64747676D01*
X144833333Y-64747676D02*
X144928571Y-64652438D01*
X144928571Y-64652438D02*
X145071428Y-64604819D01*
X145071428Y-64604819D02*
X145166666Y-64604819D01*
X145166666Y-64604819D02*
X145309523Y-64652438D01*
X145309523Y-64652438D02*
X145357142Y-64700057D01*
X145738095Y-64700057D02*
X145785714Y-64652438D01*
X145785714Y-64652438D02*
X145880952Y-64604819D01*
X145880952Y-64604819D02*
X146119047Y-64604819D01*
X146119047Y-64604819D02*
X146214285Y-64652438D01*
X146214285Y-64652438D02*
X146261904Y-64700057D01*
X146261904Y-64700057D02*
X146309523Y-64795295D01*
X146309523Y-64795295D02*
X146309523Y-64890533D01*
X146309523Y-64890533D02*
X146261904Y-65033390D01*
X146261904Y-65033390D02*
X145690476Y-65604819D01*
X145690476Y-65604819D02*
X146309523Y-65604819D01*
X146785714Y-65604819D02*
X146976190Y-65604819D01*
X146976190Y-65604819D02*
X147071428Y-65557200D01*
X147071428Y-65557200D02*
X147119047Y-65509580D01*
X147119047Y-65509580D02*
X147214285Y-65366723D01*
X147214285Y-65366723D02*
X147261904Y-65176247D01*
X147261904Y-65176247D02*
X147261904Y-64795295D01*
X147261904Y-64795295D02*
X147214285Y-64700057D01*
X147214285Y-64700057D02*
X147166666Y-64652438D01*
X147166666Y-64652438D02*
X147071428Y-64604819D01*
X147071428Y-64604819D02*
X146880952Y-64604819D01*
X146880952Y-64604819D02*
X146785714Y-64652438D01*
X146785714Y-64652438D02*
X146738095Y-64700057D01*
X146738095Y-64700057D02*
X146690476Y-64795295D01*
X146690476Y-64795295D02*
X146690476Y-65033390D01*
X146690476Y-65033390D02*
X146738095Y-65128628D01*
X146738095Y-65128628D02*
X146785714Y-65176247D01*
X146785714Y-65176247D02*
X146880952Y-65223866D01*
X146880952Y-65223866D02*
X147071428Y-65223866D01*
X147071428Y-65223866D02*
X147166666Y-65176247D01*
X147166666Y-65176247D02*
X147214285Y-65128628D01*
X147214285Y-65128628D02*
X147261904Y-65033390D01*
D12*
X128762618Y-87674318D02*
X128762618Y-86404318D01*
X128762618Y-86404318D02*
X129064999Y-86404318D01*
X129064999Y-86404318D02*
X129246428Y-86464794D01*
X129246428Y-86464794D02*
X129367380Y-86585746D01*
X129367380Y-86585746D02*
X129427857Y-86706699D01*
X129427857Y-86706699D02*
X129488333Y-86948603D01*
X129488333Y-86948603D02*
X129488333Y-87130032D01*
X129488333Y-87130032D02*
X129427857Y-87371937D01*
X129427857Y-87371937D02*
X129367380Y-87492889D01*
X129367380Y-87492889D02*
X129246428Y-87613842D01*
X129246428Y-87613842D02*
X129064999Y-87674318D01*
X129064999Y-87674318D02*
X128762618Y-87674318D01*
X130093095Y-87674318D02*
X130334999Y-87674318D01*
X130334999Y-87674318D02*
X130455952Y-87613842D01*
X130455952Y-87613842D02*
X130516428Y-87553365D01*
X130516428Y-87553365D02*
X130637380Y-87371937D01*
X130637380Y-87371937D02*
X130697857Y-87130032D01*
X130697857Y-87130032D02*
X130697857Y-86646222D01*
X130697857Y-86646222D02*
X130637380Y-86525270D01*
X130637380Y-86525270D02*
X130576904Y-86464794D01*
X130576904Y-86464794D02*
X130455952Y-86404318D01*
X130455952Y-86404318D02*
X130214047Y-86404318D01*
X130214047Y-86404318D02*
X130093095Y-86464794D01*
X130093095Y-86464794D02*
X130032618Y-86525270D01*
X130032618Y-86525270D02*
X129972142Y-86646222D01*
X129972142Y-86646222D02*
X129972142Y-86948603D01*
X129972142Y-86948603D02*
X130032618Y-87069556D01*
X130032618Y-87069556D02*
X130093095Y-87130032D01*
X130093095Y-87130032D02*
X130214047Y-87190508D01*
X130214047Y-87190508D02*
X130455952Y-87190508D01*
X130455952Y-87190508D02*
X130576904Y-87130032D01*
X130576904Y-87130032D02*
X130637380Y-87069556D01*
X130637380Y-87069556D02*
X130697857Y-86948603D01*
D11*
X130979580Y-109242857D02*
X131027200Y-109290476D01*
X131027200Y-109290476D02*
X131074819Y-109433333D01*
X131074819Y-109433333D02*
X131074819Y-109528571D01*
X131074819Y-109528571D02*
X131027200Y-109671428D01*
X131027200Y-109671428D02*
X130931961Y-109766666D01*
X130931961Y-109766666D02*
X130836723Y-109814285D01*
X130836723Y-109814285D02*
X130646247Y-109861904D01*
X130646247Y-109861904D02*
X130503390Y-109861904D01*
X130503390Y-109861904D02*
X130312914Y-109814285D01*
X130312914Y-109814285D02*
X130217676Y-109766666D01*
X130217676Y-109766666D02*
X130122438Y-109671428D01*
X130122438Y-109671428D02*
X130074819Y-109528571D01*
X130074819Y-109528571D02*
X130074819Y-109433333D01*
X130074819Y-109433333D02*
X130122438Y-109290476D01*
X130122438Y-109290476D02*
X130170057Y-109242857D01*
X130170057Y-108861904D02*
X130122438Y-108814285D01*
X130122438Y-108814285D02*
X130074819Y-108719047D01*
X130074819Y-108719047D02*
X130074819Y-108480952D01*
X130074819Y-108480952D02*
X130122438Y-108385714D01*
X130122438Y-108385714D02*
X130170057Y-108338095D01*
X130170057Y-108338095D02*
X130265295Y-108290476D01*
X130265295Y-108290476D02*
X130360533Y-108290476D01*
X130360533Y-108290476D02*
X130503390Y-108338095D01*
X130503390Y-108338095D02*
X131074819Y-108909523D01*
X131074819Y-108909523D02*
X131074819Y-108290476D01*
X130170057Y-107909523D02*
X130122438Y-107861904D01*
X130122438Y-107861904D02*
X130074819Y-107766666D01*
X130074819Y-107766666D02*
X130074819Y-107528571D01*
X130074819Y-107528571D02*
X130122438Y-107433333D01*
X130122438Y-107433333D02*
X130170057Y-107385714D01*
X130170057Y-107385714D02*
X130265295Y-107338095D01*
X130265295Y-107338095D02*
X130360533Y-107338095D01*
X130360533Y-107338095D02*
X130503390Y-107385714D01*
X130503390Y-107385714D02*
X131074819Y-107957142D01*
X131074819Y-107957142D02*
X131074819Y-107338095D01*
X156304819Y-97978857D02*
X155828628Y-98312190D01*
X156304819Y-98550285D02*
X155304819Y-98550285D01*
X155304819Y-98550285D02*
X155304819Y-98169333D01*
X155304819Y-98169333D02*
X155352438Y-98074095D01*
X155352438Y-98074095D02*
X155400057Y-98026476D01*
X155400057Y-98026476D02*
X155495295Y-97978857D01*
X155495295Y-97978857D02*
X155638152Y-97978857D01*
X155638152Y-97978857D02*
X155733390Y-98026476D01*
X155733390Y-98026476D02*
X155781009Y-98074095D01*
X155781009Y-98074095D02*
X155828628Y-98169333D01*
X155828628Y-98169333D02*
X155828628Y-98550285D01*
X156304819Y-97026476D02*
X156304819Y-97597904D01*
X156304819Y-97312190D02*
X155304819Y-97312190D01*
X155304819Y-97312190D02*
X155447676Y-97407428D01*
X155447676Y-97407428D02*
X155542914Y-97502666D01*
X155542914Y-97502666D02*
X155590533Y-97597904D01*
X155304819Y-96407428D02*
X155304819Y-96312190D01*
X155304819Y-96312190D02*
X155352438Y-96216952D01*
X155352438Y-96216952D02*
X155400057Y-96169333D01*
X155400057Y-96169333D02*
X155495295Y-96121714D01*
X155495295Y-96121714D02*
X155685771Y-96074095D01*
X155685771Y-96074095D02*
X155923866Y-96074095D01*
X155923866Y-96074095D02*
X156114342Y-96121714D01*
X156114342Y-96121714D02*
X156209580Y-96169333D01*
X156209580Y-96169333D02*
X156257200Y-96216952D01*
X156257200Y-96216952D02*
X156304819Y-96312190D01*
X156304819Y-96312190D02*
X156304819Y-96407428D01*
X156304819Y-96407428D02*
X156257200Y-96502666D01*
X156257200Y-96502666D02*
X156209580Y-96550285D01*
X156209580Y-96550285D02*
X156114342Y-96597904D01*
X156114342Y-96597904D02*
X155923866Y-96645523D01*
X155923866Y-96645523D02*
X155685771Y-96645523D01*
X155685771Y-96645523D02*
X155495295Y-96597904D01*
X155495295Y-96597904D02*
X155400057Y-96550285D01*
X155400057Y-96550285D02*
X155352438Y-96502666D01*
X155352438Y-96502666D02*
X155304819Y-96407428D01*
X158961904Y-103119819D02*
X158628571Y-102643628D01*
X158390476Y-103119819D02*
X158390476Y-102119819D01*
X158390476Y-102119819D02*
X158771428Y-102119819D01*
X158771428Y-102119819D02*
X158866666Y-102167438D01*
X158866666Y-102167438D02*
X158914285Y-102215057D01*
X158914285Y-102215057D02*
X158961904Y-102310295D01*
X158961904Y-102310295D02*
X158961904Y-102453152D01*
X158961904Y-102453152D02*
X158914285Y-102548390D01*
X158914285Y-102548390D02*
X158866666Y-102596009D01*
X158866666Y-102596009D02*
X158771428Y-102643628D01*
X158771428Y-102643628D02*
X158390476Y-102643628D01*
X159771428Y-103072200D02*
X159676190Y-103119819D01*
X159676190Y-103119819D02*
X159485714Y-103119819D01*
X159485714Y-103119819D02*
X159390476Y-103072200D01*
X159390476Y-103072200D02*
X159342857Y-102976961D01*
X159342857Y-102976961D02*
X159342857Y-102596009D01*
X159342857Y-102596009D02*
X159390476Y-102500771D01*
X159390476Y-102500771D02*
X159485714Y-102453152D01*
X159485714Y-102453152D02*
X159676190Y-102453152D01*
X159676190Y-102453152D02*
X159771428Y-102500771D01*
X159771428Y-102500771D02*
X159819047Y-102596009D01*
X159819047Y-102596009D02*
X159819047Y-102691247D01*
X159819047Y-102691247D02*
X159342857Y-102786485D01*
X160200000Y-103072200D02*
X160295238Y-103119819D01*
X160295238Y-103119819D02*
X160485714Y-103119819D01*
X160485714Y-103119819D02*
X160580952Y-103072200D01*
X160580952Y-103072200D02*
X160628571Y-102976961D01*
X160628571Y-102976961D02*
X160628571Y-102929342D01*
X160628571Y-102929342D02*
X160580952Y-102834104D01*
X160580952Y-102834104D02*
X160485714Y-102786485D01*
X160485714Y-102786485D02*
X160342857Y-102786485D01*
X160342857Y-102786485D02*
X160247619Y-102738866D01*
X160247619Y-102738866D02*
X160200000Y-102643628D01*
X160200000Y-102643628D02*
X160200000Y-102596009D01*
X160200000Y-102596009D02*
X160247619Y-102500771D01*
X160247619Y-102500771D02*
X160342857Y-102453152D01*
X160342857Y-102453152D02*
X160485714Y-102453152D01*
X160485714Y-102453152D02*
X160580952Y-102500771D01*
X161438095Y-103072200D02*
X161342857Y-103119819D01*
X161342857Y-103119819D02*
X161152381Y-103119819D01*
X161152381Y-103119819D02*
X161057143Y-103072200D01*
X161057143Y-103072200D02*
X161009524Y-102976961D01*
X161009524Y-102976961D02*
X161009524Y-102596009D01*
X161009524Y-102596009D02*
X161057143Y-102500771D01*
X161057143Y-102500771D02*
X161152381Y-102453152D01*
X161152381Y-102453152D02*
X161342857Y-102453152D01*
X161342857Y-102453152D02*
X161438095Y-102500771D01*
X161438095Y-102500771D02*
X161485714Y-102596009D01*
X161485714Y-102596009D02*
X161485714Y-102691247D01*
X161485714Y-102691247D02*
X161009524Y-102786485D01*
X161771429Y-102453152D02*
X162152381Y-102453152D01*
X161914286Y-102119819D02*
X161914286Y-102976961D01*
X161914286Y-102976961D02*
X161961905Y-103072200D01*
X161961905Y-103072200D02*
X162057143Y-103119819D01*
X162057143Y-103119819D02*
X162152381Y-103119819D01*
X146733333Y-106454819D02*
X146400000Y-105978628D01*
X146161905Y-106454819D02*
X146161905Y-105454819D01*
X146161905Y-105454819D02*
X146542857Y-105454819D01*
X146542857Y-105454819D02*
X146638095Y-105502438D01*
X146638095Y-105502438D02*
X146685714Y-105550057D01*
X146685714Y-105550057D02*
X146733333Y-105645295D01*
X146733333Y-105645295D02*
X146733333Y-105788152D01*
X146733333Y-105788152D02*
X146685714Y-105883390D01*
X146685714Y-105883390D02*
X146638095Y-105931009D01*
X146638095Y-105931009D02*
X146542857Y-105978628D01*
X146542857Y-105978628D02*
X146161905Y-105978628D01*
X147685714Y-106454819D02*
X147114286Y-106454819D01*
X147400000Y-106454819D02*
X147400000Y-105454819D01*
X147400000Y-105454819D02*
X147304762Y-105597676D01*
X147304762Y-105597676D02*
X147209524Y-105692914D01*
X147209524Y-105692914D02*
X147114286Y-105740533D01*
X154454819Y-101066666D02*
X153978628Y-101399999D01*
X154454819Y-101638094D02*
X153454819Y-101638094D01*
X153454819Y-101638094D02*
X153454819Y-101257142D01*
X153454819Y-101257142D02*
X153502438Y-101161904D01*
X153502438Y-101161904D02*
X153550057Y-101114285D01*
X153550057Y-101114285D02*
X153645295Y-101066666D01*
X153645295Y-101066666D02*
X153788152Y-101066666D01*
X153788152Y-101066666D02*
X153883390Y-101114285D01*
X153883390Y-101114285D02*
X153931009Y-101161904D01*
X153931009Y-101161904D02*
X153978628Y-101257142D01*
X153978628Y-101257142D02*
X153978628Y-101638094D01*
X153788152Y-100209523D02*
X154454819Y-100209523D01*
X153407200Y-100447618D02*
X154121485Y-100685713D01*
X154121485Y-100685713D02*
X154121485Y-100066666D01*
X148795833Y-67604819D02*
X148319643Y-67604819D01*
X148319643Y-67604819D02*
X148319643Y-66604819D01*
X149033929Y-66604819D02*
X149652976Y-66604819D01*
X149652976Y-66604819D02*
X149319643Y-66985771D01*
X149319643Y-66985771D02*
X149462500Y-66985771D01*
X149462500Y-66985771D02*
X149557738Y-67033390D01*
X149557738Y-67033390D02*
X149605357Y-67081009D01*
X149605357Y-67081009D02*
X149652976Y-67176247D01*
X149652976Y-67176247D02*
X149652976Y-67414342D01*
X149652976Y-67414342D02*
X149605357Y-67509580D01*
X149605357Y-67509580D02*
X149557738Y-67557200D01*
X149557738Y-67557200D02*
X149462500Y-67604819D01*
X149462500Y-67604819D02*
X149176786Y-67604819D01*
X149176786Y-67604819D02*
X149081548Y-67557200D01*
X149081548Y-67557200D02*
X149033929Y-67509580D01*
X124379580Y-94505357D02*
X124427200Y-94552976D01*
X124427200Y-94552976D02*
X124474819Y-94695833D01*
X124474819Y-94695833D02*
X124474819Y-94791071D01*
X124474819Y-94791071D02*
X124427200Y-94933928D01*
X124427200Y-94933928D02*
X124331961Y-95029166D01*
X124331961Y-95029166D02*
X124236723Y-95076785D01*
X124236723Y-95076785D02*
X124046247Y-95124404D01*
X124046247Y-95124404D02*
X123903390Y-95124404D01*
X123903390Y-95124404D02*
X123712914Y-95076785D01*
X123712914Y-95076785D02*
X123617676Y-95029166D01*
X123617676Y-95029166D02*
X123522438Y-94933928D01*
X123522438Y-94933928D02*
X123474819Y-94791071D01*
X123474819Y-94791071D02*
X123474819Y-94695833D01*
X123474819Y-94695833D02*
X123522438Y-94552976D01*
X123522438Y-94552976D02*
X123570057Y-94505357D01*
X123570057Y-94124404D02*
X123522438Y-94076785D01*
X123522438Y-94076785D02*
X123474819Y-93981547D01*
X123474819Y-93981547D02*
X123474819Y-93743452D01*
X123474819Y-93743452D02*
X123522438Y-93648214D01*
X123522438Y-93648214D02*
X123570057Y-93600595D01*
X123570057Y-93600595D02*
X123665295Y-93552976D01*
X123665295Y-93552976D02*
X123760533Y-93552976D01*
X123760533Y-93552976D02*
X123903390Y-93600595D01*
X123903390Y-93600595D02*
X124474819Y-94172023D01*
X124474819Y-94172023D02*
X124474819Y-93552976D01*
X123474819Y-93219642D02*
X123474819Y-92600595D01*
X123474819Y-92600595D02*
X123855771Y-92933928D01*
X123855771Y-92933928D02*
X123855771Y-92791071D01*
X123855771Y-92791071D02*
X123903390Y-92695833D01*
X123903390Y-92695833D02*
X123951009Y-92648214D01*
X123951009Y-92648214D02*
X124046247Y-92600595D01*
X124046247Y-92600595D02*
X124284342Y-92600595D01*
X124284342Y-92600595D02*
X124379580Y-92648214D01*
X124379580Y-92648214D02*
X124427200Y-92695833D01*
X124427200Y-92695833D02*
X124474819Y-92791071D01*
X124474819Y-92791071D02*
X124474819Y-93076785D01*
X124474819Y-93076785D02*
X124427200Y-93172023D01*
X124427200Y-93172023D02*
X124379580Y-93219642D01*
X111704761Y-90650057D02*
X111609523Y-90602438D01*
X111609523Y-90602438D02*
X111514285Y-90507200D01*
X111514285Y-90507200D02*
X111371428Y-90364342D01*
X111371428Y-90364342D02*
X111276190Y-90316723D01*
X111276190Y-90316723D02*
X111180952Y-90316723D01*
X111228571Y-90554819D02*
X111133333Y-90507200D01*
X111133333Y-90507200D02*
X111038095Y-90411961D01*
X111038095Y-90411961D02*
X110990476Y-90221485D01*
X110990476Y-90221485D02*
X110990476Y-89888152D01*
X110990476Y-89888152D02*
X111038095Y-89697676D01*
X111038095Y-89697676D02*
X111133333Y-89602438D01*
X111133333Y-89602438D02*
X111228571Y-89554819D01*
X111228571Y-89554819D02*
X111419047Y-89554819D01*
X111419047Y-89554819D02*
X111514285Y-89602438D01*
X111514285Y-89602438D02*
X111609523Y-89697676D01*
X111609523Y-89697676D02*
X111657142Y-89888152D01*
X111657142Y-89888152D02*
X111657142Y-90221485D01*
X111657142Y-90221485D02*
X111609523Y-90411961D01*
X111609523Y-90411961D02*
X111514285Y-90507200D01*
X111514285Y-90507200D02*
X111419047Y-90554819D01*
X111419047Y-90554819D02*
X111228571Y-90554819D01*
X112561904Y-89554819D02*
X112085714Y-89554819D01*
X112085714Y-89554819D02*
X112038095Y-90031009D01*
X112038095Y-90031009D02*
X112085714Y-89983390D01*
X112085714Y-89983390D02*
X112180952Y-89935771D01*
X112180952Y-89935771D02*
X112419047Y-89935771D01*
X112419047Y-89935771D02*
X112514285Y-89983390D01*
X112514285Y-89983390D02*
X112561904Y-90031009D01*
X112561904Y-90031009D02*
X112609523Y-90126247D01*
X112609523Y-90126247D02*
X112609523Y-90364342D01*
X112609523Y-90364342D02*
X112561904Y-90459580D01*
X112561904Y-90459580D02*
X112514285Y-90507200D01*
X112514285Y-90507200D02*
X112419047Y-90554819D01*
X112419047Y-90554819D02*
X112180952Y-90554819D01*
X112180952Y-90554819D02*
X112085714Y-90507200D01*
X112085714Y-90507200D02*
X112038095Y-90459580D01*
D13*
%TO.C,U8*%
X119890000Y-99390000D02*
X119890000Y-99840000D01*
X119890000Y-106610000D02*
X119890000Y-106160000D01*
X120340000Y-99390000D02*
X119890000Y-99390000D01*
X120340000Y-106610000D02*
X119890000Y-106610000D01*
X126660000Y-99390000D02*
X127110000Y-99390000D01*
X126660000Y-106610000D02*
X127110000Y-106610000D01*
X127110000Y-99390000D02*
X127110000Y-99840000D01*
X127110000Y-106610000D02*
X127110000Y-106160000D01*
X128040000Y-106630000D02*
X127360000Y-106630000D01*
X127700000Y-106160000D01*
X128040000Y-106630000D01*
G36*
X128040000Y-106630000D02*
G01*
X127360000Y-106630000D01*
X127700000Y-106160000D01*
X128040000Y-106630000D01*
G37*
%TO.C,MK2*%
X152775000Y-90986000D02*
X155625000Y-90986000D01*
X152775000Y-94686000D02*
X152775000Y-90986000D01*
X155325000Y-94686000D02*
X152775000Y-94686000D01*
X155625000Y-90986000D02*
X155625000Y-94386000D01*
X155625000Y-94966000D02*
X155625000Y-94686000D01*
X155905000Y-94686000D01*
X155625000Y-94966000D01*
G36*
X155625000Y-94966000D02*
G01*
X155625000Y-94686000D01*
X155905000Y-94686000D01*
X155625000Y-94966000D01*
G37*
%TO.C,U9*%
X108600000Y-76550000D02*
X106400000Y-76550000D01*
X108600000Y-78750000D02*
X106400000Y-78750000D01*
X105300000Y-76900000D02*
X105150000Y-77000000D01*
X105150000Y-76800000D01*
X105300000Y-76900000D01*
%TO.C,D6*%
X95622500Y-106010000D02*
X96892500Y-106010000D01*
X96922500Y-102890000D02*
X95622500Y-102890000D01*
X97512500Y-106290000D02*
X97032500Y-106290000D01*
X97272500Y-105960000D01*
X97512500Y-106290000D01*
G36*
X97512500Y-106290000D02*
G01*
X97032500Y-106290000D01*
X97272500Y-105960000D01*
X97512500Y-106290000D01*
G37*
%TO.C,C34*%
X159765000Y-74411252D02*
X159765000Y-73888748D01*
X161235000Y-74411252D02*
X161235000Y-73888748D01*
%TO.C,R7*%
X94037500Y-109272936D02*
X94037500Y-109727064D01*
X95507500Y-109272936D02*
X95507500Y-109727064D01*
D10*
%TO.C,J2*%
X148862500Y-63150000D02*
X148862500Y-63150000D01*
X148962500Y-63150000D02*
X148962500Y-63150000D01*
D14*
X152762500Y-62550000D02*
X152762500Y-63750000D01*
D10*
X148862500Y-63150000D02*
G75*
G02*
X148962500Y-63150000I50000J0D01*
G01*
X148962500Y-63150000D02*
G75*
G02*
X148862500Y-63150000I-50000J0D01*
G01*
D13*
%TO.C,BLM1*%
X132508767Y-98590000D02*
X132216233Y-98590000D01*
X132508767Y-99610000D02*
X132216233Y-99610000D01*
%TO.C,C77*%
X107161252Y-108415000D02*
X106638748Y-108415000D01*
X107161252Y-109885000D02*
X106638748Y-109885000D01*
%TO.C,C2*%
X135376248Y-94265000D02*
X135898752Y-94265000D01*
X135376248Y-95735000D02*
X135898752Y-95735000D01*
%TO.C,C27*%
X132313748Y-100315000D02*
X132836252Y-100315000D01*
X132313748Y-101785000D02*
X132836252Y-101785000D01*
D15*
%TO.C,U12*%
X84500000Y-85500000D02*
X84500000Y-69500000D01*
X100500000Y-85500000D02*
X100500000Y-69500000D01*
D14*
X85550000Y-87650000D02*
G75*
G02*
X85350000Y-87650000I-100000J0D01*
G01*
X85350000Y-87650000D02*
G75*
G02*
X85550000Y-87650000I100000J0D01*
G01*
D13*
%TO.C,C24*%
X123565000Y-111338748D02*
X123565000Y-111861252D01*
X125035000Y-111338748D02*
X125035000Y-111861252D01*
%TO.C,Q6*%
X103440000Y-82937500D02*
X103440000Y-82287500D01*
X103440000Y-82937500D02*
X103440000Y-83587500D01*
X106560000Y-82937500D02*
X106560000Y-82287500D01*
X106560000Y-82937500D02*
X106560000Y-83587500D01*
X103490000Y-84100000D02*
X103160000Y-84340000D01*
X103160000Y-83860000D01*
X103490000Y-84100000D01*
G36*
X103490000Y-84100000D02*
G01*
X103160000Y-84340000D01*
X103160000Y-83860000D01*
X103490000Y-84100000D01*
G37*
%TO.C,D+*%
X122300000Y-88950000D02*
X124700000Y-88950000D01*
X122300000Y-91350000D02*
X122300000Y-88950000D01*
X124700000Y-88950000D02*
X124700000Y-91350000D01*
X124700000Y-91350000D02*
X122300000Y-91350000D01*
D14*
%TO.C,D10*%
X160950000Y-77650000D02*
X160950000Y-77950000D01*
D13*
%TO.C,C1*%
X151261252Y-97765000D02*
X150738748Y-97765000D01*
X151261252Y-99235000D02*
X150738748Y-99235000D01*
%TO.C,U3*%
X132600000Y-94050000D02*
X131500000Y-94050000D01*
X132600000Y-95850000D02*
X131300000Y-95850000D01*
X131250000Y-94050000D02*
X130970000Y-94050000D01*
X131250000Y-93770000D01*
X131250000Y-94050000D01*
G36*
X131250000Y-94050000D02*
G01*
X130970000Y-94050000D01*
X131250000Y-93770000D01*
X131250000Y-94050000D01*
G37*
D14*
%TO.C,J9*%
X132675000Y-85050000D02*
X132675000Y-85450000D01*
X132675000Y-85450000D02*
X134225000Y-88000000D01*
X134225000Y-88000000D02*
X135425000Y-88000000D01*
X135425000Y-87650000D02*
X135825000Y-87650000D01*
X135425000Y-88000000D02*
X135425000Y-87650000D01*
X135825000Y-87650000D02*
X135825000Y-88000000D01*
X135825000Y-88000000D02*
X157325000Y-88000000D01*
X137225000Y-70300000D02*
X137225000Y-71450000D01*
X137225000Y-71450000D02*
X138200000Y-71450000D01*
X137825000Y-70300000D02*
X137225000Y-70300000D01*
X137825000Y-70650000D02*
X137825000Y-70300000D01*
X138200000Y-71450000D02*
X139825000Y-72850000D01*
X138225000Y-70300000D02*
X138225000Y-70650000D01*
X138225000Y-70650000D02*
X137825000Y-70650000D01*
X139025000Y-85050000D02*
X132675000Y-85050000D01*
X139825000Y-72850000D02*
X139825000Y-74150000D01*
X139825000Y-81350000D02*
X139825000Y-84850000D01*
X139825000Y-84850000D02*
X139025000Y-85050000D01*
X156425000Y-73250000D02*
X157325000Y-73250000D01*
X156425000Y-74150000D02*
X156425000Y-73250000D01*
X156425000Y-82250000D02*
X156425000Y-81350000D01*
X156625000Y-70300000D02*
X138225000Y-70300000D01*
X156625000Y-70650000D02*
X156625000Y-70300000D01*
X156825000Y-70450000D02*
X156625000Y-70650000D01*
X156825000Y-70650000D02*
X156825000Y-70450000D01*
X157325000Y-70650000D02*
X156825000Y-70650000D01*
X157325000Y-73250000D02*
X157325000Y-70650000D01*
X157325000Y-82250000D02*
X156425000Y-82250000D01*
X157325000Y-88000000D02*
X157325000Y-82250000D01*
D10*
X158200000Y-75150000D02*
X158200000Y-75150000D01*
X158200000Y-75250000D02*
X158200000Y-75250000D01*
X158200000Y-75150000D02*
G75*
G02*
X158200000Y-75250000I0J-50000D01*
G01*
X158200000Y-75250000D02*
G75*
G02*
X158200000Y-75150000I0J50000D01*
G01*
D13*
%TO.C,D1*%
X100540000Y-96490000D02*
X100540000Y-98410000D01*
X100540000Y-98410000D02*
X103400000Y-98410000D01*
X103400000Y-96490000D02*
X100540000Y-96490000D01*
%TO.C,C38*%
X136765000Y-63888748D02*
X136765000Y-64411252D01*
X138235000Y-63888748D02*
X138235000Y-64411252D01*
%TO.C,C32*%
X134265000Y-63888748D02*
X134265000Y-64411252D01*
X135735000Y-63888748D02*
X135735000Y-64411252D01*
%TO.C,R6*%
X130465000Y-91472936D02*
X130465000Y-91927064D01*
X131935000Y-91472936D02*
X131935000Y-91927064D01*
D14*
%TO.C,D7*%
X142812500Y-67000000D02*
X142812500Y-67300000D01*
D15*
%TO.C,U11*%
X112000000Y-62150000D02*
X113780000Y-62150000D01*
X112000000Y-63430000D02*
X112000000Y-62150000D01*
X112000000Y-88150000D02*
X112000000Y-86870000D01*
X112000000Y-88150000D02*
X113780000Y-88150000D01*
X128000000Y-62150000D02*
X126220000Y-62150000D01*
X128000000Y-63430000D02*
X128000000Y-62150000D01*
X128000000Y-88150000D02*
X126220000Y-88150000D01*
X128000000Y-88150000D02*
X128000000Y-86870000D01*
D14*
X111400000Y-64150000D02*
G75*
G02*
X111200000Y-64150000I-100000J0D01*
G01*
X111200000Y-64150000D02*
G75*
G02*
X111400000Y-64150000I100000J0D01*
G01*
D13*
%TO.C,U1*%
X102822500Y-99840000D02*
X106582500Y-99840000D01*
X102822500Y-106660000D02*
X106582500Y-106660000D01*
X106582500Y-99840000D02*
X106582500Y-101100000D01*
X106582500Y-106660000D02*
X106582500Y-105400000D01*
X101542500Y-99940000D02*
X101302500Y-99610000D01*
X101782500Y-99610000D01*
X101542500Y-99940000D01*
G36*
X101542500Y-99940000D02*
G01*
X101302500Y-99610000D01*
X101782500Y-99610000D01*
X101542500Y-99940000D01*
G37*
%TO.C,C78*%
X102138748Y-108415000D02*
X102661252Y-108415000D01*
X102138748Y-109885000D02*
X102661252Y-109885000D01*
D14*
%TO.C,J1*%
X98900000Y-61200000D02*
X100100000Y-61200000D01*
D10*
X99500000Y-65000000D02*
X99500000Y-65000000D01*
X99500000Y-65100000D02*
X99500000Y-65100000D01*
X99500000Y-65000000D02*
G75*
G02*
X99500000Y-65100000I0J-50000D01*
G01*
X99500000Y-65100000D02*
G75*
G02*
X99500000Y-65000000I0J50000D01*
G01*
D14*
%TO.C,J6*%
X84322500Y-100700000D02*
X84322500Y-107300000D01*
X91772500Y-105300000D02*
X91772500Y-105300000D01*
X91972500Y-105300000D02*
X91972500Y-105300000D01*
X91772500Y-105300000D02*
G75*
G02*
X91972500Y-105300000I100000J0D01*
G01*
X91972500Y-105300000D02*
G75*
G02*
X91772500Y-105300000I-100000J0D01*
G01*
D13*
%TO.C,C26*%
X121465000Y-111861252D02*
X121465000Y-111338748D01*
X122935000Y-111861252D02*
X122935000Y-111338748D01*
%TO.C,C30*%
X143701248Y-59915000D02*
X144223752Y-59915000D01*
X143701248Y-61385000D02*
X144223752Y-61385000D01*
%TO.C,R2*%
X150772936Y-100065000D02*
X151227064Y-100065000D01*
X150772936Y-101535000D02*
X151227064Y-101535000D01*
%TO.C,C28*%
X132313748Y-102515000D02*
X132836252Y-102515000D01*
X132313748Y-103985000D02*
X132836252Y-103985000D01*
%TO.C,C37*%
X149714250Y-92574748D02*
X149714250Y-93097252D01*
X151184250Y-92574748D02*
X151184250Y-93097252D01*
%TO.C,C36*%
X129265000Y-63851248D02*
X129265000Y-64373752D01*
X130735000Y-63851248D02*
X130735000Y-64373752D01*
%TO.C,C31*%
X131765000Y-63888748D02*
X131765000Y-64411252D01*
X133235000Y-63888748D02*
X133235000Y-64411252D01*
%TO.C,R3*%
X154865000Y-105927064D02*
X154865000Y-105472936D01*
X156335000Y-105927064D02*
X156335000Y-105472936D01*
%TO.C,C25*%
X116011252Y-105015000D02*
X115488748Y-105015000D01*
X116011252Y-106485000D02*
X115488748Y-106485000D01*
%TO.C,R12*%
X107177064Y-96715000D02*
X106722936Y-96715000D01*
X107177064Y-98185000D02*
X106722936Y-98185000D01*
%TO.C,C20*%
X96537500Y-109238748D02*
X96537500Y-109761252D01*
X98007500Y-109238748D02*
X98007500Y-109761252D01*
%TO.C,C33*%
X139265000Y-63888748D02*
X139265000Y-64411252D01*
X140735000Y-63888748D02*
X140735000Y-64411252D01*
%TO.C,R8*%
X108772936Y-91827500D02*
X109227064Y-91827500D01*
X108772936Y-93297500D02*
X109227064Y-93297500D01*
D10*
%TO.C,Y1*%
X136150000Y-104000000D02*
X136150000Y-107800000D01*
X136150000Y-107800000D02*
X136550000Y-107800000D01*
X136550000Y-104000000D02*
X136150000Y-104000000D01*
X137450000Y-108900000D02*
X137450000Y-108900000D01*
X137550000Y-108900000D02*
X137550000Y-108900000D01*
X138550000Y-104000000D02*
X142150000Y-104000000D01*
X138550000Y-107800000D02*
X142150000Y-107800000D01*
X144150000Y-104000000D02*
X144550000Y-104000000D01*
X144350000Y-107800000D02*
X144150000Y-107800000D01*
X144550000Y-104000000D02*
X144550000Y-107800000D01*
X144550000Y-107800000D02*
X144350000Y-107800000D01*
X137450000Y-108900000D02*
G75*
G02*
X137550000Y-108900000I50000J0D01*
G01*
X137550000Y-108900000D02*
G75*
G02*
X137450000Y-108900000I-50000J0D01*
G01*
D13*
%TO.C,L4*%
X142490000Y-64296267D02*
X142490000Y-64003733D01*
X143510000Y-64296267D02*
X143510000Y-64003733D01*
%TO.C,C21*%
X138961252Y-100215000D02*
X138438748Y-100215000D01*
X138961252Y-101685000D02*
X138438748Y-101685000D01*
%TO.C,TP1*%
X108200000Y-80200000D02*
X110600000Y-80200000D01*
X108200000Y-82600000D02*
X108200000Y-80200000D01*
X110600000Y-80200000D02*
X110600000Y-82600000D01*
X110600000Y-82600000D02*
X108200000Y-82600000D01*
%TO.C,R9*%
X104772936Y-85765000D02*
X105227064Y-85765000D01*
X104772936Y-87235000D02*
X105227064Y-87235000D01*
%TO.C,R5*%
X133715000Y-91722936D02*
X133715000Y-92177064D01*
X135185000Y-91722936D02*
X135185000Y-92177064D01*
%TO.C,D-*%
X118800000Y-88950000D02*
X121200000Y-88950000D01*
X118800000Y-91350000D02*
X118800000Y-88950000D01*
X121200000Y-88950000D02*
X121200000Y-91350000D01*
X121200000Y-91350000D02*
X118800000Y-91350000D01*
D14*
%TO.C,D8*%
X161000000Y-80150000D02*
X161000000Y-80450000D01*
D13*
%TO.C,R11*%
X128265000Y-94272936D02*
X128265000Y-94727064D01*
X129735000Y-94272936D02*
X129735000Y-94727064D01*
%TO.C,C35*%
X133861252Y-66915000D02*
X133338748Y-66915000D01*
X133861252Y-68385000D02*
X133338748Y-68385000D01*
%TO.C,U10*%
X108550000Y-73300000D02*
X106350000Y-73300000D01*
X108550000Y-75500000D02*
X106350000Y-75500000D01*
X105250000Y-73650000D02*
X105100000Y-73750000D01*
X105100000Y-73550000D01*
X105250000Y-73650000D01*
%TO.C,J7*%
X148730000Y-110570000D02*
X148730000Y-102830000D01*
X151330000Y-107970000D02*
X151330000Y-110570000D01*
X151330000Y-110570000D02*
X148730000Y-110570000D01*
X153930000Y-102830000D02*
X148730000Y-102830000D01*
X153930000Y-107970000D02*
X151330000Y-107970000D01*
X153930000Y-107970000D02*
X153930000Y-102830000D01*
X153930000Y-109240000D02*
X153930000Y-110570000D01*
X153930000Y-110570000D02*
X152600000Y-110570000D01*
%TO.C,C29*%
X145701248Y-62415000D02*
X146223752Y-62415000D01*
X145701248Y-63885000D02*
X146223752Y-63885000D01*
D14*
%TO.C,D9*%
X129850000Y-84700000D02*
X129550000Y-84700000D01*
D13*
%TO.C,C22*%
X131565000Y-108861252D02*
X131565000Y-108338748D01*
X133035000Y-108861252D02*
X133035000Y-108338748D01*
%TO.C,R10*%
X153465000Y-97108936D02*
X153465000Y-97563064D01*
X154935000Y-97108936D02*
X154935000Y-97563064D01*
%TO.C,Reset*%
X158190000Y-93590000D02*
X158190000Y-100410000D01*
X159500000Y-93590000D02*
X158190000Y-93590000D01*
X159500000Y-100410000D02*
X158190000Y-100410000D01*
X159665000Y-95190000D02*
X159665000Y-98810000D01*
X159665000Y-98810000D02*
X160935000Y-98810000D01*
X159735000Y-95190000D02*
X159735000Y-96396667D01*
X159855000Y-95190000D02*
X159855000Y-96396667D01*
X159975000Y-95190000D02*
X159975000Y-96396667D01*
X160095000Y-95190000D02*
X160095000Y-96396667D01*
X160215000Y-95190000D02*
X160215000Y-96396667D01*
X160335000Y-95190000D02*
X160335000Y-96396667D01*
X160455000Y-95190000D02*
X160455000Y-96396667D01*
X160575000Y-95190000D02*
X160575000Y-96396667D01*
X160695000Y-95190000D02*
X160695000Y-96396667D01*
X160815000Y-95190000D02*
X160815000Y-96396667D01*
X160935000Y-95190000D02*
X159665000Y-95190000D01*
X160935000Y-96396667D02*
X159665000Y-96396667D01*
X160935000Y-98810000D02*
X160935000Y-95190000D01*
X162410000Y-93590000D02*
X161100000Y-93590000D01*
X162410000Y-93590000D02*
X162410000Y-100410000D01*
X162410000Y-100410000D02*
X161100000Y-100410000D01*
X162650000Y-93350000D02*
X161267000Y-93350000D01*
X162650000Y-93350000D02*
X162650000Y-94733000D01*
%TO.C,R1*%
X146165000Y-108472936D02*
X146165000Y-108927064D01*
X147635000Y-108472936D02*
X147635000Y-108927064D01*
%TO.C,R4*%
X154865000Y-101727064D02*
X154865000Y-101272936D01*
X156335000Y-101727064D02*
X156335000Y-101272936D01*
%TO.C,L3*%
X145701248Y-66415000D02*
X146223752Y-66415000D01*
X145701248Y-67885000D02*
X146223752Y-67885000D01*
%TO.C,C23*%
X124965000Y-94123752D02*
X124965000Y-93601248D01*
X126435000Y-94123752D02*
X126435000Y-93601248D01*
%TO.C,Q5*%
X107440000Y-89000000D02*
X107440000Y-88350000D01*
X107440000Y-89000000D02*
X107440000Y-89650000D01*
X110560000Y-89000000D02*
X110560000Y-88350000D01*
X110560000Y-89000000D02*
X110560000Y-89650000D01*
X107490000Y-90162500D02*
X107160000Y-90402500D01*
X107160000Y-89922500D01*
X107490000Y-90162500D01*
G36*
X107490000Y-90162500D02*
G01*
X107160000Y-90402500D01*
X107160000Y-89922500D01*
X107490000Y-90162500D01*
G37*
%TD*%
M02*
