%TF.GenerationSoftware,KiCad,Pcbnew,8.0.0*%
%TF.CreationDate,2024-10-31T15:18:52+01:00*%
%TF.ProjectId,gateway_design_kicad,67617465-7761-4795-9f64-657369676e5f,rev?*%
%TF.SameCoordinates,Original*%
%TF.FileFunction,Copper,L2,Bot*%
%TF.FilePolarity,Positive*%
%FSLAX46Y46*%
G04 Gerber Fmt 4.6, Leading zero omitted, Abs format (unit mm)*
G04 Created by KiCad (PCBNEW 8.0.0) date 2024-10-31 15:18:52*
%MOMM*%
%LPD*%
G01*
G04 APERTURE LIST*
%TA.AperFunction,ComponentPad*%
%ADD10C,3.195000*%
%TD*%
%TA.AperFunction,ComponentPad*%
%ADD11C,4.290000*%
%TD*%
%TA.AperFunction,ComponentPad*%
%ADD12R,1.700000X1.700000*%
%TD*%
%TA.AperFunction,ComponentPad*%
%ADD13O,1.700000X1.700000*%
%TD*%
%TA.AperFunction,ViaPad*%
%ADD14C,0.500000*%
%TD*%
%TA.AperFunction,ViaPad*%
%ADD15C,0.600000*%
%TD*%
%TA.AperFunction,Conductor*%
%ADD16C,0.200000*%
%TD*%
%TA.AperFunction,Conductor*%
%ADD17C,0.500000*%
%TD*%
G04 APERTURE END LIST*
D10*
%TO.P,J6,6,Shield*%
%TO.N,Net-(D6-GND)*%
X90272500Y-99125000D03*
D11*
X86272500Y-99125000D03*
D10*
X90272500Y-108875000D03*
D11*
X86272500Y-108875000D03*
%TD*%
D12*
%TO.P,J7,1,Pin_1*%
%TO.N,GND*%
X152600000Y-109240000D03*
D13*
%TO.P,J7,2,Pin_2*%
%TO.N,unconnected-(J7-Pin_2-Pad2)*%
X150060000Y-109240000D03*
%TO.P,J7,3,Pin_3*%
%TO.N,Net-(J7-Pin_3)*%
X152600000Y-106700000D03*
%TO.P,J7,4,Pin_4*%
%TO.N,Net-(J7-Pin_4)*%
X150060000Y-106700000D03*
%TO.P,J7,5,Pin_5*%
%TO.N,+3V3*%
X152600000Y-104160000D03*
%TO.P,J7,6,Pin_6*%
%TO.N,Net-(J7-Pin_6)*%
X150060000Y-104160000D03*
%TD*%
D14*
%TO.N,+3V3*%
X96199998Y-97700000D03*
D15*
X130100000Y-68800000D03*
X93500000Y-66100000D03*
X94500000Y-73600000D03*
X108000000Y-107300000D03*
X124200000Y-108700000D03*
X118000000Y-105700000D03*
X131200000Y-89400000D03*
D14*
%TO.N,GND*%
X136800000Y-97500000D03*
X159100000Y-64000000D03*
X87200000Y-92700000D03*
X149500000Y-86000000D03*
X120300000Y-77700000D03*
X104900000Y-106600000D03*
D15*
X123500000Y-105700000D03*
X132700000Y-97200000D03*
D14*
X114100000Y-112000000D03*
X161000000Y-92000000D03*
D15*
X115100000Y-76400000D03*
D14*
X89200000Y-79600000D03*
D15*
X129357648Y-104430593D03*
D14*
X113800000Y-102400000D03*
X120300000Y-71500000D03*
X105300000Y-91600000D03*
X104600000Y-70100000D03*
X145200000Y-72500000D03*
D15*
X120900000Y-105200000D03*
D14*
X105800000Y-59700000D03*
X113500000Y-92500000D03*
D15*
X106900000Y-75100000D03*
X102871462Y-82861413D03*
X108600000Y-76000000D03*
%TO.N,USB_P*%
X116179791Y-104341460D03*
X93800000Y-104000000D03*
%TO.N,USB_N*%
X98600000Y-103500000D03*
X116099998Y-103500002D03*
%TO.N,/SIM.IO*%
X129700000Y-83000000D03*
X129600000Y-80330000D03*
%TO.N,USB_OTG*%
X93500002Y-102600002D03*
X111249996Y-102149996D03*
%TO.N,MIC_SD*%
X139800000Y-97300000D03*
X128400000Y-99400000D03*
%TO.N,MIC_SCK*%
X148200000Y-93100000D03*
X126000000Y-100500000D03*
%TO.N,MIC_WS*%
X156600003Y-95636006D03*
X125800000Y-101400000D03*
%TO.N,A_SPWR*%
X121100000Y-100150000D03*
X104200000Y-88300000D03*
%TO.N,TMP_SDA*%
X134500000Y-93000000D03*
X126900000Y-97400000D03*
%TO.N,TMP_SCL*%
X131100000Y-92700000D03*
X126400000Y-96700000D03*
%TO.N,LORA_SCK*%
X99100000Y-94800000D03*
X123600000Y-102750003D03*
%TO.N,LORA_D0*%
X99000000Y-81200000D03*
X124699998Y-101800000D03*
%TO.N,LORA_D1*%
X87500000Y-66800000D03*
X123500000Y-95500000D03*
%TO.N,LORA_MOSI*%
X123625077Y-103762847D03*
X97650000Y-95050000D03*
%TO.N,LORA_D2*%
X85400000Y-63900000D03*
X122800000Y-94700000D03*
%TO.N,A_RX*%
X104100000Y-77200000D03*
X120503124Y-91650002D03*
%TO.N,A_CTS*%
X104090380Y-78109620D03*
X119577820Y-93019241D03*
%TO.N,A_TX*%
X122497799Y-93006705D03*
X104400000Y-74900000D03*
%TO.N,LORA_RESET*%
X123799994Y-101800000D03*
X103500002Y-94400002D03*
%TO.N,+1V8*%
X110175000Y-69375000D03*
X110200000Y-76300000D03*
%TO.N,SCTS*%
X110500000Y-78400000D03*
X111400000Y-75100000D03*
%TO.N,+5V*%
X93700000Y-105300000D03*
X99800000Y-105500000D03*
%TD*%
D16*
%TO.N,+3V3*%
X125600000Y-64300000D02*
X95300000Y-64300000D01*
X94500000Y-96000002D02*
X96199998Y-97700000D01*
X108200000Y-107300000D02*
X109800000Y-105700000D01*
X95300000Y-64300000D02*
X93500000Y-66100000D01*
X108000000Y-107300000D02*
X107937500Y-107300000D01*
X130100000Y-68800000D02*
X125600000Y-64300000D01*
X151210000Y-105550000D02*
X127350000Y-105550000D01*
X94500000Y-73600000D02*
X94500000Y-96000002D01*
X108000000Y-107300000D02*
X108200000Y-107300000D01*
X152600000Y-104160000D02*
X151210000Y-105550000D01*
X124200000Y-108700000D02*
X109400000Y-108700000D01*
X109400000Y-108700000D02*
X108000000Y-107300000D01*
X131200000Y-69900000D02*
X130100000Y-68800000D01*
X131200000Y-89400000D02*
X131200000Y-69900000D01*
X127350000Y-105550000D02*
X124200000Y-108700000D01*
X109800000Y-105700000D02*
X118000000Y-105700000D01*
%TO.N,Net-(D6-GND)*%
X86272500Y-108875000D02*
X90272500Y-108875000D01*
X86272500Y-99125000D02*
X86272500Y-108875000D01*
X90272500Y-99125000D02*
X86272500Y-99125000D01*
%TO.N,USB_P*%
X94141460Y-104341460D02*
X93800000Y-104000000D01*
X116179791Y-104341460D02*
X94141460Y-104341460D01*
%TO.N,USB_N*%
X98600000Y-103500000D02*
X116099996Y-103500000D01*
X116099996Y-103500000D02*
X116099998Y-103500002D01*
%TO.N,/SIM.IO*%
X129700000Y-80430000D02*
X129600000Y-80330000D01*
X129700000Y-83000000D02*
X129700000Y-80430000D01*
%TO.N,USB_OTG*%
X93500004Y-102600000D02*
X93500002Y-102600002D01*
X111249996Y-102149996D02*
X110799992Y-102600000D01*
X110799992Y-102600000D02*
X93500004Y-102600000D01*
%TO.N,MIC_SD*%
X128462500Y-99337500D02*
X128400000Y-99400000D01*
X139800000Y-97300000D02*
X137700000Y-99400000D01*
X137700000Y-99400000D02*
X128400000Y-99400000D01*
%TO.N,MIC_SCK*%
X140900002Y-100500000D02*
X148200000Y-93200002D01*
X126000000Y-100500000D02*
X140900002Y-100500000D01*
X148200000Y-93200002D02*
X148200000Y-93100000D01*
%TO.N,MIC_WS*%
X150836009Y-101400000D02*
X156600003Y-95636006D01*
X125800000Y-101400000D02*
X150836009Y-101400000D01*
%TO.N,A_SPWR*%
X103000000Y-96200000D02*
X117150000Y-96200000D01*
X101800000Y-90700000D02*
X101800000Y-95000000D01*
X104200000Y-88300000D02*
X101800000Y-90700000D01*
X101800000Y-95000000D02*
X103000000Y-96200000D01*
X117150000Y-96200000D02*
X121100000Y-100150000D01*
%TO.N,TMP_SDA*%
X126900000Y-97400000D02*
X130100000Y-97400000D01*
X130100000Y-97400000D02*
X134500000Y-93000000D01*
%TO.N,TMP_SCL*%
X130400000Y-92700000D02*
X126400000Y-96700000D01*
X131100000Y-92700000D02*
X130400000Y-92700000D01*
%TO.N,LORA_SCK*%
X105100000Y-100800000D02*
X121649997Y-100800000D01*
X121649997Y-100800000D02*
X123600000Y-102750003D01*
X99100000Y-94800000D02*
X105100000Y-100800000D01*
%TO.N,LORA_D0*%
X124699998Y-101800000D02*
X124699998Y-100499998D01*
X112200000Y-88000000D02*
X105800000Y-88000000D01*
X124699998Y-100499998D02*
X112200000Y-88000000D01*
X105800000Y-88000000D02*
X99000000Y-81200000D01*
%TO.N,LORA_D1*%
X123500000Y-95500000D02*
X120573655Y-95500000D01*
X112673655Y-87600000D02*
X111231372Y-87600000D01*
X111231372Y-87600000D02*
X90431372Y-66800000D01*
X120573655Y-95500000D02*
X112673655Y-87600000D01*
X90431372Y-66800000D02*
X87500000Y-66800000D01*
%TO.N,LORA_MOSI*%
X103950000Y-101350000D02*
X121212230Y-101350000D01*
X97650000Y-95050000D02*
X103950000Y-101350000D01*
X121212230Y-101350000D02*
X123625077Y-103762847D01*
%TO.N,LORA_D2*%
X88097058Y-63900000D02*
X85400000Y-63900000D01*
X120339340Y-94700000D02*
X112839340Y-87200000D01*
X112839340Y-87200000D02*
X111397058Y-87200000D01*
X122800000Y-94700000D02*
X120339340Y-94700000D01*
X111397058Y-87200000D02*
X88097058Y-63900000D01*
%TO.N,A_RX*%
X106135537Y-77200000D02*
X104100000Y-77200000D01*
X120503124Y-91567587D02*
X106135537Y-77200000D01*
X120503124Y-91650002D02*
X120503124Y-91567587D01*
%TO.N,A_CTS*%
X104090380Y-78109620D02*
X106068286Y-78109620D01*
X106068286Y-78109620D02*
X119577820Y-91619154D01*
X119577820Y-91619154D02*
X119577820Y-93019241D01*
%TO.N,A_TX*%
X104400000Y-74900000D02*
X104754777Y-74900000D01*
X104754777Y-74900000D02*
X122497799Y-92643022D01*
X122497799Y-92643022D02*
X122497799Y-93006705D01*
%TO.N,LORA_RESET*%
X117986243Y-94400002D02*
X123799994Y-100213753D01*
X103500002Y-94400002D02*
X117986243Y-94400002D01*
X123799994Y-100213753D02*
X123799994Y-101800000D01*
%TO.N,+1V8*%
X110200000Y-69400000D02*
X110175000Y-69375000D01*
X110200000Y-76300000D02*
X110200000Y-69400000D01*
%TO.N,SCTS*%
X111400000Y-77500000D02*
X111400000Y-75100000D01*
X110500000Y-78400000D02*
X111400000Y-77500000D01*
%TO.N,+5V*%
X99600000Y-105300000D02*
X99800000Y-105500000D01*
D17*
X93700000Y-105300000D02*
X99600000Y-105300000D01*
%TD*%
%TA.AperFunction,Conductor*%
%TO.N,GND*%
G36*
X105212466Y-88261701D02*
G01*
X105315139Y-88364374D01*
X105315149Y-88364385D01*
X105319479Y-88368715D01*
X105319480Y-88368716D01*
X105431284Y-88480520D01*
X105518095Y-88530639D01*
X105518097Y-88530641D01*
X105568213Y-88559576D01*
X105568215Y-88559577D01*
X105720942Y-88600500D01*
X105720943Y-88600500D01*
X111899903Y-88600500D01*
X111966942Y-88620185D01*
X111987584Y-88636819D01*
X116938586Y-93587821D01*
X116972071Y-93649144D01*
X116967087Y-93718836D01*
X116925215Y-93774769D01*
X116859751Y-93799186D01*
X116850905Y-93799502D01*
X104082414Y-93799502D01*
X104015375Y-93779817D01*
X104005099Y-93772447D01*
X104002265Y-93770187D01*
X104002264Y-93770186D01*
X103920541Y-93718836D01*
X103849525Y-93674213D01*
X103679256Y-93614633D01*
X103679251Y-93614632D01*
X103500006Y-93594437D01*
X103499998Y-93594437D01*
X103320752Y-93614632D01*
X103320747Y-93614633D01*
X103150478Y-93674213D01*
X102997739Y-93770186D01*
X102870186Y-93897739D01*
X102774213Y-94050478D01*
X102714633Y-94220747D01*
X102714632Y-94220752D01*
X102694437Y-94399998D01*
X102694437Y-94400005D01*
X102714632Y-94579251D01*
X102714633Y-94579256D01*
X102774213Y-94749525D01*
X102823454Y-94827891D01*
X102842454Y-94895128D01*
X102822086Y-94961963D01*
X102768818Y-95007177D01*
X102699562Y-95016414D01*
X102636306Y-94986743D01*
X102630779Y-94981544D01*
X102436819Y-94787584D01*
X102403334Y-94726261D01*
X102400500Y-94699903D01*
X102400500Y-91000097D01*
X102420185Y-90933058D01*
X102436819Y-90912416D01*
X103319420Y-90029815D01*
X104218536Y-89130698D01*
X104279857Y-89097215D01*
X104292310Y-89095163D01*
X104379255Y-89085368D01*
X104549522Y-89025789D01*
X104702262Y-88929816D01*
X104829816Y-88802262D01*
X104925789Y-88649522D01*
X104985368Y-88479255D01*
X105001565Y-88335498D01*
X105028631Y-88271085D01*
X105086226Y-88231530D01*
X105156062Y-88229392D01*
X105212466Y-88261701D01*
G37*
%TD.AperFunction*%
%TA.AperFunction,Conductor*%
G36*
X164442539Y-56020185D02*
G01*
X164488294Y-56072989D01*
X164499500Y-56124500D01*
X164499500Y-114275500D01*
X164479815Y-114342539D01*
X164427011Y-114388294D01*
X164375500Y-114399500D01*
X83624500Y-114399500D01*
X83557461Y-114379815D01*
X83511706Y-114327011D01*
X83500500Y-114275500D01*
X83500500Y-109686416D01*
X83520185Y-109619377D01*
X83572989Y-109573622D01*
X83642147Y-109563678D01*
X83705703Y-109592703D01*
X83742885Y-109649526D01*
X83794387Y-109814803D01*
X83794391Y-109814814D01*
X83794392Y-109814817D01*
X83794394Y-109814822D01*
X83925745Y-110106672D01*
X84062017Y-110332093D01*
X84091316Y-110380560D01*
X84091322Y-110380569D01*
X84288698Y-110632500D01*
X84514999Y-110858801D01*
X84610878Y-110933918D01*
X84766938Y-111056183D01*
X85040828Y-111221755D01*
X85332678Y-111353106D01*
X85332688Y-111353109D01*
X85332696Y-111353112D01*
X85536381Y-111416582D01*
X85638233Y-111448321D01*
X85953037Y-111506011D01*
X86272500Y-111525335D01*
X86591963Y-111506011D01*
X86906767Y-111448321D01*
X87212322Y-111353106D01*
X87504172Y-111221755D01*
X87695181Y-111106286D01*
X158649500Y-111106286D01*
X158667788Y-111221756D01*
X158682754Y-111316243D01*
X158694732Y-111353108D01*
X158748444Y-111518414D01*
X158844951Y-111707820D01*
X158969890Y-111879786D01*
X159120213Y-112030109D01*
X159292179Y-112155048D01*
X159292181Y-112155049D01*
X159292184Y-112155051D01*
X159481588Y-112251557D01*
X159683757Y-112317246D01*
X159893713Y-112350500D01*
X159893714Y-112350500D01*
X160106286Y-112350500D01*
X160106287Y-112350500D01*
X160316243Y-112317246D01*
X160518412Y-112251557D01*
X160707816Y-112155051D01*
X160729789Y-112139086D01*
X160879786Y-112030109D01*
X160879788Y-112030106D01*
X160879792Y-112030104D01*
X161030104Y-111879792D01*
X161030106Y-111879788D01*
X161030109Y-111879786D01*
X161155048Y-111707820D01*
X161155047Y-111707820D01*
X161155051Y-111707816D01*
X161251557Y-111518412D01*
X161317246Y-111316243D01*
X161350500Y-111106287D01*
X161350500Y-110893713D01*
X161317246Y-110683757D01*
X161251557Y-110481588D01*
X161155051Y-110292184D01*
X161155049Y-110292181D01*
X161155048Y-110292179D01*
X161030109Y-110120213D01*
X160879786Y-109969890D01*
X160707820Y-109844951D01*
X160518414Y-109748444D01*
X160518413Y-109748443D01*
X160518412Y-109748443D01*
X160316243Y-109682754D01*
X160316241Y-109682753D01*
X160316240Y-109682753D01*
X160154957Y-109657208D01*
X160106287Y-109649500D01*
X159893713Y-109649500D01*
X159845042Y-109657208D01*
X159683760Y-109682753D01*
X159481585Y-109748444D01*
X159292179Y-109844951D01*
X159120213Y-109969890D01*
X158969890Y-110120213D01*
X158844951Y-110292179D01*
X158748444Y-110481585D01*
X158682753Y-110683760D01*
X158649500Y-110893713D01*
X158649500Y-111106286D01*
X87695181Y-111106286D01*
X87778062Y-111056183D01*
X88029997Y-110858804D01*
X88256304Y-110632497D01*
X88453683Y-110380562D01*
X88508048Y-110290631D01*
X88559575Y-110243443D01*
X88628434Y-110231604D01*
X88692763Y-110258872D01*
X88704788Y-110270143D01*
X88837161Y-110411879D01*
X88922841Y-110481585D01*
X89059798Y-110593008D01*
X89059800Y-110593009D01*
X89059801Y-110593010D01*
X89305029Y-110742137D01*
X89305033Y-110742139D01*
X89568276Y-110856480D01*
X89568281Y-110856482D01*
X89844652Y-110933918D01*
X90094632Y-110968277D01*
X90128992Y-110973000D01*
X90128993Y-110973000D01*
X90416008Y-110973000D01*
X90446662Y-110968786D01*
X90700348Y-110933918D01*
X90976719Y-110856482D01*
X91082020Y-110810743D01*
X91239966Y-110742139D01*
X91239970Y-110742137D01*
X91335967Y-110683760D01*
X91485202Y-110593008D01*
X91707842Y-110411876D01*
X91903745Y-110202116D01*
X92069260Y-109967634D01*
X92201305Y-109712798D01*
X92297421Y-109442356D01*
X92355815Y-109161345D01*
X92375402Y-108875000D01*
X92355815Y-108588655D01*
X92297421Y-108307644D01*
X92201306Y-108037205D01*
X92201307Y-108037205D01*
X92069259Y-107782364D01*
X92069255Y-107782358D01*
X91903747Y-107547886D01*
X91725159Y-107356666D01*
X91707842Y-107338124D01*
X91707840Y-107338123D01*
X91707838Y-107338120D01*
X91541806Y-107203043D01*
X91485202Y-107156992D01*
X91485200Y-107156991D01*
X91485198Y-107156989D01*
X91239970Y-107007862D01*
X91239966Y-107007860D01*
X90976723Y-106893519D01*
X90700353Y-106816083D01*
X90700349Y-106816082D01*
X90700348Y-106816082D01*
X90558177Y-106796541D01*
X90416008Y-106777000D01*
X90416007Y-106777000D01*
X90128993Y-106777000D01*
X90128992Y-106777000D01*
X89844652Y-106816082D01*
X89844646Y-106816083D01*
X89568276Y-106893519D01*
X89305033Y-107007860D01*
X89305029Y-107007862D01*
X89059801Y-107156989D01*
X88837161Y-107338121D01*
X88837158Y-107338123D01*
X88837158Y-107338124D01*
X88819841Y-107356666D01*
X88704788Y-107479856D01*
X88644644Y-107515415D01*
X88574822Y-107512812D01*
X88517492Y-107472874D01*
X88508048Y-107459369D01*
X88472158Y-107400000D01*
X88453683Y-107369438D01*
X88256304Y-107117503D01*
X88256301Y-107117499D01*
X88030000Y-106891198D01*
X87778069Y-106693822D01*
X87778066Y-106693820D01*
X87778062Y-106693817D01*
X87504172Y-106528245D01*
X87212322Y-106396894D01*
X87212317Y-106396892D01*
X87212314Y-106396891D01*
X87212307Y-106396888D01*
X86960109Y-106318300D01*
X86901962Y-106279562D01*
X86873988Y-106215537D01*
X86873000Y-106199915D01*
X86873000Y-101800084D01*
X86892685Y-101733045D01*
X86945489Y-101687290D01*
X86960110Y-101681699D01*
X87212303Y-101603112D01*
X87212304Y-101603111D01*
X87212322Y-101603106D01*
X87504172Y-101471755D01*
X87778062Y-101306183D01*
X88029997Y-101108804D01*
X88256304Y-100882497D01*
X88453683Y-100630562D01*
X88508048Y-100540631D01*
X88559575Y-100493443D01*
X88628434Y-100481604D01*
X88692763Y-100508872D01*
X88704788Y-100520143D01*
X88837161Y-100661879D01*
X88917219Y-100727011D01*
X89059798Y-100843008D01*
X89059800Y-100843009D01*
X89059801Y-100843010D01*
X89305029Y-100992137D01*
X89305033Y-100992139D01*
X89568276Y-101106480D01*
X89568281Y-101106482D01*
X89844652Y-101183918D01*
X90094632Y-101218277D01*
X90128992Y-101223000D01*
X90128993Y-101223000D01*
X90416008Y-101223000D01*
X90446662Y-101218786D01*
X90700348Y-101183918D01*
X90976719Y-101106482D01*
X91082020Y-101060743D01*
X91239966Y-100992139D01*
X91239970Y-100992137D01*
X91420265Y-100882497D01*
X91485202Y-100843008D01*
X91707842Y-100661876D01*
X91903745Y-100452116D01*
X92069260Y-100217634D01*
X92201305Y-99962798D01*
X92297421Y-99692356D01*
X92355815Y-99411345D01*
X92375402Y-99125000D01*
X92355815Y-98838655D01*
X92297421Y-98557644D01*
X92261029Y-98455249D01*
X92201306Y-98287205D01*
X92201307Y-98287205D01*
X92069259Y-98032364D01*
X92069255Y-98032358D01*
X91903747Y-97797886D01*
X91812327Y-97700000D01*
X91707842Y-97588124D01*
X91707840Y-97588123D01*
X91707838Y-97588120D01*
X91485198Y-97406989D01*
X91239970Y-97257862D01*
X91239966Y-97257860D01*
X90976723Y-97143519D01*
X90700353Y-97066083D01*
X90700349Y-97066082D01*
X90700348Y-97066082D01*
X90558177Y-97046541D01*
X90416008Y-97027000D01*
X90416007Y-97027000D01*
X90128993Y-97027000D01*
X90128992Y-97027000D01*
X89844652Y-97066082D01*
X89844646Y-97066083D01*
X89568276Y-97143519D01*
X89305033Y-97257860D01*
X89305029Y-97257862D01*
X89059801Y-97406989D01*
X88837161Y-97588121D01*
X88704788Y-97729856D01*
X88644644Y-97765415D01*
X88574822Y-97762812D01*
X88517492Y-97722874D01*
X88508048Y-97709369D01*
X88453684Y-97619440D01*
X88453683Y-97619438D01*
X88256304Y-97367503D01*
X88256301Y-97367499D01*
X88030000Y-97141198D01*
X87778069Y-96943822D01*
X87778066Y-96943820D01*
X87778062Y-96943817D01*
X87504172Y-96778245D01*
X87212322Y-96646894D01*
X87212317Y-96646892D01*
X87212314Y-96646891D01*
X87212303Y-96646887D01*
X86906775Y-96551681D01*
X86906771Y-96551680D01*
X86906767Y-96551679D01*
X86591963Y-96493989D01*
X86591962Y-96493988D01*
X86591957Y-96493988D01*
X86272500Y-96474665D01*
X85953042Y-96493988D01*
X85953037Y-96493989D01*
X85638233Y-96551679D01*
X85638230Y-96551679D01*
X85638224Y-96551681D01*
X85332696Y-96646887D01*
X85332685Y-96646891D01*
X85058739Y-96770184D01*
X85040828Y-96778245D01*
X84766938Y-96943817D01*
X84766935Y-96943818D01*
X84766930Y-96943822D01*
X84514999Y-97141198D01*
X84288698Y-97367499D01*
X84091322Y-97619430D01*
X84091316Y-97619439D01*
X84003071Y-97765415D01*
X83933487Y-97880522D01*
X83925744Y-97893330D01*
X83925743Y-97893332D01*
X83794391Y-98185185D01*
X83794387Y-98185196D01*
X83742885Y-98350473D01*
X83704148Y-98408621D01*
X83640122Y-98436595D01*
X83571137Y-98425513D01*
X83519094Y-98378895D01*
X83500500Y-98313583D01*
X83500500Y-73600003D01*
X93694435Y-73600003D01*
X93714630Y-73779249D01*
X93714631Y-73779254D01*
X93774211Y-73949523D01*
X93870185Y-74102263D01*
X93872445Y-74105097D01*
X93873334Y-74107275D01*
X93873889Y-74108158D01*
X93873734Y-74108255D01*
X93898855Y-74169783D01*
X93899500Y-74182412D01*
X93899500Y-95913332D01*
X93899499Y-95913350D01*
X93899499Y-96079056D01*
X93899498Y-96079056D01*
X93915364Y-96138268D01*
X93931299Y-96197738D01*
X93940423Y-96231786D01*
X93940423Y-96231787D01*
X93967715Y-96279058D01*
X93967715Y-96279059D01*
X94019475Y-96368711D01*
X94019481Y-96368719D01*
X94138349Y-96487587D01*
X94138355Y-96487592D01*
X95426002Y-97775239D01*
X95459487Y-97836562D01*
X95461540Y-97849031D01*
X95463685Y-97868059D01*
X95475653Y-97902262D01*
X95519542Y-98027692D01*
X95519545Y-98027697D01*
X95609516Y-98170884D01*
X95609521Y-98170890D01*
X95729107Y-98290476D01*
X95729113Y-98290481D01*
X95872300Y-98380452D01*
X95872303Y-98380454D01*
X95872307Y-98380455D01*
X95872308Y-98380456D01*
X95944911Y-98405860D01*
X96031941Y-98436314D01*
X96199995Y-98455249D01*
X96199998Y-98455249D01*
X96200001Y-98455249D01*
X96368054Y-98436314D01*
X96368057Y-98436313D01*
X96527688Y-98380456D01*
X96527690Y-98380454D01*
X96527692Y-98380454D01*
X96527695Y-98380452D01*
X96670882Y-98290481D01*
X96670883Y-98290480D01*
X96670888Y-98290477D01*
X96790475Y-98170890D01*
X96818815Y-98125788D01*
X96880450Y-98027697D01*
X96880452Y-98027694D01*
X96880452Y-98027692D01*
X96880454Y-98027690D01*
X96936311Y-97868059D01*
X96936311Y-97868058D01*
X96936312Y-97868056D01*
X96955247Y-97700002D01*
X96955247Y-97699997D01*
X96936312Y-97531943D01*
X96880452Y-97372305D01*
X96880450Y-97372302D01*
X96790479Y-97229115D01*
X96790474Y-97229109D01*
X96670888Y-97109523D01*
X96670882Y-97109518D01*
X96527695Y-97019547D01*
X96527690Y-97019544D01*
X96421267Y-96982306D01*
X96368057Y-96963687D01*
X96349029Y-96961542D01*
X96284617Y-96934474D01*
X96275237Y-96926004D01*
X95136819Y-95787586D01*
X95103334Y-95726263D01*
X95100500Y-95699905D01*
X95100500Y-74182412D01*
X95120185Y-74115373D01*
X95127555Y-74105097D01*
X95129810Y-74102267D01*
X95129816Y-74102262D01*
X95225789Y-73949522D01*
X95285368Y-73779255D01*
X95305565Y-73600000D01*
X95285368Y-73420745D01*
X95225789Y-73250478D01*
X95129816Y-73097738D01*
X95002262Y-72970184D01*
X94849523Y-72874211D01*
X94679254Y-72814631D01*
X94679249Y-72814630D01*
X94500004Y-72794435D01*
X94499996Y-72794435D01*
X94320750Y-72814630D01*
X94320745Y-72814631D01*
X94150476Y-72874211D01*
X93997737Y-72970184D01*
X93870184Y-73097737D01*
X93774211Y-73250476D01*
X93714631Y-73420745D01*
X93714630Y-73420750D01*
X93694435Y-73599996D01*
X93694435Y-73600003D01*
X83500500Y-73600003D01*
X83500500Y-63900003D01*
X84594435Y-63900003D01*
X84614630Y-64079249D01*
X84614631Y-64079254D01*
X84674211Y-64249523D01*
X84770184Y-64402262D01*
X84897738Y-64529816D01*
X85050478Y-64625789D01*
X85220745Y-64685368D01*
X85220750Y-64685369D01*
X85399996Y-64705565D01*
X85400000Y-64705565D01*
X85400004Y-64705565D01*
X85579249Y-64685369D01*
X85579252Y-64685368D01*
X85579255Y-64685368D01*
X85749522Y-64625789D01*
X85902262Y-64529816D01*
X85902267Y-64529810D01*
X85905097Y-64527555D01*
X85907275Y-64526665D01*
X85908158Y-64526111D01*
X85908255Y-64526265D01*
X85969783Y-64501145D01*
X85982412Y-64500500D01*
X87796961Y-64500500D01*
X87864000Y-64520185D01*
X87884642Y-64536819D01*
X89335642Y-65987819D01*
X89369127Y-66049142D01*
X89364143Y-66118834D01*
X89322271Y-66174767D01*
X89256807Y-66199184D01*
X89247961Y-66199500D01*
X88082412Y-66199500D01*
X88015373Y-66179815D01*
X88005097Y-66172445D01*
X88002263Y-66170185D01*
X88002262Y-66170184D01*
X87890559Y-66099996D01*
X87849523Y-66074211D01*
X87679254Y-66014631D01*
X87679249Y-66014630D01*
X87500004Y-65994435D01*
X87499996Y-65994435D01*
X87320750Y-66014630D01*
X87320745Y-66014631D01*
X87150476Y-66074211D01*
X86997737Y-66170184D01*
X86870184Y-66297737D01*
X86774211Y-66450476D01*
X86714631Y-66620745D01*
X86714630Y-66620750D01*
X86694435Y-66799996D01*
X86694435Y-66800003D01*
X86714630Y-66979249D01*
X86714631Y-66979254D01*
X86774211Y-67149523D01*
X86870184Y-67302262D01*
X86997738Y-67429816D01*
X87150478Y-67525789D01*
X87320745Y-67585368D01*
X87320750Y-67585369D01*
X87499996Y-67605565D01*
X87500000Y-67605565D01*
X87500004Y-67605565D01*
X87679249Y-67585369D01*
X87679252Y-67585368D01*
X87679255Y-67585368D01*
X87849522Y-67525789D01*
X88002262Y-67429816D01*
X88002267Y-67429810D01*
X88005097Y-67427555D01*
X88007275Y-67426665D01*
X88008158Y-67426111D01*
X88008255Y-67426265D01*
X88069783Y-67401145D01*
X88082412Y-67400500D01*
X90131275Y-67400500D01*
X90198314Y-67420185D01*
X90218956Y-67436819D01*
X109969956Y-87187819D01*
X110003441Y-87249142D01*
X109998457Y-87318834D01*
X109956585Y-87374767D01*
X109891121Y-87399184D01*
X109882275Y-87399500D01*
X106100097Y-87399500D01*
X106033058Y-87379815D01*
X106012416Y-87363181D01*
X99830700Y-81181465D01*
X99797215Y-81120142D01*
X99795163Y-81107686D01*
X99785368Y-81020745D01*
X99725789Y-80850478D01*
X99629816Y-80697738D01*
X99502262Y-80570184D01*
X99417767Y-80517092D01*
X99349523Y-80474211D01*
X99179254Y-80414631D01*
X99179249Y-80414630D01*
X99000004Y-80394435D01*
X98999996Y-80394435D01*
X98820750Y-80414630D01*
X98820745Y-80414631D01*
X98650476Y-80474211D01*
X98497737Y-80570184D01*
X98370184Y-80697737D01*
X98274211Y-80850476D01*
X98214631Y-81020745D01*
X98214630Y-81020750D01*
X98194435Y-81199996D01*
X98194435Y-81200003D01*
X98214630Y-81379249D01*
X98214631Y-81379254D01*
X98274211Y-81549523D01*
X98370184Y-81702262D01*
X98497738Y-81829816D01*
X98650478Y-81925789D01*
X98820745Y-81985368D01*
X98907669Y-81995161D01*
X98972080Y-82022226D01*
X98981465Y-82030700D01*
X104238298Y-87287533D01*
X104271783Y-87348856D01*
X104266799Y-87418548D01*
X104224927Y-87474481D01*
X104164501Y-87498434D01*
X104020749Y-87514630D01*
X104020745Y-87514631D01*
X103850476Y-87574211D01*
X103697737Y-87670184D01*
X103570184Y-87797737D01*
X103474210Y-87950478D01*
X103414630Y-88120750D01*
X103404837Y-88207667D01*
X103377770Y-88272081D01*
X103369298Y-88281464D01*
X101431286Y-90219478D01*
X101319481Y-90331282D01*
X101319479Y-90331285D01*
X101269361Y-90418094D01*
X101269359Y-90418096D01*
X101240425Y-90468209D01*
X101240424Y-90468210D01*
X101240423Y-90468215D01*
X101199499Y-90620943D01*
X101199499Y-90620945D01*
X101199499Y-90789046D01*
X101199500Y-90789059D01*
X101199500Y-94913330D01*
X101199499Y-94913348D01*
X101199499Y-95079054D01*
X101199498Y-95079054D01*
X101214152Y-95133743D01*
X101240423Y-95231785D01*
X101240424Y-95231786D01*
X101256468Y-95259577D01*
X101256469Y-95259578D01*
X101319475Y-95368709D01*
X101319481Y-95368717D01*
X101438349Y-95487585D01*
X101438355Y-95487590D01*
X102515139Y-96564374D01*
X102515149Y-96564385D01*
X102519479Y-96568715D01*
X102519480Y-96568716D01*
X102631284Y-96680520D01*
X102690044Y-96714444D01*
X102718095Y-96730639D01*
X102718097Y-96730641D01*
X102768213Y-96759576D01*
X102768215Y-96759577D01*
X102920942Y-96800500D01*
X102920943Y-96800500D01*
X116849903Y-96800500D01*
X116916942Y-96820185D01*
X116937584Y-96836819D01*
X120088583Y-99987819D01*
X120122068Y-100049142D01*
X120117084Y-100118834D01*
X120075212Y-100174767D01*
X120009748Y-100199184D01*
X120000902Y-100199500D01*
X105400097Y-100199500D01*
X105333058Y-100179815D01*
X105312416Y-100163181D01*
X99930700Y-94781465D01*
X99897215Y-94720142D01*
X99895163Y-94707686D01*
X99885368Y-94620745D01*
X99825789Y-94450478D01*
X99729816Y-94297738D01*
X99602262Y-94170184D01*
X99449523Y-94074211D01*
X99279254Y-94014631D01*
X99279249Y-94014630D01*
X99100004Y-93994435D01*
X99099996Y-93994435D01*
X98920750Y-94014630D01*
X98920745Y-94014631D01*
X98750476Y-94074211D01*
X98597737Y-94170184D01*
X98470182Y-94297739D01*
X98382980Y-94436520D01*
X98330645Y-94482810D01*
X98261592Y-94493458D01*
X98197744Y-94465083D01*
X98190306Y-94458228D01*
X98152262Y-94420184D01*
X97999523Y-94324211D01*
X97829254Y-94264631D01*
X97829249Y-94264630D01*
X97650004Y-94244435D01*
X97649996Y-94244435D01*
X97470750Y-94264630D01*
X97470745Y-94264631D01*
X97300476Y-94324211D01*
X97147737Y-94420184D01*
X97020184Y-94547737D01*
X96924211Y-94700476D01*
X96864631Y-94870745D01*
X96864630Y-94870750D01*
X96844435Y-95049996D01*
X96844435Y-95050003D01*
X96864630Y-95229249D01*
X96864631Y-95229254D01*
X96924211Y-95399523D01*
X96987347Y-95500003D01*
X97020184Y-95552262D01*
X97147738Y-95679816D01*
X97300478Y-95775789D01*
X97470745Y-95835368D01*
X97557669Y-95845161D01*
X97622080Y-95872226D01*
X97631465Y-95880700D01*
X103465139Y-101714374D01*
X103465149Y-101714385D01*
X103469479Y-101718715D01*
X103469480Y-101718716D01*
X103538584Y-101787820D01*
X103572068Y-101849141D01*
X103567084Y-101918833D01*
X103525213Y-101974767D01*
X103459749Y-101999184D01*
X103450902Y-101999500D01*
X94082412Y-101999500D01*
X94015373Y-101979815D01*
X94005100Y-101972448D01*
X94002263Y-101970185D01*
X93849525Y-101874213D01*
X93679256Y-101814633D01*
X93679251Y-101814632D01*
X93500006Y-101794437D01*
X93499998Y-101794437D01*
X93320752Y-101814632D01*
X93320747Y-101814633D01*
X93150478Y-101874213D01*
X92997739Y-101970186D01*
X92870186Y-102097739D01*
X92774213Y-102250478D01*
X92714633Y-102420747D01*
X92714632Y-102420752D01*
X92694437Y-102599998D01*
X92694437Y-102600005D01*
X92714632Y-102779251D01*
X92714633Y-102779256D01*
X92774213Y-102949525D01*
X92804509Y-102997740D01*
X92870186Y-103102264D01*
X92997740Y-103229818D01*
X93137467Y-103317614D01*
X93183758Y-103369949D01*
X93194406Y-103439002D01*
X93172314Y-103490852D01*
X93173889Y-103491842D01*
X93170184Y-103497737D01*
X93170184Y-103497738D01*
X93168760Y-103500004D01*
X93074211Y-103650476D01*
X93014631Y-103820745D01*
X93014630Y-103820750D01*
X92994435Y-103999996D01*
X92994435Y-104000003D01*
X93014630Y-104179249D01*
X93014631Y-104179254D01*
X93074211Y-104349523D01*
X93170184Y-104502262D01*
X93180241Y-104512319D01*
X93213726Y-104573642D01*
X93208742Y-104643334D01*
X93180241Y-104687681D01*
X93070184Y-104797737D01*
X92974211Y-104950476D01*
X92914631Y-105120745D01*
X92914630Y-105120750D01*
X92894435Y-105299996D01*
X92894435Y-105300003D01*
X92914630Y-105479249D01*
X92914631Y-105479254D01*
X92974211Y-105649523D01*
X93005926Y-105699996D01*
X93070184Y-105802262D01*
X93197738Y-105929816D01*
X93288080Y-105986582D01*
X93344716Y-106022169D01*
X93350478Y-106025789D01*
X93520745Y-106085368D01*
X93520750Y-106085369D01*
X93699996Y-106105565D01*
X93700000Y-106105565D01*
X93700004Y-106105565D01*
X93879249Y-106085369D01*
X93879252Y-106085368D01*
X93879255Y-106085368D01*
X93959017Y-106057457D01*
X93999972Y-106050500D01*
X99167060Y-106050500D01*
X99234099Y-106070185D01*
X99254741Y-106086819D01*
X99297738Y-106129816D01*
X99335167Y-106153334D01*
X99446021Y-106222989D01*
X99450478Y-106225789D01*
X99568121Y-106266954D01*
X99620745Y-106285368D01*
X99620750Y-106285369D01*
X99799996Y-106305565D01*
X99800000Y-106305565D01*
X99800004Y-106305565D01*
X99979249Y-106285369D01*
X99979252Y-106285368D01*
X99979255Y-106285368D01*
X100149522Y-106225789D01*
X100302262Y-106129816D01*
X100429816Y-106002262D01*
X100525789Y-105849522D01*
X100585368Y-105679255D01*
X100587368Y-105661505D01*
X100605565Y-105500003D01*
X100605565Y-105499996D01*
X100585369Y-105320750D01*
X100585368Y-105320745D01*
X100542326Y-105197738D01*
X100525789Y-105150478D01*
X100514136Y-105131932D01*
X100495136Y-105064695D01*
X100515504Y-104997860D01*
X100568771Y-104952646D01*
X100619130Y-104941960D01*
X109449189Y-104941960D01*
X109516228Y-104961645D01*
X109561983Y-105014449D01*
X109571927Y-105083607D01*
X109542902Y-105147163D01*
X109511188Y-105173347D01*
X109431290Y-105219475D01*
X109431282Y-105219481D01*
X108182723Y-106468040D01*
X108121400Y-106501525D01*
X108081159Y-106503579D01*
X108000003Y-106494435D01*
X107999996Y-106494435D01*
X107820750Y-106514630D01*
X107820745Y-106514631D01*
X107650476Y-106574211D01*
X107497737Y-106670184D01*
X107370184Y-106797737D01*
X107274211Y-106950476D01*
X107214631Y-107120745D01*
X107214630Y-107120750D01*
X107194435Y-107299996D01*
X107194435Y-107300003D01*
X107214630Y-107479249D01*
X107214631Y-107479254D01*
X107274211Y-107649523D01*
X107362631Y-107790241D01*
X107370184Y-107802262D01*
X107497738Y-107929816D01*
X107650478Y-108025789D01*
X107820745Y-108085368D01*
X107907669Y-108095161D01*
X107972080Y-108122226D01*
X107981465Y-108130700D01*
X108915139Y-109064374D01*
X108915149Y-109064385D01*
X108919479Y-109068715D01*
X108919480Y-109068716D01*
X109031284Y-109180520D01*
X109118095Y-109230639D01*
X109118097Y-109230641D01*
X109156151Y-109252611D01*
X109168215Y-109259577D01*
X109320943Y-109300501D01*
X109320946Y-109300501D01*
X109486653Y-109300501D01*
X109486669Y-109300500D01*
X123617588Y-109300500D01*
X123684627Y-109320185D01*
X123694903Y-109327555D01*
X123697736Y-109329814D01*
X123697738Y-109329816D01*
X123850478Y-109425789D01*
X123992267Y-109475403D01*
X124020745Y-109485368D01*
X124020750Y-109485369D01*
X124199996Y-109505565D01*
X124200000Y-109505565D01*
X124200004Y-109505565D01*
X124379249Y-109485369D01*
X124379252Y-109485368D01*
X124379255Y-109485368D01*
X124549522Y-109425789D01*
X124702262Y-109329816D01*
X124829816Y-109202262D01*
X124925789Y-109049522D01*
X124985368Y-108879255D01*
X124995161Y-108792329D01*
X125022226Y-108727918D01*
X125030690Y-108718543D01*
X127562417Y-106186819D01*
X127623740Y-106153334D01*
X127650098Y-106150500D01*
X148647497Y-106150500D01*
X148714536Y-106170185D01*
X148760291Y-106222989D01*
X148770235Y-106292147D01*
X148767272Y-106306593D01*
X148724938Y-106464586D01*
X148724936Y-106464596D01*
X148704341Y-106699999D01*
X148704341Y-106700000D01*
X148724936Y-106935403D01*
X148724938Y-106935413D01*
X148786094Y-107163655D01*
X148786096Y-107163659D01*
X148786097Y-107163663D01*
X148790000Y-107172032D01*
X148885965Y-107377830D01*
X148885967Y-107377834D01*
X148982303Y-107515415D01*
X149021501Y-107571396D01*
X149021506Y-107571402D01*
X149188597Y-107738493D01*
X149188603Y-107738498D01*
X149374158Y-107868425D01*
X149417783Y-107923002D01*
X149424977Y-107992500D01*
X149393454Y-108054855D01*
X149374158Y-108071575D01*
X149188597Y-108201505D01*
X149021505Y-108368597D01*
X148885965Y-108562169D01*
X148885964Y-108562171D01*
X148786098Y-108776335D01*
X148786094Y-108776344D01*
X148724938Y-109004586D01*
X148724936Y-109004596D01*
X148704341Y-109239999D01*
X148704341Y-109240000D01*
X148724936Y-109475403D01*
X148724938Y-109475413D01*
X148786094Y-109703655D01*
X148786096Y-109703659D01*
X148786097Y-109703663D01*
X148851980Y-109844949D01*
X148885965Y-109917830D01*
X148885967Y-109917834D01*
X148922422Y-109969896D01*
X149021505Y-110111401D01*
X149188599Y-110278495D01*
X149208142Y-110292179D01*
X149382165Y-110414032D01*
X149382167Y-110414033D01*
X149382170Y-110414035D01*
X149596337Y-110513903D01*
X149824592Y-110575063D01*
X149995319Y-110590000D01*
X150059999Y-110595659D01*
X150060000Y-110595659D01*
X150060001Y-110595659D01*
X150124681Y-110590000D01*
X150295408Y-110575063D01*
X150523663Y-110513903D01*
X150737830Y-110414035D01*
X150931401Y-110278495D01*
X151053717Y-110156178D01*
X151115036Y-110122696D01*
X151184728Y-110127680D01*
X151240662Y-110169551D01*
X151257577Y-110200528D01*
X151306646Y-110332088D01*
X151306649Y-110332093D01*
X151392809Y-110447187D01*
X151392812Y-110447190D01*
X151507906Y-110533350D01*
X151507913Y-110533354D01*
X151642620Y-110583596D01*
X151642627Y-110583598D01*
X151702155Y-110589999D01*
X151702172Y-110590000D01*
X152350000Y-110590000D01*
X152350000Y-109673012D01*
X152407007Y-109705925D01*
X152534174Y-109740000D01*
X152665826Y-109740000D01*
X152792993Y-109705925D01*
X152850000Y-109673012D01*
X152850000Y-110590000D01*
X153497828Y-110590000D01*
X153497844Y-110589999D01*
X153557372Y-110583598D01*
X153557379Y-110583596D01*
X153692086Y-110533354D01*
X153692093Y-110533350D01*
X153807187Y-110447190D01*
X153807190Y-110447187D01*
X153893350Y-110332093D01*
X153893354Y-110332086D01*
X153943596Y-110197379D01*
X153943598Y-110197372D01*
X153949999Y-110137844D01*
X153950000Y-110137827D01*
X153950000Y-109490000D01*
X153033012Y-109490000D01*
X153065925Y-109432993D01*
X153100000Y-109305826D01*
X153100000Y-109174174D01*
X153065925Y-109047007D01*
X153033012Y-108990000D01*
X153950000Y-108990000D01*
X153950000Y-108342172D01*
X153949999Y-108342155D01*
X153943598Y-108282627D01*
X153943596Y-108282620D01*
X153893354Y-108147913D01*
X153893350Y-108147906D01*
X153807190Y-108032812D01*
X153807187Y-108032809D01*
X153692093Y-107946649D01*
X153692088Y-107946646D01*
X153560528Y-107897577D01*
X153504595Y-107855705D01*
X153480178Y-107790241D01*
X153495030Y-107721968D01*
X153516175Y-107693720D01*
X153638495Y-107571401D01*
X153774035Y-107377830D01*
X153873903Y-107163663D01*
X153935063Y-106935408D01*
X153955659Y-106700000D01*
X153955118Y-106693822D01*
X153951539Y-106652918D01*
X153935063Y-106464592D01*
X153873903Y-106236337D01*
X153774035Y-106022171D01*
X153673961Y-105879249D01*
X153638494Y-105828597D01*
X153471402Y-105661506D01*
X153471396Y-105661501D01*
X153285842Y-105531575D01*
X153242217Y-105476998D01*
X153235023Y-105407500D01*
X153266546Y-105345145D01*
X153285842Y-105328425D01*
X153326443Y-105299996D01*
X153471401Y-105198495D01*
X153638495Y-105031401D01*
X153774035Y-104837830D01*
X153873903Y-104623663D01*
X153935063Y-104395408D01*
X153955659Y-104160000D01*
X153935063Y-103924592D01*
X153873903Y-103696337D01*
X153774035Y-103482171D01*
X153768425Y-103474158D01*
X153638494Y-103288597D01*
X153471402Y-103121506D01*
X153471395Y-103121501D01*
X153277834Y-102985967D01*
X153277830Y-102985965D01*
X153199682Y-102949524D01*
X153063663Y-102886097D01*
X153063659Y-102886096D01*
X153063655Y-102886094D01*
X152835413Y-102824938D01*
X152835403Y-102824936D01*
X152600001Y-102804341D01*
X152599999Y-102804341D01*
X152364596Y-102824936D01*
X152364586Y-102824938D01*
X152136344Y-102886094D01*
X152136335Y-102886098D01*
X151922171Y-102985964D01*
X151922169Y-102985965D01*
X151728597Y-103121505D01*
X151561505Y-103288597D01*
X151431575Y-103474158D01*
X151376998Y-103517783D01*
X151307500Y-103524977D01*
X151245145Y-103493454D01*
X151228425Y-103474158D01*
X151098494Y-103288597D01*
X150931402Y-103121506D01*
X150931395Y-103121501D01*
X150737834Y-102985967D01*
X150737830Y-102985965D01*
X150659682Y-102949524D01*
X150523663Y-102886097D01*
X150523659Y-102886096D01*
X150523655Y-102886094D01*
X150295413Y-102824938D01*
X150295403Y-102824936D01*
X150060001Y-102804341D01*
X150059999Y-102804341D01*
X149824596Y-102824936D01*
X149824586Y-102824938D01*
X149596344Y-102886094D01*
X149596335Y-102886098D01*
X149382171Y-102985964D01*
X149382169Y-102985965D01*
X149188597Y-103121505D01*
X149021505Y-103288597D01*
X148885965Y-103482169D01*
X148885964Y-103482171D01*
X148786098Y-103696335D01*
X148786094Y-103696344D01*
X148724938Y-103924586D01*
X148724936Y-103924596D01*
X148704341Y-104159999D01*
X148704341Y-104160000D01*
X148724936Y-104395403D01*
X148724938Y-104395413D01*
X148786094Y-104623655D01*
X148786097Y-104623664D01*
X148807790Y-104670184D01*
X148855779Y-104773096D01*
X148866271Y-104842172D01*
X148837751Y-104905956D01*
X148779275Y-104944196D01*
X148743397Y-104949500D01*
X127436670Y-104949500D01*
X127436654Y-104949499D01*
X127429058Y-104949499D01*
X127270943Y-104949499D01*
X127225615Y-104961645D01*
X127118214Y-104990423D01*
X127118209Y-104990426D01*
X126981290Y-105069475D01*
X126981282Y-105069481D01*
X124181465Y-107869298D01*
X124120142Y-107902783D01*
X124107668Y-107904837D01*
X124020750Y-107914630D01*
X123850478Y-107974210D01*
X123697736Y-108070185D01*
X123694903Y-108072445D01*
X123692724Y-108073334D01*
X123691842Y-108073889D01*
X123691744Y-108073734D01*
X123630217Y-108098855D01*
X123617588Y-108099500D01*
X109700097Y-108099500D01*
X109633058Y-108079815D01*
X109612416Y-108063181D01*
X109036916Y-107487681D01*
X109003431Y-107426358D01*
X109008415Y-107356666D01*
X109036916Y-107312319D01*
X110012417Y-106336819D01*
X110073740Y-106303334D01*
X110100098Y-106300500D01*
X117417588Y-106300500D01*
X117484627Y-106320185D01*
X117494903Y-106327555D01*
X117497736Y-106329814D01*
X117497738Y-106329816D01*
X117650478Y-106425789D01*
X117820745Y-106485368D01*
X117820750Y-106485369D01*
X117999996Y-106505565D01*
X118000000Y-106505565D01*
X118000004Y-106505565D01*
X118179249Y-106485369D01*
X118179252Y-106485368D01*
X118179255Y-106485368D01*
X118349522Y-106425789D01*
X118502262Y-106329816D01*
X118629816Y-106202262D01*
X118725789Y-106049522D01*
X118785368Y-105879255D01*
X118805565Y-105700000D01*
X118801227Y-105661501D01*
X118785369Y-105520750D01*
X118785368Y-105520745D01*
X118725788Y-105350476D01*
X118643474Y-105219475D01*
X118629816Y-105197738D01*
X118502262Y-105070184D01*
X118440541Y-105031402D01*
X118349523Y-104974211D01*
X118179254Y-104914631D01*
X118179249Y-104914630D01*
X118000004Y-104894435D01*
X117999996Y-104894435D01*
X117820750Y-104914630D01*
X117820745Y-104914631D01*
X117650476Y-104974211D01*
X117497736Y-105070185D01*
X117494903Y-105072445D01*
X117492724Y-105073334D01*
X117491842Y-105073889D01*
X117491744Y-105073734D01*
X117430217Y-105098855D01*
X117417588Y-105099500D01*
X116853191Y-105099500D01*
X116786152Y-105079815D01*
X116740397Y-105027011D01*
X116730453Y-104957853D01*
X116759478Y-104894297D01*
X116765510Y-104887819D01*
X116809607Y-104843722D01*
X116905580Y-104690982D01*
X116965159Y-104520715D01*
X116967238Y-104502262D01*
X116985356Y-104341463D01*
X116985356Y-104341456D01*
X116965160Y-104162210D01*
X116965159Y-104162205D01*
X116905579Y-103991935D01*
X116854091Y-103909994D01*
X116835090Y-103842757D01*
X116842042Y-103803069D01*
X116879387Y-103696344D01*
X116885365Y-103679261D01*
X116885367Y-103679251D01*
X116905563Y-103500005D01*
X116905563Y-103499998D01*
X116885367Y-103320752D01*
X116885366Y-103320747D01*
X116855434Y-103235206D01*
X116825787Y-103150480D01*
X116807581Y-103121506D01*
X116729813Y-102997739D01*
X116602260Y-102870186D01*
X116449521Y-102774213D01*
X116279252Y-102714633D01*
X116279247Y-102714632D01*
X116100002Y-102694437D01*
X116099994Y-102694437D01*
X115920748Y-102714632D01*
X115920743Y-102714633D01*
X115750474Y-102774213D01*
X115597736Y-102870185D01*
X115594900Y-102872448D01*
X115592720Y-102873337D01*
X115591840Y-102873891D01*
X115591743Y-102873736D01*
X115530213Y-102898856D01*
X115517588Y-102899500D01*
X111931932Y-102899500D01*
X111864893Y-102879815D01*
X111819138Y-102827011D01*
X111809194Y-102757853D01*
X111838219Y-102694297D01*
X111844251Y-102687819D01*
X111879812Y-102652258D01*
X111975785Y-102499518D01*
X112035364Y-102329251D01*
X112038405Y-102302262D01*
X112055561Y-102149999D01*
X112055561Y-102149990D01*
X112048620Y-102088382D01*
X112060675Y-102019561D01*
X112108025Y-101968182D01*
X112171840Y-101950500D01*
X120912133Y-101950500D01*
X120979172Y-101970185D01*
X120999814Y-101986819D01*
X122794375Y-103781380D01*
X122827860Y-103842703D01*
X122829914Y-103855177D01*
X122839707Y-103942096D01*
X122899287Y-104112368D01*
X122941315Y-104179255D01*
X122995261Y-104265109D01*
X123122815Y-104392663D01*
X123275555Y-104488636D01*
X123367229Y-104520714D01*
X123445822Y-104548215D01*
X123445827Y-104548216D01*
X123625073Y-104568412D01*
X123625077Y-104568412D01*
X123625081Y-104568412D01*
X123804326Y-104548216D01*
X123804329Y-104548215D01*
X123804332Y-104548215D01*
X123974599Y-104488636D01*
X124127339Y-104392663D01*
X124254893Y-104265109D01*
X124350866Y-104112369D01*
X124410445Y-103942102D01*
X124410446Y-103942096D01*
X124430642Y-103762850D01*
X124430642Y-103762843D01*
X124410446Y-103583597D01*
X124410445Y-103583592D01*
X124350865Y-103413322D01*
X124281194Y-103302443D01*
X124262193Y-103235206D01*
X124281194Y-103170497D01*
X124325788Y-103099527D01*
X124361405Y-102997739D01*
X124385368Y-102929258D01*
X124388721Y-102899500D01*
X124405565Y-102750006D01*
X124405565Y-102750001D01*
X124402705Y-102724621D01*
X124414759Y-102655799D01*
X124462107Y-102604419D01*
X124529718Y-102586794D01*
X124539804Y-102587515D01*
X124599783Y-102594273D01*
X124699995Y-102605565D01*
X124699998Y-102605565D01*
X124700002Y-102605565D01*
X124879247Y-102585369D01*
X124879250Y-102585368D01*
X124879253Y-102585368D01*
X125049520Y-102525789D01*
X125202260Y-102429816D01*
X125329814Y-102302262D01*
X125389851Y-102206712D01*
X125442184Y-102160422D01*
X125511237Y-102149773D01*
X125535795Y-102155643D01*
X125568059Y-102166932D01*
X125620740Y-102185367D01*
X125620750Y-102185369D01*
X125799996Y-102205565D01*
X125800000Y-102205565D01*
X125800004Y-102205565D01*
X125979249Y-102185369D01*
X125979252Y-102185368D01*
X125979255Y-102185368D01*
X126149522Y-102125789D01*
X126302262Y-102029816D01*
X126302267Y-102029810D01*
X126305097Y-102027555D01*
X126307275Y-102026665D01*
X126308158Y-102026111D01*
X126308255Y-102026265D01*
X126369783Y-102001145D01*
X126382412Y-102000500D01*
X150749340Y-102000500D01*
X150749356Y-102000501D01*
X150756952Y-102000501D01*
X150915063Y-102000501D01*
X150915066Y-102000501D01*
X151067794Y-101959577D01*
X151117913Y-101930639D01*
X151204725Y-101880520D01*
X151316529Y-101768716D01*
X151316529Y-101768714D01*
X151326737Y-101758507D01*
X151326739Y-101758504D01*
X156618538Y-96466704D01*
X156679859Y-96433221D01*
X156692314Y-96431169D01*
X156779258Y-96421374D01*
X156949525Y-96361795D01*
X157102265Y-96265822D01*
X157229819Y-96138268D01*
X157325792Y-95985528D01*
X157385371Y-95815261D01*
X157385372Y-95815255D01*
X157405568Y-95636009D01*
X157405568Y-95636002D01*
X157385372Y-95456756D01*
X157385371Y-95456751D01*
X157365346Y-95399522D01*
X157325792Y-95286484D01*
X157229819Y-95133744D01*
X157102265Y-95006190D01*
X157088812Y-94997737D01*
X156949526Y-94910217D01*
X156779257Y-94850637D01*
X156779252Y-94850636D01*
X156600007Y-94830441D01*
X156599999Y-94830441D01*
X156420753Y-94850636D01*
X156420748Y-94850637D01*
X156250479Y-94910217D01*
X156097740Y-95006190D01*
X155970187Y-95133743D01*
X155874213Y-95286484D01*
X155814633Y-95456756D01*
X155804840Y-95543674D01*
X155777773Y-95608088D01*
X155769301Y-95617471D01*
X150623593Y-100763181D01*
X150562270Y-100796666D01*
X150535912Y-100799500D01*
X141749099Y-100799500D01*
X141682060Y-100779815D01*
X141636305Y-100727011D01*
X141626361Y-100657853D01*
X141655386Y-100594297D01*
X141661418Y-100587819D01*
X143198761Y-99050476D01*
X148335574Y-93913661D01*
X148382295Y-93884303D01*
X148549522Y-93825789D01*
X148702262Y-93729816D01*
X148829816Y-93602262D01*
X148925789Y-93449522D01*
X148985368Y-93279255D01*
X148994043Y-93202262D01*
X149005565Y-93100003D01*
X149005565Y-93099996D01*
X148985369Y-92920750D01*
X148985368Y-92920745D01*
X148925788Y-92750476D01*
X148867168Y-92657183D01*
X148829816Y-92597738D01*
X148702262Y-92470184D01*
X148660412Y-92443888D01*
X148549523Y-92374211D01*
X148379254Y-92314631D01*
X148379249Y-92314630D01*
X148200004Y-92294435D01*
X148199996Y-92294435D01*
X148020750Y-92314630D01*
X148020745Y-92314631D01*
X147850476Y-92374211D01*
X147697737Y-92470184D01*
X147570184Y-92597737D01*
X147474211Y-92750476D01*
X147414631Y-92920745D01*
X147414630Y-92920750D01*
X147394435Y-93099996D01*
X147394435Y-93104969D01*
X147374750Y-93172008D01*
X147358116Y-93192650D01*
X140687586Y-99863181D01*
X140626263Y-99896666D01*
X140599905Y-99899500D01*
X138349096Y-99899500D01*
X138282057Y-99879815D01*
X138236302Y-99827011D01*
X138226358Y-99757853D01*
X138255383Y-99694297D01*
X138261415Y-99687819D01*
X138898758Y-99050476D01*
X139818535Y-98130698D01*
X139879856Y-98097215D01*
X139892311Y-98095163D01*
X139979255Y-98085368D01*
X140149522Y-98025789D01*
X140302262Y-97929816D01*
X140429816Y-97802262D01*
X140525789Y-97649522D01*
X140585368Y-97479255D01*
X140593510Y-97406992D01*
X140605565Y-97300003D01*
X140605565Y-97299996D01*
X140585369Y-97120750D01*
X140585368Y-97120745D01*
X140581441Y-97109523D01*
X140525789Y-96950478D01*
X140429816Y-96797738D01*
X140302262Y-96670184D01*
X140265196Y-96646894D01*
X140149523Y-96574211D01*
X139979254Y-96514631D01*
X139979249Y-96514630D01*
X139800004Y-96494435D01*
X139799996Y-96494435D01*
X139620750Y-96514630D01*
X139620745Y-96514631D01*
X139450476Y-96574211D01*
X139297737Y-96670184D01*
X139170184Y-96797737D01*
X139074210Y-96950478D01*
X139014630Y-97120750D01*
X139004837Y-97207668D01*
X138977770Y-97272082D01*
X138969298Y-97281465D01*
X137487584Y-98763181D01*
X137426261Y-98796666D01*
X137399903Y-98799500D01*
X128982412Y-98799500D01*
X128915373Y-98779815D01*
X128905097Y-98772445D01*
X128902263Y-98770185D01*
X128902262Y-98770184D01*
X128845496Y-98734515D01*
X128749523Y-98674211D01*
X128579254Y-98614631D01*
X128579249Y-98614630D01*
X128400004Y-98594435D01*
X128399996Y-98594435D01*
X128220750Y-98614630D01*
X128220745Y-98614631D01*
X128050476Y-98674211D01*
X127897737Y-98770184D01*
X127770184Y-98897737D01*
X127674211Y-99050476D01*
X127614631Y-99220745D01*
X127614630Y-99220750D01*
X127594435Y-99399996D01*
X127594435Y-99400003D01*
X127614630Y-99579249D01*
X127614632Y-99579257D01*
X127668970Y-99734546D01*
X127672531Y-99804324D01*
X127637802Y-99864952D01*
X127575809Y-99897179D01*
X127551928Y-99899500D01*
X126582412Y-99899500D01*
X126515373Y-99879815D01*
X126505097Y-99872445D01*
X126502263Y-99870185D01*
X126502262Y-99870184D01*
X126428159Y-99823622D01*
X126349523Y-99774211D01*
X126179254Y-99714631D01*
X126179249Y-99714630D01*
X126000004Y-99694435D01*
X125999996Y-99694435D01*
X125820750Y-99714630D01*
X125820745Y-99714631D01*
X125650476Y-99774211D01*
X125497737Y-99870184D01*
X125370184Y-99997737D01*
X125370182Y-99997740D01*
X125328189Y-100064571D01*
X125275854Y-100110862D01*
X125206801Y-100121509D01*
X125142952Y-100093134D01*
X125135515Y-100086279D01*
X121749239Y-96700003D01*
X125594435Y-96700003D01*
X125614630Y-96879249D01*
X125614631Y-96879254D01*
X125674211Y-97049523D01*
X125770184Y-97202262D01*
X125897737Y-97329815D01*
X125897743Y-97329820D01*
X126050348Y-97425709D01*
X126096639Y-97478043D01*
X126107596Y-97516818D01*
X126114630Y-97579247D01*
X126114631Y-97579252D01*
X126174210Y-97749521D01*
X126186271Y-97768716D01*
X126270184Y-97902262D01*
X126397738Y-98029816D01*
X126550478Y-98125789D01*
X126679352Y-98170884D01*
X126720745Y-98185368D01*
X126720750Y-98185369D01*
X126899996Y-98205565D01*
X126900000Y-98205565D01*
X126900004Y-98205565D01*
X127079249Y-98185369D01*
X127079252Y-98185368D01*
X127079255Y-98185368D01*
X127249522Y-98125789D01*
X127402262Y-98029816D01*
X127402267Y-98029810D01*
X127405097Y-98027555D01*
X127407275Y-98026665D01*
X127408158Y-98026111D01*
X127408255Y-98026265D01*
X127469783Y-98001145D01*
X127482412Y-98000500D01*
X130013331Y-98000500D01*
X130013347Y-98000501D01*
X130020943Y-98000501D01*
X130179054Y-98000501D01*
X130179057Y-98000501D01*
X130331785Y-97959577D01*
X130383332Y-97929816D01*
X130468716Y-97880520D01*
X130580520Y-97768716D01*
X130580520Y-97768714D01*
X130590724Y-97758511D01*
X130590727Y-97758506D01*
X134518536Y-93830698D01*
X134579857Y-93797215D01*
X134592310Y-93795163D01*
X134679255Y-93785368D01*
X134849522Y-93725789D01*
X135002262Y-93629816D01*
X135129816Y-93502262D01*
X135225789Y-93349522D01*
X135285368Y-93179255D01*
X135293738Y-93104969D01*
X135305565Y-93000003D01*
X135305565Y-92999996D01*
X135285369Y-92820750D01*
X135285368Y-92820745D01*
X135282194Y-92811675D01*
X135225789Y-92650478D01*
X135129816Y-92497738D01*
X135002262Y-92370184D01*
X134970897Y-92350476D01*
X134849523Y-92274211D01*
X134679254Y-92214631D01*
X134679249Y-92214630D01*
X134500004Y-92194435D01*
X134499996Y-92194435D01*
X134320750Y-92214630D01*
X134320745Y-92214631D01*
X134150476Y-92274211D01*
X133997737Y-92370184D01*
X133870184Y-92497737D01*
X133774210Y-92650478D01*
X133714630Y-92820750D01*
X133704837Y-92907667D01*
X133677770Y-92972081D01*
X133669298Y-92981464D01*
X129887584Y-96763181D01*
X129826261Y-96796666D01*
X129799903Y-96799500D01*
X127482412Y-96799500D01*
X127415373Y-96779815D01*
X127405091Y-96772441D01*
X127402259Y-96770182D01*
X127396841Y-96766778D01*
X127350550Y-96714444D01*
X127339900Y-96645390D01*
X127368275Y-96581542D01*
X127375119Y-96574114D01*
X130541130Y-93408103D01*
X130602451Y-93374620D01*
X130672143Y-93379604D01*
X130694782Y-93390793D01*
X130750478Y-93425789D01*
X130750481Y-93425790D01*
X130920737Y-93485366D01*
X130920743Y-93485367D01*
X130920745Y-93485368D01*
X130920746Y-93485368D01*
X130920750Y-93485369D01*
X131099996Y-93505565D01*
X131100000Y-93505565D01*
X131100004Y-93505565D01*
X131279249Y-93485369D01*
X131279252Y-93485368D01*
X131279255Y-93485368D01*
X131449522Y-93425789D01*
X131602262Y-93329816D01*
X131729816Y-93202262D01*
X131825789Y-93049522D01*
X131885368Y-92879255D01*
X131889793Y-92839986D01*
X131905565Y-92700003D01*
X131905565Y-92699996D01*
X131885369Y-92520750D01*
X131885368Y-92520745D01*
X131877762Y-92499009D01*
X131825789Y-92350478D01*
X131803265Y-92314632D01*
X131740431Y-92214632D01*
X131729816Y-92197738D01*
X131723970Y-92191892D01*
X153699500Y-92191892D01*
X153709044Y-92227512D01*
X153733608Y-92319187D01*
X153740594Y-92331286D01*
X153799500Y-92433314D01*
X153892686Y-92526500D01*
X154006814Y-92592392D01*
X154134108Y-92626500D01*
X154134110Y-92626500D01*
X154265890Y-92626500D01*
X154265892Y-92626500D01*
X154393186Y-92592392D01*
X154507314Y-92526500D01*
X154600500Y-92433314D01*
X154666392Y-92319186D01*
X154700500Y-92191892D01*
X154700500Y-92060108D01*
X154666392Y-91932814D01*
X154600500Y-91818686D01*
X154507314Y-91725500D01*
X154450250Y-91692554D01*
X154393187Y-91659608D01*
X154329539Y-91642554D01*
X154265892Y-91625500D01*
X154134108Y-91625500D01*
X154006812Y-91659608D01*
X153892686Y-91725500D01*
X153892683Y-91725502D01*
X153799502Y-91818683D01*
X153799500Y-91818686D01*
X153733608Y-91932812D01*
X153699500Y-92060108D01*
X153699500Y-92191892D01*
X131723970Y-92191892D01*
X131602262Y-92070184D01*
X131586226Y-92060108D01*
X131449523Y-91974211D01*
X131279254Y-91914631D01*
X131279249Y-91914630D01*
X131100004Y-91894435D01*
X131099996Y-91894435D01*
X130920750Y-91914630D01*
X130920745Y-91914631D01*
X130750476Y-91974211D01*
X130597736Y-92070185D01*
X130594903Y-92072445D01*
X130592724Y-92073334D01*
X130591842Y-92073889D01*
X130591744Y-92073734D01*
X130530217Y-92098855D01*
X130517588Y-92099500D01*
X130479057Y-92099500D01*
X130320942Y-92099500D01*
X130168215Y-92140423D01*
X130168214Y-92140423D01*
X130168212Y-92140424D01*
X130168209Y-92140425D01*
X130120301Y-92168086D01*
X130120300Y-92168087D01*
X130083416Y-92189382D01*
X130031285Y-92219479D01*
X130031282Y-92219481D01*
X129919478Y-92331286D01*
X126381465Y-95869298D01*
X126320142Y-95902783D01*
X126307668Y-95904837D01*
X126220750Y-95914630D01*
X126050478Y-95974210D01*
X125897737Y-96070184D01*
X125770184Y-96197737D01*
X125674211Y-96350476D01*
X125614631Y-96520745D01*
X125614630Y-96520750D01*
X125594435Y-96699996D01*
X125594435Y-96700003D01*
X121749239Y-96700003D01*
X121361417Y-96312181D01*
X121327932Y-96250858D01*
X121332916Y-96181166D01*
X121374788Y-96125233D01*
X121440252Y-96100816D01*
X121449098Y-96100500D01*
X122917588Y-96100500D01*
X122984627Y-96120185D01*
X122994903Y-96127555D01*
X122997736Y-96129814D01*
X122997738Y-96129816D01*
X123150478Y-96225789D01*
X123264883Y-96265821D01*
X123320745Y-96285368D01*
X123320750Y-96285369D01*
X123499996Y-96305565D01*
X123500000Y-96305565D01*
X123500004Y-96305565D01*
X123679249Y-96285369D01*
X123679252Y-96285368D01*
X123679255Y-96285368D01*
X123849522Y-96225789D01*
X124002262Y-96129816D01*
X124129816Y-96002262D01*
X124225789Y-95849522D01*
X124285368Y-95679255D01*
X124286483Y-95669358D01*
X124305565Y-95500003D01*
X124305565Y-95499996D01*
X124285369Y-95320750D01*
X124285368Y-95320745D01*
X124225789Y-95150478D01*
X124215274Y-95133744D01*
X124176925Y-95072711D01*
X124129816Y-94997738D01*
X124002262Y-94870184D01*
X123971152Y-94850636D01*
X123849521Y-94774210D01*
X123750424Y-94739535D01*
X123679255Y-94714632D01*
X123679253Y-94714631D01*
X123677799Y-94714123D01*
X123621023Y-94673401D01*
X123595533Y-94610963D01*
X123585369Y-94520750D01*
X123585368Y-94520745D01*
X123563492Y-94458228D01*
X123525789Y-94350478D01*
X123429816Y-94197738D01*
X123302262Y-94070184D01*
X123291117Y-94063181D01*
X123149523Y-93974211D01*
X122979254Y-93914631D01*
X122979245Y-93914629D01*
X122973722Y-93914007D01*
X122909310Y-93886936D01*
X122869759Y-93829338D01*
X122867626Y-93759501D01*
X122903589Y-93699597D01*
X122921640Y-93685795D01*
X123000061Y-93636521D01*
X123127615Y-93508967D01*
X123223588Y-93356227D01*
X123283167Y-93185960D01*
X123283168Y-93185954D01*
X123303364Y-93006708D01*
X123303364Y-93006701D01*
X123283168Y-92827455D01*
X123283167Y-92827450D01*
X123256233Y-92750478D01*
X123223588Y-92657183D01*
X123127615Y-92504443D01*
X123089276Y-92466104D01*
X123061654Y-92418260D01*
X123060485Y-92418745D01*
X123057378Y-92411245D01*
X123057376Y-92411238D01*
X123022297Y-92350478D01*
X122978323Y-92274312D01*
X122978320Y-92274308D01*
X122978319Y-92274306D01*
X122866515Y-92162502D01*
X122866514Y-92162501D01*
X122862184Y-92158171D01*
X122862173Y-92158161D01*
X110041350Y-79337338D01*
X110007865Y-79276015D01*
X110012849Y-79206323D01*
X110054721Y-79150390D01*
X110120185Y-79125973D01*
X110169986Y-79132616D01*
X110320737Y-79185366D01*
X110320743Y-79185367D01*
X110320745Y-79185368D01*
X110320746Y-79185368D01*
X110320750Y-79185369D01*
X110499996Y-79205565D01*
X110500000Y-79205565D01*
X110500004Y-79205565D01*
X110679249Y-79185369D01*
X110679252Y-79185368D01*
X110679255Y-79185368D01*
X110849522Y-79125789D01*
X111002262Y-79029816D01*
X111129816Y-78902262D01*
X111225789Y-78749522D01*
X111285368Y-78579255D01*
X111295161Y-78492329D01*
X111322226Y-78427918D01*
X111330690Y-78418543D01*
X111758506Y-77990728D01*
X111758511Y-77990724D01*
X111768714Y-77980520D01*
X111768716Y-77980520D01*
X111880520Y-77868716D01*
X111954312Y-77740904D01*
X111959577Y-77731785D01*
X112000500Y-77579058D01*
X112000500Y-77420943D01*
X112000500Y-75682412D01*
X112020185Y-75615373D01*
X112027555Y-75605097D01*
X112029810Y-75602267D01*
X112029816Y-75602262D01*
X112125789Y-75449522D01*
X112185368Y-75279255D01*
X112205565Y-75100000D01*
X112185368Y-74920745D01*
X112125789Y-74750478D01*
X112107106Y-74720745D01*
X112029815Y-74597737D01*
X111902262Y-74470184D01*
X111749523Y-74374211D01*
X111579254Y-74314631D01*
X111579249Y-74314630D01*
X111400004Y-74294435D01*
X111399996Y-74294435D01*
X111220750Y-74314630D01*
X111220745Y-74314631D01*
X111050476Y-74374211D01*
X110990472Y-74411915D01*
X110923235Y-74430915D01*
X110856400Y-74410547D01*
X110811186Y-74357279D01*
X110800500Y-74306921D01*
X110800500Y-69919854D01*
X110819507Y-69853881D01*
X110840204Y-69820943D01*
X110900789Y-69724522D01*
X110960368Y-69554255D01*
X110962956Y-69531285D01*
X110980565Y-69375003D01*
X110980565Y-69374996D01*
X110960369Y-69195750D01*
X110960368Y-69195745D01*
X110944194Y-69149522D01*
X110900789Y-69025478D01*
X110804816Y-68872738D01*
X110677262Y-68745184D01*
X110617553Y-68707666D01*
X110524523Y-68649211D01*
X110354254Y-68589631D01*
X110354249Y-68589630D01*
X110175004Y-68569435D01*
X110174996Y-68569435D01*
X109995750Y-68589630D01*
X109995745Y-68589631D01*
X109825476Y-68649211D01*
X109672737Y-68745184D01*
X109545184Y-68872737D01*
X109449211Y-69025476D01*
X109389631Y-69195745D01*
X109389630Y-69195750D01*
X109369435Y-69374996D01*
X109369435Y-69375003D01*
X109389630Y-69554249D01*
X109389631Y-69554254D01*
X109449211Y-69724523D01*
X109545184Y-69877262D01*
X109563181Y-69895259D01*
X109596666Y-69956582D01*
X109599500Y-69982940D01*
X109599500Y-75717587D01*
X109579815Y-75784626D01*
X109572450Y-75794896D01*
X109570186Y-75797734D01*
X109474211Y-75950476D01*
X109414631Y-76120745D01*
X109414630Y-76120750D01*
X109394435Y-76299996D01*
X109394435Y-76300003D01*
X109414630Y-76479249D01*
X109414631Y-76479254D01*
X109474211Y-76649523D01*
X109504507Y-76697738D01*
X109570184Y-76802262D01*
X109697738Y-76929816D01*
X109760233Y-76969084D01*
X109842450Y-77020745D01*
X109850478Y-77025789D01*
X110020745Y-77085368D01*
X110020750Y-77085369D01*
X110199996Y-77105565D01*
X110200000Y-77105565D01*
X110200004Y-77105565D01*
X110379249Y-77085369D01*
X110379252Y-77085368D01*
X110379255Y-77085368D01*
X110549522Y-77025789D01*
X110557550Y-77020745D01*
X110576165Y-77009047D01*
X110609527Y-76988084D01*
X110676763Y-76969084D01*
X110743599Y-76989451D01*
X110788813Y-77042718D01*
X110799500Y-77093078D01*
X110799500Y-77199902D01*
X110779815Y-77266941D01*
X110763181Y-77287583D01*
X110481465Y-77569298D01*
X110420142Y-77602783D01*
X110407668Y-77604837D01*
X110320750Y-77614630D01*
X110150478Y-77674210D01*
X109997737Y-77770184D01*
X109870184Y-77897737D01*
X109774211Y-78050476D01*
X109714631Y-78220745D01*
X109714630Y-78220750D01*
X109694435Y-78399996D01*
X109694435Y-78400003D01*
X109714630Y-78579249D01*
X109714632Y-78579257D01*
X109767384Y-78730014D01*
X109770945Y-78799793D01*
X109736216Y-78860420D01*
X109674223Y-78892647D01*
X109604647Y-78886242D01*
X109562661Y-78858649D01*
X105242367Y-74538355D01*
X105242365Y-74538352D01*
X105123494Y-74419481D01*
X105123486Y-74419475D01*
X105021713Y-74360717D01*
X105021711Y-74360716D01*
X104986563Y-74340423D01*
X104985342Y-74339917D01*
X104983147Y-74338450D01*
X104979523Y-74336358D01*
X104979660Y-74336120D01*
X104945116Y-74313038D01*
X104902262Y-74270184D01*
X104749523Y-74174211D01*
X104579254Y-74114631D01*
X104579249Y-74114630D01*
X104400004Y-74094435D01*
X104399996Y-74094435D01*
X104220750Y-74114630D01*
X104220745Y-74114631D01*
X104050476Y-74174211D01*
X103897737Y-74270184D01*
X103770184Y-74397737D01*
X103674211Y-74550476D01*
X103614631Y-74720745D01*
X103614630Y-74720750D01*
X103594435Y-74899996D01*
X103594435Y-74900003D01*
X103614630Y-75079249D01*
X103614631Y-75079254D01*
X103674211Y-75249523D01*
X103770184Y-75402262D01*
X103897738Y-75529816D01*
X103988080Y-75586582D01*
X104013036Y-75602263D01*
X104050478Y-75625789D01*
X104138031Y-75656425D01*
X104220745Y-75685368D01*
X104220750Y-75685369D01*
X104399996Y-75705565D01*
X104400000Y-75705565D01*
X104400004Y-75705565D01*
X104579249Y-75685369D01*
X104579250Y-75685368D01*
X104579255Y-75685368D01*
X104588425Y-75682158D01*
X104658202Y-75678596D01*
X104717061Y-75711519D01*
X105393361Y-76387819D01*
X105426846Y-76449142D01*
X105421862Y-76518834D01*
X105379990Y-76574767D01*
X105314526Y-76599184D01*
X105305680Y-76599500D01*
X104682412Y-76599500D01*
X104615373Y-76579815D01*
X104605097Y-76572445D01*
X104602263Y-76570185D01*
X104602262Y-76570184D01*
X104520539Y-76518834D01*
X104449523Y-76474211D01*
X104279254Y-76414631D01*
X104279249Y-76414630D01*
X104100004Y-76394435D01*
X104099996Y-76394435D01*
X103920750Y-76414630D01*
X103920745Y-76414631D01*
X103750476Y-76474211D01*
X103597737Y-76570184D01*
X103470184Y-76697737D01*
X103374211Y-76850476D01*
X103314631Y-77020745D01*
X103314630Y-77020750D01*
X103294435Y-77199996D01*
X103294435Y-77200003D01*
X103314630Y-77379249D01*
X103314633Y-77379262D01*
X103374208Y-77549517D01*
X103374210Y-77549521D01*
X103374211Y-77549522D01*
X103392768Y-77579056D01*
X103394105Y-77581183D01*
X103413104Y-77648420D01*
X103394105Y-77713123D01*
X103364591Y-77760096D01*
X103364590Y-77760098D01*
X103305013Y-77930357D01*
X103305011Y-77930368D01*
X103300590Y-77969601D01*
X103273522Y-78034014D01*
X103215927Y-78073568D01*
X103146090Y-78075705D01*
X103089689Y-78043396D01*
X91146296Y-66100003D01*
X92694435Y-66100003D01*
X92714630Y-66279249D01*
X92714631Y-66279254D01*
X92774211Y-66449523D01*
X92870184Y-66602262D01*
X92997738Y-66729816D01*
X93150478Y-66825789D01*
X93320745Y-66885368D01*
X93320750Y-66885369D01*
X93499996Y-66905565D01*
X93500000Y-66905565D01*
X93500004Y-66905565D01*
X93679249Y-66885369D01*
X93679252Y-66885368D01*
X93679255Y-66885368D01*
X93849522Y-66825789D01*
X94002262Y-66729816D01*
X94129816Y-66602262D01*
X94225789Y-66449522D01*
X94285368Y-66279255D01*
X94295161Y-66192329D01*
X94322226Y-66127918D01*
X94330690Y-66118543D01*
X95512416Y-64936819D01*
X95573739Y-64903334D01*
X95600097Y-64900500D01*
X125299903Y-64900500D01*
X125366942Y-64920185D01*
X125387584Y-64936819D01*
X129269298Y-68818533D01*
X129302783Y-68879856D01*
X129304837Y-68892330D01*
X129314630Y-68979249D01*
X129374210Y-69149521D01*
X129374211Y-69149522D01*
X129470184Y-69302262D01*
X129597738Y-69429816D01*
X129750478Y-69525789D01*
X129920745Y-69585368D01*
X130007669Y-69595161D01*
X130072080Y-69622226D01*
X130081465Y-69630700D01*
X130563181Y-70112416D01*
X130596666Y-70173739D01*
X130599500Y-70200097D01*
X130599500Y-80032885D01*
X130579815Y-80099924D01*
X130527011Y-80145679D01*
X130457853Y-80155623D01*
X130394297Y-80126598D01*
X130358459Y-80073840D01*
X130325790Y-79980480D01*
X130325789Y-79980478D01*
X130229816Y-79827738D01*
X130102262Y-79700184D01*
X129949523Y-79604211D01*
X129779254Y-79544631D01*
X129779249Y-79544630D01*
X129600004Y-79524435D01*
X129599996Y-79524435D01*
X129420750Y-79544630D01*
X129420745Y-79544631D01*
X129250476Y-79604211D01*
X129097737Y-79700184D01*
X128970184Y-79827737D01*
X128874211Y-79980476D01*
X128814631Y-80150745D01*
X128814630Y-80150750D01*
X128794435Y-80329996D01*
X128794435Y-80330003D01*
X128814630Y-80509249D01*
X128814631Y-80509254D01*
X128874211Y-80679523D01*
X128970184Y-80832262D01*
X129063181Y-80925259D01*
X129096666Y-80986582D01*
X129099500Y-81012940D01*
X129099500Y-82417587D01*
X129079815Y-82484626D01*
X129072450Y-82494896D01*
X129070186Y-82497734D01*
X128974211Y-82650476D01*
X128914631Y-82820745D01*
X128914630Y-82820750D01*
X128894435Y-82999996D01*
X128894435Y-83000003D01*
X128914630Y-83179249D01*
X128914631Y-83179254D01*
X128974211Y-83349523D01*
X129029494Y-83437504D01*
X129070184Y-83502262D01*
X129197738Y-83629816D01*
X129350478Y-83725789D01*
X129520745Y-83785368D01*
X129520750Y-83785369D01*
X129699996Y-83805565D01*
X129700000Y-83805565D01*
X129700004Y-83805565D01*
X129879249Y-83785369D01*
X129879252Y-83785368D01*
X129879255Y-83785368D01*
X130049522Y-83725789D01*
X130202262Y-83629816D01*
X130329816Y-83502262D01*
X130370506Y-83437503D01*
X130422841Y-83391213D01*
X130491894Y-83380565D01*
X130555743Y-83408940D01*
X130594115Y-83467330D01*
X130599500Y-83503476D01*
X130599500Y-88817587D01*
X130579815Y-88884626D01*
X130572450Y-88894896D01*
X130570186Y-88897734D01*
X130474211Y-89050476D01*
X130414631Y-89220745D01*
X130414630Y-89220750D01*
X130394435Y-89399996D01*
X130394435Y-89400003D01*
X130414630Y-89579249D01*
X130414631Y-89579254D01*
X130474211Y-89749523D01*
X130570184Y-89902262D01*
X130697738Y-90029816D01*
X130850478Y-90125789D01*
X131020745Y-90185368D01*
X131020750Y-90185369D01*
X131199996Y-90205565D01*
X131200000Y-90205565D01*
X131200004Y-90205565D01*
X131379249Y-90185369D01*
X131379252Y-90185368D01*
X131379255Y-90185368D01*
X131549522Y-90125789D01*
X131702262Y-90029816D01*
X131829816Y-89902262D01*
X131925789Y-89749522D01*
X131985368Y-89579255D01*
X132005565Y-89400000D01*
X131985368Y-89220745D01*
X131925789Y-89050478D01*
X131829816Y-88897738D01*
X131829814Y-88897736D01*
X131829813Y-88897734D01*
X131827550Y-88894896D01*
X131826659Y-88892715D01*
X131826111Y-88891842D01*
X131826264Y-88891745D01*
X131801144Y-88830209D01*
X131800500Y-88817587D01*
X131800500Y-69989059D01*
X131800501Y-69989046D01*
X131800501Y-69820945D01*
X131800501Y-69820943D01*
X131759577Y-69668215D01*
X131711745Y-69585368D01*
X131680520Y-69531284D01*
X131568716Y-69419480D01*
X131564385Y-69415149D01*
X131564374Y-69415139D01*
X130930700Y-68781465D01*
X130897215Y-68720142D01*
X130895163Y-68707686D01*
X130885368Y-68620745D01*
X130825789Y-68450478D01*
X130729816Y-68297738D01*
X130602262Y-68170184D01*
X130449521Y-68074210D01*
X130279249Y-68014630D01*
X130192330Y-68004837D01*
X130127916Y-67977770D01*
X130118533Y-67969298D01*
X126087590Y-63938355D01*
X126087588Y-63938352D01*
X125968717Y-63819481D01*
X125968716Y-63819480D01*
X125881904Y-63769360D01*
X125881904Y-63769359D01*
X125881900Y-63769358D01*
X125831785Y-63740423D01*
X125679057Y-63699499D01*
X125520943Y-63699499D01*
X125513347Y-63699499D01*
X125513331Y-63699500D01*
X95220940Y-63699500D01*
X95180019Y-63710464D01*
X95180019Y-63710465D01*
X95142751Y-63720451D01*
X95068214Y-63740423D01*
X95068209Y-63740426D01*
X94931290Y-63819475D01*
X94931282Y-63819481D01*
X94819478Y-63931286D01*
X93481465Y-65269298D01*
X93420142Y-65302783D01*
X93407668Y-65304837D01*
X93320750Y-65314630D01*
X93150478Y-65374210D01*
X92997737Y-65470184D01*
X92870184Y-65597737D01*
X92774211Y-65750476D01*
X92714631Y-65920745D01*
X92714630Y-65920750D01*
X92694435Y-66099996D01*
X92694435Y-66100003D01*
X91146296Y-66100003D01*
X88584648Y-63538355D01*
X88584646Y-63538352D01*
X88465775Y-63419481D01*
X88465767Y-63419475D01*
X88363994Y-63360717D01*
X88363992Y-63360716D01*
X88328848Y-63340425D01*
X88328847Y-63340424D01*
X88316321Y-63337067D01*
X88176115Y-63299499D01*
X88018001Y-63299499D01*
X88010405Y-63299499D01*
X88010389Y-63299500D01*
X85982412Y-63299500D01*
X85915373Y-63279815D01*
X85905097Y-63272445D01*
X85902263Y-63270185D01*
X85902262Y-63270184D01*
X85845496Y-63234515D01*
X85749523Y-63174211D01*
X85579254Y-63114631D01*
X85579249Y-63114630D01*
X85400004Y-63094435D01*
X85399996Y-63094435D01*
X85220750Y-63114630D01*
X85220745Y-63114631D01*
X85050476Y-63174211D01*
X84897737Y-63270184D01*
X84770184Y-63397737D01*
X84674211Y-63550476D01*
X84614631Y-63720745D01*
X84614630Y-63720750D01*
X84594435Y-63899996D01*
X84594435Y-63900003D01*
X83500500Y-63900003D01*
X83500500Y-60106286D01*
X86149500Y-60106286D01*
X86182753Y-60316239D01*
X86248444Y-60518414D01*
X86344951Y-60707820D01*
X86469890Y-60879786D01*
X86620213Y-61030109D01*
X86792179Y-61155048D01*
X86792181Y-61155049D01*
X86792184Y-61155051D01*
X86981588Y-61251557D01*
X87183757Y-61317246D01*
X87393713Y-61350500D01*
X87393714Y-61350500D01*
X87606286Y-61350500D01*
X87606287Y-61350500D01*
X87816243Y-61317246D01*
X88018412Y-61251557D01*
X88207816Y-61155051D01*
X88229789Y-61139086D01*
X88379786Y-61030109D01*
X88379788Y-61030106D01*
X88379792Y-61030104D01*
X88530104Y-60879792D01*
X88530106Y-60879788D01*
X88530109Y-60879786D01*
X88655048Y-60707820D01*
X88655047Y-60707820D01*
X88655051Y-60707816D01*
X88751557Y-60518412D01*
X88817246Y-60316243D01*
X88850500Y-60106287D01*
X88850500Y-60106286D01*
X158649500Y-60106286D01*
X158682753Y-60316239D01*
X158748444Y-60518414D01*
X158844951Y-60707820D01*
X158969890Y-60879786D01*
X159120213Y-61030109D01*
X159292179Y-61155048D01*
X159292181Y-61155049D01*
X159292184Y-61155051D01*
X159481588Y-61251557D01*
X159683757Y-61317246D01*
X159893713Y-61350500D01*
X159893714Y-61350500D01*
X160106286Y-61350500D01*
X160106287Y-61350500D01*
X160316243Y-61317246D01*
X160518412Y-61251557D01*
X160707816Y-61155051D01*
X160729789Y-61139086D01*
X160879786Y-61030109D01*
X160879788Y-61030106D01*
X160879792Y-61030104D01*
X161030104Y-60879792D01*
X161030106Y-60879788D01*
X161030109Y-60879786D01*
X161155048Y-60707820D01*
X161155047Y-60707820D01*
X161155051Y-60707816D01*
X161251557Y-60518412D01*
X161317246Y-60316243D01*
X161350500Y-60106287D01*
X161350500Y-59893713D01*
X161317246Y-59683757D01*
X161251557Y-59481588D01*
X161155051Y-59292184D01*
X161155049Y-59292181D01*
X161155048Y-59292179D01*
X161030109Y-59120213D01*
X160879786Y-58969890D01*
X160707820Y-58844951D01*
X160518414Y-58748444D01*
X160518413Y-58748443D01*
X160518412Y-58748443D01*
X160316243Y-58682754D01*
X160316241Y-58682753D01*
X160316240Y-58682753D01*
X160154957Y-58657208D01*
X160106287Y-58649500D01*
X159893713Y-58649500D01*
X159845042Y-58657208D01*
X159683760Y-58682753D01*
X159481585Y-58748444D01*
X159292179Y-58844951D01*
X159120213Y-58969890D01*
X158969890Y-59120213D01*
X158844951Y-59292179D01*
X158748444Y-59481585D01*
X158682753Y-59683760D01*
X158649500Y-59893713D01*
X158649500Y-60106286D01*
X88850500Y-60106286D01*
X88850500Y-59893713D01*
X88817246Y-59683757D01*
X88751557Y-59481588D01*
X88655051Y-59292184D01*
X88655049Y-59292181D01*
X88655048Y-59292179D01*
X88530109Y-59120213D01*
X88379786Y-58969890D01*
X88207820Y-58844951D01*
X88018414Y-58748444D01*
X88018413Y-58748443D01*
X88018412Y-58748443D01*
X87816243Y-58682754D01*
X87816241Y-58682753D01*
X87816240Y-58682753D01*
X87654957Y-58657208D01*
X87606287Y-58649500D01*
X87393713Y-58649500D01*
X87345042Y-58657208D01*
X87183760Y-58682753D01*
X86981585Y-58748444D01*
X86792179Y-58844951D01*
X86620213Y-58969890D01*
X86469890Y-59120213D01*
X86344951Y-59292179D01*
X86248444Y-59481585D01*
X86182753Y-59683760D01*
X86149500Y-59893713D01*
X86149500Y-60106286D01*
X83500500Y-60106286D01*
X83500500Y-56124500D01*
X83520185Y-56057461D01*
X83572989Y-56011706D01*
X83624500Y-56000500D01*
X164375500Y-56000500D01*
X164442539Y-56020185D01*
G37*
%TD.AperFunction*%
%TD*%
M02*
