M48
; DRILL file {KiCad 8.0.1} date 2024-10-27T18:24:38+0100
; FORMAT={-:-/ absolute / inch / decimal}
; #@! TF.CreationDate,2024-10-27T18:24:38+01:00
; #@! TF.GenerationSoftware,Kicad,Pcbnew,8.0.1
; #@! TF.FileFunction,MixedPlating,1,2
FMAT,2
INCH
; #@! TA.AperFunction,Plated,PTH,ViaDrill
T1C0.0118
; #@! TA.AperFunction,Plated,PTH,ComponentDrill
T2C0.0394
; #@! TA.AperFunction,Plated,PTH,ComponentDrill
T3C0.0839
; #@! TA.AperFunction,Plated,PTH,ComponentDrill
T4C0.1126
; #@! TA.AperFunction,NonPlated,NPTH,ComponentDrill
T5C0.0197
; #@! TA.AperFunction,NonPlated,NPTH,ComponentDrill
T6C0.0866
%
G90
G05
T1
X3.3622Y-2.5157
X3.4331Y-3.6496
X3.4449Y-2.6299
X3.5118Y-3.1339
X3.6811Y-2.6024
X3.6811Y-4.0394
X3.689Y-4.1457
X3.6929Y-4.0945
X3.7205Y-2.8976
X3.7874Y-3.8465
X3.8445Y-3.7421
X3.8819Y-4.0748
X3.8976Y-3.1969
X3.9016Y-3.7323
X3.9291Y-4.1535
X4.0501Y-3.2623
X4.0748Y-3.7165
X4.098Y-3.0752
X4.0984Y-3.0394
X4.1024Y-3.4764
X4.1102Y-2.9488
X4.1181Y-2.7598
X4.1299Y-4.1969
X4.1457Y-3.6063
X4.1654Y-2.3504
X4.2087Y-2.9567
X4.252Y-4.2244
X4.2756Y-2.9921
X4.3376Y-2.7313
X4.3386Y-3.0039
X4.3504Y-3.0866
X4.3799Y-4.0217
X4.3858Y-2.9567
X4.4685Y-3.6417
X4.4803Y-4.0315
X4.4921Y-4.4094
X4.5315Y-3.0079
X4.5709Y-4.0748
X4.574Y-4.1079
X4.6457Y-4.1614
X4.7078Y-3.6622
X4.7362Y-2.815
X4.7362Y-3.0591
X4.7442Y-3.6083
X4.7598Y-4.1417
X4.7677Y-3.9429
X4.8227Y-3.6617
X4.8346Y-3.7283
X4.8622Y-3.7598
X4.8622Y-4.1614
X4.8661Y-4.0453
X4.8671Y-4.0852
X4.874Y-4.0079
X4.8898Y-4.2795
X4.9094Y-4.0079
X4.9528Y-3.9921
X4.9606Y-3.9567
X4.9764Y-3.8071
X4.9961Y-3.8346
X5.0551Y-3.9134
X5.0928Y-4.1114
X5.1024Y-3.1626
X5.1063Y-3.2677
X5.122Y-2.7087
X5.1614Y-3.6496
X5.1654Y-3.5197
X5.2244Y-3.8268
X5.2953Y-3.6614
X5.3858Y-3.8386
X5.5039Y-3.8307
X5.7165Y-2.8543
X5.8346Y-3.6654
X5.8858Y-3.3858
X6.1654Y-3.7652
X6.2638Y-2.5197
X6.3386Y-3.622
T2
X5.9079Y-4.1008
X5.9079Y-4.2008
X5.9079Y-4.3008
X6.0079Y-4.1008
X6.0079Y-4.2008
X6.0079Y-4.3008
T3
X3.554Y-3.9026
X3.554Y-4.2864
T4
X3.3966Y-3.9026
X3.3966Y-4.2864
T5
X6.0709Y-3.627
T6
X3.4449Y-2.3622
X6.2992Y-2.3622
X6.2992Y-4.3701
M30
