G04 EAGLE Gerber RS-274X export*
G75*
%MOMM*%
%FSLAX34Y34*%
%LPD*%
%INTop Copper*%
%IPPOS*%
%AMOC8*
5,1,8,0,0,1.08239X$1,22.5*%
G01*
G04 Define Apertures*
%ADD10R,1.150000X0.300000*%
%ADD11R,2.000000X2.180000*%
%ADD12R,1.500000X1.300000*%
%ADD13R,1.400000X0.600000*%
%ADD14R,1.300000X1.500000*%
%ADD15C,0.139500*%
%ADD16C,0.196500*%
%ADD17R,1.150000X0.800000*%
%ADD18R,0.650000X1.100000*%
%ADD19R,1.500000X1.500000*%
%ADD20R,1.700000X1.000000*%
%ADD21R,1.900000X1.300000*%
%ADD22R,0.300000X1.475000*%
%ADD23R,1.475000X0.300000*%
%ADD24P,1.64956X8X22.5*%
%ADD25R,3.000000X1.400000*%
%ADD26R,0.500000X0.600000*%
%ADD27R,1.580000X0.580000*%
%ADD28R,0.500000X0.500000*%
%ADD29R,0.450000X1.475000*%
%ADD30R,1.190000X2.790000*%
%ADD31C,1.300000*%
%ADD32R,1.300000X1.300000*%
%ADD33R,0.600000X0.522000*%
%ADD34C,1.625000*%
%ADD35R,1.465300X1.164600*%
%ADD36R,1.164600X1.465300*%
%ADD37R,1.420200X1.031200*%
%ADD38R,1.031200X1.420200*%
%ADD39R,1.825000X0.700000*%
%ADD40R,5.500000X1.000000*%
%ADD41R,3.000000X1.600000*%
%ADD42C,1.524000*%
%ADD43R,0.650000X0.700000*%
%ADD44R,1.350000X1.350000*%
%ADD45C,1.350000*%
%ADD46C,0.550000*%
%ADD47C,0.304800*%
%ADD48C,0.200000*%
G36*
X781083Y275241D02*
X780489Y275120D01*
X710798Y275120D01*
X710249Y275222D01*
X709738Y275549D01*
X709395Y276050D01*
X709274Y276644D01*
X709274Y279270D01*
X708670Y279874D01*
X708364Y280313D01*
X708224Y280903D01*
X708326Y281501D01*
X708653Y282012D01*
X709153Y282355D01*
X709748Y282476D01*
X727631Y282476D01*
X728524Y283369D01*
X728524Y294732D01*
X728451Y294837D01*
X728311Y295427D01*
X728413Y296025D01*
X728740Y296536D01*
X729240Y296879D01*
X729835Y297000D01*
X770165Y297000D01*
X770692Y296906D01*
X771208Y296587D01*
X771559Y296093D01*
X771689Y295500D01*
X771578Y294904D01*
X771476Y294750D01*
X771476Y283369D01*
X772369Y282476D01*
X784797Y282476D01*
X785323Y282382D01*
X785839Y282063D01*
X786190Y281569D01*
X786321Y280976D01*
X786209Y280380D01*
X785874Y279874D01*
X781566Y275566D01*
X781083Y275241D01*
G37*
G36*
X445211Y132154D02*
X444621Y132015D01*
X444023Y132116D01*
X443512Y132443D01*
X443169Y132943D01*
X443048Y133538D01*
X443048Y166372D01*
X443159Y166944D01*
X443494Y167450D01*
X444274Y168230D01*
X444274Y171770D01*
X441770Y174274D01*
X440668Y174274D01*
X440096Y174385D01*
X439590Y174720D01*
X439363Y174948D01*
X437793Y174948D01*
X437244Y175050D01*
X436733Y175377D01*
X436390Y175878D01*
X436381Y175919D01*
X435128Y177172D01*
X434812Y177633D01*
X434682Y178226D01*
X434793Y178822D01*
X435128Y179328D01*
X436269Y180469D01*
X436269Y188731D01*
X435128Y189872D01*
X434812Y190333D01*
X434682Y190926D01*
X434793Y191522D01*
X435128Y192028D01*
X436269Y193169D01*
X436269Y201431D01*
X435376Y202324D01*
X415864Y202324D01*
X415003Y201463D01*
X414542Y201147D01*
X413949Y201017D01*
X413353Y201128D01*
X412848Y201463D01*
X412220Y202090D01*
X411895Y202573D01*
X411774Y203168D01*
X411774Y204270D01*
X410994Y205050D01*
X410669Y205533D01*
X410548Y206128D01*
X410548Y230428D01*
X410650Y230977D01*
X410977Y231488D01*
X411478Y231831D01*
X412072Y231952D01*
X413656Y231952D01*
X414228Y231841D01*
X414734Y231506D01*
X416112Y230128D01*
X416428Y229667D01*
X416558Y229074D01*
X416447Y228478D01*
X416112Y227972D01*
X414971Y226831D01*
X414971Y218569D01*
X415864Y217676D01*
X435376Y217676D01*
X436370Y218670D01*
X436371Y218677D01*
X436698Y219188D01*
X437199Y219531D01*
X437793Y219652D01*
X442601Y219652D01*
X443150Y219550D01*
X443661Y219223D01*
X444004Y218722D01*
X444125Y218128D01*
X444125Y212268D01*
X445089Y211303D01*
X445405Y210842D01*
X445536Y210250D01*
X445424Y209654D01*
X445089Y209148D01*
X443899Y207958D01*
X443899Y192042D01*
X444792Y191150D01*
X457700Y191150D01*
X458593Y192042D01*
X458593Y207958D01*
X457690Y208861D01*
X457220Y208944D01*
X456704Y209263D01*
X456353Y209758D01*
X456223Y210350D01*
X456334Y210946D01*
X456669Y211452D01*
X457485Y212268D01*
X457485Y227732D01*
X456592Y228625D01*
X447072Y228625D01*
X446523Y228727D01*
X446012Y229054D01*
X445669Y229555D01*
X445548Y230149D01*
X445548Y267958D01*
X436321Y277184D01*
X435996Y277667D01*
X435875Y278262D01*
X435875Y287732D01*
X434982Y288625D01*
X431317Y288625D01*
X430745Y288736D01*
X430239Y289071D01*
X424912Y294398D01*
X424606Y294837D01*
X424467Y295427D01*
X424568Y296025D01*
X424895Y296536D01*
X425395Y296879D01*
X425990Y297000D01*
X559452Y297000D01*
X560001Y296898D01*
X560512Y296571D01*
X560855Y296070D01*
X560976Y295476D01*
X560976Y294072D01*
X560874Y293523D01*
X560547Y293012D01*
X560046Y292669D01*
X559452Y292548D01*
X555737Y292548D01*
X550126Y286936D01*
X549687Y286630D01*
X549097Y286491D01*
X548499Y286592D01*
X547988Y286919D01*
X547645Y287419D01*
X547524Y288014D01*
X547524Y288131D01*
X546631Y289024D01*
X532369Y289024D01*
X531078Y287733D01*
X530617Y287417D01*
X530024Y287287D01*
X529428Y287398D01*
X528922Y287733D01*
X527631Y289024D01*
X513369Y289024D01*
X512476Y288131D01*
X512476Y284748D01*
X512382Y284221D01*
X512063Y283705D01*
X511569Y283354D01*
X510976Y283224D01*
X510380Y283335D01*
X509874Y283670D01*
X509270Y284274D01*
X505730Y284274D01*
X503226Y281770D01*
X503226Y278230D01*
X503782Y277674D01*
X504088Y277235D01*
X504228Y276645D01*
X504126Y276047D01*
X503799Y275536D01*
X503299Y275193D01*
X502704Y275072D01*
X502230Y275072D01*
X501710Y274958D01*
X501114Y275069D01*
X500608Y275404D01*
X499470Y276542D01*
X499145Y277025D01*
X499024Y277620D01*
X499024Y286631D01*
X498131Y287524D01*
X481869Y287524D01*
X480976Y286631D01*
X480976Y272369D01*
X482267Y271078D01*
X482583Y270617D01*
X482713Y270024D01*
X482602Y269428D01*
X482267Y268922D01*
X480976Y267631D01*
X480976Y265072D01*
X480874Y264523D01*
X480547Y264012D01*
X480046Y263669D01*
X479452Y263548D01*
X470548Y263548D01*
X469999Y263650D01*
X469488Y263977D01*
X469145Y264478D01*
X469024Y265072D01*
X469024Y267631D01*
X468131Y268524D01*
X451869Y268524D01*
X450976Y267631D01*
X450976Y253369D01*
X451869Y252476D01*
X468131Y252476D01*
X469024Y253369D01*
X469024Y255928D01*
X469126Y256477D01*
X469453Y256988D01*
X469954Y257331D01*
X470548Y257452D01*
X479452Y257452D01*
X480001Y257350D01*
X480512Y257023D01*
X480855Y256522D01*
X480976Y255928D01*
X480976Y253369D01*
X481869Y252476D01*
X498131Y252476D01*
X499024Y253369D01*
X499024Y260428D01*
X499126Y260977D01*
X499453Y261488D01*
X499954Y261831D01*
X500548Y261952D01*
X528106Y261952D01*
X528678Y261841D01*
X529184Y261506D01*
X533006Y257684D01*
X533331Y257201D01*
X533452Y256606D01*
X533452Y238744D01*
X533341Y238172D01*
X533006Y237666D01*
X532726Y237386D01*
X532726Y221374D01*
X533619Y220481D01*
X552381Y220481D01*
X553274Y221374D01*
X553274Y237386D01*
X552994Y237666D01*
X552669Y238149D01*
X552548Y238744D01*
X552548Y248106D01*
X552659Y248678D01*
X552994Y249184D01*
X558124Y254314D01*
X558563Y254620D01*
X559153Y254759D01*
X559751Y254658D01*
X560262Y254331D01*
X560605Y253831D01*
X560726Y253236D01*
X560726Y253230D01*
X563230Y250726D01*
X564327Y250726D01*
X564876Y250624D01*
X565387Y250297D01*
X565730Y249796D01*
X565851Y249202D01*
X565851Y248649D01*
X565749Y248100D01*
X565422Y247589D01*
X564921Y247246D01*
X564327Y247125D01*
X560768Y247125D01*
X559875Y246232D01*
X559875Y231970D01*
X561166Y230679D01*
X561482Y230218D01*
X561612Y229625D01*
X561501Y229029D01*
X561166Y228523D01*
X559875Y227232D01*
X559875Y212970D01*
X560768Y212077D01*
X564087Y212077D01*
X564614Y211983D01*
X565130Y211664D01*
X565481Y211170D01*
X565611Y210577D01*
X565500Y209981D01*
X565165Y209475D01*
X556952Y201263D01*
X556952Y161894D01*
X556841Y161322D01*
X556506Y160816D01*
X554184Y158494D01*
X553701Y158169D01*
X553106Y158048D01*
X534072Y158048D01*
X533523Y158150D01*
X533012Y158477D01*
X532669Y158978D01*
X532548Y159572D01*
X532548Y160197D01*
X532650Y160746D01*
X532977Y161257D01*
X533478Y161600D01*
X534072Y161721D01*
X552381Y161721D01*
X553274Y162614D01*
X553274Y178626D01*
X552381Y179519D01*
X547572Y179519D01*
X547023Y179621D01*
X546512Y179948D01*
X546169Y180449D01*
X546048Y181043D01*
X546048Y181872D01*
X546159Y182444D01*
X546494Y182950D01*
X546774Y183230D01*
X546774Y186770D01*
X544270Y189274D01*
X540730Y189274D01*
X540561Y189105D01*
X540100Y188789D01*
X539507Y188659D01*
X538911Y188770D01*
X538405Y189105D01*
X537316Y190194D01*
X533664Y193846D01*
X507035Y193846D01*
X481660Y168470D01*
X481177Y168145D01*
X480582Y168024D01*
X470369Y168024D01*
X469476Y167131D01*
X469476Y156918D01*
X469365Y156346D01*
X469030Y155840D01*
X445650Y132460D01*
X445211Y132154D01*
G37*
%LPC*%
G36*
X481869Y206476D02*
X498131Y206476D01*
X499024Y207369D01*
X499024Y209928D01*
X499126Y210477D01*
X499453Y210988D01*
X499954Y211331D01*
X500548Y211452D01*
X520763Y211452D01*
X526548Y217237D01*
X526548Y220016D01*
X526659Y220588D01*
X526994Y221094D01*
X527274Y221374D01*
X527274Y237386D01*
X525994Y238666D01*
X525669Y239149D01*
X525548Y239744D01*
X525548Y243106D01*
X525659Y243678D01*
X525994Y244184D01*
X528048Y246237D01*
X528048Y246372D01*
X528159Y246944D01*
X528494Y247450D01*
X529274Y248230D01*
X529274Y251770D01*
X526770Y254274D01*
X523230Y254274D01*
X520726Y251770D01*
X520726Y248168D01*
X520615Y247596D01*
X520280Y247090D01*
X519452Y246263D01*
X519452Y239803D01*
X519350Y239254D01*
X519023Y238743D01*
X518522Y238400D01*
X517928Y238279D01*
X513453Y238279D01*
X512927Y238373D01*
X512411Y238692D01*
X512060Y239186D01*
X511929Y239779D01*
X512041Y240375D01*
X512376Y240881D01*
X513092Y241597D01*
X513159Y241944D01*
X513494Y242450D01*
X514274Y243230D01*
X514274Y246770D01*
X511770Y249274D01*
X508230Y249274D01*
X505726Y246770D01*
X505726Y243483D01*
X505615Y242911D01*
X505280Y242406D01*
X496913Y234039D01*
X496430Y233713D01*
X495835Y233592D01*
X495729Y233592D01*
X495157Y233704D01*
X494651Y234039D01*
X493871Y234818D01*
X490331Y234818D01*
X487827Y232315D01*
X487827Y228774D01*
X490331Y226270D01*
X493871Y226270D01*
X494651Y227050D01*
X495134Y227376D01*
X495729Y227496D01*
X498991Y227496D01*
X504124Y232629D01*
X504563Y232935D01*
X505153Y233075D01*
X505751Y232973D01*
X506262Y232646D01*
X506605Y232146D01*
X506726Y231552D01*
X506726Y221374D01*
X507950Y220150D01*
X508256Y219711D01*
X508396Y219121D01*
X508294Y218523D01*
X507967Y218012D01*
X507467Y217669D01*
X506872Y217548D01*
X500548Y217548D01*
X499999Y217650D01*
X499488Y217977D01*
X499145Y218478D01*
X499024Y219072D01*
X499024Y221631D01*
X498131Y222524D01*
X481869Y222524D01*
X480976Y221631D01*
X480976Y207369D01*
X481869Y206476D01*
G37*
%LPD*%
G36*
X5163Y74606D02*
X4573Y74467D01*
X3975Y74568D01*
X3464Y74895D01*
X3121Y75395D01*
X3000Y75990D01*
X3000Y280000D01*
X3029Y280297D01*
X4207Y286220D01*
X4435Y286769D01*
X7790Y291790D01*
X8210Y292210D01*
X13231Y295565D01*
X13780Y295793D01*
X19703Y296971D01*
X20000Y297000D01*
X234010Y297000D01*
X234537Y296906D01*
X235053Y296587D01*
X235404Y296093D01*
X235534Y295500D01*
X235423Y294904D01*
X235088Y294398D01*
X220326Y279636D01*
X219887Y279330D01*
X219297Y279191D01*
X218699Y279292D01*
X218188Y279619D01*
X217845Y280119D01*
X217724Y280714D01*
X217724Y290056D01*
X216256Y291524D01*
X183744Y291524D01*
X182276Y290056D01*
X182276Y276844D01*
X183744Y275376D01*
X212386Y275376D01*
X212913Y275282D01*
X213429Y274963D01*
X213780Y274469D01*
X213910Y273876D01*
X213799Y273280D01*
X213464Y272774D01*
X196452Y255763D01*
X196452Y226148D01*
X196350Y225599D01*
X196023Y225088D01*
X195522Y224745D01*
X195178Y224675D01*
X193826Y223323D01*
X193826Y209777D01*
X195127Y208476D01*
X195428Y208476D01*
X195977Y208374D01*
X196488Y208047D01*
X196831Y207546D01*
X196952Y206952D01*
X196952Y200548D01*
X196850Y199999D01*
X196523Y199488D01*
X196022Y199145D01*
X195428Y199024D01*
X192369Y199024D01*
X191476Y198131D01*
X191476Y181869D01*
X192369Y180976D01*
X206631Y180976D01*
X207524Y181869D01*
X207524Y198131D01*
X206631Y199024D01*
X204572Y199024D01*
X204023Y199126D01*
X203512Y199453D01*
X203169Y199954D01*
X203048Y200548D01*
X203048Y206952D01*
X203150Y207501D01*
X203477Y208012D01*
X203978Y208355D01*
X204572Y208476D01*
X204873Y208476D01*
X206174Y209777D01*
X206174Y223323D01*
X204873Y224624D01*
X204072Y224624D01*
X203523Y224726D01*
X203012Y225053D01*
X202669Y225554D01*
X202548Y226148D01*
X202548Y227606D01*
X202659Y228178D01*
X202994Y228684D01*
X203316Y229006D01*
X203799Y229331D01*
X204394Y229452D01*
X225606Y229452D01*
X226178Y229341D01*
X226684Y229006D01*
X228464Y227226D01*
X228770Y226787D01*
X228909Y226197D01*
X228808Y225599D01*
X228481Y225088D01*
X227981Y224745D01*
X227386Y224624D01*
X218027Y224624D01*
X216726Y223323D01*
X216726Y209777D01*
X218027Y208476D01*
X218328Y208476D01*
X218877Y208374D01*
X219388Y208047D01*
X219731Y207546D01*
X219852Y206952D01*
X219852Y175794D01*
X219741Y175222D01*
X219406Y174716D01*
X200684Y155994D01*
X200201Y155669D01*
X199606Y155548D01*
X199394Y155548D01*
X198822Y155659D01*
X198316Y155994D01*
X193763Y160548D01*
X166337Y160548D01*
X142760Y136970D01*
X142277Y136645D01*
X141682Y136524D01*
X139514Y136524D01*
X138987Y136618D01*
X138471Y136937D01*
X138120Y137431D01*
X137990Y138024D01*
X138101Y138620D01*
X138436Y139126D01*
X150548Y151237D01*
X150548Y173263D01*
X147970Y175840D01*
X147645Y176323D01*
X147524Y176918D01*
X147524Y188131D01*
X146631Y189024D01*
X138418Y189024D01*
X137846Y189135D01*
X137340Y189470D01*
X128494Y198316D01*
X128169Y198799D01*
X128048Y199394D01*
X128048Y220606D01*
X128159Y221178D01*
X128494Y221684D01*
X129000Y222189D01*
X129461Y222506D01*
X130053Y222636D01*
X130650Y222524D01*
X131155Y222189D01*
X131869Y221476D01*
X148131Y221476D01*
X149024Y222369D01*
X149024Y236631D01*
X148131Y237524D01*
X144572Y237524D01*
X144023Y237626D01*
X143512Y237953D01*
X143169Y238454D01*
X143048Y239048D01*
X143048Y260952D01*
X143150Y261501D01*
X143477Y262012D01*
X143978Y262355D01*
X144572Y262476D01*
X148131Y262476D01*
X149024Y263369D01*
X149024Y277631D01*
X148131Y278524D01*
X131869Y278524D01*
X130976Y277631D01*
X130976Y263369D01*
X131869Y262476D01*
X135428Y262476D01*
X135977Y262374D01*
X136488Y262047D01*
X136831Y261546D01*
X136952Y260952D01*
X136952Y257072D01*
X136850Y256523D01*
X136523Y256012D01*
X136022Y255669D01*
X135428Y255548D01*
X85578Y255548D01*
X85029Y255650D01*
X84518Y255977D01*
X84175Y256478D01*
X84054Y257072D01*
X84054Y257631D01*
X83161Y258524D01*
X78698Y258524D01*
X78575Y258548D01*
X74980Y258548D01*
X74862Y258524D01*
X73804Y258524D01*
X73255Y258626D01*
X72744Y258953D01*
X72401Y259454D01*
X72280Y260048D01*
X72280Y260143D01*
X71328Y262440D01*
X69570Y264198D01*
X67273Y265150D01*
X64787Y265150D01*
X62490Y264198D01*
X60732Y262440D01*
X59780Y260143D01*
X59780Y257657D01*
X60732Y255360D01*
X62490Y253602D01*
X64787Y252650D01*
X67273Y252650D01*
X67399Y252702D01*
X67933Y252817D01*
X68531Y252716D01*
X69042Y252389D01*
X69385Y251888D01*
X69506Y251294D01*
X69506Y242072D01*
X69404Y241523D01*
X69077Y241012D01*
X68576Y240669D01*
X67982Y240548D01*
X66237Y240548D01*
X61952Y236263D01*
X61952Y228737D01*
X66237Y224452D01*
X67982Y224452D01*
X68531Y224350D01*
X69042Y224023D01*
X69385Y223522D01*
X69506Y222928D01*
X69506Y208706D01*
X69408Y208168D01*
X69085Y207654D01*
X68588Y207307D01*
X67994Y207182D01*
X67399Y207298D01*
X67273Y207350D01*
X64787Y207350D01*
X62490Y206398D01*
X60732Y204640D01*
X59780Y202343D01*
X59780Y199857D01*
X60732Y197560D01*
X62490Y195802D01*
X64787Y194850D01*
X67273Y194850D01*
X69570Y195802D01*
X71328Y197560D01*
X72280Y199857D01*
X72280Y199952D01*
X72382Y200501D01*
X72709Y201012D01*
X73210Y201355D01*
X73804Y201476D01*
X74862Y201476D01*
X74985Y201452D01*
X78580Y201452D01*
X78698Y201476D01*
X83582Y201476D01*
X84154Y201365D01*
X84660Y201030D01*
X93737Y191952D01*
X111263Y191952D01*
X113316Y194006D01*
X113799Y194331D01*
X114394Y194452D01*
X123106Y194452D01*
X123678Y194341D01*
X124184Y194006D01*
X131030Y187160D01*
X131355Y186677D01*
X131476Y186082D01*
X131476Y171869D01*
X132369Y170976D01*
X142928Y170976D01*
X143477Y170874D01*
X143988Y170547D01*
X144331Y170046D01*
X144452Y169452D01*
X144452Y154394D01*
X144341Y153822D01*
X144006Y153316D01*
X137376Y146686D01*
X136937Y146380D01*
X136347Y146241D01*
X135749Y146342D01*
X135238Y146669D01*
X134895Y147169D01*
X134774Y147764D01*
X134774Y156631D01*
X133881Y157524D01*
X126119Y157524D01*
X125226Y156631D01*
X125226Y155072D01*
X125124Y154523D01*
X124797Y154012D01*
X124296Y153669D01*
X123702Y153548D01*
X99237Y153548D01*
X74410Y128720D01*
X73927Y128395D01*
X73332Y128274D01*
X62619Y128274D01*
X61726Y127381D01*
X61726Y116668D01*
X61615Y116096D01*
X61280Y115590D01*
X29184Y83494D01*
X28701Y83169D01*
X28106Y83048D01*
X13737Y83048D01*
X5602Y74912D01*
X5163Y74606D01*
G37*
%LPC*%
G36*
X21099Y268676D02*
X42361Y268676D01*
X43254Y269569D01*
X43254Y292631D01*
X42361Y293524D01*
X21099Y293524D01*
X20206Y292631D01*
X20206Y269569D01*
X21099Y268676D01*
G37*
G36*
X60399Y268676D02*
X81661Y268676D01*
X82554Y269569D01*
X82554Y292631D01*
X81661Y293524D01*
X60399Y293524D01*
X59506Y292631D01*
X59506Y269569D01*
X60399Y268676D01*
G37*
G36*
X101230Y258726D02*
X104770Y258726D01*
X107338Y261293D01*
X107376Y261501D01*
X107703Y262012D01*
X108204Y262355D01*
X108798Y262476D01*
X118131Y262476D01*
X119024Y263369D01*
X119024Y277631D01*
X118131Y278524D01*
X101869Y278524D01*
X100976Y277631D01*
X100976Y267652D01*
X100865Y267080D01*
X100530Y266574D01*
X98726Y264770D01*
X98726Y261230D01*
X101230Y258726D01*
G37*
G36*
X60399Y166476D02*
X81661Y166476D01*
X82554Y167369D01*
X82554Y190431D01*
X81661Y191324D01*
X60399Y191324D01*
X59506Y190431D01*
X59506Y167369D01*
X60399Y166476D01*
G37*
G36*
X21099Y166476D02*
X42361Y166476D01*
X43254Y167369D01*
X43254Y190431D01*
X42361Y191324D01*
X21099Y191324D01*
X20206Y190431D01*
X20206Y167369D01*
X21099Y166476D01*
G37*
%LPD*%
G36*
X959546Y283169D02*
X958952Y283048D01*
X884394Y283048D01*
X883822Y283159D01*
X883316Y283494D01*
X872412Y294398D01*
X872106Y294837D01*
X871967Y295427D01*
X872068Y296025D01*
X872395Y296536D01*
X872895Y296879D01*
X873490Y297000D01*
X980000Y297000D01*
X980297Y296971D01*
X986220Y295793D01*
X986769Y295565D01*
X991790Y292210D01*
X992210Y291790D01*
X992809Y290895D01*
X993065Y290097D01*
X992963Y289499D01*
X992636Y288988D01*
X992136Y288645D01*
X991541Y288524D01*
X961369Y288524D01*
X960476Y287631D01*
X960476Y284572D01*
X960374Y284023D01*
X960047Y283512D01*
X959546Y283169D01*
G37*
G36*
X350617Y137312D02*
X350024Y137182D01*
X349428Y137293D01*
X348922Y137628D01*
X347700Y138851D01*
X336896Y138851D01*
X336324Y138962D01*
X335819Y139297D01*
X329071Y146044D01*
X328746Y146527D01*
X328625Y147122D01*
X328625Y156592D01*
X327732Y157485D01*
X316280Y157485D01*
X315753Y157579D01*
X315237Y157898D01*
X314886Y158392D01*
X314756Y158985D01*
X314867Y159581D01*
X315202Y160087D01*
X317184Y162069D01*
X317667Y162394D01*
X318262Y162515D01*
X327732Y162515D01*
X328625Y163408D01*
X328625Y167328D01*
X328727Y167877D01*
X329054Y168388D01*
X329555Y168731D01*
X330149Y168852D01*
X342207Y168852D01*
X342756Y168750D01*
X343267Y168423D01*
X343610Y167922D01*
X343619Y167881D01*
X344624Y166876D01*
X364136Y166876D01*
X365029Y167769D01*
X365029Y176031D01*
X363888Y177172D01*
X363572Y177633D01*
X363442Y178226D01*
X363553Y178822D01*
X363888Y179328D01*
X365029Y180469D01*
X365029Y188731D01*
X363888Y189872D01*
X363572Y190333D01*
X363442Y190926D01*
X363553Y191522D01*
X363888Y192028D01*
X365029Y193169D01*
X365029Y201431D01*
X363888Y202572D01*
X363572Y203033D01*
X363442Y203626D01*
X363553Y204222D01*
X363888Y204728D01*
X365130Y205970D01*
X365131Y205977D01*
X365458Y206488D01*
X365959Y206831D01*
X366553Y206952D01*
X368763Y206952D01*
X385548Y223737D01*
X385548Y262928D01*
X385650Y263477D01*
X385977Y263988D01*
X386478Y264331D01*
X387072Y264452D01*
X394677Y264452D01*
X395249Y264341D01*
X395755Y264006D01*
X396535Y263226D01*
X400075Y263226D01*
X402579Y265730D01*
X402579Y266832D01*
X402690Y267404D01*
X403025Y267910D01*
X406044Y270929D01*
X406527Y271254D01*
X407122Y271375D01*
X416592Y271375D01*
X417485Y272268D01*
X417485Y287928D01*
X417587Y288477D01*
X417914Y288988D01*
X418415Y289331D01*
X419009Y289452D01*
X420606Y289452D01*
X421178Y289341D01*
X421684Y289006D01*
X422069Y288621D01*
X422394Y288138D01*
X422515Y287543D01*
X422515Y272268D01*
X423408Y271375D01*
X432878Y271375D01*
X433450Y271264D01*
X433956Y270929D01*
X439006Y265879D01*
X439331Y265396D01*
X439452Y264801D01*
X439452Y227272D01*
X439350Y226723D01*
X439023Y226212D01*
X438522Y225869D01*
X437928Y225748D01*
X437793Y225748D01*
X437244Y225850D01*
X436733Y226177D01*
X436390Y226678D01*
X436381Y226719D01*
X435128Y227972D01*
X434812Y228433D01*
X434682Y229026D01*
X434793Y229622D01*
X435128Y230128D01*
X436269Y231269D01*
X436269Y239531D01*
X435128Y240672D01*
X434812Y241133D01*
X434682Y241726D01*
X434793Y242322D01*
X435128Y242828D01*
X436269Y243969D01*
X436269Y252231D01*
X435376Y253124D01*
X415864Y253124D01*
X414971Y252231D01*
X414971Y243969D01*
X416112Y242828D01*
X416428Y242367D01*
X416558Y241774D01*
X416447Y241178D01*
X416112Y240672D01*
X414962Y239522D01*
X414869Y239023D01*
X414542Y238512D01*
X414041Y238169D01*
X413447Y238048D01*
X408737Y238048D01*
X404452Y233763D01*
X404452Y206128D01*
X404341Y205556D01*
X404006Y205050D01*
X403226Y204270D01*
X403226Y200730D01*
X405730Y198226D01*
X406832Y198226D01*
X407404Y198115D01*
X407910Y197780D01*
X411437Y194252D01*
X413447Y194252D01*
X413996Y194150D01*
X414507Y193823D01*
X414850Y193322D01*
X414859Y193281D01*
X416112Y192028D01*
X416428Y191567D01*
X416558Y190974D01*
X416447Y190378D01*
X416112Y189872D01*
X414870Y188630D01*
X414869Y188623D01*
X414542Y188112D01*
X414041Y187769D01*
X413447Y187648D01*
X413337Y187648D01*
X401952Y176263D01*
X401952Y143326D01*
X401850Y142777D01*
X401523Y142266D01*
X401022Y141923D01*
X400428Y141802D01*
X400375Y141802D01*
X399825Y141904D01*
X399314Y142231D01*
X398971Y142732D01*
X398851Y143326D01*
X398851Y145208D01*
X397958Y146101D01*
X382042Y146101D01*
X381150Y145208D01*
X381150Y143326D01*
X381047Y142777D01*
X380720Y142266D01*
X380220Y141923D01*
X379626Y141802D01*
X372491Y141802D01*
X368452Y137762D01*
X367991Y137446D01*
X367398Y137316D01*
X366802Y137427D01*
X366297Y137762D01*
X365208Y138851D01*
X352300Y138851D01*
X351078Y137628D01*
X350617Y137312D01*
G37*
G36*
X245083Y168746D02*
X244488Y168625D01*
X236615Y168625D01*
X236088Y168719D01*
X235572Y169038D01*
X235221Y169532D01*
X235091Y170125D01*
X235202Y170721D01*
X235537Y171227D01*
X235548Y171237D01*
X235548Y228763D01*
X228763Y235548D01*
X204394Y235548D01*
X203822Y235659D01*
X203316Y235994D01*
X202994Y236316D01*
X202669Y236799D01*
X202548Y237394D01*
X202548Y252606D01*
X202659Y253178D01*
X202994Y253684D01*
X238316Y289006D01*
X238799Y289331D01*
X239394Y289452D01*
X315606Y289452D01*
X316178Y289341D01*
X316684Y289006D01*
X321030Y284660D01*
X321355Y284177D01*
X321476Y283582D01*
X321476Y271869D01*
X322369Y270976D01*
X336631Y270976D01*
X337524Y271869D01*
X337524Y275428D01*
X337626Y275977D01*
X337953Y276488D01*
X338454Y276831D01*
X339048Y276952D01*
X362375Y276952D01*
X362924Y276850D01*
X363435Y276523D01*
X363778Y276022D01*
X363899Y275428D01*
X363899Y272042D01*
X364792Y271150D01*
X370428Y271150D01*
X370977Y271047D01*
X371488Y270720D01*
X371831Y270220D01*
X371952Y269626D01*
X371952Y268737D01*
X376237Y264452D01*
X377928Y264452D01*
X378477Y264350D01*
X378988Y264023D01*
X379331Y263522D01*
X379452Y262928D01*
X379452Y253538D01*
X379358Y253011D01*
X379039Y252495D01*
X378545Y252144D01*
X377952Y252014D01*
X377356Y252125D01*
X376850Y252460D01*
X365458Y263853D01*
X290149Y263853D01*
X289600Y263955D01*
X289089Y264282D01*
X288746Y264783D01*
X288625Y265377D01*
X288625Y266592D01*
X287732Y267485D01*
X285798Y267485D01*
X285249Y267587D01*
X284738Y267914D01*
X284395Y268415D01*
X284274Y269009D01*
X284274Y270991D01*
X284376Y271540D01*
X284703Y272051D01*
X285204Y272394D01*
X285798Y272515D01*
X287732Y272515D01*
X288625Y273408D01*
X288625Y284982D01*
X287732Y285875D01*
X272268Y285875D01*
X271375Y284982D01*
X271375Y273408D01*
X272268Y272515D01*
X274202Y272515D01*
X274751Y272413D01*
X275262Y272086D01*
X275605Y271585D01*
X275726Y270991D01*
X275726Y269009D01*
X275624Y268460D01*
X275297Y267949D01*
X274796Y267606D01*
X274202Y267485D01*
X272268Y267485D01*
X271375Y266592D01*
X271375Y257122D01*
X271264Y256550D01*
X270929Y256044D01*
X265706Y250822D01*
X265706Y250375D01*
X265604Y249825D01*
X265277Y249314D01*
X264776Y248971D01*
X264182Y248851D01*
X262300Y248851D01*
X261078Y247628D01*
X260617Y247312D01*
X260024Y247182D01*
X259428Y247293D01*
X258922Y247628D01*
X257700Y248851D01*
X255818Y248851D01*
X255269Y248953D01*
X254758Y249280D01*
X254415Y249780D01*
X254294Y250375D01*
X254294Y252601D01*
X254396Y253150D01*
X254723Y253661D01*
X255224Y254004D01*
X255818Y254125D01*
X257732Y254125D01*
X258625Y255018D01*
X258625Y266592D01*
X257732Y267485D01*
X255798Y267485D01*
X255249Y267587D01*
X254738Y267914D01*
X254395Y268415D01*
X254274Y269009D01*
X254274Y270991D01*
X254376Y271540D01*
X254703Y272051D01*
X255204Y272394D01*
X255798Y272515D01*
X257732Y272515D01*
X258625Y273408D01*
X258625Y284982D01*
X257732Y285875D01*
X242268Y285875D01*
X241375Y284982D01*
X241375Y273408D01*
X242268Y272515D01*
X244202Y272515D01*
X244751Y272413D01*
X245262Y272086D01*
X245605Y271585D01*
X245726Y270991D01*
X245726Y269009D01*
X245624Y268460D01*
X245297Y267949D01*
X244796Y267606D01*
X244202Y267485D01*
X242268Y267485D01*
X241375Y266592D01*
X241375Y255018D01*
X242268Y254125D01*
X246674Y254125D01*
X247223Y254023D01*
X247734Y253696D01*
X248077Y253195D01*
X248198Y252601D01*
X248198Y250375D01*
X248096Y249825D01*
X247769Y249314D01*
X247268Y248971D01*
X246674Y248851D01*
X244792Y248851D01*
X243899Y247958D01*
X243899Y232042D01*
X244792Y231150D01*
X245428Y231150D01*
X245977Y231047D01*
X246488Y230720D01*
X246831Y230220D01*
X246952Y229626D01*
X246952Y217625D01*
X246850Y217076D01*
X246523Y216565D01*
X246022Y216222D01*
X245428Y216101D01*
X242042Y216101D01*
X241150Y215208D01*
X241150Y202300D01*
X242372Y201078D01*
X242688Y200617D01*
X242818Y200024D01*
X242707Y199428D01*
X242372Y198922D01*
X241150Y197700D01*
X241150Y184792D01*
X242042Y183899D01*
X245428Y183899D01*
X245977Y183797D01*
X246488Y183470D01*
X246831Y182969D01*
X246952Y182375D01*
X246952Y171089D01*
X246841Y170517D01*
X246506Y170011D01*
X245566Y169071D01*
X245083Y168746D01*
G37*
G36*
X891201Y63169D02*
X890606Y63048D01*
X783772Y63048D01*
X783223Y63150D01*
X782712Y63477D01*
X782369Y63978D01*
X782248Y64572D01*
X782248Y66785D01*
X782359Y67357D01*
X782694Y67863D01*
X788344Y73512D01*
X788344Y81088D01*
X785081Y84350D01*
X784775Y84789D01*
X784636Y85379D01*
X784737Y85977D01*
X785064Y86488D01*
X785564Y86831D01*
X786159Y86952D01*
X793163Y86952D01*
X799320Y93110D01*
X799803Y93435D01*
X800398Y93556D01*
X808388Y93556D01*
X813744Y98912D01*
X813744Y106488D01*
X808388Y111844D01*
X800812Y111844D01*
X795456Y106488D01*
X795456Y98498D01*
X795345Y97926D01*
X795010Y97420D01*
X791084Y93494D01*
X790601Y93169D01*
X790006Y93048D01*
X786159Y93048D01*
X785632Y93142D01*
X785116Y93461D01*
X784765Y93955D01*
X784635Y94548D01*
X784746Y95144D01*
X785081Y95650D01*
X788344Y98912D01*
X788344Y106488D01*
X782988Y111844D01*
X775412Y111844D01*
X769763Y106194D01*
X769280Y105869D01*
X768685Y105748D01*
X763378Y105748D01*
X763347Y105741D01*
X762749Y105842D01*
X762238Y106169D01*
X761895Y106669D01*
X761774Y107264D01*
X761774Y109270D01*
X760244Y110800D01*
X759919Y111283D01*
X759798Y111878D01*
X759798Y113511D01*
X759909Y114083D01*
X760244Y114589D01*
X761524Y115869D01*
X761524Y124131D01*
X760244Y125411D01*
X759919Y125894D01*
X759798Y126489D01*
X759798Y139452D01*
X759900Y140001D01*
X760227Y140512D01*
X760728Y140855D01*
X761322Y140976D01*
X766631Y140976D01*
X767524Y141869D01*
X767524Y153082D01*
X767635Y153654D01*
X767970Y154160D01*
X768590Y154780D01*
X769073Y155105D01*
X769668Y155226D01*
X770770Y155226D01*
X771550Y156006D01*
X772033Y156331D01*
X772628Y156452D01*
X779452Y156452D01*
X780001Y156350D01*
X780512Y156023D01*
X780855Y155522D01*
X780976Y154928D01*
X780976Y152369D01*
X781869Y151476D01*
X798131Y151476D01*
X799024Y152369D01*
X799024Y166631D01*
X798131Y167524D01*
X798014Y167524D01*
X797487Y167618D01*
X796971Y167937D01*
X796620Y168431D01*
X796490Y169024D01*
X796601Y169620D01*
X796936Y170126D01*
X803316Y176506D01*
X803799Y176831D01*
X804394Y176952D01*
X804952Y176952D01*
X805501Y176850D01*
X806012Y176523D01*
X806355Y176022D01*
X806476Y175428D01*
X806476Y172369D01*
X807767Y171078D01*
X808083Y170617D01*
X808213Y170024D01*
X808102Y169428D01*
X807767Y168922D01*
X806476Y167631D01*
X806476Y152369D01*
X807369Y151476D01*
X838631Y151476D01*
X839524Y152369D01*
X839524Y167631D01*
X838233Y168922D01*
X837917Y169383D01*
X837787Y169976D01*
X837898Y170572D01*
X838233Y171078D01*
X839524Y172369D01*
X839524Y187631D01*
X838233Y188922D01*
X837917Y189383D01*
X837787Y189976D01*
X837898Y190572D01*
X838233Y191078D01*
X839524Y192369D01*
X839524Y207631D01*
X838233Y208922D01*
X837917Y209383D01*
X837787Y209976D01*
X837898Y210572D01*
X838233Y211078D01*
X839524Y212369D01*
X839524Y215428D01*
X839626Y215977D01*
X839953Y216488D01*
X840454Y216831D01*
X841048Y216952D01*
X841372Y216952D01*
X841944Y216841D01*
X842450Y216506D01*
X843230Y215726D01*
X846770Y215726D01*
X849274Y218230D01*
X849274Y221770D01*
X846770Y224274D01*
X843230Y224274D01*
X842450Y223494D01*
X841967Y223169D01*
X841372Y223048D01*
X841048Y223048D01*
X840499Y223150D01*
X839988Y223477D01*
X839645Y223978D01*
X839524Y224572D01*
X839524Y227631D01*
X838233Y228922D01*
X837917Y229383D01*
X837787Y229976D01*
X837898Y230572D01*
X838233Y231078D01*
X839524Y232369D01*
X839524Y247631D01*
X838233Y248922D01*
X837917Y249383D01*
X837787Y249976D01*
X837898Y250572D01*
X838233Y251078D01*
X839524Y252369D01*
X839524Y267631D01*
X838631Y268524D01*
X807369Y268524D01*
X806476Y267631D01*
X806476Y264572D01*
X806374Y264023D01*
X806047Y263512D01*
X805546Y263169D01*
X804952Y263048D01*
X803737Y263048D01*
X794126Y253436D01*
X793687Y253130D01*
X793097Y252991D01*
X792499Y253092D01*
X791988Y253419D01*
X791645Y253919D01*
X791524Y254514D01*
X791524Y256631D01*
X790631Y257524D01*
X772369Y257524D01*
X771476Y256631D01*
X771476Y245369D01*
X772369Y244476D01*
X790428Y244476D01*
X790977Y244374D01*
X791488Y244047D01*
X791831Y243546D01*
X791952Y242952D01*
X791952Y239394D01*
X791841Y238822D01*
X791506Y238316D01*
X787910Y234720D01*
X787427Y234395D01*
X786832Y234274D01*
X785730Y234274D01*
X783226Y231770D01*
X783226Y228230D01*
X785730Y225726D01*
X789270Y225726D01*
X791774Y228230D01*
X791774Y229332D01*
X791885Y229904D01*
X792220Y230410D01*
X795138Y233328D01*
X795577Y233634D01*
X796167Y233773D01*
X796765Y233672D01*
X797276Y233345D01*
X797619Y232845D01*
X797740Y232250D01*
X797740Y219191D01*
X797646Y218664D01*
X797327Y218148D01*
X796833Y217797D01*
X796240Y217667D01*
X795644Y217778D01*
X795138Y218113D01*
X792800Y220452D01*
X789439Y221844D01*
X770561Y221844D01*
X767712Y220664D01*
X767129Y220548D01*
X750548Y220548D01*
X749999Y220650D01*
X749488Y220977D01*
X749145Y221478D01*
X749024Y222072D01*
X749024Y225631D01*
X748131Y226524D01*
X731869Y226524D01*
X730976Y225631D01*
X730976Y222072D01*
X730874Y221523D01*
X730547Y221012D01*
X730046Y220669D01*
X729452Y220548D01*
X721894Y220548D01*
X721322Y220659D01*
X720816Y220994D01*
X710465Y231346D01*
X680048Y231346D01*
X679499Y231448D01*
X678988Y231775D01*
X678645Y232276D01*
X678524Y232870D01*
X678524Y248134D01*
X678225Y248563D01*
X678085Y249153D01*
X678187Y249751D01*
X678514Y250262D01*
X679014Y250605D01*
X679609Y250726D01*
X681770Y250726D01*
X682550Y251506D01*
X682754Y251643D01*
X683956Y252845D01*
X684417Y253161D01*
X685009Y253291D01*
X685605Y253180D01*
X686111Y252845D01*
X688230Y250726D01*
X691770Y250726D01*
X693930Y252886D01*
X694413Y253211D01*
X695008Y253332D01*
X701919Y253332D01*
X712592Y264006D01*
X713076Y264331D01*
X713670Y264452D01*
X786263Y264452D01*
X803048Y281237D01*
X803048Y285476D01*
X803150Y286025D01*
X803477Y286536D01*
X803978Y286879D01*
X804572Y287000D01*
X849776Y287000D01*
X850303Y286906D01*
X850819Y286587D01*
X851170Y286093D01*
X851300Y285500D01*
X851189Y284904D01*
X850854Y284398D01*
X848226Y281770D01*
X848226Y278230D01*
X850730Y275726D01*
X851832Y275726D01*
X852404Y275615D01*
X852910Y275280D01*
X877306Y250884D01*
X877631Y250401D01*
X877752Y249806D01*
X877752Y113215D01*
X877641Y112643D01*
X877306Y112137D01*
X871656Y106488D01*
X871656Y98912D01*
X877012Y93556D01*
X884588Y93556D01*
X889944Y98912D01*
X889944Y106488D01*
X884294Y112137D01*
X883969Y112620D01*
X883848Y113215D01*
X883848Y248862D01*
X883942Y249389D01*
X884261Y249905D01*
X884755Y250256D01*
X885348Y250386D01*
X885944Y250275D01*
X886450Y249940D01*
X899437Y236952D01*
X958952Y236952D01*
X959501Y236850D01*
X960012Y236523D01*
X960355Y236022D01*
X960476Y235428D01*
X960476Y232369D01*
X961767Y231078D01*
X962083Y230617D01*
X962213Y230024D01*
X962102Y229428D01*
X961767Y228922D01*
X960476Y227631D01*
X960476Y217918D01*
X960365Y217346D01*
X960030Y216840D01*
X939452Y196263D01*
X939452Y104894D01*
X939341Y104322D01*
X939006Y103816D01*
X934160Y98970D01*
X933677Y98645D01*
X933082Y98524D01*
X921869Y98524D01*
X920976Y97631D01*
X920976Y83369D01*
X921869Y82476D01*
X925428Y82476D01*
X925977Y82374D01*
X926488Y82047D01*
X926831Y81546D01*
X926952Y80952D01*
X926952Y69572D01*
X926850Y69023D01*
X926523Y68512D01*
X926022Y68169D01*
X925428Y68048D01*
X896237Y68048D01*
X891684Y63494D01*
X891201Y63169D01*
G37*
%LPC*%
G36*
X851612Y93556D02*
X859188Y93556D01*
X864544Y98912D01*
X864544Y106488D01*
X859188Y111844D01*
X851612Y111844D01*
X846256Y106488D01*
X846256Y98912D01*
X851612Y93556D01*
G37*
G36*
X826212Y93556D02*
X833788Y93556D01*
X839144Y98912D01*
X839144Y106488D01*
X833788Y111844D01*
X826212Y111844D01*
X820856Y106488D01*
X820856Y98912D01*
X826212Y93556D01*
G37*
G36*
X877012Y68156D02*
X884588Y68156D01*
X889944Y73512D01*
X889944Y81088D01*
X884588Y86444D01*
X877012Y86444D01*
X871656Y81088D01*
X871656Y73512D01*
X877012Y68156D01*
G37*
G36*
X851612Y68156D02*
X859188Y68156D01*
X864544Y73512D01*
X864544Y81088D01*
X859188Y86444D01*
X851612Y86444D01*
X846256Y81088D01*
X846256Y73512D01*
X851612Y68156D01*
G37*
%LPD*%
G36*
X996093Y28830D02*
X995500Y28700D01*
X994904Y28811D01*
X994398Y29146D01*
X991770Y31774D01*
X988230Y31774D01*
X986310Y29854D01*
X985827Y29529D01*
X985232Y29408D01*
X984349Y29408D01*
X983777Y29519D01*
X983271Y29854D01*
X982631Y30494D01*
X975273Y30494D01*
X975117Y30387D01*
X974524Y30257D01*
X973928Y30368D01*
X973738Y30494D01*
X967048Y30494D01*
X966499Y30596D01*
X965988Y30923D01*
X965645Y31424D01*
X965524Y32018D01*
X965524Y37821D01*
X964631Y38714D01*
X958728Y38714D01*
X958156Y38825D01*
X957650Y39160D01*
X954720Y42090D01*
X954395Y42573D01*
X954274Y43168D01*
X954274Y44270D01*
X951770Y46774D01*
X948230Y46774D01*
X945726Y44270D01*
X945726Y40730D01*
X948230Y38226D01*
X949332Y38226D01*
X949904Y38115D01*
X950410Y37780D01*
X956030Y32160D01*
X956355Y31677D01*
X956476Y31082D01*
X956476Y30932D01*
X956374Y30383D01*
X956047Y29872D01*
X955546Y29529D01*
X954952Y29408D01*
X953034Y29408D01*
X952462Y29519D01*
X951956Y29854D01*
X937970Y43840D01*
X937645Y44323D01*
X937524Y44918D01*
X937524Y58131D01*
X936631Y59024D01*
X934572Y59024D01*
X934023Y59126D01*
X933512Y59453D01*
X933169Y59954D01*
X933048Y60548D01*
X933048Y80952D01*
X933150Y81501D01*
X933477Y82012D01*
X933978Y82355D01*
X934572Y82476D01*
X938131Y82476D01*
X939024Y83369D01*
X939024Y94582D01*
X939135Y95154D01*
X939470Y95660D01*
X945548Y101737D01*
X945548Y193106D01*
X945659Y193678D01*
X945994Y194184D01*
X957874Y206064D01*
X958313Y206370D01*
X958903Y206509D01*
X959501Y206408D01*
X960012Y206081D01*
X960355Y205581D01*
X960476Y204986D01*
X960476Y192369D01*
X961767Y191078D01*
X962083Y190617D01*
X962213Y190024D01*
X962102Y189428D01*
X961767Y188922D01*
X960476Y187631D01*
X960476Y172369D01*
X961369Y171476D01*
X992631Y171476D01*
X993524Y172369D01*
X993524Y187631D01*
X992233Y188922D01*
X991917Y189383D01*
X991787Y189976D01*
X991898Y190572D01*
X992233Y191078D01*
X993524Y192369D01*
X993524Y207631D01*
X992233Y208922D01*
X991917Y209383D01*
X991787Y209976D01*
X991898Y210572D01*
X992233Y211078D01*
X993524Y212369D01*
X993524Y227631D01*
X992233Y228922D01*
X991917Y229383D01*
X991787Y229976D01*
X991898Y230572D01*
X992233Y231078D01*
X993524Y232369D01*
X993524Y247631D01*
X992233Y248922D01*
X991917Y249383D01*
X991787Y249976D01*
X991898Y250572D01*
X992233Y251078D01*
X993524Y252369D01*
X993524Y267631D01*
X992233Y268922D01*
X991917Y269383D01*
X991787Y269976D01*
X991898Y270572D01*
X992233Y271078D01*
X993524Y272369D01*
X993524Y282152D01*
X993742Y282937D01*
X994152Y283384D01*
X994703Y283636D01*
X995310Y283653D01*
X995874Y283432D01*
X996308Y283008D01*
X996543Y282449D01*
X996971Y280297D01*
X997000Y280000D01*
X997000Y30224D01*
X996906Y29697D01*
X996587Y29181D01*
X996093Y28830D01*
G37*
%LPC*%
G36*
X956869Y95976D02*
X963131Y95976D01*
X964024Y96869D01*
X964024Y103131D01*
X963131Y104024D01*
X961644Y104024D01*
X961095Y104126D01*
X960584Y104453D01*
X960241Y104954D01*
X960120Y105548D01*
X960120Y129952D01*
X960222Y130501D01*
X960549Y131012D01*
X961050Y131355D01*
X961644Y131476D01*
X992631Y131476D01*
X993524Y132369D01*
X993524Y147631D01*
X992631Y148524D01*
X961369Y148524D01*
X960476Y147631D01*
X960476Y144572D01*
X960374Y144023D01*
X960047Y143512D01*
X959546Y143169D01*
X958952Y143048D01*
X958737Y143048D01*
X954024Y138335D01*
X954024Y101665D01*
X955530Y100160D01*
X955855Y99677D01*
X955976Y99082D01*
X955976Y96869D01*
X956869Y95976D01*
G37*
%LPD*%
G36*
X959546Y263169D02*
X958952Y263048D01*
X896894Y263048D01*
X896322Y263159D01*
X895816Y263494D01*
X884960Y274350D01*
X884654Y274789D01*
X884515Y275379D01*
X884616Y275977D01*
X884943Y276488D01*
X885443Y276831D01*
X886038Y276952D01*
X958952Y276952D01*
X959501Y276850D01*
X960012Y276523D01*
X960355Y276022D01*
X960476Y275428D01*
X960476Y272369D01*
X961767Y271078D01*
X962083Y270617D01*
X962213Y270024D01*
X962102Y269428D01*
X961767Y268922D01*
X960476Y267631D01*
X960476Y264572D01*
X960374Y264023D01*
X960047Y263512D01*
X959546Y263169D01*
G37*
G36*
X959546Y243169D02*
X958952Y243048D01*
X902594Y243048D01*
X902022Y243159D01*
X901516Y243494D01*
X878820Y266190D01*
X878495Y266673D01*
X878374Y267268D01*
X878374Y268636D01*
X878468Y269163D01*
X878786Y269679D01*
X879281Y270030D01*
X879874Y270160D01*
X880470Y270049D01*
X880976Y269714D01*
X893737Y256952D01*
X958952Y256952D01*
X959501Y256850D01*
X960012Y256523D01*
X960355Y256022D01*
X960476Y255428D01*
X960476Y252369D01*
X961767Y251078D01*
X962083Y250617D01*
X962213Y250024D01*
X962102Y249428D01*
X961767Y248922D01*
X960476Y247631D01*
X960476Y244572D01*
X960374Y244023D01*
X960047Y243512D01*
X959546Y243169D01*
G37*
G36*
X283000Y216222D02*
X282405Y216101D01*
X277595Y216101D01*
X277023Y216212D01*
X276517Y216547D01*
X272248Y220816D01*
X271923Y221299D01*
X271802Y221894D01*
X271802Y229626D01*
X271904Y230175D01*
X272231Y230686D01*
X272732Y231029D01*
X273326Y231150D01*
X275208Y231150D01*
X276101Y232042D01*
X276101Y247958D01*
X274860Y249199D01*
X274544Y249660D01*
X274414Y250252D01*
X274525Y250849D01*
X274860Y251354D01*
X277184Y253679D01*
X277667Y254004D01*
X278262Y254125D01*
X287732Y254125D01*
X288773Y255166D01*
X288825Y255202D01*
X288746Y255317D01*
X288625Y255912D01*
X288625Y256233D01*
X288727Y256782D01*
X289054Y257293D01*
X289555Y257636D01*
X290149Y257757D01*
X290470Y257757D01*
X290997Y257663D01*
X291513Y257344D01*
X291864Y256850D01*
X291994Y256257D01*
X291883Y255661D01*
X291548Y255155D01*
X291227Y254834D01*
X291175Y254798D01*
X291254Y254683D01*
X291375Y254088D01*
X291375Y243408D01*
X292268Y242515D01*
X307732Y242515D01*
X308625Y243408D01*
X308625Y244623D01*
X308727Y245172D01*
X309054Y245683D01*
X309555Y246026D01*
X310149Y246147D01*
X319851Y246147D01*
X320400Y246045D01*
X320911Y245718D01*
X321254Y245217D01*
X321375Y244623D01*
X321375Y243408D01*
X322268Y242515D01*
X337732Y242515D01*
X338625Y243408D01*
X338625Y244623D01*
X338727Y245172D01*
X339054Y245683D01*
X339555Y246026D01*
X340149Y246147D01*
X342207Y246147D01*
X342756Y246045D01*
X343267Y245718D01*
X343610Y245217D01*
X343731Y244623D01*
X343731Y243969D01*
X344872Y242828D01*
X345188Y242367D01*
X345318Y241774D01*
X345207Y241178D01*
X344872Y240672D01*
X343630Y239430D01*
X343629Y239423D01*
X343302Y238912D01*
X342801Y238569D01*
X342207Y238448D01*
X333332Y238448D01*
X332816Y237931D01*
X332333Y237606D01*
X331738Y237485D01*
X322268Y237485D01*
X321375Y236592D01*
X321375Y227122D01*
X321264Y226550D01*
X320929Y226044D01*
X316542Y221658D01*
X316081Y221342D01*
X315489Y221211D01*
X314892Y221323D01*
X314387Y221658D01*
X311770Y224274D01*
X310149Y224274D01*
X309600Y224376D01*
X309089Y224703D01*
X308746Y225204D01*
X308625Y225798D01*
X308625Y236592D01*
X307732Y237485D01*
X292268Y237485D01*
X291375Y236592D01*
X291375Y235377D01*
X291273Y234828D01*
X290946Y234317D01*
X290445Y233974D01*
X289851Y233853D01*
X287042Y233853D01*
X285410Y232220D01*
X284927Y231895D01*
X284332Y231774D01*
X283230Y231774D01*
X280726Y229270D01*
X280726Y225730D01*
X283230Y223226D01*
X286482Y223226D01*
X287009Y223132D01*
X287525Y222813D01*
X287876Y222319D01*
X288006Y221726D01*
X287895Y221130D01*
X287560Y220624D01*
X283483Y216547D01*
X283000Y216222D01*
G37*
G36*
X606187Y218130D02*
X605597Y217991D01*
X604999Y218092D01*
X604488Y218419D01*
X604145Y218919D01*
X604024Y219514D01*
X604024Y227631D01*
X602733Y228922D01*
X602417Y229383D01*
X602287Y229976D01*
X602398Y230572D01*
X602733Y231078D01*
X604024Y232369D01*
X604024Y246631D01*
X603007Y247648D01*
X602701Y248087D01*
X602561Y248677D01*
X602663Y249275D01*
X602990Y249786D01*
X603490Y250129D01*
X604085Y250250D01*
X634202Y250250D01*
X634751Y250148D01*
X635262Y249821D01*
X635605Y249320D01*
X635726Y248726D01*
X635726Y248168D01*
X635615Y247596D01*
X635280Y247090D01*
X606626Y218436D01*
X606187Y218130D01*
G37*
G36*
X108701Y198169D02*
X108106Y198048D01*
X96894Y198048D01*
X96322Y198159D01*
X95816Y198494D01*
X88186Y206124D01*
X87880Y206563D01*
X87741Y207153D01*
X87842Y207751D01*
X88169Y208262D01*
X88669Y208605D01*
X89264Y208726D01*
X91770Y208726D01*
X94274Y211230D01*
X94274Y214770D01*
X92194Y216850D01*
X91888Y217289D01*
X91748Y217879D01*
X91850Y218477D01*
X92177Y218988D01*
X92677Y219331D01*
X93272Y219452D01*
X93872Y219452D01*
X94444Y219341D01*
X94950Y219006D01*
X95730Y218226D01*
X99270Y218226D01*
X102074Y221030D01*
X102557Y221355D01*
X103152Y221476D01*
X118131Y221476D01*
X119350Y222695D01*
X119789Y223001D01*
X120101Y223075D01*
X119999Y223092D01*
X119488Y223419D01*
X119145Y223919D01*
X119024Y224514D01*
X119024Y236631D01*
X118131Y237524D01*
X106918Y237524D01*
X106346Y237635D01*
X105840Y237970D01*
X98263Y245548D01*
X85578Y245548D01*
X85029Y245650D01*
X84518Y245977D01*
X84175Y246478D01*
X84054Y247072D01*
X84054Y247928D01*
X84156Y248477D01*
X84483Y248988D01*
X84984Y249331D01*
X85578Y249452D01*
X135428Y249452D01*
X135977Y249350D01*
X136488Y249023D01*
X136831Y248522D01*
X136952Y247928D01*
X136952Y239048D01*
X136850Y238499D01*
X136523Y237988D01*
X136022Y237645D01*
X135428Y237524D01*
X131869Y237524D01*
X130976Y236631D01*
X130976Y232072D01*
X130874Y231523D01*
X130547Y231012D01*
X130046Y230669D01*
X129452Y230548D01*
X128737Y230548D01*
X121626Y223436D01*
X121187Y223130D01*
X120875Y223056D01*
X120977Y223039D01*
X121488Y222712D01*
X121831Y222212D01*
X121952Y221617D01*
X121952Y202072D01*
X121850Y201523D01*
X121523Y201012D01*
X121022Y200669D01*
X120428Y200548D01*
X111237Y200548D01*
X109184Y198494D01*
X108701Y198169D01*
G37*
G36*
X607791Y185669D02*
X607197Y185548D01*
X604394Y185548D01*
X603822Y185659D01*
X603316Y185994D01*
X600994Y188316D01*
X600669Y188799D01*
X600548Y189394D01*
X600548Y202796D01*
X600659Y203368D01*
X600994Y203873D01*
X608674Y211553D01*
X608707Y211726D01*
X609042Y212232D01*
X626850Y230040D01*
X627289Y230346D01*
X627879Y230485D01*
X628477Y230384D01*
X628988Y230057D01*
X629331Y229557D01*
X629452Y228962D01*
X629452Y200378D01*
X629358Y199851D01*
X629039Y199335D01*
X628545Y198984D01*
X627952Y198854D01*
X627356Y198965D01*
X626850Y199300D01*
X625626Y200524D01*
X609614Y200524D01*
X608721Y199631D01*
X608721Y187072D01*
X608619Y186523D01*
X608292Y186012D01*
X607791Y185669D01*
G37*
G36*
X659467Y175669D02*
X658872Y175548D01*
X637072Y175548D01*
X636523Y175650D01*
X636012Y175977D01*
X635669Y176478D01*
X635548Y177072D01*
X635548Y226536D01*
X635642Y227063D01*
X635961Y227579D01*
X636455Y227930D01*
X637048Y228060D01*
X637644Y227949D01*
X638150Y227614D01*
X639006Y226758D01*
X639331Y226275D01*
X639452Y225680D01*
X639452Y210580D01*
X639476Y210462D01*
X639476Y204374D01*
X640369Y203481D01*
X646257Y203481D01*
X646784Y203387D01*
X647300Y203068D01*
X647651Y202574D01*
X647781Y201981D01*
X647670Y201385D01*
X647335Y200879D01*
X645726Y199270D01*
X645726Y195730D01*
X648230Y193226D01*
X651770Y193226D01*
X653922Y195378D01*
X654383Y195694D01*
X654976Y195824D01*
X655572Y195713D01*
X656078Y195378D01*
X658230Y193226D01*
X661702Y193226D01*
X662251Y193124D01*
X662762Y192797D01*
X663105Y192296D01*
X663226Y191702D01*
X663226Y190730D01*
X666097Y187858D01*
X666413Y187397D01*
X666544Y186805D01*
X666432Y186209D01*
X666154Y185789D01*
X666154Y178298D01*
X666052Y177749D01*
X665725Y177238D01*
X665224Y176895D01*
X664630Y176774D01*
X660730Y176774D01*
X659950Y175994D01*
X659467Y175669D01*
G37*
G36*
X736522Y159145D02*
X735928Y159024D01*
X733298Y159024D01*
X732749Y159126D01*
X732238Y159453D01*
X731895Y159954D01*
X731774Y160548D01*
X731774Y161770D01*
X729270Y164274D01*
X728168Y164274D01*
X727596Y164385D01*
X727090Y164720D01*
X726263Y165548D01*
X686894Y165548D01*
X686322Y165659D01*
X685816Y165994D01*
X679720Y172090D01*
X679395Y172573D01*
X679274Y173168D01*
X679274Y174270D01*
X676770Y176774D01*
X673774Y176774D01*
X673225Y176876D01*
X672714Y177203D01*
X672371Y177704D01*
X672250Y178298D01*
X672250Y182603D01*
X672361Y183175D01*
X672696Y183681D01*
X690548Y201533D01*
X690548Y214180D01*
X690524Y214298D01*
X690524Y220386D01*
X689631Y221279D01*
X688298Y221279D01*
X687749Y221381D01*
X687238Y221708D01*
X686895Y222209D01*
X686774Y222803D01*
X686774Y223726D01*
X686876Y224275D01*
X687203Y224786D01*
X687704Y225129D01*
X688298Y225250D01*
X707308Y225250D01*
X707880Y225139D01*
X708386Y224804D01*
X718737Y214452D01*
X729452Y214452D01*
X730001Y214350D01*
X730512Y214023D01*
X730855Y213522D01*
X730976Y212928D01*
X730976Y209572D01*
X730874Y209023D01*
X730547Y208512D01*
X730046Y208169D01*
X729452Y208048D01*
X726237Y208048D01*
X716952Y198763D01*
X716952Y184394D01*
X716841Y183822D01*
X716506Y183316D01*
X714184Y180994D01*
X713701Y180669D01*
X713106Y180548D01*
X712803Y180548D01*
X712254Y180650D01*
X711743Y180977D01*
X711400Y181478D01*
X711279Y182072D01*
X711279Y199631D01*
X710386Y200524D01*
X694374Y200524D01*
X693481Y199631D01*
X693481Y170369D01*
X694374Y169476D01*
X700462Y169476D01*
X700585Y169452D01*
X721263Y169452D01*
X728374Y176564D01*
X728813Y176870D01*
X729403Y177009D01*
X730001Y176908D01*
X730512Y176581D01*
X730855Y176081D01*
X730976Y175486D01*
X730976Y174369D01*
X731869Y173476D01*
X735928Y173476D01*
X736477Y173374D01*
X736988Y173047D01*
X737331Y172546D01*
X737452Y171952D01*
X737452Y160548D01*
X737350Y159999D01*
X737023Y159488D01*
X736522Y159145D01*
G37*
G36*
X570046Y143169D02*
X569452Y143048D01*
X565272Y143048D01*
X564745Y143142D01*
X564229Y143461D01*
X563878Y143955D01*
X563748Y144548D01*
X563859Y145144D01*
X564194Y145650D01*
X566774Y148230D01*
X566774Y151770D01*
X565994Y152550D01*
X565669Y153033D01*
X565548Y153628D01*
X565548Y154140D01*
X565659Y154712D01*
X565994Y155218D01*
X567620Y156844D01*
X567620Y190489D01*
X567731Y191061D01*
X568066Y191566D01*
X572054Y195554D01*
X572537Y195879D01*
X573131Y196000D01*
X574811Y196000D01*
X590840Y212030D01*
X591323Y212355D01*
X591918Y212476D01*
X597297Y212476D01*
X597823Y212382D01*
X598339Y212063D01*
X598690Y211569D01*
X598821Y210976D01*
X598709Y210380D01*
X598374Y209874D01*
X594452Y205952D01*
X594452Y186237D01*
X601237Y179452D01*
X607197Y179452D01*
X607746Y179350D01*
X608257Y179023D01*
X608600Y178522D01*
X608721Y177928D01*
X608721Y175369D01*
X609614Y174476D01*
X625626Y174476D01*
X626850Y175700D01*
X627289Y176006D01*
X627879Y176146D01*
X628477Y176044D01*
X628988Y175717D01*
X629331Y175217D01*
X629452Y174622D01*
X629452Y170378D01*
X629358Y169851D01*
X629039Y169335D01*
X628545Y168984D01*
X627952Y168854D01*
X627356Y168965D01*
X626850Y169300D01*
X625626Y170524D01*
X619538Y170524D01*
X619415Y170548D01*
X599857Y170548D01*
X599285Y170659D01*
X598780Y170994D01*
X596226Y173548D01*
X590548Y173548D01*
X589999Y173650D01*
X589488Y173977D01*
X589145Y174478D01*
X589024Y175072D01*
X589024Y177631D01*
X588131Y178524D01*
X571869Y178524D01*
X570976Y177631D01*
X570976Y163369D01*
X571869Y162476D01*
X588131Y162476D01*
X589024Y163369D01*
X589024Y165928D01*
X589126Y166477D01*
X589453Y166988D01*
X589954Y167331D01*
X590548Y167452D01*
X593070Y167452D01*
X593642Y167341D01*
X594147Y167006D01*
X595929Y165224D01*
X596245Y164763D01*
X596375Y164171D01*
X596264Y163575D01*
X595929Y163069D01*
X586952Y154092D01*
X586952Y153128D01*
X586841Y152556D01*
X586506Y152050D01*
X585726Y151270D01*
X585726Y150168D01*
X585615Y149596D01*
X585280Y149090D01*
X584160Y147970D01*
X583677Y147645D01*
X583082Y147524D01*
X571869Y147524D01*
X570976Y146631D01*
X570976Y144572D01*
X570874Y144023D01*
X570547Y143512D01*
X570046Y143169D01*
G37*
G36*
X397105Y3121D02*
X396510Y3000D01*
X120990Y3000D01*
X120463Y3094D01*
X119947Y3413D01*
X119596Y3907D01*
X119466Y4500D01*
X119577Y5096D01*
X119912Y5602D01*
X125548Y11237D01*
X125548Y24452D01*
X125650Y25001D01*
X125977Y25512D01*
X126478Y25855D01*
X127072Y25976D01*
X130131Y25976D01*
X131024Y26869D01*
X131024Y34131D01*
X130131Y35024D01*
X114869Y35024D01*
X113976Y34131D01*
X113976Y26869D01*
X114869Y25976D01*
X117928Y25976D01*
X118477Y25874D01*
X118988Y25547D01*
X119331Y25046D01*
X119452Y24452D01*
X119452Y14394D01*
X119341Y13822D01*
X119006Y13316D01*
X114184Y8494D01*
X113701Y8169D01*
X113106Y8048D01*
X77383Y8048D01*
X76856Y8142D01*
X76340Y8461D01*
X75989Y8955D01*
X75859Y9548D01*
X75970Y10144D01*
X76305Y10650D01*
X77524Y11869D01*
X77524Y23082D01*
X77635Y23654D01*
X77970Y24160D01*
X80816Y27006D01*
X81299Y27331D01*
X81894Y27452D01*
X87761Y27452D01*
X88333Y27341D01*
X88839Y27006D01*
X89869Y25976D01*
X105131Y25976D01*
X106024Y26869D01*
X106024Y34131D01*
X105131Y35024D01*
X90514Y35024D01*
X89987Y35118D01*
X89471Y35437D01*
X89120Y35931D01*
X88990Y36524D01*
X89101Y37120D01*
X89436Y37626D01*
X90816Y39006D01*
X91299Y39331D01*
X91894Y39452D01*
X111263Y39452D01*
X116340Y44530D01*
X116823Y44855D01*
X117418Y44976D01*
X130131Y44976D01*
X131125Y45970D01*
X131126Y45977D01*
X131453Y46488D01*
X131954Y46831D01*
X132548Y46952D01*
X140952Y46952D01*
X141501Y46850D01*
X142012Y46523D01*
X142355Y46022D01*
X142476Y45428D01*
X142476Y41869D01*
X143369Y40976D01*
X145928Y40976D01*
X146477Y40874D01*
X146988Y40547D01*
X147331Y40046D01*
X147452Y39452D01*
X147452Y30548D01*
X147350Y29999D01*
X147023Y29488D01*
X146522Y29145D01*
X145928Y29024D01*
X143369Y29024D01*
X142476Y28131D01*
X142476Y11869D01*
X143369Y10976D01*
X157631Y10976D01*
X158524Y11869D01*
X158524Y28131D01*
X157631Y29024D01*
X155072Y29024D01*
X154523Y29126D01*
X154012Y29453D01*
X153669Y29954D01*
X153548Y30548D01*
X153548Y39452D01*
X153650Y40001D01*
X153977Y40512D01*
X154478Y40855D01*
X155072Y40976D01*
X157631Y40976D01*
X158524Y41869D01*
X158524Y58131D01*
X157631Y59024D01*
X143369Y59024D01*
X142476Y58131D01*
X142476Y54572D01*
X142374Y54023D01*
X142047Y53512D01*
X141546Y53169D01*
X140952Y53048D01*
X131739Y53048D01*
X131167Y53159D01*
X130661Y53494D01*
X130131Y54024D01*
X114869Y54024D01*
X113976Y53131D01*
X113976Y51418D01*
X113865Y50846D01*
X113530Y50340D01*
X109184Y45994D01*
X108701Y45669D01*
X108106Y45548D01*
X107548Y45548D01*
X106999Y45650D01*
X106488Y45977D01*
X106145Y46478D01*
X106024Y47072D01*
X106024Y53131D01*
X105131Y54024D01*
X102072Y54024D01*
X101523Y54126D01*
X101012Y54453D01*
X100669Y54954D01*
X100548Y55548D01*
X100548Y70606D01*
X100659Y71178D01*
X100994Y71684D01*
X108048Y78737D01*
X108048Y80606D01*
X108159Y81178D01*
X108494Y81684D01*
X110840Y84030D01*
X111323Y84355D01*
X111918Y84476D01*
X118881Y84476D01*
X119774Y85369D01*
X119774Y92332D01*
X119885Y92904D01*
X120220Y93410D01*
X123448Y96637D01*
X123448Y121011D01*
X123559Y121583D01*
X123894Y122089D01*
X125174Y123369D01*
X125174Y129332D01*
X125285Y129904D01*
X125620Y130410D01*
X131716Y136506D01*
X132199Y136831D01*
X132794Y136952D01*
X133302Y136952D01*
X133851Y136850D01*
X134362Y136523D01*
X134705Y136022D01*
X134826Y135428D01*
X134826Y123369D01*
X136106Y122089D01*
X136431Y121606D01*
X136552Y121011D01*
X136552Y96637D01*
X139780Y93410D01*
X140105Y92927D01*
X140226Y92332D01*
X140226Y85369D01*
X141119Y84476D01*
X153881Y84476D01*
X154774Y85369D01*
X154774Y94631D01*
X153881Y95524D01*
X146918Y95524D01*
X146346Y95635D01*
X145840Y95970D01*
X143094Y98716D01*
X142769Y99199D01*
X142648Y99794D01*
X142648Y121011D01*
X142759Y121583D01*
X143094Y122089D01*
X144374Y123369D01*
X144374Y129332D01*
X144485Y129904D01*
X144820Y130410D01*
X168416Y154006D01*
X168899Y154331D01*
X169494Y154452D01*
X190606Y154452D01*
X191178Y154341D01*
X191684Y154006D01*
X194064Y151626D01*
X194370Y151187D01*
X194509Y150597D01*
X194408Y149999D01*
X194081Y149488D01*
X193581Y149145D01*
X192986Y149024D01*
X192369Y149024D01*
X191476Y148131D01*
X191476Y131869D01*
X192369Y130976D01*
X206631Y130976D01*
X206850Y131195D01*
X207289Y131501D01*
X207879Y131641D01*
X208477Y131539D01*
X208988Y131212D01*
X209331Y130712D01*
X209452Y130117D01*
X209452Y124394D01*
X209341Y123822D01*
X209006Y123316D01*
X205160Y119470D01*
X204677Y119145D01*
X204082Y119024D01*
X192369Y119024D01*
X191476Y118131D01*
X191476Y103918D01*
X191365Y103346D01*
X191030Y102840D01*
X176952Y88763D01*
X176952Y66237D01*
X185241Y57948D01*
X185557Y57487D01*
X185688Y56895D01*
X185576Y56299D01*
X185241Y55793D01*
X184628Y55180D01*
X183236Y51819D01*
X183236Y48181D01*
X184628Y44820D01*
X187200Y42248D01*
X190561Y40856D01*
X209439Y40856D01*
X212800Y42248D01*
X215372Y44820D01*
X216520Y47592D01*
X216800Y48034D01*
X217289Y48393D01*
X217879Y48532D01*
X218477Y48430D01*
X218988Y48104D01*
X219331Y47603D01*
X219452Y47009D01*
X219452Y38737D01*
X251237Y6952D01*
X316263Y6952D01*
X328048Y18737D01*
X328048Y80606D01*
X328159Y81178D01*
X328494Y81684D01*
X353316Y106506D01*
X353799Y106831D01*
X354394Y106952D01*
X380017Y106952D01*
X386517Y113453D01*
X387000Y113778D01*
X387595Y113899D01*
X397958Y113899D01*
X398851Y114792D01*
X398851Y116233D01*
X398953Y116782D01*
X399280Y117293D01*
X399780Y117636D01*
X400375Y117757D01*
X409851Y117757D01*
X410400Y117655D01*
X410911Y117328D01*
X411254Y116827D01*
X411375Y116233D01*
X411375Y115018D01*
X412268Y114125D01*
X427732Y114125D01*
X428625Y115018D01*
X428625Y116233D01*
X428727Y116782D01*
X429054Y117293D01*
X429555Y117636D01*
X430149Y117757D01*
X430428Y117757D01*
X430977Y117655D01*
X431488Y117328D01*
X431831Y116827D01*
X431952Y116233D01*
X431952Y96128D01*
X431841Y95556D01*
X431506Y95050D01*
X430726Y94270D01*
X430726Y90730D01*
X433230Y88226D01*
X436770Y88226D01*
X439274Y90730D01*
X439274Y94270D01*
X438494Y95050D01*
X438169Y95533D01*
X438048Y96128D01*
X438048Y115606D01*
X438159Y116178D01*
X438494Y116684D01*
X473340Y151530D01*
X473823Y151855D01*
X474418Y151976D01*
X484631Y151976D01*
X485524Y152869D01*
X485524Y163082D01*
X485635Y163654D01*
X485970Y164160D01*
X509114Y187304D01*
X509597Y187629D01*
X510192Y187750D01*
X513026Y187750D01*
X513553Y187656D01*
X514069Y187337D01*
X514420Y186843D01*
X514550Y186250D01*
X514439Y185654D01*
X514104Y185148D01*
X513226Y184270D01*
X513226Y181043D01*
X513124Y180494D01*
X512797Y179983D01*
X512296Y179640D01*
X511702Y179519D01*
X507619Y179519D01*
X506726Y178626D01*
X506726Y162614D01*
X507619Y161721D01*
X518731Y161721D01*
X519258Y161627D01*
X519774Y161308D01*
X520125Y160814D01*
X520255Y160221D01*
X520144Y159625D01*
X519809Y159119D01*
X519184Y158494D01*
X518701Y158169D01*
X518106Y158048D01*
X496237Y158048D01*
X489452Y151263D01*
X489452Y124894D01*
X489341Y124322D01*
X489006Y123816D01*
X474660Y109470D01*
X474177Y109145D01*
X473582Y109024D01*
X462369Y109024D01*
X461476Y108131D01*
X461476Y91869D01*
X462369Y90976D01*
X464928Y90976D01*
X465477Y90874D01*
X465988Y90547D01*
X466331Y90046D01*
X466452Y89452D01*
X466452Y86737D01*
X471237Y81952D01*
X473106Y81952D01*
X473678Y81841D01*
X474184Y81506D01*
X475564Y80126D01*
X475870Y79687D01*
X476009Y79097D01*
X475908Y78499D01*
X475581Y77988D01*
X475081Y77645D01*
X474486Y77524D01*
X471869Y77524D01*
X470976Y76631D01*
X470976Y74072D01*
X470874Y73523D01*
X470547Y73012D01*
X470046Y72669D01*
X469452Y72548D01*
X468237Y72548D01*
X461952Y66263D01*
X461952Y46894D01*
X461841Y46322D01*
X461506Y45816D01*
X455034Y39344D01*
X454551Y39019D01*
X453956Y38898D01*
X414398Y38898D01*
X413849Y39000D01*
X413338Y39327D01*
X412995Y39828D01*
X412874Y40422D01*
X412874Y50431D01*
X411981Y51324D01*
X398819Y51324D01*
X397926Y50431D01*
X397926Y21269D01*
X398819Y20376D01*
X411981Y20376D01*
X412874Y21269D01*
X412874Y31278D01*
X412976Y31827D01*
X413303Y32338D01*
X413804Y32681D01*
X414398Y32802D01*
X457113Y32802D01*
X468374Y44064D01*
X468813Y44370D01*
X469403Y44509D01*
X470001Y44408D01*
X470512Y44081D01*
X470855Y43581D01*
X470879Y43466D01*
X471869Y42476D01*
X473986Y42476D01*
X474513Y42382D01*
X475029Y42063D01*
X475380Y41569D01*
X475510Y40976D01*
X475399Y40380D01*
X475064Y39874D01*
X464660Y29470D01*
X464177Y29145D01*
X463582Y29024D01*
X452369Y29024D01*
X451476Y28131D01*
X451476Y11418D01*
X451365Y10846D01*
X451030Y10340D01*
X449184Y8494D01*
X448701Y8169D01*
X448106Y8048D01*
X404394Y8048D01*
X403822Y8159D01*
X403316Y8494D01*
X393494Y18316D01*
X393169Y18799D01*
X393048Y19394D01*
X393048Y50606D01*
X393159Y51178D01*
X393494Y51684D01*
X395816Y54006D01*
X396299Y54331D01*
X396894Y54452D01*
X429452Y54452D01*
X430001Y54350D01*
X430512Y54023D01*
X430855Y53522D01*
X430976Y52928D01*
X430976Y43369D01*
X431869Y42476D01*
X448131Y42476D01*
X449024Y43369D01*
X449024Y57631D01*
X448131Y58524D01*
X436918Y58524D01*
X436346Y58635D01*
X435840Y58970D01*
X434263Y60548D01*
X393737Y60548D01*
X386952Y53763D01*
X386952Y16237D01*
X397588Y5602D01*
X397894Y5163D01*
X398033Y4573D01*
X397932Y3975D01*
X397605Y3464D01*
X397105Y3121D01*
G37*
%LPC*%
G36*
X348019Y20376D02*
X361181Y20376D01*
X362074Y21269D01*
X362074Y50431D01*
X361181Y51324D01*
X348019Y51324D01*
X347126Y50431D01*
X347126Y21269D01*
X348019Y20376D01*
G37*
%LPD*%
G36*
X410445Y123974D02*
X409851Y123853D01*
X400375Y123853D01*
X399825Y123955D01*
X399314Y124282D01*
X398971Y124783D01*
X398851Y125377D01*
X398851Y127700D01*
X397628Y128922D01*
X397312Y129383D01*
X397182Y129976D01*
X397293Y130572D01*
X397628Y131078D01*
X398851Y132300D01*
X398851Y134182D01*
X398953Y134731D01*
X399280Y135242D01*
X399780Y135585D01*
X400375Y135706D01*
X409851Y135706D01*
X410400Y135604D01*
X410911Y135277D01*
X411254Y134776D01*
X411375Y134182D01*
X411375Y133408D01*
X412268Y132515D01*
X427732Y132515D01*
X428625Y133408D01*
X428625Y144982D01*
X427732Y145875D01*
X412268Y145875D01*
X411375Y144982D01*
X411375Y143326D01*
X411273Y142777D01*
X410946Y142266D01*
X410445Y141923D01*
X409851Y141802D01*
X409572Y141802D01*
X409023Y141904D01*
X408512Y142231D01*
X408169Y142732D01*
X408048Y143326D01*
X408048Y173106D01*
X408159Y173678D01*
X408494Y174184D01*
X413798Y179487D01*
X414258Y179803D01*
X414851Y179933D01*
X415447Y179822D01*
X415953Y179487D01*
X416112Y179328D01*
X416428Y178867D01*
X416558Y178274D01*
X416447Y177678D01*
X416112Y177172D01*
X414971Y176031D01*
X414971Y167769D01*
X415864Y166876D01*
X435428Y166876D01*
X435977Y166774D01*
X436488Y166447D01*
X436831Y165946D01*
X436952Y165352D01*
X436952Y131894D01*
X436841Y131322D01*
X436506Y130816D01*
X431227Y125537D01*
X430788Y125231D01*
X430198Y125092D01*
X429600Y125193D01*
X429089Y125520D01*
X428746Y126020D01*
X428631Y126587D01*
X427732Y127485D01*
X412268Y127485D01*
X411375Y126592D01*
X411375Y125377D01*
X411273Y124828D01*
X410946Y124317D01*
X410445Y123974D01*
G37*
G36*
X226045Y74644D02*
X225452Y74514D01*
X224856Y74625D01*
X224350Y74960D01*
X220863Y78448D01*
X217273Y78448D01*
X216713Y78555D01*
X216204Y78886D01*
X215865Y79389D01*
X215372Y80580D01*
X212800Y83152D01*
X209439Y84544D01*
X190561Y84544D01*
X187200Y83152D01*
X185650Y81601D01*
X185211Y81295D01*
X184621Y81156D01*
X184023Y81257D01*
X183512Y81584D01*
X183169Y82084D01*
X183048Y82679D01*
X183048Y85606D01*
X183159Y86178D01*
X183494Y86684D01*
X197340Y100530D01*
X197823Y100855D01*
X198418Y100976D01*
X206631Y100976D01*
X207524Y101869D01*
X207524Y112582D01*
X207635Y113154D01*
X207970Y113660D01*
X215548Y121237D01*
X215548Y150606D01*
X215659Y151178D01*
X215994Y151684D01*
X231523Y167213D01*
X231962Y167519D01*
X232552Y167658D01*
X233150Y167557D01*
X233661Y167230D01*
X234004Y166730D01*
X234125Y166135D01*
X234125Y158262D01*
X234014Y157690D01*
X233679Y157184D01*
X226952Y150458D01*
X226952Y76038D01*
X226858Y75511D01*
X226539Y74995D01*
X226045Y74644D01*
G37*
G36*
X313701Y13169D02*
X313106Y13048D01*
X254394Y13048D01*
X253822Y13159D01*
X253316Y13494D01*
X225994Y40816D01*
X225669Y41299D01*
X225548Y41894D01*
X225548Y51462D01*
X225642Y51989D01*
X225961Y52505D01*
X226455Y52856D01*
X227048Y52986D01*
X227644Y52875D01*
X228150Y52540D01*
X233737Y46952D01*
X236952Y46952D01*
X237501Y46850D01*
X238012Y46523D01*
X238355Y46022D01*
X238476Y45428D01*
X238476Y44369D01*
X239369Y43476D01*
X295631Y43476D01*
X296524Y44369D01*
X296524Y55631D01*
X295631Y56524D01*
X239369Y56524D01*
X238476Y55631D01*
X238476Y54572D01*
X238374Y54023D01*
X238047Y53512D01*
X237546Y53169D01*
X236952Y53048D01*
X236894Y53048D01*
X236322Y53159D01*
X235816Y53494D01*
X233494Y55816D01*
X233169Y56299D01*
X233048Y56894D01*
X233048Y147301D01*
X233159Y147873D01*
X233494Y148379D01*
X236044Y150929D01*
X236527Y151254D01*
X237122Y151375D01*
X246592Y151375D01*
X247485Y152268D01*
X247485Y161738D01*
X247596Y162310D01*
X247931Y162816D01*
X249913Y164798D01*
X250352Y165104D01*
X250942Y165243D01*
X251540Y165142D01*
X252051Y164815D01*
X252394Y164315D01*
X252515Y163720D01*
X252515Y152268D01*
X253408Y151375D01*
X264982Y151375D01*
X265875Y152268D01*
X265875Y163433D01*
X265986Y164005D01*
X266321Y164511D01*
X268124Y166314D01*
X268563Y166620D01*
X269153Y166759D01*
X269751Y166658D01*
X270262Y166331D01*
X270562Y165893D01*
X273230Y163226D01*
X276770Y163226D01*
X278773Y165229D01*
X279212Y165535D01*
X279802Y165675D01*
X280400Y165573D01*
X280911Y165246D01*
X281254Y164746D01*
X281375Y164151D01*
X281375Y163408D01*
X282268Y162515D01*
X293720Y162515D01*
X294247Y162421D01*
X294763Y162102D01*
X295114Y161608D01*
X295244Y161015D01*
X295133Y160419D01*
X294798Y159913D01*
X292816Y157931D01*
X292333Y157606D01*
X291738Y157485D01*
X282268Y157485D01*
X281375Y156592D01*
X281375Y145018D01*
X282268Y144125D01*
X297732Y144125D01*
X298625Y145018D01*
X298625Y154488D01*
X298736Y155060D01*
X299071Y155566D01*
X300011Y156506D01*
X300494Y156831D01*
X301089Y156952D01*
X309851Y156952D01*
X310400Y156850D01*
X310911Y156523D01*
X311254Y156022D01*
X311375Y155428D01*
X311375Y145018D01*
X312268Y144125D01*
X321738Y144125D01*
X322310Y144014D01*
X322816Y143679D01*
X333453Y133042D01*
X333778Y132559D01*
X333899Y131964D01*
X333899Y122042D01*
X334792Y121150D01*
X347700Y121150D01*
X348922Y122372D01*
X349383Y122688D01*
X349976Y122818D01*
X350572Y122707D01*
X351078Y122372D01*
X352300Y121150D01*
X365208Y121150D01*
X366101Y122042D01*
X366101Y126159D01*
X366212Y126731D01*
X366547Y127237D01*
X374570Y135260D01*
X375053Y135585D01*
X375648Y135706D01*
X379626Y135706D01*
X380175Y135604D01*
X380686Y135277D01*
X381029Y134776D01*
X381150Y134182D01*
X381150Y132300D01*
X382372Y131078D01*
X382688Y130617D01*
X382818Y130024D01*
X382707Y129428D01*
X382372Y128922D01*
X381150Y127700D01*
X381150Y117337D01*
X381038Y116765D01*
X380703Y116260D01*
X377938Y113494D01*
X377455Y113169D01*
X376860Y113048D01*
X351237Y113048D01*
X321952Y83763D01*
X321952Y21894D01*
X321841Y21322D01*
X321506Y20816D01*
X314184Y13494D01*
X313701Y13169D01*
G37*
%LPC*%
G36*
X239369Y63476D02*
X295631Y63476D01*
X296524Y64369D01*
X296524Y75631D01*
X295631Y76524D01*
X268298Y76524D01*
X267749Y76626D01*
X267238Y76953D01*
X266895Y77454D01*
X266774Y78048D01*
X266774Y81952D01*
X266876Y82501D01*
X267203Y83012D01*
X267704Y83355D01*
X268298Y83476D01*
X295631Y83476D01*
X296524Y84369D01*
X296524Y95631D01*
X295631Y96524D01*
X275798Y96524D01*
X275249Y96626D01*
X274738Y96953D01*
X274395Y97454D01*
X274274Y98048D01*
X274274Y101770D01*
X274170Y101874D01*
X273864Y102313D01*
X273724Y102903D01*
X273826Y103501D01*
X274153Y104012D01*
X274653Y104355D01*
X275248Y104476D01*
X305631Y104476D01*
X306524Y105369D01*
X306524Y122631D01*
X305631Y123524D01*
X274369Y123524D01*
X273476Y122631D01*
X273476Y105798D01*
X273374Y105249D01*
X273047Y104738D01*
X272546Y104395D01*
X271952Y104274D01*
X268230Y104274D01*
X265726Y101770D01*
X265726Y98048D01*
X265624Y97499D01*
X265297Y96988D01*
X264796Y96645D01*
X264202Y96524D01*
X239369Y96524D01*
X238476Y95631D01*
X238476Y84369D01*
X239369Y83476D01*
X256702Y83476D01*
X257251Y83374D01*
X257762Y83047D01*
X258105Y82546D01*
X258226Y81952D01*
X258226Y78048D01*
X258124Y77499D01*
X257797Y76988D01*
X257296Y76645D01*
X256702Y76524D01*
X239369Y76524D01*
X238476Y75631D01*
X238476Y64369D01*
X239369Y63476D01*
G37*
G36*
X274369Y16476D02*
X305631Y16476D01*
X306524Y17369D01*
X306524Y34631D01*
X305631Y35524D01*
X274369Y35524D01*
X273476Y34631D01*
X273476Y17369D01*
X274369Y16476D01*
G37*
%LPD*%
G36*
X653522Y108169D02*
X652928Y108048D01*
X651737Y108048D01*
X651211Y108142D01*
X650695Y108461D01*
X650344Y108955D01*
X650214Y109548D01*
X650325Y110144D01*
X650548Y110481D01*
X650548Y129420D01*
X650524Y129538D01*
X650524Y135626D01*
X649631Y136519D01*
X647072Y136519D01*
X646523Y136621D01*
X646012Y136948D01*
X645669Y137449D01*
X645548Y138043D01*
X645548Y138763D01*
X641263Y143048D01*
X628356Y143048D01*
X628092Y142986D01*
X627494Y143087D01*
X626983Y143414D01*
X626640Y143914D01*
X626519Y144509D01*
X626519Y157928D01*
X626621Y158477D01*
X626948Y158988D01*
X627449Y159331D01*
X628043Y159452D01*
X628763Y159452D01*
X633055Y163745D01*
X633516Y164061D01*
X634109Y164191D01*
X634705Y164080D01*
X635211Y163745D01*
X636528Y162428D01*
X640068Y162428D01*
X640848Y163208D01*
X641331Y163533D01*
X641926Y163654D01*
X653904Y163654D01*
X654476Y163543D01*
X654982Y163208D01*
X663814Y154376D01*
X664120Y153937D01*
X664259Y153347D01*
X664158Y152749D01*
X663831Y152238D01*
X663393Y151938D01*
X660726Y149270D01*
X660726Y148168D01*
X660615Y147596D01*
X660280Y147090D01*
X657856Y144667D01*
X657856Y138043D01*
X657754Y137494D01*
X657427Y136983D01*
X656926Y136640D01*
X656332Y136519D01*
X655369Y136519D01*
X654476Y135626D01*
X654476Y129538D01*
X654452Y129415D01*
X654452Y109572D01*
X654350Y109023D01*
X654023Y108512D01*
X653522Y108169D01*
G37*
G36*
X589605Y3121D02*
X589010Y3000D01*
X455990Y3000D01*
X455463Y3094D01*
X454947Y3413D01*
X454596Y3907D01*
X454466Y4500D01*
X454577Y5096D01*
X454912Y5602D01*
X458048Y8737D01*
X458048Y9452D01*
X458150Y10001D01*
X458477Y10512D01*
X458978Y10855D01*
X459572Y10976D01*
X466631Y10976D01*
X467524Y11869D01*
X467524Y23082D01*
X467635Y23654D01*
X467970Y24160D01*
X483048Y39237D01*
X483048Y40952D01*
X483150Y41501D01*
X483477Y42012D01*
X483978Y42355D01*
X484572Y42476D01*
X488131Y42476D01*
X489024Y43369D01*
X489024Y45928D01*
X489126Y46477D01*
X489453Y46988D01*
X489954Y47331D01*
X490548Y47452D01*
X499452Y47452D01*
X500001Y47350D01*
X500512Y47023D01*
X500855Y46522D01*
X500976Y45928D01*
X500976Y43369D01*
X501869Y42476D01*
X502928Y42476D01*
X503477Y42374D01*
X503988Y42047D01*
X504331Y41546D01*
X504452Y40952D01*
X504452Y30548D01*
X504350Y29999D01*
X504023Y29488D01*
X503522Y29145D01*
X502928Y29024D01*
X493369Y29024D01*
X492476Y28131D01*
X492476Y11869D01*
X493369Y10976D01*
X507631Y10976D01*
X508922Y12267D01*
X509383Y12583D01*
X509976Y12713D01*
X510572Y12602D01*
X511078Y12267D01*
X512369Y10976D01*
X526631Y10976D01*
X527524Y11869D01*
X527524Y23082D01*
X527635Y23654D01*
X527970Y24160D01*
X545673Y41862D01*
X546145Y42183D01*
X546738Y42309D01*
X547334Y42193D01*
X550561Y40856D01*
X569439Y40856D01*
X572800Y42248D01*
X575372Y44820D01*
X576764Y48181D01*
X576764Y51819D01*
X575372Y55180D01*
X572800Y57752D01*
X569439Y59144D01*
X550561Y59144D01*
X547200Y57752D01*
X544628Y55180D01*
X543236Y51819D01*
X543236Y48678D01*
X543125Y48106D01*
X542790Y47600D01*
X524660Y29470D01*
X524177Y29145D01*
X523582Y29024D01*
X512072Y29024D01*
X511523Y29126D01*
X511012Y29453D01*
X510669Y29954D01*
X510548Y30548D01*
X510548Y40952D01*
X510650Y41501D01*
X510977Y42012D01*
X511478Y42355D01*
X512072Y42476D01*
X518131Y42476D01*
X519024Y43369D01*
X519024Y57631D01*
X517733Y58922D01*
X517417Y59383D01*
X517287Y59976D01*
X517398Y60572D01*
X517733Y61078D01*
X519024Y62369D01*
X519024Y76631D01*
X518131Y77524D01*
X514748Y77524D01*
X514221Y77618D01*
X513705Y77937D01*
X513354Y78431D01*
X513224Y79024D01*
X513335Y79620D01*
X513670Y80126D01*
X514274Y80730D01*
X514274Y84270D01*
X511770Y86774D01*
X508230Y86774D01*
X505726Y84270D01*
X505726Y80730D01*
X506330Y80126D01*
X506636Y79687D01*
X506776Y79097D01*
X506674Y78499D01*
X506347Y77988D01*
X505847Y77645D01*
X505252Y77524D01*
X501869Y77524D01*
X500976Y76631D01*
X500976Y62369D01*
X502267Y61078D01*
X502583Y60617D01*
X502713Y60024D01*
X502602Y59428D01*
X502267Y58922D01*
X500976Y57631D01*
X500976Y55072D01*
X500874Y54523D01*
X500547Y54012D01*
X500046Y53669D01*
X499452Y53548D01*
X490548Y53548D01*
X489999Y53650D01*
X489488Y53977D01*
X489145Y54478D01*
X489024Y55072D01*
X489024Y57631D01*
X487733Y58922D01*
X487417Y59383D01*
X487287Y59976D01*
X487398Y60572D01*
X487733Y61078D01*
X489024Y62369D01*
X489024Y76631D01*
X488131Y77524D01*
X484572Y77524D01*
X484023Y77626D01*
X483512Y77953D01*
X483169Y78454D01*
X483048Y79048D01*
X483048Y81263D01*
X475936Y88374D01*
X475630Y88813D01*
X475491Y89403D01*
X475592Y90001D01*
X475919Y90512D01*
X476419Y90855D01*
X476534Y90879D01*
X477524Y91869D01*
X477524Y103082D01*
X477635Y103654D01*
X477970Y104160D01*
X495548Y121737D01*
X495548Y148106D01*
X495659Y148678D01*
X495994Y149184D01*
X498316Y151506D01*
X498799Y151831D01*
X499394Y151952D01*
X521263Y151952D01*
X523850Y154540D01*
X524289Y154846D01*
X524879Y154985D01*
X525477Y154884D01*
X525988Y154557D01*
X526331Y154057D01*
X526452Y153462D01*
X526452Y150548D01*
X526350Y149999D01*
X526023Y149488D01*
X525522Y149145D01*
X524928Y149024D01*
X522369Y149024D01*
X521476Y148131D01*
X521476Y131869D01*
X522369Y130976D01*
X536631Y130976D01*
X537524Y131869D01*
X537524Y135428D01*
X537626Y135977D01*
X537953Y136488D01*
X538454Y136831D01*
X539048Y136952D01*
X569452Y136952D01*
X570001Y136850D01*
X570512Y136523D01*
X570855Y136022D01*
X570976Y135428D01*
X570976Y132369D01*
X571869Y131476D01*
X588131Y131476D01*
X589024Y132369D01*
X589024Y143582D01*
X589135Y144154D01*
X589470Y144660D01*
X589590Y144780D01*
X590073Y145105D01*
X590668Y145226D01*
X591770Y145226D01*
X594172Y147628D01*
X594633Y147944D01*
X595226Y148074D01*
X595822Y147963D01*
X596328Y147628D01*
X598230Y145726D01*
X601770Y145726D01*
X603882Y147838D01*
X604365Y148163D01*
X604960Y148284D01*
X606184Y148284D01*
X606558Y148545D01*
X607148Y148685D01*
X607746Y148583D01*
X608257Y148256D01*
X608600Y147756D01*
X608721Y147162D01*
X608721Y140369D01*
X609614Y139476D01*
X621486Y139476D01*
X622013Y139382D01*
X622529Y139063D01*
X622880Y138569D01*
X623010Y137976D01*
X622899Y137380D01*
X622564Y136874D01*
X616952Y131263D01*
X616952Y129394D01*
X616841Y128822D01*
X616506Y128316D01*
X572489Y84299D01*
X572017Y83978D01*
X571423Y83853D01*
X570828Y83969D01*
X569439Y84544D01*
X550536Y84544D01*
X550028Y84439D01*
X549431Y84550D01*
X548926Y84885D01*
X537970Y95840D01*
X537645Y96323D01*
X537524Y96918D01*
X537524Y108131D01*
X536631Y109024D01*
X522369Y109024D01*
X521476Y108131D01*
X521476Y91869D01*
X522369Y90976D01*
X533582Y90976D01*
X534154Y90865D01*
X534660Y90530D01*
X543903Y81287D01*
X544224Y80815D01*
X544349Y80221D01*
X544233Y79626D01*
X543236Y77219D01*
X543236Y73581D01*
X544628Y70220D01*
X547200Y67648D01*
X550561Y66256D01*
X569439Y66256D01*
X572800Y67648D01*
X575372Y70220D01*
X576764Y73581D01*
X576764Y77219D01*
X576353Y78212D01*
X576237Y78771D01*
X576348Y79367D01*
X576683Y79873D01*
X584350Y87540D01*
X584789Y87846D01*
X585379Y87985D01*
X585977Y87884D01*
X586488Y87557D01*
X586831Y87057D01*
X586952Y86462D01*
X586952Y8737D01*
X590088Y5602D01*
X590394Y5163D01*
X590533Y4573D01*
X590432Y3975D01*
X590105Y3464D01*
X589605Y3121D01*
G37*
G36*
X88856Y53169D02*
X88261Y53048D01*
X79048Y53048D01*
X78499Y53150D01*
X77988Y53477D01*
X77645Y53978D01*
X77524Y54572D01*
X77524Y58131D01*
X76631Y59024D01*
X62369Y59024D01*
X61078Y57733D01*
X60617Y57417D01*
X60024Y57287D01*
X59428Y57398D01*
X58922Y57733D01*
X57631Y59024D01*
X46418Y59024D01*
X45846Y59135D01*
X45340Y59470D01*
X44263Y60548D01*
X30548Y60548D01*
X29999Y60650D01*
X29488Y60977D01*
X29145Y61478D01*
X29024Y62072D01*
X29024Y65631D01*
X28131Y66524D01*
X12072Y66524D01*
X11523Y66626D01*
X11012Y66953D01*
X10669Y67454D01*
X10548Y68048D01*
X10548Y70606D01*
X10659Y71178D01*
X10994Y71684D01*
X15816Y76506D01*
X16299Y76831D01*
X16894Y76952D01*
X31263Y76952D01*
X65590Y111280D01*
X66073Y111605D01*
X66668Y111726D01*
X77381Y111726D01*
X78274Y112619D01*
X78274Y123332D01*
X78385Y123904D01*
X78720Y124410D01*
X101316Y147006D01*
X101799Y147331D01*
X102394Y147452D01*
X123702Y147452D01*
X124251Y147350D01*
X124762Y147023D01*
X125105Y146522D01*
X125226Y145928D01*
X125226Y144369D01*
X126119Y143476D01*
X126386Y143476D01*
X126913Y143382D01*
X127429Y143063D01*
X127780Y142569D01*
X127910Y141976D01*
X127799Y141380D01*
X127464Y140874D01*
X123560Y136970D01*
X123077Y136645D01*
X122482Y136524D01*
X116519Y136524D01*
X115626Y135631D01*
X115626Y123369D01*
X116906Y122089D01*
X117231Y121606D01*
X117352Y121011D01*
X117352Y99794D01*
X117241Y99222D01*
X116906Y98716D01*
X114160Y95970D01*
X113677Y95645D01*
X113082Y95524D01*
X106119Y95524D01*
X105226Y94631D01*
X105226Y87668D01*
X105115Y87096D01*
X104780Y86590D01*
X101952Y83763D01*
X101952Y81894D01*
X101841Y81322D01*
X101506Y80816D01*
X94452Y73763D01*
X94452Y55548D01*
X94350Y54999D01*
X94023Y54488D01*
X93522Y54145D01*
X92928Y54024D01*
X89869Y54024D01*
X89339Y53494D01*
X88856Y53169D01*
G37*
G36*
X650725Y7693D02*
X650130Y7572D01*
X597370Y7572D01*
X596798Y7683D01*
X596292Y8018D01*
X593494Y10816D01*
X593169Y11299D01*
X593048Y11894D01*
X593048Y88106D01*
X593159Y88678D01*
X593494Y89184D01*
X599874Y95564D01*
X600313Y95870D01*
X600903Y96009D01*
X601501Y95908D01*
X602012Y95581D01*
X602355Y95081D01*
X602476Y94486D01*
X602476Y81869D01*
X603369Y80976D01*
X605928Y80976D01*
X606477Y80874D01*
X606988Y80547D01*
X607331Y80046D01*
X607452Y79452D01*
X607452Y70548D01*
X607350Y69999D01*
X607023Y69488D01*
X606522Y69145D01*
X605928Y69024D01*
X603369Y69024D01*
X602476Y68131D01*
X602476Y51869D01*
X603369Y50976D01*
X617631Y50976D01*
X618524Y51869D01*
X618524Y68131D01*
X617631Y69024D01*
X615072Y69024D01*
X614523Y69126D01*
X614012Y69453D01*
X613669Y69954D01*
X613548Y70548D01*
X613548Y79452D01*
X613650Y80001D01*
X613977Y80512D01*
X614478Y80855D01*
X615072Y80976D01*
X617631Y80976D01*
X618524Y81869D01*
X618524Y98582D01*
X618635Y99154D01*
X618970Y99660D01*
X620018Y100708D01*
X620501Y101033D01*
X621096Y101154D01*
X641164Y101154D01*
X641850Y101840D01*
X642289Y102146D01*
X642879Y102286D01*
X643477Y102184D01*
X643988Y101857D01*
X644331Y101357D01*
X644452Y100763D01*
X644452Y46894D01*
X644341Y46322D01*
X644006Y45816D01*
X627660Y29470D01*
X627177Y29145D01*
X626582Y29024D01*
X622369Y29024D01*
X621476Y28131D01*
X621476Y11869D01*
X622369Y10976D01*
X636631Y10976D01*
X637524Y11869D01*
X637524Y28131D01*
X637311Y28345D01*
X636995Y28806D01*
X636864Y29398D01*
X636976Y29994D01*
X637311Y30500D01*
X650555Y43745D01*
X651016Y44061D01*
X651609Y44191D01*
X652205Y44080D01*
X652711Y43745D01*
X653230Y43226D01*
X656770Y43226D01*
X659274Y45730D01*
X659274Y46832D01*
X659385Y47404D01*
X659720Y47910D01*
X663840Y52030D01*
X664323Y52355D01*
X664918Y52476D01*
X678131Y52476D01*
X679024Y53369D01*
X679024Y55928D01*
X679126Y56477D01*
X679453Y56988D01*
X679954Y57331D01*
X680548Y57452D01*
X688263Y57452D01*
X699840Y69030D01*
X700323Y69355D01*
X700918Y69476D01*
X714131Y69476D01*
X715024Y70369D01*
X715024Y84753D01*
X714999Y84789D01*
X714859Y85379D01*
X714961Y85977D01*
X715288Y86488D01*
X715788Y86831D01*
X716383Y86952D01*
X723617Y86952D01*
X724144Y86858D01*
X724660Y86539D01*
X725011Y86045D01*
X725141Y85452D01*
X725030Y84856D01*
X724976Y84774D01*
X724976Y71418D01*
X724865Y70846D01*
X724530Y70340D01*
X702684Y48494D01*
X702201Y48169D01*
X701606Y48048D01*
X684237Y48048D01*
X674160Y37970D01*
X673677Y37645D01*
X673082Y37524D01*
X661869Y37524D01*
X660976Y36631D01*
X660976Y34072D01*
X660874Y33523D01*
X660547Y33012D01*
X660046Y32669D01*
X659452Y32548D01*
X658237Y32548D01*
X654452Y28763D01*
X654452Y11894D01*
X654341Y11322D01*
X654006Y10816D01*
X651208Y8018D01*
X650725Y7693D01*
G37*
G36*
X652711Y51388D02*
X652121Y51248D01*
X651523Y51350D01*
X651012Y51677D01*
X650669Y52177D01*
X650548Y52772D01*
X650548Y94728D01*
X650642Y95255D01*
X650961Y95771D01*
X651455Y96122D01*
X652048Y96252D01*
X652644Y96141D01*
X653150Y95806D01*
X655730Y93226D01*
X659270Y93226D01*
X660050Y94006D01*
X660533Y94331D01*
X661128Y94452D01*
X664907Y94452D01*
X665479Y94341D01*
X665984Y94006D01*
X666336Y93654D01*
X703904Y93654D01*
X704476Y93543D01*
X704982Y93208D01*
X710064Y88126D01*
X710370Y87687D01*
X710509Y87097D01*
X710408Y86499D01*
X710081Y85988D01*
X709581Y85645D01*
X708986Y85524D01*
X693869Y85524D01*
X692976Y84631D01*
X692976Y71418D01*
X692865Y70846D01*
X692530Y70340D01*
X686184Y63994D01*
X685701Y63669D01*
X685106Y63548D01*
X680548Y63548D01*
X679999Y63650D01*
X679488Y63977D01*
X679145Y64478D01*
X679024Y65072D01*
X679024Y67631D01*
X678131Y68524D01*
X661869Y68524D01*
X660976Y67631D01*
X660976Y58418D01*
X660865Y57846D01*
X660530Y57340D01*
X655410Y52220D01*
X654927Y51895D01*
X654332Y51774D01*
X653230Y51774D01*
X653150Y51694D01*
X652711Y51388D01*
G37*
G36*
X757105Y3121D02*
X756510Y3000D01*
X658490Y3000D01*
X657963Y3094D01*
X657447Y3413D01*
X657096Y3907D01*
X656966Y4500D01*
X657077Y5096D01*
X657412Y5602D01*
X660548Y8737D01*
X660548Y19952D01*
X660650Y20501D01*
X660977Y21012D01*
X661478Y21355D01*
X662072Y21476D01*
X678131Y21476D01*
X679024Y22369D01*
X679024Y33582D01*
X679135Y34154D01*
X679470Y34660D01*
X686316Y41506D01*
X686799Y41831D01*
X687394Y41952D01*
X704763Y41952D01*
X731840Y69030D01*
X732323Y69355D01*
X732918Y69476D01*
X746131Y69476D01*
X747024Y70369D01*
X747024Y84753D01*
X746999Y84789D01*
X746859Y85379D01*
X746961Y85977D01*
X747288Y86488D01*
X747788Y86831D01*
X748383Y86952D01*
X772241Y86952D01*
X772768Y86858D01*
X773284Y86539D01*
X773635Y86045D01*
X773765Y85452D01*
X773654Y84856D01*
X773319Y84350D01*
X770056Y81088D01*
X770056Y73512D01*
X775706Y67863D01*
X776031Y67380D01*
X776152Y66785D01*
X776152Y53215D01*
X776041Y52643D01*
X775706Y52137D01*
X770056Y46488D01*
X770056Y38912D01*
X775706Y33263D01*
X776031Y32780D01*
X776152Y32185D01*
X776152Y27815D01*
X776041Y27243D01*
X775706Y26737D01*
X770056Y21088D01*
X770056Y13512D01*
X772919Y10650D01*
X773225Y10211D01*
X773364Y9621D01*
X773263Y9023D01*
X772936Y8512D01*
X772436Y8169D01*
X771841Y8048D01*
X764394Y8048D01*
X763822Y8159D01*
X763316Y8494D01*
X760994Y10816D01*
X760669Y11299D01*
X760548Y11894D01*
X760548Y71372D01*
X760659Y71944D01*
X760994Y72450D01*
X761774Y73230D01*
X761774Y76770D01*
X759270Y79274D01*
X755730Y79274D01*
X753226Y76770D01*
X753226Y73230D01*
X754006Y72450D01*
X754331Y71967D01*
X754452Y71372D01*
X754452Y8737D01*
X757588Y5602D01*
X757894Y5163D01*
X758033Y4573D01*
X757932Y3975D01*
X757605Y3464D01*
X757105Y3121D01*
G37*
G36*
X823236Y8169D02*
X822641Y8048D01*
X786559Y8048D01*
X786032Y8142D01*
X785516Y8461D01*
X785165Y8955D01*
X785035Y9548D01*
X785146Y10144D01*
X785481Y10650D01*
X788344Y13512D01*
X788344Y21088D01*
X782694Y26737D01*
X782369Y27220D01*
X782248Y27815D01*
X782248Y32185D01*
X782359Y32757D01*
X782694Y33263D01*
X788344Y38912D01*
X788344Y46488D01*
X782694Y52137D01*
X782369Y52620D01*
X782248Y53215D01*
X782248Y55428D01*
X782350Y55977D01*
X782677Y56488D01*
X783178Y56831D01*
X783772Y56952D01*
X893763Y56952D01*
X898316Y61506D01*
X898799Y61831D01*
X899394Y61952D01*
X921617Y61952D01*
X922144Y61858D01*
X922660Y61539D01*
X923011Y61045D01*
X923141Y60452D01*
X923030Y59856D01*
X922695Y59350D01*
X921476Y58131D01*
X921476Y41869D01*
X922369Y40976D01*
X931582Y40976D01*
X932154Y40865D01*
X932660Y40530D01*
X949877Y23312D01*
X955651Y23312D01*
X956223Y23201D01*
X956729Y22866D01*
X957369Y22226D01*
X964753Y22226D01*
X964789Y22251D01*
X965379Y22391D01*
X965977Y22289D01*
X966488Y21962D01*
X966831Y21462D01*
X966952Y20867D01*
X966952Y14394D01*
X966841Y13822D01*
X966506Y13316D01*
X961684Y8494D01*
X961201Y8169D01*
X960606Y8048D01*
X954394Y8048D01*
X953822Y8159D01*
X953316Y8494D01*
X938697Y23113D01*
X938499Y23150D01*
X937988Y23477D01*
X937645Y23978D01*
X937524Y24572D01*
X937524Y28131D01*
X936631Y29024D01*
X922369Y29024D01*
X921476Y28131D01*
X921476Y11418D01*
X921365Y10846D01*
X921030Y10340D01*
X919184Y8494D01*
X918701Y8169D01*
X918106Y8048D01*
X888159Y8048D01*
X887632Y8142D01*
X887116Y8461D01*
X886765Y8955D01*
X886635Y9548D01*
X886746Y10144D01*
X887081Y10650D01*
X889944Y13512D01*
X889944Y21088D01*
X884588Y26444D01*
X877012Y26444D01*
X871656Y21088D01*
X871656Y13512D01*
X874519Y10650D01*
X874825Y10211D01*
X874964Y9621D01*
X874863Y9023D01*
X874536Y8512D01*
X874036Y8169D01*
X873441Y8048D01*
X862759Y8048D01*
X862232Y8142D01*
X861716Y8461D01*
X861365Y8955D01*
X861235Y9548D01*
X861346Y10144D01*
X861681Y10650D01*
X864544Y13512D01*
X864544Y21088D01*
X858894Y26737D01*
X858569Y27220D01*
X858448Y27815D01*
X858448Y32185D01*
X858559Y32757D01*
X858894Y33263D01*
X864544Y38912D01*
X864544Y46488D01*
X859188Y51844D01*
X851612Y51844D01*
X846256Y46488D01*
X846256Y38912D01*
X851906Y33263D01*
X852231Y32780D01*
X852352Y32185D01*
X852352Y27815D01*
X852241Y27243D01*
X851906Y26737D01*
X846256Y21088D01*
X846256Y13512D01*
X849119Y10650D01*
X849425Y10211D01*
X849564Y9621D01*
X849463Y9023D01*
X849136Y8512D01*
X848636Y8169D01*
X848041Y8048D01*
X837359Y8048D01*
X836832Y8142D01*
X836316Y8461D01*
X835965Y8955D01*
X835835Y9548D01*
X835946Y10144D01*
X836281Y10650D01*
X839144Y13512D01*
X839144Y21088D01*
X833494Y26737D01*
X833169Y27220D01*
X833048Y27815D01*
X833048Y32185D01*
X833159Y32757D01*
X833494Y33263D01*
X839144Y38912D01*
X839144Y46488D01*
X833788Y51844D01*
X826212Y51844D01*
X820856Y46488D01*
X820856Y38912D01*
X826506Y33263D01*
X826831Y32780D01*
X826952Y32185D01*
X826952Y27815D01*
X826841Y27243D01*
X826506Y26737D01*
X820856Y21088D01*
X820856Y13512D01*
X823719Y10650D01*
X824025Y10211D01*
X824164Y9621D01*
X824063Y9023D01*
X823736Y8512D01*
X823236Y8169D01*
G37*
%LPC*%
G36*
X877012Y33556D02*
X884588Y33556D01*
X889944Y38912D01*
X889944Y46488D01*
X884588Y51844D01*
X877012Y51844D01*
X871656Y46488D01*
X871656Y38912D01*
X877012Y33556D01*
G37*
%LPD*%
G36*
X62212Y8169D02*
X61617Y8048D01*
X29394Y8048D01*
X28822Y8159D01*
X28316Y8494D01*
X25936Y10874D01*
X25630Y11313D01*
X25491Y11903D01*
X25592Y12501D01*
X25919Y13012D01*
X26419Y13355D01*
X27014Y13476D01*
X28131Y13476D01*
X29024Y14369D01*
X29024Y30631D01*
X27805Y31850D01*
X27499Y32289D01*
X27359Y32879D01*
X27461Y33477D01*
X27788Y33988D01*
X28288Y34331D01*
X28883Y34452D01*
X75962Y34452D01*
X76489Y34358D01*
X77005Y34039D01*
X77356Y33545D01*
X77486Y32952D01*
X77375Y32356D01*
X77040Y31850D01*
X74660Y29470D01*
X74177Y29145D01*
X73582Y29024D01*
X62369Y29024D01*
X61476Y28131D01*
X61476Y11869D01*
X62695Y10650D01*
X63001Y10211D01*
X63141Y9621D01*
X63039Y9023D01*
X62712Y8512D01*
X62212Y8169D01*
G37*
D10*
X76780Y263500D03*
X76780Y255500D03*
X76780Y242500D03*
X76780Y232500D03*
X76780Y227500D03*
X76780Y217500D03*
X76780Y204500D03*
X76780Y196500D03*
X76780Y199500D03*
X76780Y207500D03*
X76780Y212500D03*
X76780Y222500D03*
X76780Y237500D03*
X76780Y247500D03*
X76780Y252500D03*
X76780Y260500D03*
D11*
X31730Y281100D03*
X31730Y178900D03*
X71030Y281100D03*
X71030Y178900D03*
D12*
X110000Y229500D03*
X110000Y210500D03*
X110000Y270500D03*
X110000Y289500D03*
D13*
X122500Y30500D03*
X122500Y40000D03*
X122500Y49500D03*
X97500Y49500D03*
X97500Y30500D03*
D14*
X150500Y50000D03*
X169500Y50000D03*
D12*
X140000Y270500D03*
X140000Y289500D03*
D15*
X181053Y222403D02*
X181053Y210697D01*
X173147Y210697D01*
X173147Y222403D01*
X181053Y222403D01*
X181053Y212022D02*
X173147Y212022D01*
X173147Y213347D02*
X181053Y213347D01*
X181053Y214672D02*
X173147Y214672D01*
X173147Y215997D02*
X181053Y215997D01*
X181053Y217322D02*
X173147Y217322D01*
X173147Y218647D02*
X181053Y218647D01*
X181053Y219972D02*
X173147Y219972D01*
X173147Y221297D02*
X181053Y221297D01*
X203953Y222403D02*
X203953Y210697D01*
X196047Y210697D01*
X196047Y222403D01*
X203953Y222403D01*
X203953Y212022D02*
X196047Y212022D01*
X196047Y213347D02*
X203953Y213347D01*
X203953Y214672D02*
X196047Y214672D01*
X196047Y215997D02*
X203953Y215997D01*
X203953Y217322D02*
X196047Y217322D01*
X196047Y218647D02*
X203953Y218647D01*
X203953Y219972D02*
X196047Y219972D01*
X196047Y221297D02*
X203953Y221297D01*
X226853Y222403D02*
X226853Y210697D01*
X218947Y210697D01*
X218947Y222403D01*
X226853Y222403D01*
X226853Y212022D02*
X218947Y212022D01*
X218947Y213347D02*
X226853Y213347D01*
X226853Y214672D02*
X218947Y214672D01*
X218947Y215997D02*
X226853Y215997D01*
X226853Y217322D02*
X218947Y217322D01*
X218947Y218647D02*
X226853Y218647D01*
X226853Y219972D02*
X218947Y219972D01*
X218947Y221297D02*
X226853Y221297D01*
D16*
X215218Y277882D02*
X215218Y289018D01*
X215218Y277882D02*
X184782Y277882D01*
X184782Y289018D01*
X215218Y289018D01*
X215218Y279749D02*
X184782Y279749D01*
X184782Y281616D02*
X215218Y281616D01*
X215218Y283483D02*
X184782Y283483D01*
X184782Y285350D02*
X215218Y285350D01*
X215218Y287217D02*
X184782Y287217D01*
D14*
X199500Y110000D03*
X180500Y110000D03*
D17*
X147500Y90000D03*
X112500Y90000D03*
D18*
X120400Y129500D03*
X139600Y129500D03*
X130000Y150500D03*
D14*
X139500Y180000D03*
X120500Y180000D03*
D19*
X20000Y22500D03*
X20000Y57500D03*
D14*
X69500Y50000D03*
X50500Y50000D03*
X50500Y20000D03*
X69500Y20000D03*
D20*
X718500Y289000D03*
X781500Y289000D03*
X718500Y251000D03*
X781500Y251000D03*
D12*
X660000Y289500D03*
X660000Y270500D03*
D21*
X704000Y77500D03*
X704000Y22500D03*
X736000Y22500D03*
X736000Y77500D03*
D22*
X632500Y127620D03*
X637500Y127620D03*
X642500Y127620D03*
X647500Y127620D03*
X652500Y127620D03*
X657500Y127620D03*
X662500Y127620D03*
X667500Y127620D03*
X672500Y127620D03*
X677500Y127620D03*
X682500Y127620D03*
X687500Y127620D03*
D23*
X702380Y142500D03*
X702380Y147500D03*
X702380Y152500D03*
X702380Y157500D03*
X702380Y162500D03*
X702380Y167500D03*
X702380Y172500D03*
X702380Y177500D03*
X702380Y182500D03*
X702380Y187500D03*
X702380Y192500D03*
X702380Y197500D03*
D22*
X687500Y212380D03*
X682500Y212380D03*
X677500Y212380D03*
X672500Y212380D03*
X667500Y212380D03*
X662500Y212380D03*
X657500Y212380D03*
X652500Y212380D03*
X647500Y212380D03*
X642500Y212380D03*
X637500Y212380D03*
X632500Y212380D03*
D23*
X617620Y197500D03*
X617620Y192500D03*
X617620Y187500D03*
X617620Y182500D03*
X617620Y177500D03*
X617620Y172500D03*
X617620Y167500D03*
X617620Y162500D03*
X617620Y157500D03*
X617620Y152500D03*
X617620Y147500D03*
X617620Y142500D03*
D12*
X580000Y189500D03*
X580000Y170500D03*
X670000Y29500D03*
X670000Y10500D03*
X670000Y60500D03*
X670000Y79500D03*
X580000Y139500D03*
X580000Y120500D03*
X790000Y159500D03*
X790000Y140500D03*
D24*
X779200Y77300D03*
X779200Y102700D03*
X804600Y77300D03*
X804600Y102700D03*
X830000Y77300D03*
X830000Y102700D03*
X855400Y77300D03*
X855400Y102700D03*
X880800Y77300D03*
X880800Y102700D03*
D25*
X823000Y280000D03*
X823000Y260000D03*
X823000Y240000D03*
X823000Y220000D03*
X823000Y200000D03*
X823000Y180000D03*
X823000Y160000D03*
X823000Y140000D03*
X977000Y140000D03*
X977000Y160000D03*
X977000Y180000D03*
X977000Y200000D03*
X977000Y220000D03*
X977000Y240000D03*
X977000Y260000D03*
X977000Y280000D03*
D26*
X980000Y100000D03*
D27*
X970000Y109600D03*
D28*
X960000Y100000D03*
D27*
X970000Y90400D03*
D12*
X930000Y90500D03*
X930000Y109500D03*
D14*
X519500Y20000D03*
X500500Y20000D03*
D12*
X440000Y50500D03*
X440000Y69500D03*
D14*
X459500Y20000D03*
X440500Y20000D03*
D12*
X480000Y50500D03*
X480000Y69500D03*
X510000Y50500D03*
X510000Y69500D03*
D29*
X510500Y170620D03*
X517000Y170620D03*
X523500Y170620D03*
X530000Y170620D03*
X536500Y170620D03*
X543000Y170620D03*
X549500Y170620D03*
X549500Y229380D03*
X543000Y229380D03*
X536500Y229380D03*
X530000Y229380D03*
X523500Y229380D03*
X517000Y229380D03*
X510500Y229380D03*
D30*
X354600Y35850D03*
X380000Y84150D03*
X405400Y35850D03*
D14*
X469500Y100000D03*
X450500Y100000D03*
D31*
X477500Y140000D03*
D32*
X477500Y160000D03*
D14*
X520500Y280000D03*
X539500Y280000D03*
D12*
X490000Y279500D03*
X490000Y260500D03*
X570000Y289500D03*
X570000Y270500D03*
X595000Y239500D03*
X595000Y220500D03*
X460000Y260500D03*
X460000Y279500D03*
D14*
X529500Y100000D03*
X510500Y100000D03*
X529500Y140000D03*
X510500Y140000D03*
D12*
X630000Y289500D03*
X630000Y270500D03*
X600000Y289500D03*
X600000Y270500D03*
D33*
X979000Y26360D03*
X979000Y34580D03*
D34*
X970000Y47100D03*
D33*
X961000Y34580D03*
X961000Y26360D03*
X970000Y26360D03*
D14*
X929500Y20000D03*
X910500Y20000D03*
X929500Y50000D03*
X910500Y50000D03*
D35*
X280000Y191246D03*
X280000Y208754D03*
D36*
X268754Y240000D03*
X251246Y240000D03*
D35*
X250000Y208754D03*
X250000Y191246D03*
D36*
X371246Y280000D03*
X388754Y280000D03*
X451246Y200000D03*
X468754Y200000D03*
X358754Y130000D03*
X341246Y130000D03*
D35*
X390000Y138754D03*
X390000Y121246D03*
D37*
X280000Y279195D03*
X280000Y260805D03*
X250000Y279195D03*
X250000Y260805D03*
D38*
X429195Y280000D03*
X410805Y280000D03*
X469195Y220000D03*
X450805Y220000D03*
D37*
X320000Y169195D03*
X320000Y150805D03*
X420000Y139195D03*
X420000Y120805D03*
D38*
X240805Y160000D03*
X259195Y160000D03*
D37*
X330000Y230805D03*
X330000Y249195D03*
X300000Y230805D03*
X300000Y249195D03*
X290000Y169195D03*
X290000Y150805D03*
D39*
X354380Y248100D03*
X354380Y235400D03*
X354380Y222700D03*
X354380Y210000D03*
X354380Y197300D03*
X354380Y184600D03*
X354380Y171900D03*
X425620Y171900D03*
X425620Y184600D03*
X425620Y197300D03*
X425620Y210000D03*
X425620Y222700D03*
X425620Y235400D03*
X425620Y248100D03*
D40*
X267500Y90000D03*
X267500Y70000D03*
X267500Y50000D03*
D41*
X290000Y114000D03*
X290000Y26000D03*
D14*
X329500Y280000D03*
X310500Y280000D03*
D42*
X207620Y75400D02*
X192380Y75400D01*
X192380Y50000D02*
X207620Y50000D01*
X207620Y24600D02*
X192380Y24600D01*
D14*
X610500Y90000D03*
X629500Y90000D03*
X610500Y60000D03*
X629500Y60000D03*
D12*
X690000Y270500D03*
X690000Y289500D03*
D14*
X670500Y240000D03*
X689500Y240000D03*
D43*
X756750Y120000D03*
X743250Y120000D03*
D14*
X629500Y20000D03*
X610500Y20000D03*
D42*
X567620Y75400D02*
X552380Y75400D01*
X552380Y50000D02*
X567620Y50000D01*
X567620Y24600D02*
X552380Y24600D01*
D24*
X779200Y17300D03*
X779200Y42700D03*
X804600Y17300D03*
X804600Y42700D03*
X830000Y17300D03*
X830000Y42700D03*
X855400Y17300D03*
X855400Y42700D03*
X880800Y17300D03*
X880800Y42700D03*
D19*
X740000Y217500D03*
X740000Y182500D03*
D14*
X740500Y150000D03*
X759500Y150000D03*
D42*
X772380Y187300D02*
X787620Y187300D01*
X787620Y212700D02*
X772380Y212700D01*
D14*
X199500Y140000D03*
X180500Y140000D03*
X199500Y190000D03*
X180500Y190000D03*
D12*
X140000Y229500D03*
X140000Y210500D03*
D14*
X150500Y20000D03*
X169500Y20000D03*
D44*
X70000Y120000D03*
D45*
X70000Y95000D03*
D12*
X568899Y239101D03*
X568899Y220101D03*
X490000Y195500D03*
X490000Y214500D03*
D46*
X380000Y180000D03*
X390000Y180000D03*
X380000Y170000D03*
X390000Y170000D03*
X300000Y140000D03*
X310000Y140000D03*
X220000Y130000D03*
X220000Y140000D03*
X280000Y240000D03*
X430000Y160000D03*
X620000Y210000D03*
X620000Y240000D03*
X710000Y210000D03*
X750000Y240000D03*
X690000Y180000D03*
X590000Y200000D03*
X750000Y290000D03*
X930000Y270000D03*
X930000Y250000D03*
X930000Y290000D03*
X650000Y20000D03*
X680000Y90000D03*
X640000Y150000D03*
X640000Y190000D03*
X950000Y160000D03*
X930000Y160000D03*
X80000Y150000D03*
X40000Y30000D03*
X350000Y270000D03*
X480000Y180000D03*
X160000Y190000D03*
X96000Y204000D03*
X820000Y90000D03*
X840000Y30000D03*
X710000Y10000D03*
X730000Y10000D03*
X610000Y40000D03*
X220000Y250000D03*
X230000Y250000D03*
X220000Y240000D03*
X230000Y240000D03*
X220000Y260000D03*
X230000Y260000D03*
X230000Y270000D03*
X110000Y60000D03*
X110000Y30000D03*
X110000Y20000D03*
D47*
X137500Y252500D02*
X76780Y252500D01*
X137500Y252500D02*
X140000Y255000D01*
X140000Y270500D01*
X137500Y252500D02*
X140000Y250000D01*
X140000Y229500D01*
X140000Y250000D02*
X140000Y255000D01*
X140000Y229500D02*
X138000Y227500D01*
X130000Y227500D01*
X125000Y222500D01*
X125000Y200000D01*
X125000Y197500D01*
X139500Y183000D01*
X139500Y180000D01*
X147500Y172000D01*
X147500Y152500D01*
X135000Y140000D01*
X130900Y140000D02*
X120400Y129500D01*
X130900Y140000D02*
X135000Y140000D01*
X120400Y97900D02*
X112500Y90000D01*
X120400Y97900D02*
X120400Y129500D01*
X97500Y72500D02*
X97500Y49500D01*
X97500Y72500D02*
X105000Y80000D01*
X105000Y82500D01*
X112500Y90000D01*
X97000Y50000D02*
X69500Y50000D01*
X97000Y50000D02*
X97500Y49500D01*
X82500Y207500D02*
X76780Y207500D01*
X82500Y207500D02*
X85000Y205000D01*
X95000Y195000D01*
X110000Y195000D01*
X112500Y197500D01*
X122500Y197500D01*
X125000Y197500D01*
X122500Y197500D02*
X125000Y200000D01*
X77280Y205000D02*
X76780Y204500D01*
X77280Y205000D02*
X85000Y205000D01*
X76780Y252500D02*
X76780Y255500D01*
X76780Y222500D02*
X97500Y222500D01*
D46*
X97500Y222500D03*
D47*
X77208Y232928D02*
X76780Y232500D01*
X77208Y232928D02*
X83769Y232928D01*
X88341Y237500D01*
X94452Y237500D01*
X99452Y232500D01*
X99452Y224452D01*
X97500Y222500D01*
D46*
X641808Y230000D03*
D47*
X642500Y229308D02*
X642500Y212380D01*
X642500Y229308D02*
X641808Y230000D01*
X90000Y227500D02*
X76780Y227500D01*
X90000Y227500D02*
X92500Y230000D01*
D46*
X92500Y230000D03*
D47*
X647500Y226800D02*
X647500Y212380D01*
X76780Y227500D02*
X67500Y227500D01*
X65000Y230000D01*
X65000Y235000D01*
X67500Y237500D01*
X76780Y237500D01*
D46*
X648832Y230000D03*
D47*
X648832Y228132D01*
X647500Y226800D01*
X97000Y242500D02*
X76780Y242500D01*
X97000Y242500D02*
X110000Y229500D01*
X89500Y212500D02*
X76780Y212500D01*
X89500Y212500D02*
X90000Y213000D01*
D46*
X90000Y213000D03*
X103000Y263000D03*
D47*
X103000Y263500D01*
X110000Y270500D01*
D48*
X199500Y216050D02*
X200000Y216550D01*
D47*
X200000Y190500D01*
X199500Y190000D01*
X199500Y110000D02*
X199500Y107000D01*
X180000Y87500D01*
X180000Y67500D01*
X197500Y50000D01*
X200000Y50000D01*
X529500Y157500D02*
X529500Y170120D01*
X529500Y157500D02*
X529500Y155000D01*
X529500Y152500D01*
X529500Y140000D01*
X529500Y170120D02*
X530000Y170620D01*
X549500Y50000D02*
X519500Y20000D01*
X549500Y50000D02*
X560000Y50000D01*
X951140Y26360D02*
X961000Y26360D01*
X951140Y26360D02*
X929500Y48000D01*
X929500Y50000D01*
X769000Y159500D02*
X759500Y150000D01*
X769000Y159500D02*
X790000Y159500D01*
X756750Y147250D02*
X756750Y120000D01*
X756750Y147250D02*
X759500Y150000D01*
X779200Y57500D02*
X779200Y42700D01*
X779200Y57500D02*
X779200Y60000D01*
X779200Y62500D01*
X779200Y77300D01*
X779200Y42700D02*
X779200Y17300D01*
X329500Y280000D02*
X329500Y280500D01*
X317500Y292500D01*
X237500Y292500D01*
X199500Y254500D01*
X199500Y235000D01*
X199500Y232500D01*
X199500Y229500D01*
X199500Y216050D01*
X329500Y280000D02*
X371246Y280000D01*
X375000Y276246D01*
X375000Y270000D01*
X377500Y267500D01*
X380000Y267500D01*
X382500Y267500D01*
X385000Y267500D02*
X398305Y267500D01*
X410805Y280000D01*
X367500Y210000D02*
X354380Y210000D01*
X367500Y210000D02*
X382500Y225000D01*
X382500Y265000D01*
X381250Y266250D01*
X380000Y267500D01*
X382500Y265000D02*
X385000Y267500D01*
X382500Y267500D02*
X381250Y266250D01*
X382500Y267500D02*
X385000Y267500D01*
X529500Y140000D02*
X579500Y140000D01*
X580000Y139500D01*
X590000Y149500D01*
X585000Y265000D02*
X585000Y282500D01*
X592000Y289500D01*
X600000Y289500D01*
X630000Y289500D01*
X660000Y289500D01*
X930000Y90500D02*
X942500Y103000D01*
X942500Y195000D01*
X967500Y220000D01*
X977000Y220000D01*
X930000Y62500D02*
X930000Y50500D01*
X930000Y67500D02*
X930000Y90500D01*
X930000Y50500D02*
X929500Y50000D01*
X202500Y232500D02*
X199500Y232500D01*
X202500Y232500D02*
X227500Y232500D01*
X232500Y227500D01*
X232500Y172500D01*
X212500Y152500D01*
X212500Y122500D01*
X200000Y110000D01*
X199500Y110000D01*
X199500Y229500D02*
X202500Y232500D01*
X200000Y235000D01*
X199500Y235000D01*
X645798Y245098D02*
X645798Y249902D01*
X642402Y253298D01*
X632500Y231800D02*
X632500Y212380D01*
X632500Y231800D02*
X645798Y245098D01*
X642402Y253298D02*
X596702Y253298D01*
X585000Y265000D01*
X606498Y162500D02*
X617620Y162500D01*
X702380Y162500D02*
X725000Y162500D01*
X727500Y160000D01*
D46*
X727500Y160000D03*
X769000Y159500D03*
D47*
X530000Y170620D02*
X530000Y185000D01*
D46*
X530000Y185000D03*
X398305Y267500D03*
X757500Y107500D03*
D47*
X756750Y108250D01*
X756750Y120000D01*
X632500Y175000D02*
X632500Y212380D01*
X632500Y175000D02*
X632500Y172500D01*
X632500Y170000D01*
X632500Y167500D01*
X627500Y162500D01*
X617620Y162500D01*
X685000Y162500D02*
X702380Y162500D01*
X685000Y162500D02*
X675000Y172500D01*
D46*
X675000Y172500D03*
X662500Y172500D03*
D47*
X635000Y172500D01*
X632500Y172500D01*
X632500Y175000D02*
X635000Y172500D01*
X632500Y170000D01*
X779200Y60000D02*
X781700Y60000D01*
X892500Y60000D01*
X897500Y65000D01*
X927500Y65000D01*
X781700Y60000D02*
X779200Y57500D01*
X781700Y60000D02*
X779200Y62500D01*
X927500Y65000D02*
X930000Y67500D01*
X927500Y65000D02*
X930000Y62500D01*
X930000Y67500D01*
X532000Y155000D02*
X529500Y155000D01*
X532000Y155000D02*
X555000Y155000D01*
X560000Y160000D01*
X560000Y200000D01*
X568899Y208899D01*
X568899Y220101D01*
X529500Y157500D02*
X532000Y155000D01*
X529500Y152500D01*
X606070Y162928D02*
X606498Y162500D01*
X590000Y152830D02*
X590000Y149500D01*
X590000Y152830D02*
X600098Y162928D01*
X606070Y162928D01*
D46*
X590000Y149500D03*
D47*
X100500Y150500D02*
X70000Y120000D01*
X100500Y150500D02*
X130000Y150500D01*
X70000Y120000D02*
X30000Y80000D01*
X15000Y80000D01*
X7500Y72500D01*
X7500Y47500D01*
X17500Y37500D01*
X85000Y37500D01*
X90000Y42500D01*
X110000Y42500D01*
X117000Y49500D01*
X122500Y49500D01*
X123000Y50000D01*
X150500Y50000D01*
X150500Y20000D01*
X43000Y57500D02*
X20000Y57500D01*
X43000Y57500D02*
X50500Y50000D01*
X20000Y22500D02*
X20000Y12500D01*
X27500Y5000D01*
X115000Y5000D01*
X122500Y12500D01*
X122500Y30500D01*
X80000Y30500D02*
X69500Y20000D01*
X80000Y30500D02*
X97500Y30500D01*
X139600Y97900D02*
X139600Y129500D01*
X139600Y97900D02*
X147500Y90000D01*
X139600Y129500D02*
X167600Y157500D01*
X192500Y157500D01*
X197500Y152500D01*
X199500Y150500D01*
X199500Y140000D01*
X222900Y173900D02*
X222900Y216550D01*
X222900Y173900D02*
X201500Y152500D01*
X199500Y150500D01*
X197500Y152500D02*
X201500Y152500D01*
X660000Y270500D02*
X690000Y270500D01*
X670500Y260000D02*
X660000Y270500D01*
X670500Y260000D02*
X670500Y240000D01*
X617620Y182500D02*
X602500Y182500D01*
X597500Y187500D01*
D46*
X640000Y247500D03*
X670500Y260000D03*
D47*
X880800Y251700D02*
X880800Y102700D01*
X880800Y251700D02*
X852500Y280000D01*
D46*
X852500Y280000D03*
X705000Y277500D03*
D47*
X698000Y270500D01*
X690000Y270500D01*
X605548Y213048D02*
X605548Y212738D01*
X605548Y213048D02*
X640000Y247500D01*
X597500Y204690D02*
X597500Y187500D01*
X597500Y204690D02*
X605548Y212738D01*
X597963Y167500D02*
X617620Y167500D01*
X594963Y170500D02*
X580000Y170500D01*
X594963Y170500D02*
X597963Y167500D01*
X830000Y42700D02*
X830000Y17300D01*
X657500Y223497D02*
X659202Y225199D01*
X657500Y223497D02*
X657500Y212380D01*
X638058Y262442D02*
X630000Y270500D01*
X638058Y262442D02*
X646189Y262442D01*
X659202Y249429D01*
X659202Y225199D01*
X657500Y212380D02*
X657500Y200000D01*
X660000Y197500D01*
D46*
X660000Y197500D03*
D47*
X855400Y42700D02*
X855400Y17300D01*
X652500Y224963D02*
X654630Y227093D01*
X652500Y224963D02*
X652500Y212380D01*
X654630Y247535D02*
X644295Y257870D01*
X654630Y247535D02*
X654630Y227093D01*
X612630Y257870D02*
X600000Y270500D01*
X612630Y257870D02*
X644295Y257870D01*
X652500Y212380D02*
X652500Y200000D01*
X650000Y197500D01*
D46*
X650000Y197500D03*
D47*
X685500Y45000D02*
X670000Y29500D01*
X685500Y45000D02*
X703500Y45000D01*
X736000Y77500D01*
X632500Y117500D02*
X632500Y127620D01*
X632500Y117500D02*
X630000Y115000D01*
X615000Y115000D01*
X590000Y90000D01*
X590000Y10000D01*
X595476Y4524D01*
X652024Y4524D01*
X657500Y10000D01*
X657500Y27500D01*
X659500Y29500D01*
X670000Y29500D01*
X670000Y60500D02*
X687000Y60500D01*
X704000Y77500D01*
D46*
X655000Y47500D03*
D47*
X668000Y60500D01*
X670000Y60500D01*
D46*
X636702Y110000D03*
D47*
X637500Y110798D02*
X637500Y127620D01*
X637500Y110798D02*
X636702Y110000D01*
X554100Y75400D02*
X529500Y100000D01*
X554100Y75400D02*
X560000Y75400D01*
X567900Y75400D01*
X620000Y127500D01*
X620000Y130000D01*
X630000Y140000D01*
X640000Y140000D01*
X642500Y137500D01*
X642500Y127620D01*
D46*
X562500Y150000D03*
D47*
X573548Y199048D02*
X595000Y220500D01*
X573548Y199048D02*
X571238Y199048D01*
X564572Y158106D02*
X562500Y156034D01*
X562500Y150000D01*
X564572Y192383D02*
X571238Y199048D01*
X564572Y192383D02*
X564572Y158106D01*
X702380Y152500D02*
X712500Y152500D01*
X717500Y147500D01*
D46*
X717500Y147500D03*
X950000Y42500D03*
D47*
X957920Y34580D01*
X961000Y34580D01*
X937500Y20000D02*
X929500Y20000D01*
X937500Y20000D02*
X952500Y5000D01*
X962500Y5000D01*
X970000Y12500D01*
X970000Y26360D01*
X700120Y115000D02*
X687500Y127620D01*
X700120Y115000D02*
X722500Y115000D01*
D46*
X722500Y115000D03*
X757500Y75000D03*
D47*
X757500Y10000D01*
X762500Y5000D01*
X920000Y5000D01*
X929500Y14500D01*
X929500Y20000D01*
D46*
X845000Y220000D03*
D47*
X823000Y220000D01*
D46*
X666702Y140000D03*
D47*
X667500Y139202D02*
X667500Y127620D01*
X667500Y139202D02*
X666702Y140000D01*
X805000Y240000D02*
X823000Y240000D01*
X805000Y240000D02*
X800788Y235788D01*
X800788Y205781D01*
X725000Y195000D02*
X725000Y177500D01*
X720000Y172500D01*
X702380Y172500D01*
X792975Y197968D02*
X800788Y205781D01*
X792975Y197968D02*
X727968Y197968D01*
X725000Y195000D01*
X715000Y177500D02*
X702380Y177500D01*
X715000Y177500D02*
X720000Y182500D01*
X720000Y197500D01*
X727500Y205000D01*
X760000Y205000D01*
D46*
X760000Y205000D03*
X787500Y230000D03*
D47*
X795000Y237500D01*
X795000Y250000D01*
X805000Y260000D01*
X823000Y260000D01*
D46*
X665000Y147500D03*
X802500Y197500D03*
D47*
X805000Y200000D01*
X823000Y200000D01*
X662500Y136002D02*
X662500Y127620D01*
X662500Y136002D02*
X660904Y137598D01*
X660904Y143404D01*
X665000Y147500D01*
X610500Y90000D02*
X610500Y60000D01*
X610500Y90000D02*
X610500Y95500D01*
X619202Y104202D01*
X639902Y104202D01*
X647500Y111800D01*
X647500Y127620D01*
X420000Y120805D02*
X390441Y120805D01*
X390000Y121246D01*
X378754Y110000D01*
X352500Y110000D01*
X325000Y82500D01*
X325000Y20000D01*
X315000Y10000D01*
X252500Y10000D01*
X222500Y40000D01*
X222500Y72500D01*
X219600Y75400D01*
X200000Y75400D01*
X420000Y120805D02*
X430805Y120805D01*
X440000Y130000D01*
X440000Y170000D01*
X438100Y171900D01*
X425620Y171900D01*
X672500Y150000D02*
X672500Y127620D01*
D46*
X440000Y170000D03*
X638298Y166702D03*
D47*
X655798Y166702D02*
X672500Y150000D01*
X655798Y166702D02*
X638298Y166702D01*
X882500Y280000D02*
X977000Y280000D01*
X882500Y280000D02*
X867500Y295000D01*
X800000Y295000D01*
D46*
X680000Y255000D03*
X665000Y227500D03*
D47*
X665000Y224531D01*
X662928Y222459D01*
X662928Y212808D01*
X662500Y212380D01*
X793048Y282738D02*
X793048Y288048D01*
X800000Y295000D01*
X681800Y255000D02*
X680000Y255000D01*
X698763Y260952D02*
X709883Y272072D01*
X782383Y272072D01*
X698763Y260952D02*
X687752Y260952D01*
X681800Y255000D01*
X782383Y272072D02*
X793048Y282738D01*
D46*
X667500Y192500D03*
X755000Y177500D03*
D47*
X762500Y177500D01*
X767500Y172500D01*
X795000Y172500D01*
X802500Y180000D01*
X823000Y180000D01*
X671401Y196401D02*
X667500Y192500D01*
X671401Y196401D02*
X671401Y203096D01*
X672500Y204195D01*
X672500Y212380D01*
D46*
X874100Y266600D03*
D47*
X900700Y240000D02*
X977000Y240000D01*
X900700Y240000D02*
X874100Y266600D01*
D46*
X677402Y200896D03*
D47*
X677500Y200995D02*
X677500Y212380D01*
X677500Y200995D02*
X677402Y200896D01*
X895000Y260000D02*
X977000Y260000D01*
X895000Y260000D02*
X864952Y290048D01*
X802548Y290048D01*
X800000Y287500D01*
X800000Y282500D01*
X785000Y267500D01*
X711776Y267500D01*
D46*
X690000Y255000D03*
D47*
X691380Y256380D02*
X700656Y256380D01*
X691380Y256380D02*
X690000Y255000D01*
X700656Y256380D02*
X711776Y267500D01*
D46*
X682500Y222500D03*
D47*
X682500Y212380D01*
D46*
X678298Y140000D03*
D47*
X678298Y161002D02*
X669202Y170098D01*
X678298Y161002D02*
X678298Y140000D01*
X669202Y170098D02*
X669202Y184497D01*
X687500Y202795D02*
X687500Y212380D01*
X687500Y202795D02*
X669202Y184497D01*
X791900Y90000D02*
X804600Y102700D01*
X791900Y90000D02*
X712500Y90000D01*
D46*
X657500Y97500D03*
D47*
X666800Y97500D02*
X667598Y96702D01*
X666800Y97500D02*
X657500Y97500D01*
X705798Y96702D02*
X712500Y90000D01*
X705798Y96702D02*
X667598Y96702D01*
D46*
X602500Y157130D03*
D47*
X602870Y157500D02*
X617620Y157500D01*
X602870Y157500D02*
X602500Y157130D01*
X765200Y102700D02*
X779200Y102700D01*
X765200Y102700D02*
X757500Y95000D01*
X717500Y95000D01*
X710000Y102500D01*
X670000Y102500D01*
D46*
X670000Y102500D03*
X600000Y150000D03*
D47*
X606070Y152500D02*
X617620Y152500D01*
X606070Y152500D02*
X604902Y151332D01*
X601332Y151332D01*
X600000Y150000D01*
X960000Y140000D02*
X977000Y140000D01*
X960000Y140000D02*
X957072Y137072D01*
X957072Y102928D02*
X960000Y100000D01*
X957072Y102928D02*
X957072Y137072D01*
X510000Y50500D02*
X480000Y50500D01*
X507500Y48000D02*
X510000Y50500D01*
X507500Y48000D02*
X507500Y27000D01*
X500500Y20000D01*
X480000Y40500D02*
X459500Y20000D01*
X480000Y40500D02*
X480000Y50500D01*
X459500Y20000D02*
X455000Y15500D01*
X455000Y10000D01*
X450000Y5000D01*
X402500Y5000D01*
X390000Y17500D01*
X390000Y52500D01*
X395000Y57500D01*
X433000Y57500D01*
X440000Y50500D01*
X455850Y35850D02*
X405400Y35850D01*
X455850Y35850D02*
X465000Y45000D01*
X465000Y65000D01*
X469500Y69500D01*
X480000Y69500D01*
X480000Y80000D01*
X475000Y85000D01*
X472500Y85000D01*
X469500Y88000D01*
X469500Y100000D01*
X492500Y123000D01*
X492500Y150000D01*
X497500Y155000D01*
X520000Y155000D01*
X523500Y158500D01*
X523500Y170620D01*
X517000Y170620D02*
X510500Y170620D01*
X517000Y170620D02*
X517000Y182000D01*
X517500Y182500D01*
D46*
X517500Y182500D03*
X510000Y245000D03*
D47*
X510000Y242816D01*
X497729Y230544D01*
D46*
X507500Y280000D03*
D47*
X520500Y280000D01*
D46*
X492101Y230544D03*
D47*
X497729Y230544D01*
X477500Y160000D02*
X435000Y117500D01*
X435000Y92500D01*
D46*
X435000Y92500D03*
X510000Y82500D03*
D47*
X510000Y69500D01*
X477500Y160000D02*
X508298Y190798D01*
X532402Y190798D01*
X536500Y186700D01*
X536500Y170620D01*
X543000Y170620D02*
X549500Y170620D01*
D46*
X542500Y185000D03*
D47*
X543000Y184500D01*
X543000Y170620D01*
X492202Y279500D02*
X490000Y279500D01*
D46*
X504202Y270798D03*
D47*
X500904Y270798D02*
X492202Y279500D01*
X500904Y270798D02*
X504202Y270798D01*
X539500Y280000D02*
X543000Y276500D01*
X543000Y229380D01*
X539500Y280000D02*
X547500Y280000D01*
X557000Y289500D01*
X570000Y289500D01*
X490000Y260500D02*
X460000Y260500D01*
X494500Y265000D02*
X530000Y265000D01*
X494500Y265000D02*
X490000Y260500D01*
X530000Y265000D02*
X536500Y258500D01*
X536500Y229380D01*
X580000Y254500D02*
X595000Y239500D01*
X580000Y254500D02*
X580000Y260500D01*
X570000Y270500D01*
X549500Y250000D01*
X549500Y229380D01*
D46*
X990000Y27500D03*
D47*
X988860Y26360D01*
X979000Y26360D01*
D46*
X717500Y156702D03*
D47*
X716702Y157500D02*
X702380Y157500D01*
X716702Y157500D02*
X717500Y156702D01*
X268754Y240000D02*
X268754Y249559D01*
X280000Y260805D01*
X268754Y220000D02*
X280000Y208754D01*
X268754Y220000D02*
X268754Y240000D01*
X280000Y260805D02*
X364195Y260805D01*
X375000Y250000D01*
X375000Y230000D01*
X367700Y222700D01*
X354380Y222700D01*
D46*
X310000Y220000D03*
X327500Y220000D03*
D47*
X330101Y222601D01*
X338364Y222601D01*
X338463Y222700D01*
X354380Y222700D01*
X298200Y220000D02*
X297402Y220798D01*
X298200Y220000D02*
X310000Y220000D01*
X292044Y220798D02*
X280000Y208754D01*
X292044Y220798D02*
X297402Y220798D01*
X251246Y240000D02*
X251246Y259559D01*
X250000Y260805D01*
X250000Y238754D02*
X250000Y208754D01*
X250000Y238754D02*
X251246Y240000D01*
X250000Y208754D02*
X266254Y208754D01*
X267500Y210000D01*
D46*
X267500Y210000D03*
X327500Y210000D03*
D47*
X340200Y197300D01*
X354380Y197300D01*
X250000Y169195D02*
X240805Y160000D01*
X250000Y169195D02*
X250000Y191246D01*
X235000Y50000D02*
X267500Y50000D01*
X235000Y50000D02*
X230000Y55000D01*
X230000Y149195D01*
X240805Y160000D01*
X250000Y191246D02*
X280000Y191246D01*
X425620Y235400D02*
X425620Y248100D01*
X425620Y235400D02*
X425220Y235000D01*
X410000Y235000D01*
X407500Y232500D01*
X407500Y202500D01*
X412700Y197300D01*
X425620Y197300D01*
X291246Y191246D02*
X280000Y191246D01*
X291246Y191246D02*
X292500Y192500D01*
D46*
X292500Y192500D03*
X407500Y202500D03*
X280000Y270235D03*
D47*
X280000Y279195D01*
D46*
X270000Y100000D03*
D47*
X270000Y92500D01*
X267500Y90000D01*
D46*
X250000Y270235D03*
D47*
X250000Y279195D01*
D46*
X262500Y80000D03*
D47*
X262500Y75000D01*
X267500Y70000D01*
X330000Y230805D02*
X334595Y235400D01*
X354380Y235400D01*
X290000Y180000D02*
X277500Y180000D01*
X259195Y161695D01*
X259195Y160000D01*
X298298Y199103D02*
X330000Y230805D01*
X298298Y199103D02*
X298298Y188298D01*
X290000Y180000D01*
X300000Y249195D02*
X330000Y249195D01*
X353285Y249195D01*
X354380Y248100D01*
X305405Y184600D02*
X290000Y169195D01*
X305405Y184600D02*
X354380Y184600D01*
X290000Y169195D02*
X276695Y169195D01*
X275000Y167500D01*
D46*
X275000Y167500D03*
X292500Y202500D03*
D47*
X292500Y212500D01*
X295000Y215000D01*
D46*
X295000Y215000D03*
X285000Y227500D03*
D47*
X288305Y230805D01*
X300000Y230805D01*
X322705Y171900D02*
X320000Y169195D01*
X322705Y171900D02*
X354380Y171900D01*
X299195Y160000D02*
X290000Y150805D01*
X299195Y160000D02*
X310805Y160000D01*
X320000Y169195D01*
X358754Y130000D02*
X365000Y130000D01*
X373754Y138754D01*
X390000Y138754D01*
X402500Y138754D01*
X405000Y138754D01*
X407500Y138754D01*
X419559Y138754D01*
X420000Y139195D01*
X414600Y184600D02*
X425620Y184600D01*
X414600Y184600D02*
X405000Y175000D01*
X405000Y141254D01*
X405000Y138754D01*
X405000Y141254D02*
X402500Y138754D01*
X405000Y141254D02*
X407500Y138754D01*
X445000Y222700D02*
X448105Y222700D01*
X445000Y222700D02*
X442500Y222700D01*
X440000Y222700D01*
X425620Y222700D01*
X448105Y222700D02*
X450805Y220000D01*
X450805Y200441D01*
X451246Y200000D01*
X388754Y280000D02*
X388754Y286254D01*
X395000Y292500D01*
X422500Y292500D01*
X429195Y285805D01*
X429195Y280000D01*
X442500Y266695D01*
X442500Y225200D01*
X442500Y222700D01*
X440000Y222700D02*
X442500Y225200D01*
X445000Y222700D01*
X340805Y130000D02*
X320000Y150805D01*
X340805Y130000D02*
X341246Y130000D01*
X690000Y289500D02*
X718000Y289500D01*
X718500Y289000D01*
X629500Y27000D02*
X629500Y20000D01*
X629500Y27000D02*
X647500Y45000D01*
X647500Y100000D01*
X652500Y105000D01*
X657500Y107500D02*
X657500Y127620D01*
X657500Y107500D02*
X660000Y105000D01*
X655000Y105000D01*
X652500Y105000D01*
X655000Y105000D02*
X657500Y107500D01*
X730322Y107072D02*
X743250Y120000D01*
X673628Y107072D02*
X672402Y108298D01*
X667598Y108298D01*
X664300Y105000D01*
X660000Y105000D01*
X673628Y107072D02*
X730322Y107072D01*
X740000Y217500D02*
X720000Y217500D01*
X740000Y217500D02*
X775200Y217500D01*
X780000Y212700D01*
X667500Y212380D02*
X667500Y220566D01*
X709202Y228298D02*
X720000Y217500D01*
X709202Y228298D02*
X675233Y228298D01*
X667500Y220566D01*
X740000Y182500D02*
X740500Y182000D01*
X740500Y150000D01*
X740000Y182500D02*
X751800Y182500D01*
X752598Y183298D01*
X775998Y183298D02*
X780000Y187300D01*
X775998Y183298D02*
X752598Y183298D01*
X517000Y229380D02*
X510500Y229380D01*
X519500Y214500D02*
X490000Y214500D01*
X519500Y214500D02*
X523500Y218500D01*
X523500Y229380D01*
X568899Y239101D02*
X568899Y251101D01*
X565000Y255000D01*
D46*
X565000Y255000D03*
X525000Y250000D03*
D47*
X525000Y247500D01*
X522500Y245000D01*
X522500Y230380D01*
X523500Y229380D01*
M02*
