G04 EAGLE Gerber RS-274X export*
G75*
%MOMM*%
%FSLAX34Y34*%
%LPD*%
%INBottom Copper*%
%IPPOS*%
%AMOC8*
5,1,8,0,0,1.08239X$1,22.5*%
G01*
G04 Define Apertures*
%ADD10P,1.64956X8X22.5*%
%ADD11C,1.300000*%
%ADD12R,1.300000X1.300000*%
%ADD13C,1.625000*%
%ADD14C,1.524000*%
%ADD15R,1.350000X1.350000*%
%ADD16C,1.350000*%
%ADD17C,0.550000*%
%ADD18C,0.304800*%
G36*
X769605Y3121D02*
X769010Y3000D01*
X20000Y3000D01*
X19703Y3029D01*
X13780Y4207D01*
X13231Y4435D01*
X8210Y7790D01*
X7790Y8210D01*
X4435Y13231D01*
X4207Y13780D01*
X3029Y19703D01*
X3000Y20000D01*
X3000Y280000D01*
X3029Y280297D01*
X4207Y286220D01*
X4435Y286769D01*
X7790Y291790D01*
X8210Y292210D01*
X13231Y295565D01*
X13780Y295793D01*
X19703Y296971D01*
X20000Y297000D01*
X151510Y297000D01*
X152037Y296906D01*
X152553Y296587D01*
X152904Y296093D01*
X153034Y295500D01*
X152923Y294904D01*
X152588Y294398D01*
X92910Y234720D01*
X92427Y234395D01*
X91832Y234274D01*
X90730Y234274D01*
X88226Y231770D01*
X88226Y228230D01*
X90730Y225726D01*
X91702Y225726D01*
X92251Y225624D01*
X92762Y225297D01*
X93105Y224796D01*
X93226Y224202D01*
X93226Y220730D01*
X95730Y218226D01*
X99270Y218226D01*
X101774Y220730D01*
X101774Y221832D01*
X101885Y222404D01*
X102220Y222910D01*
X166720Y287410D01*
X167203Y287735D01*
X167798Y287856D01*
X579010Y287856D01*
X579582Y287745D01*
X580088Y287410D01*
X637088Y230410D01*
X637413Y229927D01*
X637534Y229332D01*
X637534Y228230D01*
X640038Y225726D01*
X643578Y225726D01*
X644242Y226390D01*
X644703Y226706D01*
X645296Y226836D01*
X645892Y226725D01*
X646398Y226390D01*
X647062Y225726D01*
X650602Y225726D01*
X653106Y228230D01*
X653106Y231770D01*
X650585Y234292D01*
X650103Y234385D01*
X649598Y234720D01*
X642509Y241809D01*
X642193Y242270D01*
X642063Y242863D01*
X642174Y243459D01*
X642509Y243965D01*
X644274Y245730D01*
X644274Y246832D01*
X644385Y247404D01*
X644720Y247910D01*
X653316Y256506D01*
X653799Y256831D01*
X654394Y256952D01*
X666872Y256952D01*
X667444Y256841D01*
X667950Y256506D01*
X668730Y255726D01*
X672736Y255726D01*
X673263Y255632D01*
X673779Y255313D01*
X674130Y254819D01*
X674260Y254226D01*
X674149Y253630D01*
X673814Y253124D01*
X661952Y241263D01*
X661952Y231128D01*
X661841Y230556D01*
X661506Y230050D01*
X660726Y229270D01*
X660726Y225730D01*
X663230Y223226D01*
X666770Y223226D01*
X669274Y225730D01*
X669274Y229270D01*
X668494Y230050D01*
X668169Y230533D01*
X668048Y231128D01*
X668048Y238106D01*
X668159Y238678D01*
X668494Y239184D01*
X679590Y250280D01*
X680073Y250605D01*
X680668Y250726D01*
X681770Y250726D01*
X683922Y252878D01*
X684383Y253194D01*
X684976Y253324D01*
X685572Y253213D01*
X686078Y252878D01*
X686506Y252450D01*
X686831Y251967D01*
X686952Y251372D01*
X686952Y231894D01*
X686841Y231322D01*
X686506Y230816D01*
X682910Y227220D01*
X682427Y226895D01*
X681832Y226774D01*
X680730Y226774D01*
X678226Y224270D01*
X678226Y220730D01*
X680730Y218226D01*
X684270Y218226D01*
X686774Y220730D01*
X686774Y221832D01*
X686885Y222404D01*
X687220Y222910D01*
X693048Y228737D01*
X693048Y251372D01*
X693159Y251944D01*
X693494Y252450D01*
X694274Y253230D01*
X694274Y256770D01*
X691770Y259274D01*
X688230Y259274D01*
X686078Y257122D01*
X685617Y256806D01*
X685024Y256676D01*
X684428Y256787D01*
X683922Y257122D01*
X681770Y259274D01*
X678230Y259274D01*
X677376Y258420D01*
X676937Y258114D01*
X676347Y257974D01*
X675749Y258076D01*
X675238Y258403D01*
X674895Y258903D01*
X674774Y259498D01*
X674774Y261770D01*
X672270Y264274D01*
X668730Y264274D01*
X667950Y263494D01*
X667467Y263169D01*
X666872Y263048D01*
X651237Y263048D01*
X640410Y252220D01*
X639927Y251895D01*
X639332Y251774D01*
X638230Y251774D01*
X636111Y249655D01*
X635650Y249339D01*
X635058Y249209D01*
X634461Y249320D01*
X633956Y249655D01*
X589213Y294398D01*
X588907Y294837D01*
X588767Y295427D01*
X588869Y296025D01*
X589196Y296536D01*
X589696Y296879D01*
X590290Y297000D01*
X980000Y297000D01*
X980297Y296971D01*
X986220Y295793D01*
X986769Y295565D01*
X991790Y292210D01*
X992210Y291790D01*
X995565Y286769D01*
X995793Y286220D01*
X996971Y280297D01*
X997000Y280000D01*
X997000Y30224D01*
X996906Y29697D01*
X996587Y29181D01*
X996093Y28830D01*
X995500Y28700D01*
X994904Y28811D01*
X994398Y29146D01*
X993494Y30050D01*
X993169Y30533D01*
X993048Y31128D01*
X993048Y63763D01*
X931263Y125548D01*
X754394Y125548D01*
X753822Y125659D01*
X753316Y125994D01*
X726186Y153124D01*
X725880Y153563D01*
X725741Y154153D01*
X725842Y154751D01*
X726169Y155262D01*
X726669Y155605D01*
X727264Y155726D01*
X729270Y155726D01*
X730050Y156506D01*
X730533Y156831D01*
X731128Y156952D01*
X764872Y156952D01*
X765444Y156841D01*
X765950Y156506D01*
X767230Y155226D01*
X770770Y155226D01*
X773274Y157730D01*
X773274Y161270D01*
X773064Y161480D01*
X772758Y161919D01*
X772618Y162509D01*
X772720Y163107D01*
X773047Y163618D01*
X773547Y163961D01*
X774142Y164082D01*
X793393Y164082D01*
X844590Y215280D01*
X845073Y215605D01*
X845668Y215726D01*
X846770Y215726D01*
X849274Y218230D01*
X849274Y221770D01*
X846770Y224274D01*
X843230Y224274D01*
X840726Y221770D01*
X840726Y220668D01*
X840615Y220096D01*
X840280Y219590D01*
X808150Y187460D01*
X807711Y187154D01*
X807121Y187015D01*
X806523Y187116D01*
X806012Y187443D01*
X805669Y187943D01*
X805548Y188538D01*
X805548Y193872D01*
X805659Y194444D01*
X805994Y194950D01*
X806774Y195730D01*
X806774Y199270D01*
X804270Y201774D01*
X800730Y201774D01*
X798226Y199270D01*
X798226Y195730D01*
X799006Y194950D01*
X799331Y194467D01*
X799452Y193872D01*
X799452Y190291D01*
X799362Y189776D01*
X799048Y189257D01*
X798556Y188902D01*
X797964Y188768D01*
X797367Y188874D01*
X796859Y189205D01*
X796520Y189708D01*
X795372Y192480D01*
X792800Y195052D01*
X789439Y196444D01*
X770561Y196444D01*
X767200Y195052D01*
X764628Y192480D01*
X763236Y189119D01*
X763236Y185481D01*
X764628Y182120D01*
X767200Y179548D01*
X770561Y178156D01*
X787666Y178156D01*
X788193Y178062D01*
X788709Y177743D01*
X789060Y177249D01*
X789190Y176656D01*
X789079Y176060D01*
X788744Y175554D01*
X788386Y175196D01*
X787903Y174871D01*
X787308Y174750D01*
X760798Y174750D01*
X760249Y174852D01*
X759738Y175179D01*
X759395Y175680D01*
X759274Y176274D01*
X759274Y179270D01*
X756770Y181774D01*
X755668Y181774D01*
X755096Y181885D01*
X754590Y182220D01*
X741263Y195548D01*
X681836Y195548D01*
X681309Y195642D01*
X680793Y195961D01*
X680442Y196455D01*
X680312Y197048D01*
X680423Y197644D01*
X680758Y198150D01*
X744114Y261506D01*
X744597Y261831D01*
X745192Y261952D01*
X873798Y261952D01*
X874173Y262205D01*
X874768Y262326D01*
X875870Y262326D01*
X878374Y264830D01*
X878374Y268370D01*
X875870Y270874D01*
X872330Y270874D01*
X869950Y268494D01*
X869467Y268169D01*
X868872Y268048D01*
X742035Y268048D01*
X679604Y205617D01*
X679121Y205291D01*
X678527Y205170D01*
X675631Y205170D01*
X673128Y202667D01*
X673128Y199126D01*
X674104Y198150D01*
X674410Y197711D01*
X674550Y197121D01*
X674448Y196523D01*
X674121Y196012D01*
X673621Y195669D01*
X673026Y195548D01*
X671128Y195548D01*
X670556Y195659D01*
X670050Y195994D01*
X669270Y196774D01*
X665798Y196774D01*
X665249Y196876D01*
X664738Y197203D01*
X664395Y197704D01*
X664274Y198298D01*
X664274Y199270D01*
X661770Y201774D01*
X658230Y201774D01*
X656078Y199622D01*
X655617Y199306D01*
X655024Y199176D01*
X654428Y199287D01*
X653922Y199622D01*
X651770Y201774D01*
X648230Y201774D01*
X645726Y199270D01*
X645726Y195730D01*
X646506Y194950D01*
X646831Y194467D01*
X646952Y193872D01*
X646952Y138737D01*
X761506Y24184D01*
X761831Y23701D01*
X761952Y23106D01*
X761952Y13737D01*
X770088Y5602D01*
X770394Y5163D01*
X770533Y4573D01*
X770432Y3975D01*
X770105Y3464D01*
X769605Y3121D01*
G37*
%LPC*%
G36*
X703230Y273226D02*
X706770Y273226D01*
X707550Y274006D01*
X708033Y274331D01*
X708628Y274452D01*
X851263Y274452D01*
X852090Y275280D01*
X852573Y275605D01*
X853168Y275726D01*
X854270Y275726D01*
X856774Y278230D01*
X856774Y281770D01*
X854270Y284274D01*
X850730Y284274D01*
X848157Y281701D01*
X848124Y281523D01*
X847797Y281012D01*
X847296Y280669D01*
X846702Y280548D01*
X708628Y280548D01*
X708056Y280659D01*
X707550Y280994D01*
X706770Y281774D01*
X703230Y281774D01*
X700726Y279270D01*
X700726Y275730D01*
X703230Y273226D01*
G37*
G36*
X515730Y178226D02*
X519270Y178226D01*
X521774Y180730D01*
X521774Y184270D01*
X519270Y186774D01*
X518168Y186774D01*
X517596Y186885D01*
X517090Y187220D01*
X495595Y208715D01*
X495270Y209198D01*
X495149Y209793D01*
X495149Y211861D01*
X495243Y212388D01*
X495562Y212904D01*
X496056Y213255D01*
X496649Y213385D01*
X497245Y213274D01*
X497751Y212939D01*
X525280Y185410D01*
X525605Y184927D01*
X525726Y184332D01*
X525726Y183230D01*
X528230Y180726D01*
X531770Y180726D01*
X534274Y183230D01*
X534274Y185236D01*
X534368Y185763D01*
X534687Y186279D01*
X535181Y186630D01*
X535774Y186760D01*
X536370Y186649D01*
X536876Y186314D01*
X537780Y185410D01*
X538105Y184927D01*
X538226Y184332D01*
X538226Y183230D01*
X540730Y180726D01*
X544270Y180726D01*
X546774Y183230D01*
X546774Y186770D01*
X544270Y189274D01*
X543168Y189274D01*
X542596Y189385D01*
X542090Y189720D01*
X507696Y224114D01*
X507371Y224597D01*
X507250Y225192D01*
X507250Y239202D01*
X507352Y239751D01*
X507679Y240262D01*
X508180Y240605D01*
X508774Y240726D01*
X511770Y240726D01*
X514274Y243230D01*
X514274Y246770D01*
X513494Y247550D01*
X513169Y248033D01*
X513048Y248628D01*
X513048Y278763D01*
X512220Y279590D01*
X511895Y280073D01*
X511774Y280668D01*
X511774Y281770D01*
X509270Y284274D01*
X505730Y284274D01*
X503226Y281770D01*
X503226Y278230D01*
X503782Y277674D01*
X504088Y277235D01*
X504228Y276645D01*
X504126Y276047D01*
X503799Y275536D01*
X503299Y275193D01*
X502704Y275072D01*
X502432Y275072D01*
X499928Y272568D01*
X499928Y269028D01*
X500708Y268248D01*
X501033Y267765D01*
X501154Y267170D01*
X501154Y237681D01*
X501060Y237154D01*
X500741Y236638D01*
X500247Y236287D01*
X499654Y236157D01*
X499058Y236268D01*
X498552Y236603D01*
X489608Y245548D01*
X425199Y245548D01*
X424627Y245659D01*
X424121Y245994D01*
X403025Y267090D01*
X402700Y267573D01*
X402579Y268168D01*
X402579Y269270D01*
X400075Y271774D01*
X396535Y271774D01*
X394031Y269270D01*
X394031Y265730D01*
X396535Y263226D01*
X397637Y263226D01*
X398209Y263115D01*
X398715Y262780D01*
X422042Y239452D01*
X486451Y239452D01*
X487023Y239341D01*
X487529Y239006D01*
X489946Y236589D01*
X490262Y236128D01*
X490392Y235535D01*
X490281Y234939D01*
X489946Y234434D01*
X487827Y232315D01*
X487827Y228774D01*
X488607Y227994D01*
X488932Y227511D01*
X489053Y226917D01*
X489053Y206636D01*
X512780Y182910D01*
X513105Y182427D01*
X513226Y181832D01*
X513226Y180730D01*
X515730Y178226D01*
G37*
G36*
X260730Y75726D02*
X264270Y75726D01*
X266774Y78230D01*
X266774Y81770D01*
X264270Y84274D01*
X263168Y84274D01*
X262596Y84385D01*
X262090Y84720D01*
X260624Y86186D01*
X260299Y86669D01*
X260178Y87264D01*
X260178Y101832D01*
X260272Y102359D01*
X260591Y102875D01*
X261085Y103226D01*
X261678Y103356D01*
X262274Y103245D01*
X262780Y102910D01*
X265280Y100410D01*
X265605Y99927D01*
X265726Y99332D01*
X265726Y98230D01*
X268230Y95726D01*
X271770Y95726D01*
X274274Y98230D01*
X274274Y101770D01*
X271770Y104274D01*
X270668Y104274D01*
X270096Y104385D01*
X269590Y104720D01*
X265196Y109114D01*
X264871Y109597D01*
X264750Y110192D01*
X264750Y204202D01*
X264852Y204751D01*
X265179Y205262D01*
X265680Y205605D01*
X266274Y205726D01*
X269270Y205726D01*
X270050Y206506D01*
X270533Y206831D01*
X271128Y206952D01*
X287228Y206952D01*
X287755Y206858D01*
X288271Y206539D01*
X288622Y206045D01*
X288752Y205452D01*
X288641Y204856D01*
X288306Y204350D01*
X288226Y204270D01*
X288226Y203168D01*
X288115Y202596D01*
X287780Y202090D01*
X271952Y186263D01*
X271952Y171128D01*
X271841Y170556D01*
X271506Y170050D01*
X270726Y169270D01*
X270726Y165730D01*
X273230Y163226D01*
X276770Y163226D01*
X279274Y165730D01*
X279274Y169270D01*
X278494Y170050D01*
X278169Y170533D01*
X278048Y171128D01*
X278048Y183106D01*
X278159Y183678D01*
X278494Y184184D01*
X285624Y191314D01*
X286063Y191620D01*
X286653Y191759D01*
X287251Y191658D01*
X287762Y191331D01*
X288062Y190893D01*
X290730Y188226D01*
X294270Y188226D01*
X295050Y189006D01*
X295533Y189331D01*
X296128Y189452D01*
X398763Y189452D01*
X407090Y197780D01*
X407573Y198105D01*
X408168Y198226D01*
X409270Y198226D01*
X411774Y200730D01*
X411774Y204270D01*
X409270Y206774D01*
X405730Y206774D01*
X403226Y204270D01*
X403226Y203168D01*
X403115Y202596D01*
X402780Y202090D01*
X396684Y195994D01*
X396201Y195669D01*
X395606Y195548D01*
X296128Y195548D01*
X295556Y195659D01*
X295050Y195994D01*
X294622Y196422D01*
X294306Y196883D01*
X294176Y197476D01*
X294287Y198072D01*
X294622Y198578D01*
X296774Y200730D01*
X296774Y204630D01*
X296876Y205179D01*
X297203Y205690D01*
X297704Y206033D01*
X298298Y206154D01*
X298664Y206154D01*
X299016Y206506D01*
X299499Y206831D01*
X300093Y206952D01*
X323872Y206952D01*
X324444Y206841D01*
X324950Y206506D01*
X325730Y205726D01*
X329270Y205726D01*
X331774Y208230D01*
X331774Y211770D01*
X329622Y213922D01*
X329306Y214383D01*
X329176Y214976D01*
X329287Y215572D01*
X329622Y216078D01*
X331774Y218230D01*
X331774Y221770D01*
X329270Y224274D01*
X325730Y224274D01*
X324950Y223494D01*
X324467Y223169D01*
X323872Y223048D01*
X313628Y223048D01*
X313056Y223159D01*
X312550Y223494D01*
X311770Y224274D01*
X308230Y224274D01*
X305726Y221770D01*
X305726Y218230D01*
X308306Y215650D01*
X308612Y215211D01*
X308752Y214621D01*
X308650Y214023D01*
X308323Y213512D01*
X307823Y213169D01*
X307228Y213048D01*
X300798Y213048D01*
X300249Y213150D01*
X299738Y213477D01*
X299395Y213978D01*
X299274Y214572D01*
X299274Y216770D01*
X296770Y219274D01*
X295668Y219274D01*
X295096Y219385D01*
X294590Y219720D01*
X289720Y224590D01*
X289395Y225073D01*
X289274Y225668D01*
X289274Y229270D01*
X286770Y231774D01*
X283230Y231774D01*
X280726Y229270D01*
X280726Y225730D01*
X281506Y224950D01*
X281831Y224467D01*
X281952Y223872D01*
X281952Y223737D01*
X290040Y215650D01*
X290346Y215211D01*
X290485Y214621D01*
X290384Y214023D01*
X290057Y213512D01*
X289557Y213169D01*
X288962Y213048D01*
X271128Y213048D01*
X270556Y213159D01*
X270050Y213494D01*
X269270Y214274D01*
X266274Y214274D01*
X265725Y214376D01*
X265214Y214703D01*
X264871Y215204D01*
X264750Y215798D01*
X264750Y250043D01*
X264861Y250615D01*
X265196Y251121D01*
X279590Y265515D01*
X280073Y265840D01*
X280668Y265961D01*
X281770Y265961D01*
X284274Y268465D01*
X284274Y272005D01*
X281770Y274509D01*
X278230Y274509D01*
X275726Y272005D01*
X275726Y270903D01*
X275615Y270331D01*
X275280Y269825D01*
X262780Y257325D01*
X262341Y257019D01*
X261751Y256880D01*
X261153Y256981D01*
X260642Y257308D01*
X260299Y257808D01*
X260178Y258403D01*
X260178Y259133D01*
X257946Y261364D01*
X253638Y265673D01*
X253322Y266134D01*
X253191Y266726D01*
X253303Y267323D01*
X253638Y267828D01*
X254274Y268465D01*
X254274Y272005D01*
X251770Y274509D01*
X248230Y274509D01*
X245726Y272005D01*
X245726Y268465D01*
X246506Y267685D01*
X246831Y267202D01*
X246952Y266607D01*
X246952Y263737D01*
X253636Y257054D01*
X253961Y256571D01*
X254082Y255976D01*
X254082Y84107D01*
X257780Y80410D01*
X258105Y79927D01*
X258226Y79332D01*
X258226Y78230D01*
X260730Y75726D01*
G37*
G36*
X88230Y208726D02*
X91770Y208726D01*
X94274Y211230D01*
X94274Y214770D01*
X91770Y217274D01*
X91668Y217274D01*
X91096Y217385D01*
X90590Y217720D01*
X84494Y223816D01*
X84169Y224299D01*
X84048Y224894D01*
X84048Y239106D01*
X84159Y239678D01*
X84494Y240184D01*
X102590Y258280D01*
X103073Y258605D01*
X103668Y258726D01*
X104770Y258726D01*
X107274Y261230D01*
X107274Y264770D01*
X104770Y267274D01*
X101230Y267274D01*
X98726Y264770D01*
X98726Y263668D01*
X98615Y263096D01*
X98280Y262590D01*
X77952Y242263D01*
X77952Y221737D01*
X85280Y214410D01*
X85605Y213927D01*
X85726Y213332D01*
X85726Y211230D01*
X88230Y208726D01*
G37*
G36*
X64787Y252650D02*
X67273Y252650D01*
X69570Y253602D01*
X71328Y255360D01*
X72280Y257657D01*
X72280Y260143D01*
X71328Y262440D01*
X69570Y264198D01*
X67273Y265150D01*
X64787Y265150D01*
X62490Y264198D01*
X60732Y262440D01*
X59780Y260143D01*
X59780Y257657D01*
X60732Y255360D01*
X62490Y253602D01*
X64787Y252650D01*
G37*
G36*
X523230Y245726D02*
X526770Y245726D01*
X529274Y248230D01*
X529274Y249332D01*
X529385Y249904D01*
X529720Y250410D01*
X530816Y251506D01*
X531299Y251831D01*
X531894Y251952D01*
X561372Y251952D01*
X561944Y251841D01*
X562450Y251506D01*
X563230Y250726D01*
X566770Y250726D01*
X569274Y253230D01*
X569274Y256770D01*
X566770Y259274D01*
X563230Y259274D01*
X562450Y258494D01*
X561967Y258169D01*
X561372Y258048D01*
X528737Y258048D01*
X525410Y254720D01*
X524927Y254395D01*
X524332Y254274D01*
X523230Y254274D01*
X520726Y251770D01*
X520726Y248230D01*
X523230Y245726D01*
G37*
G36*
X758230Y200726D02*
X761770Y200726D01*
X764274Y203230D01*
X764274Y204195D01*
X764368Y204722D01*
X764687Y205238D01*
X765181Y205589D01*
X765774Y205719D01*
X766370Y205608D01*
X766876Y205273D01*
X767200Y204948D01*
X770561Y203556D01*
X789439Y203556D01*
X792800Y204948D01*
X795372Y207520D01*
X796764Y210881D01*
X796764Y214519D01*
X795372Y217880D01*
X792800Y220452D01*
X789439Y221844D01*
X774427Y221844D01*
X773900Y221938D01*
X773384Y222257D01*
X773033Y222751D01*
X772903Y223344D01*
X773014Y223940D01*
X773349Y224446D01*
X775409Y226506D01*
X775893Y226831D01*
X776487Y226952D01*
X783872Y226952D01*
X784444Y226841D01*
X784950Y226506D01*
X785730Y225726D01*
X789270Y225726D01*
X791774Y228230D01*
X791774Y231770D01*
X789270Y234274D01*
X785730Y234274D01*
X784950Y233494D01*
X784467Y233169D01*
X783872Y233048D01*
X773331Y233048D01*
X758664Y218381D01*
X758664Y210340D01*
X758553Y209768D01*
X758218Y209262D01*
X755726Y206770D01*
X755726Y203230D01*
X758230Y200726D01*
G37*
G36*
X64787Y194850D02*
X67273Y194850D01*
X69570Y195802D01*
X71328Y197560D01*
X72280Y199857D01*
X72280Y202343D01*
X71328Y204640D01*
X69570Y206398D01*
X67273Y207350D01*
X64787Y207350D01*
X62490Y206398D01*
X60732Y204640D01*
X59780Y202343D01*
X59780Y199857D01*
X60732Y197560D01*
X62490Y195802D01*
X64787Y194850D01*
G37*
G36*
X550561Y40856D02*
X569439Y40856D01*
X572800Y42248D01*
X575372Y44820D01*
X575865Y46011D01*
X576179Y46488D01*
X576679Y46831D01*
X577273Y46952D01*
X581263Y46952D01*
X593048Y58737D01*
X593048Y145872D01*
X593159Y146444D01*
X593494Y146950D01*
X594172Y147628D01*
X594633Y147944D01*
X595226Y148074D01*
X595822Y147963D01*
X596328Y147628D01*
X598230Y145726D01*
X599332Y145726D01*
X599904Y145615D01*
X600410Y145280D01*
X601237Y144452D01*
X610606Y144452D01*
X611178Y144341D01*
X611684Y144006D01*
X638814Y116876D01*
X639120Y116437D01*
X639259Y115847D01*
X639158Y115249D01*
X638831Y114738D01*
X638331Y114395D01*
X637736Y114274D01*
X634932Y114274D01*
X632428Y111770D01*
X632428Y108230D01*
X634006Y106652D01*
X634331Y106169D01*
X634452Y105574D01*
X634452Y63737D01*
X650280Y47910D01*
X650605Y47427D01*
X650726Y46832D01*
X650726Y45730D01*
X653230Y43226D01*
X656770Y43226D01*
X659274Y45730D01*
X659274Y49270D01*
X656770Y51774D01*
X655668Y51774D01*
X655096Y51885D01*
X654590Y52220D01*
X640994Y65816D01*
X640669Y66299D01*
X640548Y66894D01*
X640548Y96462D01*
X640642Y96989D01*
X640961Y97505D01*
X641455Y97856D01*
X642048Y97986D01*
X642644Y97875D01*
X643150Y97540D01*
X653737Y86952D01*
X663763Y86952D01*
X668048Y91237D01*
X668048Y95606D01*
X668159Y96178D01*
X668494Y96684D01*
X669590Y97780D01*
X670073Y98105D01*
X670668Y98226D01*
X671770Y98226D01*
X674274Y100730D01*
X674274Y104270D01*
X671770Y106774D01*
X668230Y106774D01*
X665726Y104270D01*
X665726Y103168D01*
X665615Y102596D01*
X665280Y102090D01*
X663195Y100005D01*
X662734Y99689D01*
X662141Y99559D01*
X661545Y99670D01*
X661039Y100005D01*
X659270Y101774D01*
X658168Y101774D01*
X657596Y101885D01*
X657090Y102220D01*
X650994Y108316D01*
X650669Y108799D01*
X650548Y109394D01*
X650548Y121263D01*
X611263Y160548D01*
X605758Y160548D01*
X605186Y160659D01*
X604680Y160994D01*
X603824Y161850D01*
X603518Y162289D01*
X603378Y162879D01*
X603480Y163477D01*
X603807Y163988D01*
X604307Y164331D01*
X604902Y164452D01*
X633872Y164452D01*
X634444Y164341D01*
X634950Y164006D01*
X636528Y162428D01*
X640068Y162428D01*
X642572Y164932D01*
X642572Y168472D01*
X640068Y170976D01*
X636519Y170976D01*
X636063Y170669D01*
X635468Y170548D01*
X489204Y170548D01*
X488632Y170659D01*
X488127Y170994D01*
X486525Y172596D01*
X444080Y172596D01*
X443508Y172707D01*
X443002Y173042D01*
X441770Y174274D01*
X438230Y174274D01*
X435726Y171770D01*
X435726Y168230D01*
X438230Y165726D01*
X441770Y165726D01*
X442098Y166054D01*
X442581Y166379D01*
X443176Y166500D01*
X467952Y166500D01*
X468501Y166398D01*
X469012Y166071D01*
X469355Y165570D01*
X469476Y164976D01*
X469476Y152869D01*
X470369Y151976D01*
X484631Y151976D01*
X485524Y152869D01*
X485524Y162928D01*
X485626Y163477D01*
X485953Y163988D01*
X486454Y164331D01*
X487048Y164452D01*
X600098Y164452D01*
X600625Y164358D01*
X601141Y164039D01*
X601492Y163545D01*
X601622Y162952D01*
X601511Y162356D01*
X601176Y161850D01*
X598226Y158900D01*
X598226Y154902D01*
X598115Y154330D01*
X597780Y153824D01*
X595828Y151872D01*
X595367Y151556D01*
X594774Y151426D01*
X594178Y151537D01*
X593672Y151872D01*
X591770Y153774D01*
X588230Y153774D01*
X585726Y151270D01*
X585726Y147730D01*
X586506Y146950D01*
X586831Y146467D01*
X586952Y145872D01*
X586952Y61894D01*
X586841Y61322D01*
X586506Y60816D01*
X579184Y53494D01*
X578701Y53169D01*
X578106Y53048D01*
X577273Y53048D01*
X576713Y53155D01*
X576204Y53486D01*
X575865Y53989D01*
X575372Y55180D01*
X572800Y57752D01*
X569439Y59144D01*
X550561Y59144D01*
X547200Y57752D01*
X544628Y55180D01*
X543236Y51819D01*
X543236Y48181D01*
X544628Y44820D01*
X547200Y42248D01*
X550561Y40856D01*
G37*
G36*
X550561Y66256D02*
X569439Y66256D01*
X572800Y67648D01*
X575372Y70220D01*
X576764Y73581D01*
X576764Y77219D01*
X575372Y80580D01*
X572800Y83152D01*
X569439Y84544D01*
X564572Y84544D01*
X564023Y84646D01*
X563512Y84973D01*
X563169Y85474D01*
X563048Y86068D01*
X563048Y105606D01*
X563159Y106178D01*
X563494Y106684D01*
X565548Y108737D01*
X565548Y146372D01*
X565659Y146944D01*
X565994Y147450D01*
X566774Y148230D01*
X566774Y151770D01*
X564270Y154274D01*
X560730Y154274D01*
X558226Y151770D01*
X558226Y148230D01*
X559006Y147450D01*
X559331Y146967D01*
X559452Y146372D01*
X559452Y111894D01*
X559341Y111322D01*
X559006Y110816D01*
X556952Y108763D01*
X556952Y86068D01*
X556850Y85519D01*
X556523Y85008D01*
X556022Y84665D01*
X555428Y84544D01*
X550561Y84544D01*
X547200Y83152D01*
X544628Y80580D01*
X543236Y77219D01*
X543236Y73581D01*
X544628Y70220D01*
X547200Y67648D01*
X550561Y66256D01*
G37*
G36*
X62619Y111726D02*
X77381Y111726D01*
X78274Y112619D01*
X78274Y127381D01*
X77381Y128274D01*
X62619Y128274D01*
X61726Y127381D01*
X61726Y112619D01*
X62619Y111726D01*
G37*
G36*
X508230Y78226D02*
X511770Y78226D01*
X514274Y80730D01*
X514274Y84270D01*
X511770Y86774D01*
X508230Y86774D01*
X507450Y85994D01*
X506967Y85669D01*
X506372Y85548D01*
X446894Y85548D01*
X446322Y85659D01*
X445816Y85994D01*
X439720Y92090D01*
X439395Y92573D01*
X439274Y93168D01*
X439274Y94270D01*
X436770Y96774D01*
X433230Y96774D01*
X430726Y94270D01*
X430726Y90730D01*
X433230Y88226D01*
X434332Y88226D01*
X434904Y88115D01*
X435410Y87780D01*
X443737Y79452D01*
X506372Y79452D01*
X506944Y79341D01*
X507450Y79006D01*
X508230Y78226D01*
G37*
G36*
X190561Y66256D02*
X209439Y66256D01*
X212800Y67648D01*
X215372Y70220D01*
X216764Y73581D01*
X216764Y77219D01*
X215372Y80580D01*
X212800Y83152D01*
X209439Y84544D01*
X190561Y84544D01*
X187200Y83152D01*
X184628Y80580D01*
X183236Y77219D01*
X183236Y73581D01*
X184628Y70220D01*
X187200Y67648D01*
X190561Y66256D01*
G37*
G36*
X190561Y40856D02*
X209439Y40856D01*
X212800Y42248D01*
X215372Y44820D01*
X216764Y48181D01*
X216764Y51819D01*
X215372Y55180D01*
X212800Y57752D01*
X209439Y59144D01*
X190561Y59144D01*
X187200Y57752D01*
X184628Y55180D01*
X183236Y51819D01*
X183236Y48181D01*
X184628Y44820D01*
X187200Y42248D01*
X190561Y40856D01*
G37*
%LPD*%
G36*
X660211Y148888D02*
X659621Y148748D01*
X659023Y148850D01*
X658512Y149177D01*
X658169Y149677D01*
X658048Y150272D01*
X658048Y167228D01*
X658142Y167755D01*
X658461Y168271D01*
X658955Y168622D01*
X659548Y168752D01*
X660144Y168641D01*
X660650Y168306D01*
X660730Y168226D01*
X664270Y168226D01*
X665050Y169006D01*
X665533Y169331D01*
X666128Y169452D01*
X671372Y169452D01*
X671944Y169341D01*
X672450Y169006D01*
X673230Y168226D01*
X676770Y168226D01*
X679274Y170730D01*
X679274Y174270D01*
X676770Y176774D01*
X673230Y176774D01*
X672450Y175994D01*
X671967Y175669D01*
X671372Y175548D01*
X666128Y175548D01*
X665556Y175659D01*
X665050Y175994D01*
X664270Y176774D01*
X660730Y176774D01*
X660650Y176694D01*
X660211Y176388D01*
X659621Y176248D01*
X659023Y176350D01*
X658512Y176677D01*
X658169Y177177D01*
X658048Y177772D01*
X658048Y190606D01*
X658159Y191178D01*
X658494Y191684D01*
X659590Y192780D01*
X660073Y193105D01*
X660668Y193226D01*
X661702Y193226D01*
X662251Y193124D01*
X662762Y192797D01*
X663105Y192296D01*
X663226Y191702D01*
X663226Y190730D01*
X665730Y188226D01*
X669270Y188226D01*
X670050Y189006D01*
X670533Y189331D01*
X671128Y189452D01*
X738106Y189452D01*
X738678Y189341D01*
X739184Y189006D01*
X750280Y177910D01*
X750605Y177427D01*
X750726Y176832D01*
X750726Y176274D01*
X750624Y175725D01*
X750297Y175214D01*
X749796Y174871D01*
X749202Y174750D01*
X687939Y174750D01*
X665410Y152220D01*
X664927Y151895D01*
X664332Y151774D01*
X663230Y151774D01*
X660650Y149194D01*
X660211Y148888D01*
G37*
G36*
X980297Y3029D02*
X980000Y3000D01*
X849090Y3000D01*
X848563Y3094D01*
X848047Y3413D01*
X847696Y3907D01*
X847566Y4500D01*
X847677Y5096D01*
X848012Y5602D01*
X850120Y7710D01*
X850603Y8035D01*
X851198Y8156D01*
X859188Y8156D01*
X864544Y13512D01*
X864544Y21088D01*
X859188Y26444D01*
X851612Y26444D01*
X846256Y21088D01*
X846256Y13098D01*
X846145Y12526D01*
X845810Y12020D01*
X841808Y8018D01*
X841325Y7693D01*
X840730Y7572D01*
X836883Y7572D01*
X836356Y7666D01*
X835840Y7985D01*
X835489Y8479D01*
X835359Y9072D01*
X835470Y9668D01*
X835805Y10174D01*
X839144Y13512D01*
X839144Y21088D01*
X833788Y26444D01*
X826934Y26444D01*
X826407Y26538D01*
X825891Y26857D01*
X825540Y27351D01*
X825410Y27944D01*
X825521Y28540D01*
X825856Y29046D01*
X829920Y33110D01*
X830403Y33435D01*
X830998Y33556D01*
X833788Y33556D01*
X839144Y38912D01*
X839144Y46488D01*
X833781Y51850D01*
X833475Y52289D01*
X833336Y52879D01*
X833437Y53477D01*
X833764Y53988D01*
X834264Y54331D01*
X834859Y54452D01*
X850541Y54452D01*
X851068Y54358D01*
X851584Y54039D01*
X851935Y53545D01*
X852065Y52952D01*
X851954Y52356D01*
X851619Y51850D01*
X846256Y46488D01*
X846256Y38912D01*
X851612Y33556D01*
X859188Y33556D01*
X861850Y36219D01*
X862289Y36525D01*
X862879Y36664D01*
X863477Y36563D01*
X863988Y36236D01*
X864331Y35736D01*
X864452Y35141D01*
X864452Y29337D01*
X871210Y22580D01*
X871535Y22097D01*
X871656Y21502D01*
X871656Y13512D01*
X877012Y8156D01*
X884588Y8156D01*
X889944Y13512D01*
X889944Y21088D01*
X884588Y26444D01*
X876598Y26444D01*
X876026Y26555D01*
X875520Y26890D01*
X870994Y31416D01*
X870669Y31899D01*
X870548Y32494D01*
X870548Y36341D01*
X870642Y36868D01*
X870961Y37384D01*
X871455Y37735D01*
X872048Y37865D01*
X872644Y37754D01*
X873150Y37419D01*
X877012Y33556D01*
X884588Y33556D01*
X889944Y38912D01*
X889944Y46488D01*
X884588Y51844D01*
X877012Y51844D01*
X873150Y47981D01*
X872711Y47675D01*
X872121Y47536D01*
X871523Y47637D01*
X871012Y47964D01*
X870669Y48464D01*
X870548Y49059D01*
X870548Y51263D01*
X861263Y60548D01*
X762692Y60548D01*
X762120Y60659D01*
X761614Y60994D01*
X754484Y68124D01*
X754178Y68563D01*
X754039Y69153D01*
X754140Y69751D01*
X754467Y70262D01*
X754967Y70605D01*
X755562Y70726D01*
X759270Y70726D01*
X761774Y73230D01*
X761774Y76770D01*
X760994Y77550D01*
X760669Y78033D01*
X760548Y78628D01*
X760548Y81263D01*
X727220Y114590D01*
X726895Y115073D01*
X726774Y115668D01*
X726774Y116770D01*
X724270Y119274D01*
X720730Y119274D01*
X718226Y116770D01*
X718226Y113230D01*
X720730Y110726D01*
X721832Y110726D01*
X722404Y110615D01*
X722910Y110280D01*
X753745Y79445D01*
X754061Y78984D01*
X754191Y78391D01*
X754080Y77795D01*
X753745Y77289D01*
X753226Y76770D01*
X753226Y73062D01*
X753132Y72535D01*
X752813Y72019D01*
X752319Y71668D01*
X751726Y71538D01*
X751130Y71649D01*
X750624Y71984D01*
X683018Y139590D01*
X682693Y140073D01*
X682572Y140668D01*
X682572Y141770D01*
X680068Y144274D01*
X679764Y144274D01*
X679237Y144368D01*
X678721Y144687D01*
X678370Y145181D01*
X678240Y145774D01*
X678351Y146370D01*
X678686Y146876D01*
X695446Y163636D01*
X695929Y163961D01*
X696524Y164082D01*
X721858Y164082D01*
X722385Y163988D01*
X722901Y163669D01*
X723252Y163175D01*
X723382Y162582D01*
X723271Y161986D01*
X723226Y161918D01*
X723226Y160700D01*
X723132Y160173D01*
X722813Y159657D01*
X722319Y159306D01*
X721726Y159176D01*
X721130Y159287D01*
X720624Y159622D01*
X719270Y160976D01*
X715730Y160976D01*
X713226Y158472D01*
X713226Y154932D01*
X714979Y153179D01*
X715295Y152718D01*
X715425Y152125D01*
X715314Y151529D01*
X714979Y151023D01*
X713226Y149270D01*
X713226Y145730D01*
X715730Y143226D01*
X716832Y143226D01*
X717404Y143115D01*
X717910Y142780D01*
X746237Y114452D01*
X754728Y114452D01*
X755255Y114358D01*
X755771Y114039D01*
X756122Y113545D01*
X756252Y112952D01*
X756141Y112356D01*
X755806Y111850D01*
X753226Y109270D01*
X753226Y105730D01*
X754006Y104950D01*
X754331Y104467D01*
X754452Y103872D01*
X754452Y97737D01*
X769610Y82580D01*
X769935Y82097D01*
X770056Y81502D01*
X770056Y73512D01*
X775412Y68156D01*
X782988Y68156D01*
X788344Y73512D01*
X788344Y81088D01*
X782988Y86444D01*
X774998Y86444D01*
X774426Y86555D01*
X773920Y86890D01*
X760994Y99816D01*
X760669Y100299D01*
X760548Y100894D01*
X760548Y103872D01*
X760659Y104444D01*
X760994Y104950D01*
X761774Y105730D01*
X761774Y109270D01*
X759194Y111850D01*
X758888Y112289D01*
X758748Y112879D01*
X758850Y113477D01*
X759177Y113988D01*
X759677Y114331D01*
X760272Y114452D01*
X774341Y114452D01*
X774868Y114358D01*
X775384Y114039D01*
X775735Y113545D01*
X775865Y112952D01*
X775754Y112356D01*
X775419Y111850D01*
X770056Y106488D01*
X770056Y98912D01*
X775412Y93556D01*
X782988Y93556D01*
X788344Y98912D01*
X788344Y106488D01*
X782981Y111850D01*
X782675Y112289D01*
X782536Y112879D01*
X782637Y113477D01*
X782964Y113988D01*
X783464Y114331D01*
X784059Y114452D01*
X799741Y114452D01*
X800268Y114358D01*
X800784Y114039D01*
X801135Y113545D01*
X801265Y112952D01*
X801154Y112356D01*
X800819Y111850D01*
X795456Y106488D01*
X795456Y98912D01*
X800812Y93556D01*
X808388Y93556D01*
X813744Y98912D01*
X813744Y106488D01*
X808381Y111850D01*
X808075Y112289D01*
X807936Y112879D01*
X808037Y113477D01*
X808364Y113988D01*
X808864Y114331D01*
X809459Y114452D01*
X825141Y114452D01*
X825668Y114358D01*
X826184Y114039D01*
X826535Y113545D01*
X826665Y112952D01*
X826554Y112356D01*
X826219Y111850D01*
X820856Y106488D01*
X820856Y98912D01*
X826212Y93556D01*
X833788Y93556D01*
X839144Y98912D01*
X839144Y106488D01*
X833781Y111850D01*
X833475Y112289D01*
X833336Y112879D01*
X833437Y113477D01*
X833764Y113988D01*
X834264Y114331D01*
X834859Y114452D01*
X850541Y114452D01*
X851068Y114358D01*
X851584Y114039D01*
X851935Y113545D01*
X852065Y112952D01*
X851954Y112356D01*
X851619Y111850D01*
X846256Y106488D01*
X846256Y98912D01*
X851612Y93556D01*
X859188Y93556D01*
X864544Y98912D01*
X864544Y106488D01*
X859181Y111850D01*
X858875Y112289D01*
X858736Y112879D01*
X858837Y113477D01*
X859164Y113988D01*
X859664Y114331D01*
X860259Y114452D01*
X875941Y114452D01*
X876468Y114358D01*
X876984Y114039D01*
X877335Y113545D01*
X877465Y112952D01*
X877354Y112356D01*
X877019Y111850D01*
X871656Y106488D01*
X871656Y98912D01*
X877012Y93556D01*
X884588Y93556D01*
X889944Y98912D01*
X889944Y106488D01*
X884581Y111850D01*
X884275Y112289D01*
X884136Y112879D01*
X884237Y113477D01*
X884564Y113988D01*
X885064Y114331D01*
X885659Y114452D01*
X890606Y114452D01*
X891178Y114341D01*
X891684Y114006D01*
X946506Y59184D01*
X946831Y58701D01*
X946952Y58106D01*
X946952Y46128D01*
X946841Y45556D01*
X946506Y45050D01*
X945726Y44270D01*
X945726Y40730D01*
X948230Y38226D01*
X951770Y38226D01*
X954274Y40730D01*
X954274Y44270D01*
X953494Y45050D01*
X953169Y45533D01*
X953048Y46128D01*
X953048Y61263D01*
X897460Y116850D01*
X897154Y117289D01*
X897015Y117879D01*
X897116Y118477D01*
X897443Y118988D01*
X897943Y119331D01*
X898538Y119452D01*
X928106Y119452D01*
X928678Y119341D01*
X929184Y119006D01*
X986506Y61684D01*
X986831Y61201D01*
X986952Y60606D01*
X986952Y31128D01*
X986841Y30556D01*
X986506Y30050D01*
X985726Y29270D01*
X985726Y25730D01*
X988230Y23226D01*
X991770Y23226D01*
X994398Y25854D01*
X994837Y26160D01*
X995427Y26300D01*
X996025Y26198D01*
X996536Y25871D01*
X996879Y25371D01*
X997000Y24776D01*
X997000Y20000D01*
X996971Y19703D01*
X995793Y13780D01*
X995565Y13231D01*
X992210Y8210D01*
X991790Y7790D01*
X986769Y4435D01*
X986220Y4207D01*
X980297Y3029D01*
G37*
%LPC*%
G36*
X877012Y68156D02*
X884588Y68156D01*
X889944Y73512D01*
X889944Y81088D01*
X884588Y86444D01*
X877012Y86444D01*
X871656Y81088D01*
X871656Y73512D01*
X877012Y68156D01*
G37*
G36*
X851612Y68156D02*
X859188Y68156D01*
X864544Y73512D01*
X864544Y81088D01*
X859188Y86444D01*
X851612Y86444D01*
X846256Y81088D01*
X846256Y73512D01*
X851612Y68156D01*
G37*
%LPD*%
G36*
X821201Y33169D02*
X820606Y33048D01*
X786159Y33048D01*
X785632Y33142D01*
X785116Y33461D01*
X784765Y33955D01*
X784635Y34548D01*
X784746Y35144D01*
X785081Y35650D01*
X788344Y38912D01*
X788344Y46488D01*
X782981Y51850D01*
X782675Y52289D01*
X782536Y52879D01*
X782637Y53477D01*
X782964Y53988D01*
X783464Y54331D01*
X784059Y54452D01*
X825141Y54452D01*
X825668Y54358D01*
X826184Y54039D01*
X826535Y53545D01*
X826665Y52952D01*
X826554Y52356D01*
X826219Y51850D01*
X820856Y46488D01*
X820856Y38912D01*
X822901Y36867D01*
X823217Y36406D01*
X823348Y35814D01*
X823236Y35218D01*
X822901Y34712D01*
X821684Y33494D01*
X821201Y33169D01*
G37*
G36*
X823712Y7693D02*
X823117Y7572D01*
X786083Y7572D01*
X785556Y7666D01*
X785040Y7985D01*
X784689Y8479D01*
X784559Y9072D01*
X784670Y9668D01*
X785005Y10174D01*
X788344Y13512D01*
X788344Y21088D01*
X785081Y24350D01*
X784775Y24789D01*
X784636Y25379D01*
X784737Y25977D01*
X785064Y26488D01*
X785564Y26831D01*
X786159Y26952D01*
X823041Y26952D01*
X823568Y26858D01*
X824084Y26539D01*
X824435Y26045D01*
X824565Y25452D01*
X824454Y24856D01*
X824119Y24350D01*
X820856Y21088D01*
X820856Y13512D01*
X824195Y10174D01*
X824501Y9735D01*
X824640Y9145D01*
X824539Y8547D01*
X824212Y8036D01*
X823712Y7693D01*
G37*
D10*
X779200Y77300D03*
X779200Y102700D03*
X804600Y77300D03*
X804600Y102700D03*
X830000Y77300D03*
X830000Y102700D03*
X855400Y77300D03*
X855400Y102700D03*
X880800Y77300D03*
X880800Y102700D03*
D11*
X477500Y140000D03*
D12*
X477500Y160000D03*
D13*
X970000Y47100D03*
D14*
X207620Y75400D02*
X192380Y75400D01*
X192380Y50000D02*
X207620Y50000D01*
X207620Y24600D02*
X192380Y24600D01*
X552380Y75400D02*
X567620Y75400D01*
X567620Y50000D02*
X552380Y50000D01*
X552380Y24600D02*
X567620Y24600D01*
D10*
X779200Y17300D03*
X779200Y42700D03*
X804600Y17300D03*
X804600Y42700D03*
X830000Y17300D03*
X830000Y42700D03*
X855400Y17300D03*
X855400Y42700D03*
X880800Y17300D03*
X880800Y42700D03*
D14*
X787620Y187300D02*
X772380Y187300D01*
X772380Y212700D02*
X787620Y212700D01*
D15*
X70000Y120000D03*
D16*
X70000Y95000D03*
D17*
X380000Y180000D03*
X390000Y180000D03*
X380000Y170000D03*
X390000Y170000D03*
X300000Y140000D03*
X310000Y140000D03*
X220000Y130000D03*
X220000Y140000D03*
X280000Y240000D03*
X430000Y160000D03*
X620000Y210000D03*
X620000Y240000D03*
X710000Y210000D03*
X750000Y240000D03*
X690000Y180000D03*
X590000Y200000D03*
X750000Y290000D03*
X930000Y270000D03*
X930000Y250000D03*
X930000Y290000D03*
X650000Y20000D03*
X680000Y90000D03*
X640000Y150000D03*
X640000Y190000D03*
X950000Y160000D03*
X930000Y160000D03*
X80000Y150000D03*
X40000Y30000D03*
X350000Y270000D03*
X480000Y180000D03*
X160000Y190000D03*
X96000Y204000D03*
X820000Y90000D03*
X840000Y30000D03*
X710000Y10000D03*
X730000Y10000D03*
X610000Y40000D03*
X220000Y250000D03*
X230000Y250000D03*
X220000Y240000D03*
X230000Y240000D03*
X220000Y260000D03*
X230000Y260000D03*
X230000Y270000D03*
X110000Y60000D03*
X110000Y30000D03*
X110000Y20000D03*
X97500Y222500D03*
D18*
X165904Y290904D01*
D17*
X641808Y230000D03*
D18*
X580904Y290904D02*
X165904Y290904D01*
X580904Y290904D02*
X641808Y230000D01*
D17*
X92500Y230000D03*
D18*
X157976Y295476D01*
D17*
X648832Y230000D03*
D18*
X648832Y231176D01*
X638306Y241702D01*
X637598Y241702D01*
X583824Y295476D02*
X157976Y295476D01*
X583824Y295476D02*
X637598Y241702D01*
D17*
X90000Y213000D03*
D18*
X90000Y214000D01*
X81000Y223000D01*
X81000Y241000D01*
X103000Y263000D01*
D17*
X103000Y263000D03*
X727500Y160000D03*
D18*
X768500Y160000D01*
X769000Y159500D01*
D17*
X769000Y159500D03*
X530000Y185000D03*
D18*
X423305Y242500D02*
X398305Y267500D01*
D17*
X398305Y267500D03*
D18*
X757500Y99000D02*
X779200Y77300D01*
X757500Y99000D02*
X757500Y107500D01*
D17*
X757500Y107500D03*
X675000Y172500D03*
D18*
X662500Y172500D01*
D17*
X662500Y172500D03*
D18*
X530000Y185000D02*
X497899Y217101D01*
X497899Y232946D01*
X488345Y242500D01*
X423305Y242500D01*
X560000Y50000D02*
X580000Y50000D01*
X590000Y60000D01*
X590000Y149500D01*
D17*
X590000Y149500D03*
X640000Y247500D03*
D18*
X652500Y260000D01*
X670500Y260000D01*
D17*
X670500Y260000D03*
X852500Y280000D03*
D18*
X850000Y277500D01*
X705000Y277500D01*
D17*
X705000Y277500D03*
X660000Y197500D03*
D18*
X655000Y192500D01*
X655000Y142500D01*
X767500Y30000D01*
X822500Y30000D01*
X830000Y37500D01*
X830000Y42700D01*
D17*
X650000Y197500D03*
D18*
X650000Y140000D01*
X765000Y25000D01*
X765000Y15000D01*
X775476Y4524D01*
X842624Y4524D01*
X855400Y17300D01*
X655000Y47500D02*
X637500Y65000D01*
D17*
X655000Y47500D03*
X636702Y110000D03*
D18*
X637500Y109202D01*
X637500Y65000D01*
D17*
X562500Y150000D03*
D18*
X562500Y110000D01*
X560000Y107500D01*
X560000Y75400D01*
D17*
X717500Y147500D03*
D18*
X747500Y117500D01*
X892500Y117500D01*
X950000Y60000D01*
X950000Y42500D01*
D17*
X950000Y42500D03*
X722500Y115000D03*
D18*
X757500Y80000D01*
X757500Y75000D01*
D17*
X757500Y75000D03*
X845000Y220000D03*
X666702Y140000D03*
D18*
X667500Y140000D01*
X694630Y167130D01*
X792130Y167130D01*
X845000Y220000D01*
D17*
X760000Y205000D03*
X787500Y230000D03*
D18*
X761712Y206712D02*
X760000Y205000D01*
X761712Y206712D02*
X761712Y217119D01*
X774593Y230000D01*
X787500Y230000D01*
D17*
X665000Y147500D03*
D18*
X802500Y185000D02*
X802500Y197500D01*
D17*
X802500Y197500D03*
D18*
X689202Y171702D02*
X665000Y147500D01*
X689202Y171702D02*
X789202Y171702D01*
X802500Y185000D01*
D17*
X440000Y170000D03*
D18*
X485263Y169548D02*
X487311Y167500D01*
X440452Y169548D02*
X440000Y170000D01*
X440452Y169548D02*
X485263Y169548D01*
D17*
X638298Y166702D03*
D18*
X637500Y167500D01*
X487311Y167500D01*
D17*
X680000Y255000D03*
D18*
X665000Y240000D01*
X665000Y227500D01*
D17*
X665000Y227500D03*
X667500Y192500D03*
D18*
X740000Y192500D01*
X755000Y177500D01*
D17*
X755000Y177500D03*
X874100Y266600D03*
D18*
X872500Y265000D01*
X743298Y265000D01*
D17*
X677402Y200896D03*
D18*
X679194Y200896D02*
X743298Y265000D01*
X679194Y200896D02*
X677402Y200896D01*
D17*
X690000Y255000D03*
D18*
X690000Y230000D01*
X682500Y222500D01*
D17*
X682500Y222500D03*
D18*
X860000Y57500D02*
X867500Y50000D01*
X867500Y30600D01*
X880800Y17300D01*
D17*
X678298Y140000D03*
D18*
X760798Y57500D01*
X860000Y57500D01*
D17*
X657500Y97500D03*
D18*
X647500Y107500D01*
X647500Y120000D01*
X610000Y157500D01*
D17*
X602500Y157130D03*
D18*
X602870Y157500D01*
X610000Y157500D01*
D17*
X670000Y102500D03*
D18*
X665000Y97500D01*
X665000Y92500D01*
X662500Y90000D01*
X655000Y90000D01*
X642500Y102500D01*
X642500Y117500D01*
X612500Y147500D01*
X602500Y147500D01*
X600000Y150000D01*
D17*
X600000Y150000D03*
X517500Y182500D03*
X510000Y245000D03*
D18*
X510000Y277500D01*
X507500Y280000D01*
D17*
X507500Y280000D03*
X492101Y230544D03*
D18*
X492101Y207899D02*
X517500Y182500D01*
X492101Y207899D02*
X492101Y230544D01*
D17*
X435000Y92500D03*
D18*
X445000Y82500D01*
X510000Y82500D01*
D17*
X510000Y82500D03*
X542500Y185000D03*
D18*
X504202Y223298D01*
D17*
X504202Y270798D03*
D18*
X504202Y223298D01*
X752500Y122500D02*
X930000Y122500D01*
X990000Y62500D01*
X990000Y27500D01*
D17*
X990000Y27500D03*
X717500Y156702D03*
D18*
X718298Y156702D01*
X752500Y122500D01*
D17*
X310000Y220000D03*
D18*
X327500Y220000D01*
D17*
X327500Y220000D03*
X267500Y210000D03*
X327500Y210000D03*
D18*
X291800Y210000D02*
X267500Y210000D01*
X291800Y210000D02*
X292598Y209202D01*
X297402Y209202D01*
X298200Y210000D01*
X327500Y210000D01*
D17*
X292500Y192500D03*
D18*
X397500Y192500D01*
X407500Y202500D01*
D17*
X407500Y202500D03*
X280000Y270235D03*
X270000Y100000D03*
D18*
X261702Y251937D02*
X280000Y270235D01*
X261702Y251937D02*
X261702Y108298D01*
X270000Y100000D01*
D17*
X250000Y270235D03*
D18*
X250000Y265000D01*
D17*
X262500Y80000D03*
D18*
X257130Y257870D02*
X250000Y265000D01*
X257130Y257870D02*
X257130Y85370D01*
X262500Y80000D01*
D17*
X275000Y167500D03*
D18*
X275000Y185000D01*
X292500Y202500D01*
D17*
X292500Y202500D03*
X295000Y215000D03*
D18*
X285000Y225000D01*
X285000Y227500D01*
D17*
X285000Y227500D03*
X565000Y255000D03*
D18*
X530000Y255000D01*
X525000Y250000D01*
D17*
X525000Y250000D03*
M02*
