G04 EAGLE Gerber RS-274X export*
G75*
%MOMM*%
%FSLAX34Y34*%
%LPD*%
%IN*%
%IPPOS*%
%AMOC8*
5,1,8,0,0,1.08239X$1,22.5*%
G01*
G04 Define Apertures*
%ADD10C,0.254000*%
D10*
X0Y20000D02*
X76Y18257D01*
X304Y16527D01*
X681Y14824D01*
X1206Y13160D01*
X1874Y11548D01*
X2680Y10000D01*
X3617Y8528D01*
X4679Y7144D01*
X5858Y5858D01*
X7144Y4679D01*
X8528Y3617D01*
X10000Y2680D01*
X11548Y1874D01*
X13160Y1206D01*
X14824Y681D01*
X16527Y304D01*
X18257Y76D01*
X20000Y0D01*
X980000Y0D01*
X981743Y76D01*
X983473Y304D01*
X985176Y681D01*
X986840Y1206D01*
X988452Y1874D01*
X990000Y2680D01*
X991472Y3617D01*
X992856Y4679D01*
X994142Y5858D01*
X995321Y7144D01*
X996383Y8528D01*
X997321Y10000D01*
X998126Y11548D01*
X998794Y13160D01*
X999319Y14824D01*
X999696Y16527D01*
X999924Y18257D01*
X1000000Y20000D01*
X1000000Y280000D01*
X999924Y281743D01*
X999696Y283473D01*
X999319Y285176D01*
X998794Y286840D01*
X998126Y288452D01*
X997321Y290000D01*
X996383Y291472D01*
X995321Y292856D01*
X994142Y294142D01*
X992856Y295321D01*
X991472Y296383D01*
X990000Y297321D01*
X988452Y298126D01*
X986840Y298794D01*
X985176Y299319D01*
X983473Y299696D01*
X981743Y299924D01*
X980000Y300000D01*
X20000Y300000D01*
X18257Y299924D01*
X16527Y299696D01*
X14824Y299319D01*
X13160Y298794D01*
X11548Y298126D01*
X10000Y297321D01*
X8528Y296383D01*
X7144Y295321D01*
X5858Y294142D01*
X4679Y292856D01*
X3617Y291472D01*
X2680Y290000D01*
X1874Y288452D01*
X1206Y286840D01*
X681Y285176D01*
X304Y283473D01*
X76Y281743D01*
X0Y280000D01*
X0Y20000D01*
M02*
