G04 EAGLE Gerber RS-274X export*
G75*
%MOMM*%
%FSLAX34Y34*%
%LPD*%
%INSilkscreen Bottom*%
%IPPOS*%
%AMOC8*
5,1,8,0,0,1.08239X$1,22.5*%
G01*
G04 Define Apertures*
%ADD10R,18.883700X0.162788*%
%ADD11R,18.883700X0.162800*%
%ADD12R,7.976700X0.162788*%
%ADD13R,5.860500X0.162788*%
%ADD14R,4.232600X0.162788*%
%ADD15R,1.302300X0.162788*%
%ADD16R,0.488400X0.162788*%
%ADD17R,0.162800X0.162788*%
%ADD18R,0.651100X0.162788*%
%ADD19R,0.976700X0.162788*%
%ADD20R,0.325500X0.162788*%
%ADD21R,1.139600X0.162788*%
%ADD22R,1.465100X0.162788*%
%ADD23R,0.813900X0.162788*%
%ADD24R,0.162700X0.162788*%
%ADD25R,0.325600X0.162788*%
%ADD26R,0.976800X0.162788*%
%ADD27R,1.139500X0.162788*%
%ADD28R,0.488300X0.162788*%
%ADD29R,0.651200X0.162788*%
%ADD30R,1.302300X0.162800*%
%ADD31R,0.325500X0.162800*%
%ADD32R,1.139500X0.162800*%
%ADD33R,0.325600X0.162800*%
%ADD34R,0.162800X0.162800*%
%ADD35R,0.488400X0.162800*%
%ADD36R,1.139600X0.162800*%
%ADD37R,0.976800X0.162800*%
%ADD38R,0.488300X0.162800*%
%ADD39R,0.813900X0.162800*%
%ADD40R,1.465100X0.162800*%
%ADD41R,18.720900X0.162788*%
D10*
X114070Y294186D03*
X114070Y292558D03*
X114070Y290930D03*
X114070Y289302D03*
X114070Y287674D03*
X114070Y286047D03*
X114070Y284419D03*
D11*
X114070Y282791D03*
D10*
X114070Y281163D03*
X114070Y279535D03*
X114070Y277907D03*
X114070Y276279D03*
D12*
X168605Y274651D03*
D13*
X96163Y274651D03*
D14*
X40814Y274651D03*
D15*
X201977Y273023D03*
D16*
X184884Y273023D03*
D17*
X175116Y273023D03*
D18*
X154768Y273023D03*
D19*
X138489Y273023D03*
D20*
X118954Y273023D03*
D17*
X98605Y273023D03*
D21*
X77442Y273023D03*
D16*
X56279Y273023D03*
X43256Y273023D03*
D22*
X26977Y273023D03*
D15*
X201977Y271395D03*
D16*
X184884Y271395D03*
D17*
X175116Y271395D03*
D18*
X154768Y271395D03*
D23*
X139303Y271395D03*
D24*
X118140Y271395D03*
D17*
X98605Y271395D03*
D21*
X77442Y271395D03*
D25*
X55465Y271395D03*
D16*
X43256Y271395D03*
D22*
X26977Y271395D03*
D15*
X201977Y269767D03*
D25*
X184070Y269767D03*
D17*
X175116Y269767D03*
D18*
X154768Y269767D03*
D16*
X139302Y269767D03*
D24*
X118140Y269767D03*
D17*
X98605Y269767D03*
D26*
X78256Y269767D03*
D25*
X53837Y269767D03*
X42442Y269767D03*
D22*
X26977Y269767D03*
D15*
X201977Y268140D03*
D25*
X184070Y268140D03*
D27*
X170233Y268140D03*
D28*
X155582Y268140D03*
D16*
X139302Y268140D03*
X127907Y268140D03*
D15*
X112442Y268140D03*
D26*
X94535Y268140D03*
X78256Y268140D03*
D28*
X64419Y268140D03*
D16*
X53023Y268140D03*
D25*
X42442Y268140D03*
D22*
X26977Y268140D03*
D15*
X201977Y266512D03*
D17*
X183256Y266512D03*
D27*
X170233Y266512D03*
D28*
X155582Y266512D03*
D16*
X139302Y266512D03*
X127907Y266512D03*
D21*
X111628Y266512D03*
D26*
X94535Y266512D03*
X78256Y266512D03*
D28*
X64419Y266512D03*
D16*
X53023Y266512D03*
D22*
X26977Y266512D03*
D15*
X201977Y264884D03*
D17*
X183256Y264884D03*
X175116Y264884D03*
D28*
X155582Y264884D03*
D25*
X138488Y264884D03*
D16*
X127907Y264884D03*
D20*
X117326Y264884D03*
D26*
X94535Y264884D03*
X78256Y264884D03*
D28*
X64419Y264884D03*
D29*
X52209Y264884D03*
D22*
X26977Y264884D03*
D15*
X201977Y263256D03*
D17*
X175116Y263256D03*
D25*
X156395Y263256D03*
D17*
X147442Y263256D03*
D25*
X138488Y263256D03*
D16*
X127907Y263256D03*
D20*
X117326Y263256D03*
D26*
X94535Y263256D03*
X78256Y263256D03*
D28*
X64419Y263256D03*
D23*
X51396Y263256D03*
D22*
X26977Y263256D03*
D15*
X201977Y261628D03*
D24*
X188140Y261628D03*
D17*
X175116Y261628D03*
D25*
X156395Y261628D03*
D17*
X147442Y261628D03*
D25*
X138488Y261628D03*
D16*
X127907Y261628D03*
D17*
X116512Y261628D03*
D26*
X94535Y261628D03*
X78256Y261628D03*
D28*
X64419Y261628D03*
D23*
X51396Y261628D03*
D22*
X26977Y261628D03*
D30*
X201977Y260000D03*
D31*
X187326Y260000D03*
D32*
X170233Y260000D03*
D33*
X156395Y260000D03*
D34*
X147442Y260000D03*
D33*
X138488Y260000D03*
D35*
X127907Y260000D03*
D36*
X111628Y260000D03*
D37*
X94535Y260000D03*
X78256Y260000D03*
D38*
X64419Y260000D03*
D39*
X51396Y260000D03*
D40*
X26977Y260000D03*
D15*
X201977Y258372D03*
D20*
X187326Y258372D03*
D17*
X175116Y258372D03*
X157209Y258372D03*
D16*
X147442Y258372D03*
D17*
X137674Y258372D03*
D16*
X127907Y258372D03*
D20*
X117326Y258372D03*
D26*
X94535Y258372D03*
X78256Y258372D03*
D28*
X64419Y258372D03*
D29*
X52209Y258372D03*
D17*
X41628Y258372D03*
D22*
X26977Y258372D03*
D15*
X201977Y256744D03*
D20*
X187326Y256744D03*
D17*
X175116Y256744D03*
X157209Y256744D03*
D16*
X147442Y256744D03*
D17*
X137674Y256744D03*
D16*
X127907Y256744D03*
D24*
X118140Y256744D03*
D26*
X94535Y256744D03*
X78256Y256744D03*
D28*
X64419Y256744D03*
D16*
X53023Y256744D03*
D17*
X41628Y256744D03*
D22*
X26977Y256744D03*
D15*
X201977Y255116D03*
D28*
X186512Y255116D03*
D17*
X175116Y255116D03*
X157209Y255116D03*
D16*
X147442Y255116D03*
D17*
X137674Y255116D03*
D16*
X127907Y255116D03*
D20*
X117326Y255116D03*
D26*
X94535Y255116D03*
X78256Y255116D03*
D28*
X64419Y255116D03*
D25*
X53837Y255116D03*
X42442Y255116D03*
D22*
X26977Y255116D03*
X201163Y253488D03*
D18*
X185698Y253488D03*
D17*
X175116Y253488D03*
X157209Y253488D03*
D29*
X146628Y253488D03*
D17*
X137674Y253488D03*
D29*
X127093Y253488D03*
D20*
X117326Y253488D03*
D26*
X94535Y253488D03*
X78256Y253488D03*
D28*
X64419Y253488D03*
D17*
X54651Y253488D03*
D16*
X43256Y253488D03*
D22*
X26977Y253488D03*
D10*
X114070Y251860D03*
X114070Y250233D03*
X114070Y248605D03*
X114070Y246977D03*
X114070Y245349D03*
X114070Y243721D03*
X114070Y242093D03*
X114070Y240465D03*
X114070Y238837D03*
D11*
X114070Y237209D03*
D10*
X114070Y235581D03*
X114070Y233953D03*
D41*
X114884Y232326D03*
M02*
