G04 EAGLE Gerber RS-274X export*
G75*
%MOMM*%
%FSLAX34Y34*%
%LPD*%
%INSoldermask Bottom*%
%IPPOS*%
%AMOC8*
5,1,8,0,0,1.08239X$1,22.5*%
G01*
G04 Define Apertures*
%ADD10C,0.751600*%
%ADD11P,1.75953X8X22.5*%
%ADD12C,1.401600*%
%ADD13R,1.401600X1.401600*%
%ADD14C,1.726600*%
%ADD15C,1.625600*%
%ADD16R,1.451600X1.451600*%
%ADD17C,1.451600*%
D10*
X66030Y258900D03*
X66030Y201100D03*
D11*
X779200Y77300D03*
X779200Y102700D03*
X804600Y77300D03*
X804600Y102700D03*
X830000Y77300D03*
X830000Y102700D03*
X855400Y77300D03*
X855400Y102700D03*
X880800Y77300D03*
X880800Y102700D03*
D12*
X477500Y140000D03*
D13*
X477500Y160000D03*
D14*
X970000Y47100D03*
D15*
X207620Y75400D02*
X192380Y75400D01*
X192380Y50000D02*
X207620Y50000D01*
X207620Y24600D02*
X192380Y24600D01*
X552380Y75400D02*
X567620Y75400D01*
X567620Y50000D02*
X552380Y50000D01*
X552380Y24600D02*
X567620Y24600D01*
D11*
X779200Y17300D03*
X779200Y42700D03*
X804600Y17300D03*
X804600Y42700D03*
X830000Y17300D03*
X830000Y42700D03*
X855400Y17300D03*
X855400Y42700D03*
X880800Y17300D03*
X880800Y42700D03*
D15*
X787620Y187300D02*
X772380Y187300D01*
X772380Y212700D02*
X787620Y212700D01*
D16*
X70000Y120000D03*
D17*
X70000Y95000D03*
M02*
