G04 EAGLE Gerber RS-274X export*
G75*
%MOMM*%
%FSLAX34Y34*%
%LPD*%
%INSolderpaste Top*%
%IPPOS*%
%AMOC8*
5,1,8,0,0,1.08239X$1,22.5*%
G01*
G04 Define Apertures*
%ADD10R,1.150000X0.300000*%
%ADD11R,2.000000X2.180000*%
%ADD12R,1.500000X1.300000*%
%ADD13R,1.400000X0.600000*%
%ADD14R,1.300000X1.500000*%
%ADD15C,0.139500*%
%ADD16C,0.196500*%
%ADD17R,1.150000X0.800000*%
%ADD18R,0.650000X1.100000*%
%ADD19R,1.500000X1.500000*%
%ADD20R,1.700000X1.000000*%
%ADD21R,1.900000X1.300000*%
%ADD22R,0.300000X1.475000*%
%ADD23R,1.475000X0.300000*%
%ADD24R,3.000000X1.400000*%
%ADD25R,0.500000X0.600000*%
%ADD26R,1.580000X0.580000*%
%ADD27R,0.500000X0.500000*%
%ADD28R,0.450000X1.475000*%
%ADD29R,1.190000X2.790000*%
%ADD30R,0.600000X0.522000*%
%ADD31R,1.465300X1.164600*%
%ADD32R,1.164600X1.465300*%
%ADD33R,1.420200X1.031200*%
%ADD34R,1.031200X1.420200*%
%ADD35R,1.825000X0.700000*%
%ADD36R,5.500000X1.000000*%
%ADD37R,3.000000X1.600000*%
%ADD38R,0.650000X0.700000*%
D10*
X76780Y263500D03*
X76780Y255500D03*
X76780Y242500D03*
X76780Y232500D03*
X76780Y227500D03*
X76780Y217500D03*
X76780Y204500D03*
X76780Y196500D03*
X76780Y199500D03*
X76780Y207500D03*
X76780Y212500D03*
X76780Y222500D03*
X76780Y237500D03*
X76780Y247500D03*
X76780Y252500D03*
X76780Y260500D03*
D11*
X31730Y281100D03*
X31730Y178900D03*
X71030Y281100D03*
X71030Y178900D03*
D12*
X110000Y229500D03*
X110000Y210500D03*
X110000Y270500D03*
X110000Y289500D03*
D13*
X122500Y30500D03*
X122500Y40000D03*
X122500Y49500D03*
X97500Y49500D03*
X97500Y30500D03*
D14*
X150500Y50000D03*
X169500Y50000D03*
D12*
X140000Y270500D03*
X140000Y289500D03*
D15*
X181053Y222403D02*
X181053Y210697D01*
X173147Y210697D01*
X173147Y222403D01*
X181053Y222403D01*
X181053Y212022D02*
X173147Y212022D01*
X173147Y213347D02*
X181053Y213347D01*
X181053Y214672D02*
X173147Y214672D01*
X173147Y215997D02*
X181053Y215997D01*
X181053Y217322D02*
X173147Y217322D01*
X173147Y218647D02*
X181053Y218647D01*
X181053Y219972D02*
X173147Y219972D01*
X173147Y221297D02*
X181053Y221297D01*
X203953Y222403D02*
X203953Y210697D01*
X196047Y210697D01*
X196047Y222403D01*
X203953Y222403D01*
X203953Y212022D02*
X196047Y212022D01*
X196047Y213347D02*
X203953Y213347D01*
X203953Y214672D02*
X196047Y214672D01*
X196047Y215997D02*
X203953Y215997D01*
X203953Y217322D02*
X196047Y217322D01*
X196047Y218647D02*
X203953Y218647D01*
X203953Y219972D02*
X196047Y219972D01*
X196047Y221297D02*
X203953Y221297D01*
X226853Y222403D02*
X226853Y210697D01*
X218947Y210697D01*
X218947Y222403D01*
X226853Y222403D01*
X226853Y212022D02*
X218947Y212022D01*
X218947Y213347D02*
X226853Y213347D01*
X226853Y214672D02*
X218947Y214672D01*
X218947Y215997D02*
X226853Y215997D01*
X226853Y217322D02*
X218947Y217322D01*
X218947Y218647D02*
X226853Y218647D01*
X226853Y219972D02*
X218947Y219972D01*
X218947Y221297D02*
X226853Y221297D01*
D16*
X215218Y277882D02*
X215218Y289018D01*
X215218Y277882D02*
X184782Y277882D01*
X184782Y289018D01*
X215218Y289018D01*
X215218Y279749D02*
X184782Y279749D01*
X184782Y281616D02*
X215218Y281616D01*
X215218Y283483D02*
X184782Y283483D01*
X184782Y285350D02*
X215218Y285350D01*
X215218Y287217D02*
X184782Y287217D01*
D14*
X199500Y110000D03*
X180500Y110000D03*
D17*
X147500Y90000D03*
X112500Y90000D03*
D18*
X120400Y129500D03*
X139600Y129500D03*
X130000Y150500D03*
D14*
X139500Y180000D03*
X120500Y180000D03*
D19*
X20000Y22500D03*
X20000Y57500D03*
D14*
X69500Y50000D03*
X50500Y50000D03*
X50500Y20000D03*
X69500Y20000D03*
D20*
X718500Y289000D03*
X781500Y289000D03*
X718500Y251000D03*
X781500Y251000D03*
D12*
X660000Y289500D03*
X660000Y270500D03*
D21*
X704000Y77500D03*
X704000Y22500D03*
X736000Y22500D03*
X736000Y77500D03*
D22*
X632500Y127620D03*
X637500Y127620D03*
X642500Y127620D03*
X647500Y127620D03*
X652500Y127620D03*
X657500Y127620D03*
X662500Y127620D03*
X667500Y127620D03*
X672500Y127620D03*
X677500Y127620D03*
X682500Y127620D03*
X687500Y127620D03*
D23*
X702380Y142500D03*
X702380Y147500D03*
X702380Y152500D03*
X702380Y157500D03*
X702380Y162500D03*
X702380Y167500D03*
X702380Y172500D03*
X702380Y177500D03*
X702380Y182500D03*
X702380Y187500D03*
X702380Y192500D03*
X702380Y197500D03*
D22*
X687500Y212380D03*
X682500Y212380D03*
X677500Y212380D03*
X672500Y212380D03*
X667500Y212380D03*
X662500Y212380D03*
X657500Y212380D03*
X652500Y212380D03*
X647500Y212380D03*
X642500Y212380D03*
X637500Y212380D03*
X632500Y212380D03*
D23*
X617620Y197500D03*
X617620Y192500D03*
X617620Y187500D03*
X617620Y182500D03*
X617620Y177500D03*
X617620Y172500D03*
X617620Y167500D03*
X617620Y162500D03*
X617620Y157500D03*
X617620Y152500D03*
X617620Y147500D03*
X617620Y142500D03*
D12*
X580000Y189500D03*
X580000Y170500D03*
X670000Y29500D03*
X670000Y10500D03*
X670000Y60500D03*
X670000Y79500D03*
X580000Y139500D03*
X580000Y120500D03*
X790000Y159500D03*
X790000Y140500D03*
D24*
X823000Y280000D03*
X823000Y260000D03*
X823000Y240000D03*
X823000Y220000D03*
X823000Y200000D03*
X823000Y180000D03*
X823000Y160000D03*
X823000Y140000D03*
X977000Y140000D03*
X977000Y160000D03*
X977000Y180000D03*
X977000Y200000D03*
X977000Y220000D03*
X977000Y240000D03*
X977000Y260000D03*
X977000Y280000D03*
D25*
X980000Y100000D03*
D26*
X970000Y109600D03*
D27*
X960000Y100000D03*
D26*
X970000Y90400D03*
D12*
X930000Y90500D03*
X930000Y109500D03*
D14*
X519500Y20000D03*
X500500Y20000D03*
D12*
X440000Y50500D03*
X440000Y69500D03*
D14*
X459500Y20000D03*
X440500Y20000D03*
D12*
X480000Y50500D03*
X480000Y69500D03*
X510000Y50500D03*
X510000Y69500D03*
D28*
X510500Y170620D03*
X517000Y170620D03*
X523500Y170620D03*
X530000Y170620D03*
X536500Y170620D03*
X543000Y170620D03*
X549500Y170620D03*
X549500Y229380D03*
X543000Y229380D03*
X536500Y229380D03*
X530000Y229380D03*
X523500Y229380D03*
X517000Y229380D03*
X510500Y229380D03*
D29*
X354600Y35850D03*
X380000Y84150D03*
X405400Y35850D03*
D14*
X469500Y100000D03*
X450500Y100000D03*
X520500Y280000D03*
X539500Y280000D03*
D12*
X490000Y279500D03*
X490000Y260500D03*
X570000Y289500D03*
X570000Y270500D03*
X595000Y239500D03*
X595000Y220500D03*
X460000Y260500D03*
X460000Y279500D03*
D14*
X529500Y100000D03*
X510500Y100000D03*
X529500Y140000D03*
X510500Y140000D03*
D12*
X630000Y289500D03*
X630000Y270500D03*
X600000Y289500D03*
X600000Y270500D03*
D30*
X979000Y26360D03*
X979000Y34580D03*
X961000Y34580D03*
X961000Y26360D03*
X970000Y26360D03*
D14*
X929500Y20000D03*
X910500Y20000D03*
X929500Y50000D03*
X910500Y50000D03*
D31*
X280000Y191246D03*
X280000Y208754D03*
D32*
X268754Y240000D03*
X251246Y240000D03*
D31*
X250000Y208754D03*
X250000Y191246D03*
D32*
X371246Y280000D03*
X388754Y280000D03*
X451246Y200000D03*
X468754Y200000D03*
X358754Y130000D03*
X341246Y130000D03*
D31*
X390000Y138754D03*
X390000Y121246D03*
D33*
X280000Y279195D03*
X280000Y260805D03*
X250000Y279195D03*
X250000Y260805D03*
D34*
X429195Y280000D03*
X410805Y280000D03*
X469195Y220000D03*
X450805Y220000D03*
D33*
X320000Y169195D03*
X320000Y150805D03*
X420000Y139195D03*
X420000Y120805D03*
D34*
X240805Y160000D03*
X259195Y160000D03*
D33*
X330000Y230805D03*
X330000Y249195D03*
X300000Y230805D03*
X300000Y249195D03*
X290000Y169195D03*
X290000Y150805D03*
D35*
X354380Y248100D03*
X354380Y235400D03*
X354380Y222700D03*
X354380Y210000D03*
X354380Y197300D03*
X354380Y184600D03*
X354380Y171900D03*
X425620Y171900D03*
X425620Y184600D03*
X425620Y197300D03*
X425620Y210000D03*
X425620Y222700D03*
X425620Y235400D03*
X425620Y248100D03*
D36*
X267500Y90000D03*
X267500Y70000D03*
X267500Y50000D03*
D37*
X290000Y114000D03*
X290000Y26000D03*
D14*
X329500Y280000D03*
X310500Y280000D03*
X610500Y90000D03*
X629500Y90000D03*
X610500Y60000D03*
X629500Y60000D03*
D12*
X690000Y270500D03*
X690000Y289500D03*
D14*
X670500Y240000D03*
X689500Y240000D03*
D38*
X756750Y120000D03*
X743250Y120000D03*
D14*
X629500Y20000D03*
X610500Y20000D03*
D19*
X740000Y217500D03*
X740000Y182500D03*
D14*
X740500Y150000D03*
X759500Y150000D03*
X199500Y140000D03*
X180500Y140000D03*
X199500Y190000D03*
X180500Y190000D03*
D12*
X140000Y229500D03*
X140000Y210500D03*
D14*
X150500Y20000D03*
X169500Y20000D03*
D12*
X568899Y239101D03*
X568899Y220101D03*
X490000Y195500D03*
X490000Y214500D03*
M02*
